<svg xmlns="http://www.w3.org/2000/svg" viewBox="0 0 100 100">
  <!-- Blib: electric blue with lightning markings -->
  <!-- Body -->
  <circle cx="50" cy="55" r="40" fill="#1565C0"/>
  <!-- Lightning bolt markings on body -->
  <path d="M28 44 L36 32 L32 46 L40 34 L36 48" stroke="#FFD93D" stroke-width="2" fill="none" stroke-linecap="round" stroke-linejoin="round"/>
  <path d="M60 44 L68 32 L64 46 L72 34 L68 48" stroke="#FFD93D" stroke-width="2" fill="none" stroke-linecap="round" stroke-linejoin="round"/>
  <!-- Angular lightning-bolt-shaped eyes -->
  <path d="M27 44 L34 36 L38 40 L31 48 Z" fill="#FFD93D"/>
  <path d="M62 44 L69 36 L73 40 L66 48 Z" fill="#FFD93D"/>
  <path d="M29 44 L34 38 L37 40 L32 46 Z" fill="#222"/>
  <path d="M64 44 L69 38 L72 40 L67 46 Z" fill="#222"/>
  <!-- Jagged smile -->
  <path d="M30 68 L36 62 L42 68 L50 62 L58 68 L64 62 L70 68" stroke="#FFD93D" stroke-width="2.5" fill="none" stroke-linecap="round" stroke-linejoin="round"/>
</svg>
