<svg xmlns="http://www.w3.org/2000/svg" viewBox="0 0 100 100">
  <!-- Drax: red demon with wings + fangs -->
  <!-- Wings -->
  <path d="M8 76 Q14 48 26 58" fill="#a93226"/>
  <path d="M92 76 Q86 48 74 58" fill="#a93226"/>
  <!-- Devil horns -->
  <path d="M30 30 L22 8 L40 27 Z" fill="#c0392b"/>
  <path d="M70 30 L78 8 L60 27 Z" fill="#c0392b"/>
  <!-- Body -->
  <circle cx="50" cy="58" r="38" fill="#E74C3C"/>
  <!-- Glowing yellow eyes -->
  <circle cx="36" cy="52" r="11" fill="#FFD700"/>
  <circle cx="64" cy="52" r="11" fill="#FFD700"/>
  <circle cx="36" cy="52" r="6" fill="#222"/>
  <circle cx="64" cy="52" r="6" fill="#222"/>
  <circle cx="38" cy="49" r="2.5" fill="white"/>
  <circle cx="66" cy="49" r="2.5" fill="white"/>
  <!-- Fanged grin -->
  <path d="M28 70 Q50 85 72 70" fill="#a93226"/>
  <path d="M28 70 Q50 78 72 70" fill="white"/>
  <line x1="37" y1="75" x2="37" y2="69" stroke="#a93226" stroke-width="3" stroke-linecap="round"/>
  <line x1="47" y1="77" x2="47" y2="70" stroke="#a93226" stroke-width="3" stroke-linecap="round"/>
  <line x1="53" y1="77" x2="53" y2="70" stroke="#a93226" stroke-width="3" stroke-linecap="round"/>
  <line x1="63" y1="75" x2="63" y2="69" stroke="#a93226" stroke-width="3" stroke-linecap="round"/>
</svg>
