<svg xmlns="http://www.w3.org/2000/svg" viewBox="0 0 100 100">
  <!-- Fuzz: warm brown fuzzy monster -->
  <!-- Fur spikes all around -->
  <path d="M50 10 L46 2 L44 12 L38 4 L38 14 L30 8 L32 18 L22 14 L26 24 L16 22 L22 32 L12 32 L18 40 L10 44 L18 48 L12 56 L20 58 L16 66 L24 66 L22 74 L30 72 L30 80 L38 76 L40 84 L48 80 L50 88 L52 80 L60 84 L62 76 L70 80 L70 72 L78 74 L76 66 L84 66 L80 58 L88 56 L82 48 L90 44 L82 40 L88 32 L78 32 L84 22 L74 24 L78 14 L68 18 L70 8 L62 14 L64 4 L56 12 L54 2 Z" fill="#7D5A3C"/>
  <!-- Body -->
  <circle cx="50" cy="54" r="35" fill="#A0714A"/>
  <!-- Small beady eyes peeking through fur -->
  <circle cx="36" cy="48" r="8" fill="#7D5A3C"/>
  <circle cx="64" cy="48" r="8" fill="#7D5A3C"/>
  <circle cx="36" cy="48" r="5" fill="white"/>
  <circle cx="64" cy="48" r="5" fill="white"/>
  <circle cx="36" cy="48" r="3" fill="#222"/>
  <circle cx="64" cy="48" r="3" fill="#222"/>
  <!-- Wide smile -->
  <path d="M32 66 Q50 78 68 66" stroke="#5c3a1e" stroke-width="3" fill="none" stroke-linecap="round"/>
</svg>
