<svg xmlns="http://www.w3.org/2000/svg" viewBox="0 0 100 100">
  <!-- Krix: silver-gray with three eyes and pointy teeth -->
  <!-- Head bumps -->
  <circle cx="32" cy="20" r="8" fill="#8a9ab0"/>
  <circle cx="50" cy="16" r="8" fill="#8a9ab0"/>
  <circle cx="68" cy="20" r="8" fill="#8a9ab0"/>
  <!-- Body -->
  <circle cx="50" cy="57" r="40" fill="#A8B8CC"/>
  <!-- Three eyes: two top, one center-bottom -->
  <circle cx="34" cy="46" r="9" fill="white"/>
  <circle cx="66" cy="46" r="9" fill="white"/>
  <circle cx="50" cy="60" r="9" fill="white"/>
  <circle cx="34" cy="46" r="5" fill="#222"/>
  <circle cx="66" cy="46" r="5" fill="#222"/>
  <circle cx="50" cy="60" r="5" fill="#222"/>
  <circle cx="36" cy="44" r="2" fill="white"/>
  <circle cx="68" cy="44" r="2" fill="white"/>
  <circle cx="52" cy="58" r="2" fill="white"/>
  <!-- Pointy teeth grin -->
  <path d="M30 76 Q50 88 70 76" fill="#7a8a9e"/>
  <path d="M30 76 Q50 82 70 76" fill="white"/>
  <path d="M38 78 L38 73 L42 78 L46 73 L50 78 L54 73 L58 78 L62 73 L62 78" stroke="#7a8a9e" stroke-width="1.5" fill="none" stroke-linejoin="round"/>
</svg>
