<svg xmlns="http://www.w3.org/2000/svg" viewBox="0 0 100 100">
  <!-- Mimi: pink with flower + lashes -->
  <!-- Flower petals -->
  <circle cx="50" cy="8" r="7" fill="#ffb3e0"/>
  <circle cx="61" cy="12" r="7" fill="#ffb3e0"/>
  <circle cx="39" cy="12" r="7" fill="#ffb3e0"/>
  <circle cx="56" cy="20" r="7" fill="#ffb3e0"/>
  <circle cx="44" cy="20" r="7" fill="#ffb3e0"/>
  <!-- Flower centre -->
  <circle cx="50" cy="14" r="8" fill="#FFD93D"/>
  <!-- Body -->
  <circle cx="50" cy="58" r="40" fill="#EC407A"/>
  <!-- Eyes -->
  <circle cx="36" cy="52" r="11" fill="white"/>
  <circle cx="64" cy="52" r="11" fill="white"/>
  <circle cx="36" cy="52" r="7" fill="#222"/>
  <circle cx="64" cy="52" r="7" fill="#222"/>
  <!-- Lashes -->
  <line x1="28" y1="43" x2="24" y2="37" stroke="#222" stroke-width="2" stroke-linecap="round"/>
  <line x1="33" y1="41" x2="30" y2="35" stroke="#222" stroke-width="2" stroke-linecap="round"/>
  <line x1="56" y1="41" x2="53" y2="35" stroke="#222" stroke-width="2" stroke-linecap="round"/>
  <line x1="61" y1="43" x2="58" y2="37" stroke="#222" stroke-width="2" stroke-linecap="round"/>
  <!-- Rosy cheeks -->
  <circle cx="24" cy="63" r="8" fill="#ff70c0" opacity="0.35"/>
  <circle cx="76" cy="63" r="8" fill="#ff70c0" opacity="0.35"/>
  <!-- Smile -->
  <path d="M36 72 Q50 83 64 72" stroke="#222" stroke-width="2.5" fill="none" stroke-linecap="round"/>
</svg>
