<svg xmlns="http://www.w3.org/2000/svg" viewBox="0 0 100 100">
  <!-- Snook: dark indigo starry with glowing eyes -->
  <!-- Body -->
  <circle cx="50" cy="55" r="40" fill="#2C3E7A"/>
  <!-- Stars -->
  <path d="M22 26 L23.8 20 L25.6 26 L32 27.8 L25.6 29.6 L23.8 35.6 L22 29.6 L15.6 27.8 Z" fill="#FFD93D"/>
  <path d="M70 18 L71.2 13 L72.4 18 L77.4 19.2 L72.4 20.4 L71.2 25.4 L70 20.4 L65 19.2 Z" fill="#FFD93D"/>
  <path d="M78 44 L78.8 41 L79.6 44 L82.6 44.8 L79.6 45.6 L78.8 48.6 L78 45.6 L75 44.8 Z" fill="#FFD93D" opacity="0.6"/>
  <path d="M14 56 L14.6 53.5 L15.2 56 L17.7 56.6 L15.2 57.2 L14.6 59.7 L14 57.2 L11.5 56.6 Z" fill="#FFD93D" opacity="0.5"/>
  <!-- Glowing cyan eyes -->
  <circle cx="36" cy="50" r="12" fill="#00E5FF"/>
  <circle cx="64" cy="50" r="12" fill="#00E5FF"/>
  <circle cx="36" cy="50" r="7" fill="#222"/>
  <circle cx="64" cy="50" r="7" fill="#222"/>
  <circle cx="38" cy="47" r="3" fill="white"/>
  <circle cx="66" cy="47" r="3" fill="white"/>
  <!-- Sly grin -->
  <path d="M35 70 Q50 80 65 70" stroke="#00E5FF" stroke-width="2.5" fill="none" stroke-linecap="round"/>
</svg>
