<?xml version='1.0' encoding='utf-8'?>
<!-- Generator: imaengine 6.0   -->
<svg xmlns:xlink="http://www.w3.org/1999/xlink" xmlns="http://www.w3.org/2000/svg" viewBox="0,0,722,1208" style="enable-background:new 0 0 722 1208;" version="1.1">
<defs/>
<g id="layer0">
<path d="M280,1090.72C263.992,1085.25 253.329,1075.15 247.595,1060.02C245.512,1054.53 245.497,1053.65 245,910L244.5,765.5L237.5,765L230.5,764.5L230.241,709.75C230.099,679.638 229.732,655 229.425,655C229.118,655 227.434,656.089 225.683,657.421C219.109,662.422 212.307,664.389 201.5,664.415C193.079,664.436 190.632,664.059 186,662.026C171.796,655.791 163.33,645.367 159.992,630L158.363,622.5L151.681,622.204L145,621.909L145,489.065C145,345.956 144.888,349.324 150.179,333.094C161.533,298.262 186.672,275.88 223.5,267.814C232.193,265.91 482.167,265.886 492.5,267.789C515.267,271.98 536.746,284.479 549.821,301.144C555.996,309.016 563.369,322.687 566.462,332C572.048,348.822 571.992,347.204 571.996,490.25L572,622L565.559,622C562.016,622 558.889,622.37 558.609,622.823C558.329,623.276 557.425,626.888 556.599,630.849C555.773,634.81 553.851,640.341 552.328,643.139C548.555,650.071 538.622,658.925 531.345,661.844C517.925,667.227 500.733,665.155 490.132,656.876C488.83,655.859 487.368,655.273 486.882,655.573C486.39,655.877 486,680.178 486,710.559L486,765L479,765L472,765L472,907.948L472,1050.9L469.51,1058.7C461.661,1083.29 435.322,1097.92 410.542,1091.47C392.637,1086.81 377.287,1070.83 374.088,1053.52C373.337,1049.45 373,1003.9 373,906.316L373,765L358.523,765L344.046,765L343.773,909.75L343.5,1054.5L340.109,1062.36C330,1085.81 302.944,1098.58 280,1090.72ZM458.242,563.677L458.5,390.353L461,386.675C464.357,381.735 470.193,379.436 475.648,380.905C480.382,382.18 484.678,386.389 486.02,391.069C486.634,393.212 487,437.099 487,508.759L487,623.031L515.25,622.766L543.5,622.5L543.5,488C543.5,360.376 543.406,353.168 541.658,347.002C534.458,321.597 520.166,305.924 497,298.03C488.204,295.032 469.916,293.849 437.995,294.211L412.5,294.5L412.238,331.266C411.927,374.812 411.105,371.477 425.633,385.628C439.903,399.527 439.437,397.855 439.803,436.467C440.131,471.022 440.015,471.906 434.835,474.585C430.462,476.847 426.416,476.344 422.766,473.084L419.5,470.167L419,439.066L418.5,407.965L410,399.988C405.325,395.601 401.229,392.121 400.898,392.256C400.568,392.39 396.817,395.72 392.565,399.654C386.587,405.185 384.63,407.682 383.94,410.654C383.449,412.77 383.027,426.875 383.002,442C382.961,466.523 382.768,469.731 381.228,471.633C377.01,476.839 370.641,477.437 365.766,473.083L362.5,470.167L362.203,442.333C361.895,413.552 362.657,404.322 365.838,398.263C366.773,396.483 371.931,390.538 377.3,385.053C391.709,370.332 390.952,373.336 390.978,330.75L391,295L358.5,295L326,295L326,327.787L326,360.574L330.356,365.185C336.276,371.452 338.121,378.422 335.94,386.277C333.617,394.641 324.874,401 315.697,401C304.548,401 295.998,393.121 295.202,382.111C294.65,374.485 296.183,370.053 301.058,365.177L305,361.235L305,328.064L305,294.893L265.75,295.202C227.354,295.503 226.359,295.562 220,297.878C196.204,306.545 182.552,321.563 175.342,347.002C173.594,353.168 173.5,360.376 173.5,488L173.5,622.5L201.734,622.766L229.967,623.031L230.234,506.692L230.5,390.353L233,386.675C236.445,381.606 242.561,379.252 248.028,380.89C252.804,382.321 256.687,386.253 258.012,391C258.63,393.216 258.991,457.344 258.994,565.75L259,737L358.492,737L457.983,737L458.242,563.677ZM340.807,235.399C309.533,228.682 284.233,204.364 275.876,172.988C272.67,160.949 272.648,142.92 275.827,131C284.523,98.3823 310.641,73.8818 343,67.9862C357.089,65.4192 376.102,67.1475 389,72.1678C413.419,81.6725 433.246,103.297 440.322,128.145C446.153,148.619 444.208,170.667 434.931,189.259C429.577,199.988 425.727,205.1 416.238,214.078C404.083,225.58 390.813,232.441 374.873,235.465C364.934,237.35 349.753,237.321 340.807,235.399Z" fill-rule="evenodd" fill="#000000"/>
</g>
</svg>
