<?xml version='1.0' encoding='utf-8'?>
<!-- Generator: imaengine 6.0   -->
<svg xmlns:xlink="http://www.w3.org/1999/xlink" xmlns="http://www.w3.org/2000/svg" viewBox="0,0,748,1208" style="enable-background:new 0 0 748 1208;" version="1.1">
<defs/>
<g id="layer0">
<path d="M303.5,1094.59C300.75,1093.91 296.044,1092.09 293.041,1090.55C276.446,1082.05 266.242,1069.48 261.436,1051.61L258.986,1042.5L259.002,892.925C259.013,786.992 258.698,742.432 257.921,740.204C257.086,737.808 254.989,735.975 249.11,732.504C232.416,722.646 221.433,707.974 214.672,686.5L211.523,676.5L211.241,537.523C211.063,449.899 211.323,396.136 211.944,392.023C213.693,380.435 216.815,370.729 222.215,360.089C226.535,351.58 229.052,348.089 236,340.977C243.281,333.523 254.362,324.999 256.769,325C257.171,325.001 260.2,323.699 263.5,322.108C271.401,318.299 283.804,315.49 292.5,315.541C300.467,315.588 314.646,318.835 323.5,322.64C332.329,326.435 352.556,336.736 359.852,341.154C363.346,343.269 366.374,345 366.581,345C366.789,345 378.78,351.576 393.229,359.613C407.678,367.651 422.875,376.049 427,378.276C431.125,380.503 444.175,387.714 456,394.299C467.825,400.885 479.525,407.219 482,408.375C486.369,410.416 488.206,410.492 545,410.988L603.5,411.5L609.5,414.908C618.574,420.062 623.655,424.555 628.039,431.302C634.83,441.753 636.251,446.859 635.747,459C635.366,468.183 634.914,470.347 632.144,476.253C625.639,490.125 611.553,500.801 596.705,503.113C592.689,503.738 565.791,504.003 525.865,503.81C461.986,503.502 461.477,503.484 458.5,501.364C456.85,500.19 453.925,498.511 452,497.634C450.075,496.758 447.825,495.609 447,495.081C443.721,492.984 424.088,482.277 406,472.721C394.06,466.414 385.405,461.706 384.5,461.026C383.95,460.614 382.314,459.993 380.864,459.648C375.129,458.28 375.542,437.388 375,755.904L374.5,1049.5L371.388,1057.12C367.369,1066.96 363.236,1073 355.188,1080.82C348.099,1087.7 339.594,1092.55 331,1094.61C324.167,1096.25 310.145,1096.24 303.5,1094.59ZM273.5,288C257.798,285.127 245.744,279.891 231.139,269.598C222.784,263.71 209.509,250.14 205.458,243.346C192.268,221.226 187.17,202.424 188.296,180.056C189.332,159.483 193.699,145.094 204.208,127.625C209.938,118.101 225.306,102.698 236,95.7618C254.844,83.5393 286.966,75.5461 304,78.8407C329.277,83.7294 341.48,88.3962 354.959,98.3286C377.566,114.988 391.691,137.227 396.94,164.425C401.574,188.439 397.648,213.897 385.964,235.593C379.574,247.459 364.257,264.416 353.5,271.531C346.786,275.973 333.19,282.958 331.21,282.983C330.501,282.992 328.251,283.834 326.21,284.854C321.685,287.116 301.249,290.06 291,289.927C286.875,289.874 279,289.007 273.5,288Z" fill-rule="evenodd" fill="#000000"/>
</g>
</svg>
