<?xml version='1.0' encoding='utf-8'?>
<!-- Generator: imaengine 6.0   -->
<svg xmlns:xlink="http://www.w3.org/1999/xlink" xmlns="http://www.w3.org/2000/svg" viewBox="0,0,1208,996" style="enable-background:new 0 0 1208 996;" version="1.1">
<defs/>
<g id="layer0">
<path d="M373,877.906C369.975,877.554 364.341,876.293 360.481,875.105C354.547,873.28 352.273,871.861 345.78,865.936C339.392,860.108 337.374,857.46 333.799,850.214L329.5,841.5L329,710.355C328.523,585.268 328.416,579.116 326.678,577.196C322.387,572.455 314.196,571.916 310.387,576.124C308.563,578.14 308.483,582.603 308,709.355L307.5,840.5L304.25,846.624C302.462,849.992 301,853.203 301,853.759C301,854.838 292.025,866.268 290.728,866.841C290.304,867.028 287.379,868.884 284.228,870.965C273.221,878.235 253.955,880.03 240.713,875.019C232.792,872.021 221.83,861.027 219.387,853.631C218.456,850.809 216.975,847.395 216.096,846.044C214.65,843.819 214.453,822.139 214,615.448C213.582,424.576 213.277,387.038 212.134,385.661C208.517,381.303 198.505,381.575 194.371,386.143C192.571,388.131 192.493,392.147 192.304,491.855C192.196,548.86 191.829,597.84 191.488,600.7C191.118,603.805 189.902,607.228 188.469,609.2C187.149,611.015 185.125,614.37 183.969,616.655C182.389,619.781 180.709,621.337 177.185,622.937C174.608,624.107 170.756,626.023 168.624,627.195C165.458,628.936 163.106,629.319 155.779,629.284C147.4,629.245 146.311,628.99 139.262,625.412C131.411,621.427 126.994,616.949 121.21,607.109L118.5,602.5L118.5,469.5L118.5,336.5L122.325,325.5C128.238,308.496 133.521,298.616 142.112,288.5C157.804,270.02 174.636,258.759 193.5,254.117C197.9,253.035 204.182,251.44 207.46,250.574C212.658,249.201 223.593,249.011 292.96,249.084C336.707,249.131 374.975,249.536 378,249.984C400.2,253.273 412.478,256.026 420.706,259.557C446.245,270.519 460.144,284.145 482,319.645C483.925,322.772 486.906,327.412 488.624,329.957C490.342,332.502 492.709,336.366 493.884,338.542C495.06,340.719 497.873,345.425 500.136,349C502.398,352.575 505.137,357.075 506.222,359C507.307,360.925 509.008,363.4 510.002,364.5C510.995,365.6 512.52,368.228 513.39,370.339C514.834,373.842 517.382,377.601 521.463,382.25C523.9,385.025 531.079,384.609 533.976,381.525C535.255,380.164 538.371,378.275 540.901,377.326C543.43,376.378 546.625,374.796 548,373.81C549.375,372.824 552.384,371.001 554.686,369.759C556.988,368.517 561.567,366.048 564.863,364.272C568.158,362.497 571.117,360.62 571.438,360.1C571.759,359.581 574.996,358.166 578.63,356.957C582.265,355.747 586.423,354.14 587.869,353.385C589.409,352.582 593.592,352.01 597.956,352.006C604.421,352.001 606.419,352.473 613.001,355.562C619.516,358.619 621.245,360.006 625.205,365.356C630.436,372.425 634.645,384.249 633.539,388.77C630.591,400.815 628.473,405.649 624.086,410.344C618.145,416.701 605.402,425.31 587.857,434.819C582.711,437.608 576.95,441.04 575.056,442.445C573.161,443.85 571.163,445 570.616,445C569.613,445 557.752,451.737 552.879,455.074C548.249,458.245 532.7,465.82 526,468.169C516.52,471.493 507.672,471.232 497.931,467.339C490.249,464.269 481.434,458.257 478.895,454.356C478.128,453.176 475.7,449.625 473.5,446.464C471.3,443.302 468.15,438.563 466.5,435.931C464.85,433.299 461.173,427.85 458.328,423.823C445.517,405.683 440.337,397.743 438.596,393.575C437.541,391.049 435.995,389.478 433.568,388.464C428.5,386.346 427.205,386.616 424.989,390.25C423.03,393.464 423.007,395.993 422.96,616C422.917,814.448 422.745,838.932 421.363,842.5C420.511,844.7 418.947,848.96 417.887,851.966C416.827,854.973 414.899,858.573 413.602,859.966C412.305,861.36 410.72,863.519 410.079,864.765C408.986,866.889 404.015,870.699 398.157,873.902C392.83,876.815 380.491,878.779 373,877.906ZM811,878.353C803.183,877.182 796.145,875.521 793.596,874.244C789.04,871.962 782.821,867.201 781.185,864.741C780.364,863.509 778.71,861.375 777.509,860C776.307,858.625 773.909,853.45 772.18,848.5L769.037,839.5L768.768,614.5C768.518,404.407 768.387,389.293 766.79,386.377C763.898,381.096 756.356,380.387 750.962,384.89L747.5,387.78L746.966,495.14C746.587,571.212 746.101,603.432 745.3,605.7C744.242,608.692 738.776,616.836 735.815,619.83C732.185,623.501 722.133,628.246 716.164,629.105C709.648,630.042 698.853,628.949 696.65,627.129C696.018,626.606 693.422,625.126 690.881,623.839C685.396,621.061 679.951,614.305 675.875,605.221L672.972,598.75L672.992,470.459C673.012,347.034 673.086,341.928 674.926,335.834C675.977,332.35 677.378,326.808 678.038,323.517C679.089,318.282 682.265,310.745 687.74,300.5C692.131,292.281 711.154,272.671 719.925,267.319C731.131,260.482 741.178,255.794 747.5,254.452C751.35,253.635 757.448,252.064 761.052,250.961C767.461,249 769.955,248.962 875.052,249.228C972.036,249.474 982.89,249.66 986.5,251.143C988.7,252.047 993.423,253.325 996.996,253.983C1000.57,254.642 1006.64,256.668 1010.5,258.487C1014.35,260.306 1018.17,262.058 1019,262.38C1019.83,262.702 1023.2,264.996 1026.5,267.477C1029.8,269.958 1034.11,273.07 1036.07,274.392C1041.7,278.184 1057.13,296.516 1058.46,301C1058.87,302.375 1060.33,305.525 1061.7,308C1063.07,310.475 1066.06,317.9 1068.35,324.5L1072.5,336.5L1072.5,469.5L1072.5,602.5L1068.32,609.5C1062.08,619.948 1060.88,621.16 1052.67,625.347C1045.54,628.984 1044.62,629.196 1035.81,629.222C1026.05,629.251 1024.86,628.919 1016.07,623.714C1009.01,619.539 1001.35,609.118 999.964,601.809C999.385,598.759 998.999,556.297 998.998,495.614C998.997,382.624 999.441,389.606 992,385.629C988.763,383.899 988.224,383.874 984.828,385.296C982.808,386.141 980.333,388.088 979.328,389.622C977.573,392.301 977.492,401.279 977.31,615.456C977.205,738.13 976.914,840.166 976.661,842.203C976.409,844.24 975.326,847.165 974.254,848.703C973.183,850.241 971.811,852.961 971.206,854.747C969.699,859.196 965.853,864.028 959.5,869.456C954.881,873.402 952.809,874.367 944.348,876.514C938.957,877.881 933.411,878.994 932.023,878.988C929.382,878.975 912.974,874.676 910.773,873.42C901.082,867.893 890,857.021 890,853.041C890,852.072 888.854,849.59 887.452,847.525C886.051,845.46 884.461,841.46 883.919,838.635C883.299,835.406 882.982,786.494 883.064,706.866C883.159,614.637 882.888,579.659 882.067,578.126C880.747,575.66 876.017,573 872.951,573C869.948,573 864.318,575.824 863.327,577.827C862.872,578.747 862.275,638.675 862,711L861.5,842.5L859.376,846.5C858.207,848.7 856.164,852.525 854.835,855C852.465,859.414 846.436,865.89 839.791,871.156C836.747,873.57 818.229,879.26 814.71,878.864C814.044,878.789 812.375,878.559 811,878.353ZM860.225,226.438C851.859,225.526 846.763,224.456 844.225,223.08C842.176,221.97 838.025,219.924 835,218.534C822.615,212.842 813.654,205.754 807.633,196.887C805.91,194.35 802.671,189.85 800.436,186.887C797.512,183.011 795.267,178.133 792.436,169.5C788.581,157.748 788.5,157.201 788.518,143C788.536,128.828 788.623,128.251 792.338,117.5C795.131,109.416 797.847,103.954 802.581,96.8972C812.054,82.7771 818.011,76.9894 829.177,71.0597C832.3,69.4015 835.117,67.6191 835.439,67.0988C836.193,65.8789 842.679,63.8778 856.937,60.466C870.725,57.1664 879.416,57.4194 894.664,61.5641C904.96,64.3626 911.819,67.4571 920.966,73.4305C923.973,75.3937 926.715,77 927.06,77C928.159,77 941.048,92.7769 945.554,99.6372C947.942,103.272 950.186,107.654 950.541,109.373C950.896,111.093 952.287,114.871 953.632,117.77C957.198,125.454 958.379,137.274 957.089,152.363C956.204,162.723 955.535,165.802 953.016,171.128C951.358,174.633 950.001,178.19 950.001,179.034C949.998,183.515 931.295,206.388 923.18,211.833C916.251,216.482 915.197,217.064 905.5,221.585C898.857,224.683 895.549,225.536 886,226.614C879.675,227.328 874.05,227.882 873.5,227.845C872.95,227.808 866.976,227.175 860.225,226.438ZM298.702,226.017C296.063,225.541 292.013,224.162 289.702,222.952C287.391,221.742 283.766,220.136 281.646,219.384C271.712,215.857 252.864,199.387 248.019,190C247.026,188.075 245.29,185.666 244.163,184.646C243.036,183.627 241.815,181.377 241.451,179.646C241.086,177.916 239.373,173.35 237.644,169.5L234.5,162.5L234.5,143.5L234.5,124.5L238.696,114.195C245.246,98.1073 257.085,81.9086 267.539,74.7285C273.526,70.6167 288.61,63.4395 293.191,62.5224C295.011,62.1581 299.391,60.9289 302.924,59.7907C310.794,57.2554 321.733,57.7505 338.137,61.3845C348.779,63.742 350.159,64.2698 359.5,69.5551C376.715,79.2956 390.832,95.6189 397.096,113.025C402.352,127.632 403,130.887 403,142.669C403,154.926 401.782,162.467 398.873,168.217C397.839,170.261 396.492,174.269 395.88,177.123C395.086,180.827 393.227,184.32 389.384,189.329C386.423,193.188 384,196.701 384,197.134C384,197.567 378.597,202.423 371.993,207.924C363.632,214.889 358.7,218.273 355.752,219.067C353.424,219.694 350.389,220.991 349.009,221.95C343.818,225.558 339.675,226.253 321.5,226.569C311.6,226.742 301.341,226.493 298.702,226.017Z" fill-rule="evenodd" fill="#000000"/>
</g>
</svg>
