<?xml version='1.0' encoding='utf-8'?>
<!-- Generator: imaengine 6.0   -->
<svg xmlns:xlink="http://www.w3.org/1999/xlink" xmlns="http://www.w3.org/2000/svg" viewBox="0,0,806,1208" style="enable-background:new 0 0 806 1208;" version="1.1">
<defs/>
<g id="layer0">
<path d="M331.5,1075.93C319.013,1073.58 311.898,1070.62 303.016,1064.07C293.059,1056.73 286.148,1045.91 282.987,1032.73C281.048,1024.64 281.014,1019.76 280.985,752.5C280.957,489.957 280.892,480.358 279.105,476.424C277.147,472.114 272.383,469 267.747,469C263.124,469 258.712,473.053 256.84,479.02C255.254,484.076 255.119,494.058 255.099,608C255.084,694.77 254.745,733.257 253.959,737.406C250.423,756.08 233.462,770.517 212.642,772.573C207.976,773.034 204.629,772.66 198.712,771.019C189.858,768.562 185.825,766.347 178.917,760.144C173.086,754.908 169.797,749.528 166.475,739.789L163.988,732.5L163.998,578.5C164.005,449.075 164.234,423.463 165.429,418C166.212,414.425 167.332,408.575 167.918,405C169.061,398.031 172.508,388.906 179.068,375.477C194.958,342.953 229.351,317.318 267.92,309.253C274.51,307.875 290.389,307.614 389.5,307.255C502.303,306.846 517.19,307.149 533,310.167C536.025,310.744 538.95,311.572 539.5,312.006C540.05,312.441 542.75,313.489 545.5,314.337C574.317,323.216 595.68,342.888 604.86,369C606.953,374.954 610.441,387.213 612.542,396C613.265,399.025 615.218,406.45 616.883,412.5C618.547,418.55 620.437,425.525 621.084,428C623.198,436.093 628.08,453.333 630.57,461.5C631.911,465.9 633.007,470.345 633.004,471.379C633.002,472.412 634.08,476.687 635.4,480.879C637.819,488.561 638.915,492.515 641.666,503.5C642.492,506.8 643.835,511.525 644.648,514C645.462,516.475 646.712,520.975 647.425,524C648.138,527.025 649.5,532.118 650.452,535.319C651.56,539.045 652.182,544.538 652.182,550.598C652.182,573.74 638.878,591.696 616.627,598.586C599.053,604.029 582.369,602.146 549.643,591.028C543.121,588.813 537.168,587 536.413,587C535.657,587 532.218,585.93 528.77,584.622C519.613,581.148 516.244,580 509,577.886C505.425,576.843 501.082,575.317 499.349,574.495C497.616,573.673 495.693,573 495.077,573C494.031,573 485.408,570.276 442.675,556.445C433.422,553.45 425.208,551 424.422,551C423.636,551 421.314,550.1 419.261,549C417.209,547.9 414.814,547 413.94,547C411.076,547 393.612,540.364 388.5,537.334C381.788,533.354 376.705,526.396 374.106,517.627C371.513,508.878 371.498,507.248 373.939,498.714C376.146,490.995 381.169,483.529 386.72,479.718C392.166,475.978 401.169,472.89 406.71,472.861C411.931,472.833 427.117,477.09 448,484.435C459.811,488.589 464.433,490.146 470.5,492.015C473.8,493.032 481,495.405 486.5,497.29C509.668,505.227 513.637,506.178 517.271,504.66C522.386,502.523 526,497.615 526,492.806C526,489.462 525.353,488.125 522.25,485.058C519.179,482.023 516.326,480.661 506.5,477.534C499.9,475.435 494.05,473.372 493.5,472.95C492.95,472.529 490.025,471.497 487,470.658C483.975,469.818 479.475,468.439 477,467.592C472.54,466.066 469.507,465.077 455,460.423C450.875,459.1 444.575,457.075 441,455.923C437.425,454.772 432.985,453.175 431.134,452.376C426.374,450.32 413.496,447.996 407,448.022C395.952,448.065 380.49,452.834 373.146,458.462C368.205,462.25 360.393,470.109 357.904,473.798C350.185,485.235 348.023,492.504 348.027,507C348.032,525.216 352.46,537.302 363.251,548.547C368.786,554.317 380.303,563 382.419,563C382.847,563 384.616,563.651 386.349,564.447C388.082,565.242 394.675,567.525 401,569.519C407.325,571.514 414.975,573.98 418,575C421.025,576.02 425.525,577.364 428,577.987C430.475,578.609 434.75,579.969 437.5,581.009C440.25,582.049 447.225,584.326 453,586.068C458.775,587.81 465.75,590.054 468.5,591.054C473.752,592.963 479.522,594.853 489.5,597.932C492.8,598.95 496.85,600.286 498.5,600.9C504.999,603.318 523.357,609 524.673,609C525.439,609 528.302,610.133 531.033,611.517L536,614.034L536,820.465L536,1026.9L533.409,1035.2C530.227,1045.39 523.84,1055.2 515.585,1062.56C512.238,1065.55 509.144,1067.99 508.71,1068C508.275,1068 506.7,1068.88 505.21,1069.96C501.351,1072.75 486.654,1076.34 479,1076.36C454.982,1076.42 432.725,1060.74 424.179,1037.72L421.5,1030.5L421,871L420.5,711.5L418.132,708.181C415.505,704.496 412.479,703 407.657,703C403.865,703 400.96,704.843 397.835,709.232L395.559,712.429L395.322,869.464C395.191,955.834 394.791,1028.75 394.431,1031.5C393.852,1035.93 392.078,1039.84 384.452,1053.5C382.472,1057.05 372.496,1065.5 365.655,1069.42C356.094,1074.9 341.145,1077.75 331.5,1075.93ZM394.5,280.977C392.85,280.439 388.575,279.528 385,278.953C381.425,278.379 376.925,277.101 375,276.114C373.075,275.127 370.211,274.001 368.635,273.612C360.284,271.549 340.744,257.834 331.621,247.633C325.712,241.025 315,225.462 315,223.483C315,222.9 314.081,220.64 312.957,218.461C311.834,216.283 309.529,209.325 307.836,203C301.714,180.129 304.148,154.678 314.479,133.53C323.589,114.88 334.553,102.103 351.5,90.3855C355.715,87.4708 368.38,81 369.87,81C370.552,81 373.182,80.0558 375.715,78.9018C378.249,77.7478 383.286,76.3858 386.911,75.875C390.535,75.3643 395.075,74.511 397,73.9788C398.925,73.4466 403.374,73.0086 406.887,73.0056C415.686,72.9979 437.676,76.7941 442.199,79.1015C444.246,80.1457 446.55,81 447.319,81C448.934,81 458.647,85.977 464.5,89.8032C474.538,96.3653 487.297,108.467 492.648,116.5C494.114,118.7 496.229,121.836 497.349,123.469C501.671,129.774 507.716,143.894 509.991,153C512.226,161.946 513.066,176.632 511.992,188C508.856,221.189 488.457,252.692 460.168,268.032C458.151,269.126 455.825,270.449 455,270.973C451.329,273.304 439.75,277.325 431.5,279.135C421.314,281.369 399.092,282.475 394.5,280.977Z" fill-rule="evenodd" fill="#000000"/>
</g>
</svg>
