<?xml version='1.0' encoding='utf-8'?>
<!-- Generator: imaengine 6.0   -->
<svg xmlns:xlink="http://www.w3.org/1999/xlink" xmlns="http://www.w3.org/2000/svg" viewBox="0,0,1208,1134" style="enable-background:new 0 0 1208 1134;" version="1.1">
<defs/>
<g id="layer0">
<path d="M814.5,967.998C798.472,967.525 797.178,967.338 791.858,964.728C788.756,963.205 784.407,959.996 782.195,957.596C778.887,954.007 778.059,952.279 777.531,947.866C777.178,944.915 777.026,912.485 777.194,875.8C777.438,822.727 777.766,808.834 778.8,807.8C780.552,806.048 1093.96,805.34 1098.18,807.078C1099.65,807.686 1101.22,808.929 1101.65,809.842C1102.09,810.754 1102.6,838.822 1102.78,872.215C1103.07,923.923 1102.89,934.279 1101.55,942.025C1099.87,951.737 1097.63,957.157 1093.83,960.701C1090.65,963.671 1083.14,966.892 1077.84,967.562C1072.24,968.269 836.899,968.659 814.5,967.998ZM948.19,906.964C951.777,905.968 956.052,901.659 958.974,896.093C959.67,894.769 960.209,890.529 960.172,886.67C960.115,880.544 959.732,879.136 957.155,875.577C952.392,868.998 950.251,867.885 941.398,867.388C930.797,866.793 925.965,869.111 921.362,877C916.466,885.389 916.34,887.739 920.353,895.703C923.998,902.934 926.04,905.296 930.021,906.884C933.316,908.199 943.582,908.244 948.19,906.964ZM280,966.573C269.02,964.132 266.993,963 258.935,954.812C254.089,949.887 250.653,945.456 249.912,943.179C249.254,941.155 247.543,937.25 246.108,934.5L243.5,929.5L243,686C242.602,492.092 242.242,442.049 241.234,440.285C239.394,437.068 233.007,435.382 228.163,436.833C226.052,437.465 223.465,438.934 222.413,440.096C220.558,442.144 220.485,445.745 220,557.854C219.528,667.046 219.399,673.667 217.695,676.5C209.264,690.515 208.471,691.408 200.404,695.962C192.827,700.239 192.101,700.44 182.855,700.824C171.927,701.277 168.889,700.537 159.977,695.247C153.454,691.376 150.632,688.261 144.419,678.075L140.5,671.651L140.5,530.075L140.5,388.5L144.25,377.804C146.312,371.921 148,366.497 148,365.75C148,365.003 149.369,362.232 151.043,359.593C152.717,356.954 154.886,352.691 155.863,350.12C157.738,345.183 158.533,344.061 166.5,335.092C177.458,322.755 192.839,310.027 199.721,307.598C201.967,306.806 205.536,305.045 207.652,303.685C209.769,302.324 213.975,300.678 217,300.025C220.025,299.373 226.55,297.648 231.5,296.193L240.5,293.547L330.5,293.62C409.793,293.684 421.214,293.883 426.5,295.297C429.8,296.18 437.225,297.646 443,298.557C453.277,300.177 468.846,305.748 475,310.008C476.375,310.96 479.517,312.76 481.983,314.009C490.895,318.521 505.862,332.708 514.813,345.128C521.892,354.95 532.504,371.163 535.6,376.885C536.973,379.423 539.538,383.82 541.299,386.656C543.059,389.491 545.796,393.991 547.379,396.656C551.23,403.134 556.865,411.921 559.144,415C560.162,416.375 562.161,419.701 563.586,422.391C565.87,426.703 569.736,432.053 575.229,438.5C577.574,441.253 581.645,446.922 583.749,450.366C585.791,453.708 599.548,472.219 605.832,480.081C608.215,483.061 618.79,494.284 629.332,505.02C659.906,536.155 686.504,564.121 690.264,569.086C692.174,571.609 694.312,575.415 695.015,577.545C696.736,582.762 696.831,600.492 695.162,605.247C692.37,613.203 681.773,624.135 674.001,627.077C664.057,630.841 653.536,630.75 640.181,626.785C637.839,626.089 631.508,620.347 618.681,607.283C608.681,597.099 592.246,580.382 582.157,570.134C557.921,545.513 547.371,534.379 544.185,530.056C542.743,528.1 539.498,524.025 536.975,521C534.451,517.975 527.937,509.229 522.499,501.564C517.062,493.899 511.442,486.249 510.012,484.564C508.582,482.879 506.614,480.232 505.639,478.683C504.664,477.134 503.19,475.109 502.364,474.183C500.665,472.281 492.086,460.265 487.376,453.191C482.62,446.05 480.71,444.356 476.53,443.572C473.211,442.949 472.343,443.202 470.097,445.449L467.5,448.045L467,688.817C466.52,919.956 466.427,929.7 464.671,932.38C463.664,933.916 462.152,937.496 461.309,940.336C460.466,943.176 458.252,947.189 456.388,949.253C454.525,951.317 453,953.412 453,953.909C453,954.927 444.745,961.057 440.369,963.288C438.791,964.093 433.822,965.489 429.328,966.39C419.89,968.283 409.747,967.546 399.261,964.205C388.811,960.875 378.997,951.844 372.32,939.413L367.533,930.5L367.016,790C366.618,681.509 366.218,648.867 365.263,646.72C363.443,642.627 356.335,639.778 351.583,641.236C349.617,641.839 347.219,643.205 346.254,644.271C344.604,646.094 344.47,654.584 344,786.855C343.598,900.044 343.244,927.988 342.191,930C332.35,948.798 327.815,954.674 319.072,959.957C313.891,963.087 309.868,964.596 302.842,966.046C292.284,968.225 287.888,968.326 280,966.573ZM780.4,762.235C777.132,760.053 777,757.259 777.006,690.316C777.009,645.469 777.368,622.185 778.095,619.5C780.259,611.515 790.089,604.194 801.474,602.089C805.536,601.338 848.722,601 940.474,601C1085.1,601 1078.68,600.764 1090,606.499C1095.92,609.501 1097.24,611.335 1100.07,620.505C1102.17,627.291 1102.24,629.264 1102.56,690.993C1102.77,732.479 1102.53,755.63 1101.86,757.758C1101.3,759.549 1100.01,761.462 1098.99,762.008C1096.81,763.172 782.14,763.397 780.4,762.235ZM946.61,701.958C950.054,700.649 957.044,694.473 958.927,691.075C960.885,687.54 960.756,677.283 958.702,673.356C953.205,662.844 939.837,658.989 928.383,664.615C923.237,667.142 917.458,676.716 917.597,682.483C917.702,686.791 921.581,695.414 924.672,698.206C929.453,702.526 940.256,704.374 946.61,701.958ZM339.847,269.536C333.046,268.667 328.319,267.405 323.847,265.265C320.356,263.595 316.037,261.916 314.249,261.534C312.461,261.153 309.24,259.414 307.09,257.67C304.94,255.927 300.398,252.25 296.997,249.5C291.359,244.941 287.289,240.382 276.857,226.937C274.853,224.354 272.754,220.275 272.191,217.871C271.629,215.467 269.991,210.693 268.55,207.262C265.199,199.282 263.607,186.416 264.3,172.913C264.773,163.695 265.391,160.849 269.073,150.913C271.4,144.636 274.922,136.89 276.902,133.701C281.644,126.058 294.554,110.896 297.933,109C299.403,108.175 302.655,106.061 305.159,104.301C311.177,100.073 318.489,96.9105 332.746,92.3713C345.656,88.2609 351.092,87.8466 364.086,89.9829C380.725,92.7186 389.889,95.7759 400.893,102.262C419.562,113.266 432.347,128.645 439.746,149C445.468,164.743 446.237,169.081 445.768,183C445.373,194.741 445.061,196.342 440.614,209.372C438.01,217.002 435.073,224.427 434.087,225.872C433.102,227.317 431.666,229.444 430.898,230.597C426.168,237.693 421.219,243.487 418.095,245.585C416.118,246.913 411.8,250.26 408.5,253.024C405.2,255.788 400.475,258.958 398,260.069C395.525,261.179 390.646,263.497 387.159,265.22C381.751,267.891 378.881,268.539 367.659,269.622C352.142,271.12 352.252,271.121 339.847,269.536Z" fill-rule="evenodd" fill="#000000"/>
</g>
</svg>
