<?xml version='1.0' encoding='utf-8'?>
<!-- Generator: imaengine 6.0   -->
<svg xmlns:xlink="http://www.w3.org/1999/xlink" xmlns="http://www.w3.org/2000/svg" viewBox="0,0,729,1208" style="enable-background:new 0 0 729 1208;" version="1.1">
<defs/>
<g id="layer0">
<path d="M270.718,1116.97C264.962,1115.49 259.633,1113.9 258.876,1113.44C254.975,1111.08 243,1101.82 243,1101.17C243,1100.75 240.801,1097.81 238.114,1094.64C234.948,1090.89 232.611,1086.86 231.474,1083.18C230.509,1080.06 228.995,1076.15 228.11,1074.5C226.644,1071.77 226.455,1045.11 226,775.773L225.5,480.045L222.776,477.322C220.519,475.064 218.979,474.53 213.776,474.202C208.422,473.865 207.081,474.137 204.649,476.055C203.082,477.292 200.965,480.248 199.946,482.626C198.176,486.755 198.089,492.74 197.988,616.724C197.925,695.057 197.492,749.826 196.896,754.892C195.8,764.207 194.042,769.254 190.59,773C189.322,774.375 187.21,777.463 185.896,779.862C183.998,783.326 182.087,784.973 176.614,787.862C172.824,789.863 168.548,792.175 167.111,793C165.119,794.144 161.062,794.5 150,794.5C138.939,794.5 134.88,794.144 132.887,793C131.45,792.175 127.625,790.072 124.387,788.326C117.29,784.499 112.643,778.576 106.087,765L101.5,755.5L101.5,587.5L101.5,419.5L104.182,411.5C105.656,407.1 107.408,400.575 108.073,397C108.739,393.425 110.077,388.925 111.045,387C128.941,351.446 136.467,342.441 165.877,321.383C169.385,318.871 174.382,316.185 176.981,315.413C179.58,314.641 183.438,312.835 185.554,311.399C188.125,309.654 193.097,308.005 200.549,306.427C206.68,305.128 212.96,303.586 214.504,302.999C221.451,300.357 246.612,299.883 363,300.201L482.5,300.527L487.311,302.754C489.957,303.979 495.132,305.45 498.811,306.024C507.652,307.402 511.848,308.809 515.595,311.652C517.298,312.944 521.237,314.877 524.35,315.949C529.727,317.798 532.035,319.353 542.769,328.356C545.298,330.477 549.674,333.954 552.495,336.084C555.585,338.417 558.516,341.742 559.868,344.451C561.103,346.923 563.641,351.483 565.509,354.585C567.377,357.686 569.4,362.761 570.005,365.862C570.611,368.963 572.164,374.448 573.458,378.051C574.752,381.654 576.769,389.153 577.94,394.714C579.111,400.276 581.152,407.49 582.475,410.746C583.798,414.002 585.791,421.211 586.905,426.767C588.019,432.322 590.064,439.658 591.45,443.068C592.835,446.478 594.839,453.86 595.903,459.472C596.967,465.083 598.594,471.435 599.518,473.587C601.994,479.351 602.846,482.53 604.569,492.426C605.423,497.335 607.23,503.982 608.583,507.198C609.937,510.414 612.138,518.105 613.476,524.29C614.813,530.475 616.92,537.777 618.157,540.518C619.905,544.388 620.497,547.863 620.809,556.086C621.354,570.474 620.08,575.578 613.091,587C605.991,598.603 597.612,605.678 587.683,608.451C584.282,609.401 578.8,611.089 575.5,612.203C565.955,615.424 559.794,615.508 550,612.551C545.325,611.139 537.452,609.293 532.504,608.448C527.555,607.603 520.805,605.636 517.504,604.077C514.202,602.518 508.8,600.687 505.5,600.007C502.2,599.328 495.225,597.246 490,595.379C484.775,593.513 476.344,590.876 471.264,589.52C466.184,588.164 460.317,586.182 458.226,585.115C456.135,584.049 450.501,582.244 445.706,581.105C440.911,579.966 435.154,578.099 432.912,576.955C430.67,575.811 424.71,573.982 419.668,572.89C414.625,571.798 407.949,569.585 404.83,567.973C401.712,566.36 395.412,564.201 390.83,563.175C386.249,562.149 380.25,560.171 377.5,558.779C374.75,557.388 369.125,555.504 365,554.594C347.569,550.747 333.705,542.418 329.533,533.287C328.581,531.204 326.834,527.475 325.651,525C321.964,517.287 322.726,510.141 328.527,498.047C332.48,489.805 334.059,487.535 337.103,485.722C339.155,484.5 342.894,482.221 345.413,480.657C349.57,478.076 350.812,477.819 358.907,477.857C366.153,477.892 368.958,478.378 373.891,480.454C377.23,481.859 383.833,483.912 388.566,485.015C393.299,486.119 399.945,488.342 403.336,489.955C406.726,491.568 412.425,493.397 416,494.018C419.575,494.64 425.909,496.68 430.075,498.551C434.241,500.423 440.79,502.614 444.628,503.422C448.467,504.229 454.945,506.49 459.025,508.445C470.9,514.135 479.14,513.103 484.471,505.257C487.827,500.319 487.67,496.76 483.863,491.459C480.662,487.002 475.457,483.869 469,482.514C467.075,482.11 462.575,480.555 459,479.058C455.425,477.562 449.413,475.569 445.64,474.63C441.868,473.691 436.629,471.832 433.998,470.499C431.368,469.166 424.695,466.957 419.171,465.59C413.646,464.223 407.324,462.186 405.121,461.062C402.919,459.938 397.153,457.939 392.309,456.62C387.464,455.3 380.125,452.99 376,451.485C369.065,448.956 367.664,448.786 357.398,449.236C346.963,449.694 345.792,449.965 337.898,453.758C333.279,455.977 328.6,458.072 327.5,458.414C325.17,459.138 313.236,470.531 307.638,477.375C305.193,480.364 303.044,484.555 301.78,488.798C300.682,492.484 298.708,498.074 297.392,501.22C294.31,508.59 294.086,521.852 296.914,529.5C303.252,546.637 310.943,559.192 317.752,563.518C319.263,564.479 322.873,567.068 325.773,569.271C329.387,572.018 333.004,573.727 337.273,574.705C340.698,575.49 345.389,577.233 347.699,578.578C350.008,579.924 356.083,581.889 361.199,582.947C366.314,584.004 373.174,586.222 376.442,587.877C379.709,589.531 385.559,591.415 389.442,592.065C393.324,592.715 399.135,594.571 402.355,596.19C405.575,597.81 412.252,600.017 417.193,601.095C422.134,602.173 428.296,604.13 430.886,605.442C433.477,606.755 439.624,608.786 444.546,609.955C449.468,611.124 455.971,613.216 458.998,614.604C462.024,615.991 468.1,617.969 472.5,618.998C481.262,621.046 492.819,626.037 495.397,628.886C496.904,630.552 497.033,648.239 497.009,850.45L496.983,1070.2L494.118,1076.85C492.543,1080.51 490.47,1085.61 489.512,1088.2C488.554,1090.78 486.089,1094.45 484.035,1096.35C481.981,1098.25 479.445,1100.86 478.4,1102.15C475.31,1105.97 461.229,1114.87 457.213,1115.54C455.171,1115.89 450.8,1116.88 447.5,1117.75C444.2,1118.63 439.25,1119.51 436.5,1119.72C429.433,1120.26 413.215,1115.49 404.974,1110.46C396.228,1105.11 385.797,1094.12 383.554,1087.88C382.594,1085.21 380.882,1081.85 379.748,1080.41C374.937,1074.29 375.019,1077.41 375.039,899.638C375.06,708.655 375.986,726.633 366,724.111C360.835,722.806 360.184,722.857 355.315,724.956C351.44,726.626 349.805,727.988 348.845,730.345C347.822,732.86 347.508,767.256 347.297,900C347.152,991.575 346.77,1068.85 346.449,1071.71C346.128,1074.58 344.726,1079.08 343.333,1081.71C341.94,1084.35 339.499,1089.09 337.908,1092.25C336.317,1095.41 334.616,1098 334.128,1098C333.64,1098 329.308,1101.44 324.5,1105.64C316.461,1112.67 315.024,1113.51 306.629,1116.05C293.255,1120.11 283.861,1120.35 270.718,1116.97ZM343.524,270.94C333.323,269.878 329.217,268.759 323.462,265.471C321.241,264.202 316.527,262.188 312.988,260.996C309.392,259.784 304.925,257.358 302.864,255.496C300.836,253.664 298.125,251.609 296.838,250.93C295.552,250.251 292.705,247.964 290.51,245.848C288.316,243.731 286.213,242 285.837,242C284.333,242 278.665,236.428 276.259,232.583C274.854,230.337 272.621,227.15 271.299,225.5C266.062,218.97 261.934,211.533 260.524,206.094C259.71,202.953 257.659,197.034 255.965,192.941C254.119,188.482 252.458,182.094 251.819,177C250.401,165.693 251.331,144.851 253.514,139C254.437,136.525 256.669,130.225 258.473,125C264.1,108.703 271.492,97.0246 285.213,82.7512C296.231,71.2901 317.332,59.9096 335.5,55.63C359.964,49.8672 370.157,49.3955 382,53.4779C386.125,54.8998 392.163,56.7559 395.418,57.6025C402.74,59.5071 419.123,67.0808 423.883,70.7615C425.83,72.2677 428.881,74.4 430.662,75.5C433.94,77.5241 453,98.6906 453,100.306C453,100.788 454.817,103.773 457.039,106.94C459.26,110.107 461.558,114.453 462.146,116.599C462.733,118.744 464.447,122.996 465.955,126.047C470.167,134.569 471.501,143.359 471.411,162C471.323,180.312 470.051,188.993 466.397,196.202C465.052,198.858 463.233,203.836 462.356,207.265C461.4,210.999 459.608,214.815 457.887,216.778C456.306,218.581 454.146,221.731 453.087,223.778C450.284,229.197 431.588,248.58 426.153,251.702C423.594,253.172 420.071,255.597 418.324,257.092C416.578,258.586 413.653,260.109 411.824,260.477C409.996,260.845 404.884,262.921 400.465,265.09C396.046,267.26 389.746,269.476 386.465,270.016C377.523,271.486 353.699,271.998 343.524,270.94Z" fill-rule="evenodd" fill="#000000"/>
</g>
</svg>
