<?xml version='1.0' encoding='utf-8'?>
<!-- Generator: imaengine 6.0   -->
<svg xmlns:xlink="http://www.w3.org/1999/xlink" xmlns="http://www.w3.org/2000/svg" viewBox="0,0,1208,1137" style="enable-background:new 0 0 1208 1137;" version="1.1">
<defs/>
<g id="layer0">
<path d="M356.5,998.589C347.561,996.385 345.358,995.423 337.305,990.214C329.171,984.952 318.525,967.692 317.028,957.34C316.415,953.098 316.03,897.699 316.014,811.5C315.997,718.329 315.646,671.264 314.948,668.752C313.317,662.879 305.076,660.12 297.626,662.952C292.262,664.991 292.537,657.599 292,814L291.5,959.5L287.11,968C284.695,972.675 281.472,977.933 279.948,979.684C278.424,981.436 276.896,983.751 276.554,984.83C275.652,987.673 259.637,996.492 251.936,998.386C238.289,1001.74 221.832,999.545 210.83,992.897C202.419,987.815 199.741,984.294 192.28,968.5L188.5,960.5L188,708.5C187.61,511.792 187.23,456.029 186.271,454.355C184.959,452.066 180.235,450 176.311,450C173.112,450 166.459,453.474 165.382,455.707C164.906,456.693 164.412,492.825 164.285,536C164.157,579.175 163.929,633.255 163.776,656.177C163.5,697.833 163.499,697.856 161.227,700.677C159.977,702.23 157.376,705.862 155.447,708.748C152.927,712.521 150.487,714.733 146.769,716.617C143.925,718.058 140.451,720.069 139.049,721.085C133.899,724.816 119.437,725.654 110,722.767C104.235,721.004 93.2158,712.184 89,705.959C87.625,703.929 85.6,700.99 84.5,699.428C82.5253,696.624 82.4967,694.757 82.235,551.544C81.9467,393.731 81.7825,398.944 87.5078,384.186C88.9342,380.508 91.4285,374.849 93.0506,371.61C94.6728,368.37 96,365.167 96,364.492C96,362.407 106.325,347.748 111.138,343C124.855,329.466 130.765,324 131.679,324C132.241,324 134.513,322.686 136.73,321.081C143.437,316.222 159.097,309.192 166,307.941C169.575,307.293 175.65,305.808 179.5,304.64C186.431,302.538 187.414,302.519 279,302.631C368.782,302.742 371.794,302.806 381.5,304.838C387,305.989 395.387,307.59 400.138,308.396C405.631,309.327 410.872,310.979 414.529,312.93C417.693,314.619 421.055,316 422.001,316C422.947,316 425.3,317.072 427.231,318.382C429.161,319.692 432.936,322.033 435.62,323.584C438.304,325.136 442.219,327.777 444.32,329.453C450.107,334.07 464.981,349.095 466.607,351.965C467.396,353.359 470.5,357.875 473.504,362C476.508,366.125 480.161,371.75 481.622,374.5C483.083,377.25 485.566,381.065 487.139,382.978C488.713,384.891 490,387.012 490,387.693C490,388.374 491.289,390.409 492.865,392.215C494.441,394.022 496.044,396.504 496.427,397.731C496.81,398.959 498.895,402.322 501.061,405.205C503.228,408.087 505,410.875 505,411.4C505,411.924 506.508,414.637 508.351,417.427C510.194,420.217 513.375,425.2 515.42,428.5C531.836,454.99 530.496,453.317 534.673,452.534C538.277,451.857 555.771,443.062 559.885,439.858C561.197,438.836 562.744,438 563.325,438C564.288,438 568.233,435.799 584,426.464C587.025,424.674 591.792,422.532 594.593,421.705C597.393,420.878 601.643,419.202 604.036,417.982C613.101,413.357 627.888,417.247 642.346,428.06C646.88,431.451 648.205,433.102 649.034,436.394C649.603,438.652 650.952,442.903 652.034,445.839C654.748,453.208 654.505,456.902 650.525,468.83C647.574,477.673 646.46,479.726 642.789,483.095C640.43,485.26 636.895,487.891 634.933,488.943C632.971,489.994 630.748,491.598 629.993,492.509C629.238,493.419 626.118,495.507 623.06,497.149C620.002,498.792 614.125,502.114 610,504.532C605.875,506.95 600.111,510.076 597.192,511.478C594.272,512.879 590.672,514.863 589.192,515.885C587.711,516.908 584.32,519.039 581.655,520.622C578.991,522.205 573.591,525.413 569.655,527.752C565.72,530.091 560.475,532.933 558,534.069C555.525,535.205 552.6,536.97 551.5,537.991C550.4,539.012 546.498,540.974 542.828,542.35C539.158,543.726 534.947,545.644 533.47,546.612C530.086,548.829 515.301,548.843 509.41,546.635C493.156,540.542 492.795,540.34 485.791,533.436C481.949,529.648 477.759,524.485 476.481,521.962C475.202,519.439 473.411,516.756 472.5,516C471.589,515.244 469.799,512.572 468.521,510.063C467.243,507.553 465.028,504.409 463.599,503.076C462.17,501.742 461,500.157 461,499.554C461,498.95 459.716,496.891 458.146,494.978C456.576,493.065 454.489,489.925 453.508,488C451.372,483.808 446.558,476.739 442.757,472.213C441.238,470.405 438.88,466.723 437.515,464.03C434.97,459.008 428.065,453.654 425.434,454.664C424.73,454.934 423.332,456.807 422.327,458.827C420.577,462.346 420.479,472.835 420,709L419.5,955.5L417.374,961.5C416.205,964.8 414.684,969.3 413.994,971.5C413.303,973.7 411.447,977.276 409.869,979.447C408.291,981.618 407,983.902 407,984.523C407,986.158 403.35,989.196 396.5,993.26C392.241,995.788 387.589,997.427 380.466,998.91C368.438,1001.42 367.93,1001.41 356.5,998.589ZM925,1000.01C924.175,999.484 921.025,998.54 918,997.912C910.514,996.36 907.959,994.89 901.158,988.223C895.895,983.064 895.008,981.564 892.16,972.998L889,963.495L889,879.829L889,796.163L892.368,794.082C895.608,792.079 897.035,792 929.918,792C959.626,792 964.518,792.215 967.3,793.64C969.06,794.541 970.794,795.735 971.153,796.292C971.513,796.849 971.849,832.648 971.901,875.845C971.98,941.767 971.751,955.84 970.476,963.442C967.15,983.274 958.489,993.301 939.791,998.967C932.538,1001.16 927.376,1001.53 925,1000.01ZM812.483,998.134C805.165,996.038 794.591,989.679 791.542,985.541C788.865,981.907 786.713,976.536 784.468,967.887C783.009,962.261 782.762,951.709 782.396,879.347L781.98,797.195L785.067,794.597L788.153,792L824.154,792L860.154,792L862.926,794.772L865.698,797.544L865.74,876.925C865.778,950.444 865.644,956.974 863.924,965.369C862.9,970.368 860.595,977.354 858.784,980.946C854.638,989.17 846.915,994.908 835.874,997.968C827.084,1000.4 820.568,1000.45 812.483,998.134ZM727.5,767.352C718.661,765.515 712.976,763.359 709.5,760.524C704.374,756.345 697.994,745.005 698.018,740.118C698.04,735.805 704.191,716.036 706.984,711.303C708.067,709.467 709.928,704.711 711.119,700.733C712.31,696.755 714.309,691.7 715.561,689.5C716.812,687.3 718.36,683.475 718.999,681C719.638,678.525 721.08,674.925 722.202,673C723.325,671.075 724.902,667.25 725.707,664.5C726.512,661.75 728.243,657.645 729.553,655.378C730.862,653.111 732.425,649.065 733.025,646.387C733.625,643.709 735.406,638.981 736.982,635.879C738.558,632.777 740.417,628.273 741.112,625.87C741.807,623.466 743.605,619.25 745.109,616.5C746.612,613.75 748.364,609.475 749.002,607C749.639,604.525 750.96,601.121 751.937,599.436C752.914,597.751 754.733,593.251 755.98,589.436C757.227,585.621 759.114,581.061 760.173,579.302C761.232,577.544 762.998,572.857 764.098,568.888C765.198,564.918 766.94,560.489 767.968,559.045C768.996,557.601 770.808,553.513 771.993,549.96C773.179,546.407 774.721,542.6 775.42,541.5C776.12,540.4 777.717,536.35 778.97,532.5C780.223,528.65 782.052,524.15 783.035,522.5C784.019,520.85 785.582,516.8 786.51,513.5C787.438,510.2 789.269,505.914 790.579,503.975C791.888,502.036 793.232,498.886 793.564,496.975C794.443,491.922 795.974,487.97 798.591,484C799.86,482.075 801.378,478.342 801.964,475.704C802.55,473.066 804.373,468.39 806.015,465.313C808.475,460.702 809,458.54 809,453.014C809,444.268 807.313,442.5 798.968,442.5C790.75,442.5 788.141,444.672 785.357,453.828C784.164,457.751 782.289,462.431 781.189,464.23C780.09,466.028 778.502,469.844 777.661,472.709C776.82,475.575 775.006,479.85 773.63,482.209C772.254,484.569 770.342,489.425 769.382,493C768.422,496.575 766.848,500.652 765.885,502.061C764.921,503.47 763.824,505.945 763.446,507.561C763.069,509.177 761.275,513.466 759.461,517.092C757.647,520.718 755.639,525.668 755,528.092C754.362,530.516 752.919,534.075 751.795,536C750.671,537.925 748.881,542.65 747.818,546.5C746.754,550.35 744.813,555.075 743.503,557C742.193,558.925 740.572,562.75 739.901,565.5C739.23,568.25 737.457,572.75 735.961,575.5C734.466,578.25 732.723,582.671 732.088,585.323C731.453,587.976 729.642,592.476 728.062,595.323C726.483,598.171 724.867,602.075 724.472,604C724.077,605.925 722.491,609.975 720.948,613C719.404,616.025 717.612,620.525 716.965,623C716.319,625.475 714.747,629.3 713.473,631.5C712.2,633.7 710.41,638.105 709.497,641.288C707.07,649.746 700.211,660.283 694.388,664.5C686.713,670.057 683.788,671.002 672.207,671.664C656.451,672.566 651.609,670.957 642.838,661.902C634.69,653.492 630.31,645.702 628.953,637.207C627.829,630.171 628.888,621.669 631.374,617.773C632.172,616.523 633.754,612.447 634.891,608.715C636.027,604.984 638.035,600.034 639.354,597.715C640.673,595.397 642.283,591.286 642.933,588.581C643.582,585.875 645.167,581.825 646.455,579.581C647.742,577.336 649.559,572.81 650.492,569.522C651.425,566.234 653.004,562.399 654,561C654.996,559.601 656.591,555.766 657.544,552.478C658.497,549.19 660.565,544.214 662.139,541.419C663.712,538.625 665,535.659 665,534.829C665,533.999 666.377,530.563 668.061,527.195C669.744,523.826 671.961,518.132 672.988,514.541C674.015,510.95 675.73,506.772 676.798,505.256C677.867,503.74 679.51,499.8 680.449,496.5C681.389,493.2 683.185,488.7 684.442,486.5C685.699,484.3 687.525,480.025 688.5,477C689.476,473.975 691.158,469.742 692.238,467.593C693.318,465.443 694.88,461.393 695.71,458.593C696.539,455.792 698.248,451.7 699.507,449.5C700.765,447.3 702.56,442.806 703.494,439.513C704.429,436.22 706.238,431.72 707.515,429.513C708.792,427.306 710.36,423.475 711,421C711.64,418.525 713.271,414.587 714.625,412.248C715.979,409.909 718.15,404.959 719.45,401.248C724.822,385.912 728.602,376.352 730.254,373.921C731.218,372.502 732.685,369.057 733.514,366.265C737.304,353.502 747.697,336.742 758.5,325.973C760.786,323.694 773.313,315.035 775.183,314.442C776.296,314.089 778.702,312.785 780.53,311.544C782.358,310.304 786.668,308.735 790.108,308.059C793.547,307.382 798.643,305.864 801.431,304.685C806.42,302.576 807.532,302.539 872,302.325C925.451,302.149 938.696,302.37 944,303.528C962.318,307.526 968.769,309.283 971.5,311.019C973.15,312.068 976.75,314.13 979.5,315.603C982.25,317.075 986.476,320.017 988.891,322.14C991.306,324.263 993.556,326.008 993.891,326.019C994.468,326.036 999.002,331.332 1007.98,342.479C1010.19,345.218 1012.5,349.043 1013.11,350.979C1013.72,352.916 1015.25,356.3 1016.5,358.5C1017.76,360.7 1019.5,364.931 1020.38,367.903C1021.26,370.875 1022.88,374.821 1023.97,376.672C1025.06,378.524 1026.69,382.617 1027.58,385.769C1028.47,388.921 1030.31,393.431 1031.67,395.791C1033.02,398.15 1034.82,402.425 1035.65,405.291C1036.49,408.156 1038.2,412.3 1039.46,414.5C1040.72,416.7 1042.52,421.2 1043.46,424.5C1044.41,427.8 1045.98,431.85 1046.97,433.5C1047.95,435.15 1049.53,438.975 1050.49,442C1051.44,445.025 1053.24,449.3 1054.49,451.5C1055.73,453.7 1057.52,458.179 1058.46,461.453C1059.4,464.727 1061.03,468.498 1062.08,469.833C1063.13,471.168 1064.94,475.465 1066.11,479.38C1067.27,483.296 1069.26,488.3 1070.54,490.5C1071.81,492.7 1073.16,496.3 1073.53,498.5C1073.91,500.7 1075.26,504.136 1076.54,506.136C1077.83,508.137 1079.63,512.412 1080.54,515.636C1081.46,518.861 1083.24,523.306 1084.51,525.513C1085.77,527.72 1087.58,532.22 1088.52,535.513C1089.46,538.806 1091.08,542.917 1092.13,544.649C1093.18,546.381 1094.93,550.4 1096.03,553.582C1097.12,556.763 1098.9,560.867 1099.99,562.702C1101.07,564.537 1102.68,568.617 1103.57,571.769C1104.46,574.921 1106.28,579.195 1107.62,581.266C1108.96,583.337 1110.73,587.706 1111.57,590.974C1112.41,594.243 1114.16,598.848 1115.47,601.208C1116.77,603.569 1118.6,608.2 1119.52,611.5C1120.45,614.8 1121.95,618.625 1122.85,620C1124.07,621.849 1124.49,624.712 1124.44,631C1124.4,638.268 1123.93,640.556 1121.22,646.786C1113.67,664.167 1101.97,672 1083.54,672C1073.07,672 1066.41,670.214 1059.75,665.625C1053.87,661.581 1046.51,651.504 1044.82,645.2C1044.27,643.165 1042.63,639.475 1041.17,637C1039.71,634.525 1037.33,629.125 1035.88,625C1030.74,610.435 1027.04,600.991 1025.6,598.759C1024.8,597.516 1023.17,593.431 1021.97,589.681C1020.76,585.93 1018.75,580.98 1017.49,578.681C1016.23,576.381 1014.88,572.925 1014.5,571C1014.12,569.075 1012.73,565.539 1011.41,563.143C1010.1,560.746 1008.06,555.571 1006.9,551.643C1005.73,547.714 1003.98,543.375 1003.02,542C1002.05,540.625 1000.49,536.8 999.551,533.5C998.611,530.2 996.81,525.7 995.547,523.5C994.285,521.3 992.493,516.861 991.565,513.636C990.637,510.412 988.822,506.137 987.532,504.136C986.241,502.136 984.677,498.035 984.055,495.023C983.433,492.01 981.811,487.646 980.45,485.325C979.09,483.004 977.142,478.423 976.122,475.144C975.102,471.866 973.37,467.905 972.274,466.342C971.178,464.779 969.477,461.025 968.494,458C966.251,451.097 961.585,444.173 958.347,442.942C953.541,441.115 948.106,441.803 945.318,444.591C942.853,447.056 942.753,447.568 943.268,455.085C943.72,461.681 944.403,464.067 947.394,469.509C949.366,473.096 951.489,478.161 952.114,480.765C952.738,483.369 954.274,487.306 955.527,489.513C956.781,491.72 958.57,496.22 959.504,499.513C960.438,502.806 961.994,506.881 962.961,508.569C963.928,510.257 965.512,514.082 966.48,517.069C967.449,520.056 969.478,524.75 970.989,527.5C972.5,530.25 974.279,534.75 974.942,537.5C975.605,540.25 977.405,544.75 978.942,547.5C980.479,550.25 982.271,554.714 982.925,557.419C983.579,560.125 985.184,564.175 986.491,566.419C987.798,568.664 989.42,572.75 990.094,575.5C990.768,578.25 992.562,582.75 994.081,585.5C995.6,588.25 997.365,592.525 998.003,595C998.641,597.475 1000.21,601.306 1001.48,603.513C1002.76,605.72 1004.59,610.22 1005.54,613.513C1006.5,616.806 1008.52,621.75 1010.04,624.5C1011.57,627.25 1013.12,631.075 1013.5,633C1013.88,634.925 1015.29,638.402 1016.63,640.728C1017.96,643.053 1019.56,647.439 1020.17,650.475C1020.78,653.51 1022.75,658.286 1024.56,661.087C1026.53,664.156 1028.11,668.147 1028.52,671.131C1028.94,674.193 1030.15,677.217 1031.7,679.052C1033.07,680.685 1034.86,684.604 1035.67,687.76C1036.49,690.917 1038.02,694.997 1039.09,696.827C1040.15,698.657 1041.98,703.157 1043.15,706.827C1044.32,710.497 1046.3,715.3 1047.54,717.5C1052.07,725.511 1053.33,740.09 1050.33,749.627C1048.17,756.476 1043.52,760.911 1034.33,764.894L1027.16,768L878.332,767.884C796.475,767.82 728.6,767.581 727.5,767.352ZM292.5,277.93C277.328,276.406 270.246,273.824 250.833,262.737C245.513,259.698 226,240.375 226,238.145C226,237.639 224.486,235.023 222.635,232.333C220.784,229.642 218.524,224.875 217.613,221.74C216.701,218.604 215.077,214.55 214.004,212.731C211.476,208.447 210.043,198.27 210.027,184.5C210.012,170.729 211.415,161.875 214.45,156.599C215.747,154.345 217.113,150.603 217.486,148.284C217.859,145.965 219.451,142.449 221.024,140.47C222.597,138.491 224.625,134.93 225.532,132.557C226.438,130.184 228.178,127.708 229.398,127.054C230.619,126.401 232.266,124.809 233.059,123.517C235.729,119.163 251.422,106.375 257.473,103.623C260.758,102.129 264.133,100.287 264.973,99.53C265.813,98.7728 269.457,97.469 273.071,96.6325C276.686,95.796 282.086,94.1106 285.071,92.8872C289.76,90.9658 292.34,90.6627 304,90.6627C315.673,90.6627 318.237,90.9648 322.946,92.894C325.941,94.1212 331.659,95.8009 335.652,96.6267C344.04,98.3614 351.58,102.77 364.077,113.25C368.505,116.963 372.494,120 372.942,120C373.391,120 374.298,121.306 374.959,122.901C375.62,124.497 377.293,126.859 378.678,128.151C380.062,129.443 382.102,132.3 383.212,134.5C384.321,136.7 386.234,139.85 387.463,141.5C388.692,143.15 390.029,146.3 390.433,148.5C390.837,150.7 392.585,155.65 394.318,159.5C397.464,166.488 397.47,166.531 397.485,184L397.5,201.5L393.586,213.352C391.433,219.871 388.626,226.746 387.347,228.63C386.069,230.514 384.302,233.449 383.421,235.153C380.901,240.026 374.117,247.885 365.858,255.5C357.394,263.303 352.128,266.796 344,270C340.978,271.191 337.985,272.597 337.349,273.125C335.249,274.868 329.654,276.082 317,277.54C303.407,279.106 304.094,279.095 292.5,277.93ZM859.502,277.371C854.16,276.539 848.066,274.806 844.502,273.105C841.201,271.529 837.375,269.896 836,269.475C834.625,269.055 831.256,267.201 828.513,265.355C825.771,263.51 822.931,262 822.203,262C820.526,262 807.231,248.388 801.249,240.547C798.751,237.272 795.819,232.547 794.734,230.047C793.649,227.546 791.843,224.495 790.721,223.266C788.449,220.777 784.52,202.882 783.396,189.904C782.78,182.797 784.147,170.591 787.024,157.5C788.154,152.356 796.714,134 797.982,134C798.514,134 799.702,132.537 800.623,130.75C802.933,126.267 813.412,114.954 817.647,112.372C819.566,111.202 822.343,109.114 823.818,107.734C828.408,103.437 841.427,97.2616 849.675,95.469C853.979,94.5334 860.2,92.8695 863.5,91.7715C868.519,90.1012 871.298,89.8536 880.5,90.256C887.633,90.568 892.906,91.3329 895.5,92.432C897.7,93.3641 902.379,94.7985 905.898,95.6195C915.563,97.8745 935.604,109.98 944.145,118.722C960.044,134.996 969.158,156.389 970.678,181C971.345,191.803 966.96,217.004 963.559,221.921C962.197,223.889 960.431,227.348 959.636,229.606C958.841,231.864 956.685,235.875 954.845,238.52C949.775,245.807 935.011,260.156 929.442,263.209C926.724,264.7 923.375,266.572 922,267.37C910.517,274.038 904.312,276.027 890.396,277.504C874.059,279.238 871.412,279.226 859.502,277.371Z" fill-rule="evenodd" fill="#000000"/>
</g>
</svg>
