<?xml version='1.0' encoding='utf-8'?>
<!-- Generator: imaengine 6.0   -->
<svg xmlns:xlink="http://www.w3.org/1999/xlink" xmlns="http://www.w3.org/2000/svg" viewBox="0,0,1208,1133" style="enable-background:new 0 0 1208 1133;" version="1.1">
<defs/>
<g id="layer0">
<path d="M724.5,969.38C722.3,968.566 718.261,967.414 715.525,966.819C706.849,964.933 696.169,958.66 688,950.652C678.33,941.172 676.251,938.387 670.712,927.5C666.762,919.736 665.845,916.714 664.033,905.5C661.935,892.513 661.934,892.261 662.261,655L662.588,417.5L664.753,404.683C666.205,396.085 667.884,389.83 669.854,385.683C671.469,382.282 673.54,377.925 674.456,376C677.137,370.366 682.3,361.603 685,358.105C689.282,352.555 705.941,336.001 707.253,335.99C707.939,335.985 710.476,334.41 712.891,332.49C715.306,330.571 717.789,329 718.409,329C719.029,329 721.213,327.86 723.264,326.467C725.314,325.074 730.706,323.027 735.246,321.918C739.786,320.809 746.089,319.024 749.254,317.951C754.046,316.326 757.64,316.012 770.754,316.073C779.414,316.113 788.75,316.513 791.5,316.962C804.424,319.071 817.123,322.499 823.5,325.599C827.35,327.47 831.047,329.001 831.715,329.001C832.384,329 834.409,330.268 836.215,331.819C838.022,333.369 841.075,335.261 843,336.024C844.98,336.809 851.158,342.104 857.228,348.22C866.894,357.958 871.266,363.416 877.534,373.57C878.652,375.382 880.341,377.72 881.287,378.765C882.233,379.81 883.748,382.878 884.653,385.583C885.559,388.287 887.066,391.625 888.002,393C888.939,394.375 890.746,399.775 892.018,405C893.29,410.225 894.947,415.987 895.701,417.804C898.505,424.562 899.117,448.443 898.808,539.064L898.5,629.5L896,633.495C894.625,635.693 892.782,639.073 891.905,641.007C890.799,643.447 888.351,645.744 883.905,648.512C877.874,652.267 877.063,652.496 870,652.432C863.487,652.374 861.771,651.949 856.958,649.204C850.25,645.379 846.698,641.813 844.303,636.5C842.619,632.764 842.467,626.322 842,539L841.5,445.5L839.237,441.265C836.152,435.49 833.299,433.769 828.173,434.588C821.032,435.73 820.639,436.798 819.994,456.82C819.681,466.544 819.667,511.65 819.962,557.055L820.5,639.609L823.862,646.23C825.711,649.872 829.43,655.461 832.127,658.65C834.823,661.839 837.471,666.035 838.009,667.974C838.625,670.189 838.991,718.105 838.994,796.808C839,920.381 838.971,922.256 836.892,932.308C834.6,943.385 833.373,946.448 830,949.5C828.787,950.597 827.164,952.716 826.392,954.209C825.62,955.701 822.854,958.164 820.244,959.683C817.635,961.201 814.069,963.404 812.32,964.579C810.571,965.754 805.196,967.543 800.376,968.555C791.703,970.375 791.505,970.372 781.246,968.272C775.544,967.105 769.894,965.429 768.689,964.547C767.485,963.665 764.836,961.718 762.803,960.221C759.5,957.79 751.008,946.659 751.002,944.753C751.001,944.342 749.669,941.189 748.043,937.747C742.286,925.563 742.108,921.069 742.026,785.934C741.986,719.145 741.608,662.925 741.186,661C740.09,655.991 734.248,652.83 728.17,653.958C722.779,654.957 721.969,655.764 720.924,661.17C719.726,667.37 719.802,900.512 721.008,917.233C721.552,924.786 722.708,932.886 723.576,935.233C724.444,937.58 726.219,942.507 727.521,946.182C728.824,949.857 731.503,955.295 733.477,958.267C737.183,963.85 737.3,965.633 734.193,969.25C732.4,971.338 729.887,971.372 724.5,969.38ZM241,968.639C232.004,966.531 228.786,965.201 223.062,961.227C218.296,957.917 216.912,956.096 211.853,946.477C207.977,939.107 205.891,933.86 205.501,930.501C205.182,927.751 204.826,821.08 204.71,693.456C204.512,474.556 204.401,461.261 202.754,458.747C201.732,457.188 199.35,455.586 197.013,454.886C193.579,453.857 192.439,453.949 188.909,455.541C186.598,456.583 184.298,458.511 183.65,459.947C182.815,461.801 182.363,493.179 182,574.5C181.697,642.414 181.127,687.09 180.552,688C176.308,694.716 169.136,702.281 163.644,705.832C158.454,709.188 155.793,710.188 149.848,711.015C137.741,712.699 130.848,710.764 119.527,702.502C114.532,698.858 113.124,697.02 107,686.16C105.687,683.831 105.5,666.429 105.5,546.5C105.5,420.585 105.638,408.974 107.206,403C109.771,393.226 113.864,381.81 115.433,380.056C116.199,379.2 117.991,376.025 119.417,373C122.318,366.841 125.292,362.33 130.186,356.661C133.142,353.235 135.534,350.863 147.487,339.5C149.222,337.85 151.96,335.725 153.571,334.779C155.182,333.832 157.175,332.631 158,332.11C163.567,328.593 177.633,322.773 183.5,321.559C187.35,320.763 192.525,319.302 195,318.313C199.179,316.643 205.285,316.493 280.5,316.212C361.836,315.908 378.703,316.401 390.5,319.424C393.8,320.27 399.425,321.371 403,321.87C409.727,322.81 427.721,329.905 434.948,334.467C437.155,335.86 439.307,337 439.73,336.999C440.154,336.999 441.85,338.319 443.5,339.933C445.15,341.547 449.699,345.993 453.61,349.814C461.386,357.411 470.424,368.357 473.8,374.267C474.984,376.338 476.427,378.588 477.008,379.267C479.058,381.661 486.17,394.19 487.259,397.325C487.865,399.071 489.63,402.255 491.181,404.4C492.731,406.545 494,408.819 494,409.453C494,410.087 495.29,412.382 496.866,414.553C498.443,416.724 500.314,420.3 501.025,422.5C502.622,427.441 506.605,432.665 510.248,434.594C512.72,435.903 513.372,435.859 516.748,434.152C523.404,430.787 532.459,425.727 534,424.512C534.825,423.862 537.075,422.734 539,422.005C540.925,421.277 543.625,419.657 545,418.405C546.375,417.153 549.629,415.219 552.232,414.108C554.835,412.996 558.21,411.211 559.732,410.14C563.515,407.48 583.197,402.679 587.826,403.287C589.847,403.553 594.61,404.965 598.411,406.427C606.631,409.587 611.562,414.545 617.248,425.367C622.273,434.933 622.351,440.678 617.615,452.424C612.705,464.601 608.819,468.833 595.84,476.142C594.237,477.045 591.248,478.894 589.199,480.25C587.15,481.605 584.465,483.035 583.231,483.427C581.998,483.818 579.68,485.24 578.079,486.587C576.479,487.933 572.769,490.181 569.835,491.582C562.983,494.853 553.773,500.079 551.496,501.988C550.519,502.807 547.421,504.655 544.61,506.096C534.787,511.131 529.641,514.015 528.076,515.362C527.209,516.109 522.69,518.606 518.033,520.911C507.815,525.968 497.007,527.88 488.403,526.152C475.557,523.572 458.795,510.547 452.819,498.5C447.524,487.827 443.545,480.423 441.496,477.428C440.393,475.818 438.692,472.918 437.714,470.984C436.736,469.049 434.103,465.322 431.862,462.7C427.441,457.529 426.075,457.572 423.646,462.959C422.8,464.835 422.369,526.121 422,697L421.5,928.5L418.291,937.714C416.526,942.782 413.489,949.245 411.541,952.077C409.594,954.908 408,957.522 408,957.885C408,958.248 406.425,959.393 404.5,960.43C402.575,961.467 401,962.622 401,962.997C401,965.079 382.391,969.986 374.5,969.985C368.773,969.984 355.725,967.063 351.949,964.937C340.614,958.553 337.055,955.006 331.889,944.946C330.634,942.5 328.72,939.276 327.637,937.779C324.477,933.415 324.085,916.187 324.106,782.802C324.119,702.702 323.778,659.454 323.124,658.231C322.572,657.201 320.323,655.547 318.124,654.556C313.501,652.471 308.46,652.997 304.821,655.943L302.5,657.823L302,794.661L301.5,931.5L299.287,935.5C298.07,937.7 295.971,941.975 294.622,945C290.57,954.087 279.355,963.644 268.329,967.406C261.825,969.625 247.888,970.254 241,968.639ZM913.5,969.359C903.494,966.723 900.396,965.347 894.974,961.135C889.463,956.852 888.454,955.461 884.682,946.943L880.5,937.5L880.19,863C880.019,822.025 880.165,786.132 880.513,783.238C881.499,775.05 880.896,775.177 919.986,774.919C952.678,774.703 953.388,774.74 955.713,776.812L958.086,778.925L957.96,854.212C957.887,898.155 957.416,932.618 956.831,936.989C954.736,952.623 946.744,962.646 932.5,967.506C927.322,969.272 916.995,970.28 913.5,969.359ZM1008,968.113C1003.67,966.937 999.271,964.725 994.836,961.498C988.233,956.693 988.134,956.55 983.896,945.734L979.618,934.819L979.812,863.659C979.918,824.522 980.004,789.215 980.002,785.199L980,777.898L983.468,776.449C986.258,775.283 993.371,775 1019.86,775C1049.74,775 1052.98,775.162 1054.94,776.753L1057.11,778.506L1056.8,860.003L1056.5,941.5L1054.27,946C1049.84,954.964 1047.99,957.556 1043.78,960.73C1037.16,965.725 1034.63,966.895 1026.97,968.506C1018.15,970.362 1016.12,970.32 1008,968.113ZM865.897,751.766C861.588,750.173 861.075,746.154 860.897,712.624C860.771,688.811 861.034,680.663 861.966,679.541C862.645,678.723 864.843,677.814 866.85,677.521C877.791,675.927 882.591,674.592 890.151,671.042C903.944,664.565 911.609,655.71 916.885,640.156L920.5,629.5L920.5,527.5L920.5,425.5L918.281,418.448C917.061,414.569 915.432,407.461 914.662,402.652C913.705,396.674 912.616,393.211 911.221,391.704C910.098,390.492 908.678,387.613 908.066,385.306C906.804,380.551 898.839,364.759 894.293,358C892.628,355.525 890.974,351.88 890.616,349.9C889.979,346.376 890.11,346.193 896.892,341.15C900.701,338.318 904.154,336 904.564,336C904.975,336 906.708,334.935 908.415,333.633C915.919,327.909 936.21,320 943.389,320C944.691,320 947.324,319.345 949.24,318.544C951.284,317.69 958.056,316.818 965.613,316.436C976.007,315.911 979.758,316.109 985,317.46C988.575,318.382 995.477,319.963 1000.34,320.975C1010.12,323.012 1020.2,327.418 1034.5,335.917C1042.4,340.607 1059.09,357.266 1062.36,363.716C1063.79,366.544 1065.39,369.124 1065.92,369.448C1066.44,369.773 1067.82,372.574 1068.98,375.673C1070.14,378.773 1072.31,383.827 1073.79,386.904L1076.5,392.5L1076.8,508.5C1076.97,572.3 1076.83,627.298 1076.48,630.717C1075.9,636.402 1075.45,637.349 1071.17,641.765C1064.7,648.45 1056.58,652.293 1048.67,652.409C1040.79,652.525 1030.94,647.955 1026.75,642.245C1020.02,633.068 1020.52,640.703 1020.31,543C1020.12,451.777 1019.9,441.554 1018.12,438.233C1016.78,435.712 1009.44,433.696 1005.57,434.784C1003.95,435.237 1001.7,436.854 1000.57,438.377C998.51,441.133 998.5,441.635 998.5,539.324L998.5,637.5L1002.34,645.184C1006.02,652.57 1011.38,658.88 1019.46,665.364C1025.01,669.81 1037.28,674.141 1045.99,674.727C1052.57,675.171 1054.73,674.831 1063.5,671.967C1069.94,669.862 1074.58,667.687 1076.55,665.85C1078.22,664.283 1080.05,663 1080.6,663C1081.15,663 1083.11,661.446 1084.96,659.546C1087.66,656.76 1088.66,656.283 1090.15,657.081C1091.51,657.809 1092,659.212 1092,662.386C1092,664.76 1092.43,668.006 1092.95,669.601C1095.25,676.582 1098.73,733.96 1097.11,738.214C1095.85,741.514 1089.5,747.585 1084.63,750.136C1080.82,752.133 1079.14,752.167 974.32,752.332C915.779,752.424 866.989,752.17 865.897,751.766ZM295.885,292.545C288.723,291.521 284.876,290.383 280.804,288.085C277.798,286.388 274.432,285 273.324,285C272.216,285 270.453,284.051 269.405,282.892C268.357,281.732 265.311,279.674 262.636,278.317C259.961,276.961 255.621,273.522 252.992,270.675C243.702,260.618 239,254.919 238.999,253.717C238.998,253.047 237.861,251.179 236.473,249.564C235.084,247.949 233.283,244.349 232.47,241.564C231.658,238.779 229.916,234.377 228.599,231.783C223.59,221.914 224.17,189.224 229.534,179.149C230.89,176.601 232,173.482 232,172.218C232,169.46 235.211,162.899 237.485,161.013C238.382,160.268 239.707,158.273 240.431,156.58C241.728,153.544 254.688,139.984 261.172,134.88C266.518,130.671 280.232,124.216 288.582,121.978C292.827,120.84 297.02,119.538 297.9,119.083C301.214,117.37 309.311,116.909 316.774,118.009C328.65,119.76 345.957,123.909 349.277,125.801C350.916,126.735 353.911,128.4 355.932,129.5C361.09,132.308 372,140.236 372,141.177C372,141.607 373.793,142.874 375.984,143.992C378.486,145.269 380.2,146.947 380.591,148.507C380.934,149.872 382.737,152.904 384.597,155.245C386.458,157.585 387.985,160.047 387.99,160.715C387.996,161.384 389.286,163.409 390.857,165.215C392.429,167.022 394.045,170.299 394.449,172.499C394.853,174.698 396.302,179.154 397.669,182.402C403.115,195.34 402.661,216.478 396.562,234C394.552,239.775 391.878,246.075 390.62,248C381.724,261.612 378.287,265.955 372.124,271.367C365.473,277.207 354.289,285 352.558,285C352.112,285 349.154,286.318 345.983,287.929C342.813,289.54 337.789,291.307 334.818,291.857C325.009,293.67 306.083,294.005 295.885,292.545ZM758.5,293.414C748.486,291.991 742.647,290.413 736,287.331C722.839,281.231 718.802,278.659 711.154,271.5C704.098,264.896 697.499,256.746 694.664,251.134C693.655,249.135 691.733,245.887 690.393,243.916C688.809,241.585 687.417,237.234 686.412,231.474C685.561,226.603 684.366,221.691 683.755,220.559C683.143,219.426 682.445,213.769 682.203,207.986C681.805,198.491 682.059,196.438 684.828,186.78C686.514,180.899 688.189,174.509 688.551,172.58C688.913,170.65 689.885,168.511 690.71,167.826C691.536,167.141 693.233,164.312 694.482,161.54C697.133,155.658 708.577,142.982 717.285,136.281C725.078,130.284 738.348,123.453 744.057,122.498C746.5,122.09 750.75,120.832 753.5,119.704C760.502,116.831 779.719,116.879 788.5,119.791C791.8,120.886 797.2,122.546 800.5,123.481C803.8,124.415 807.175,125.762 808,126.473C808.825,127.185 811.442,128.743 813.815,129.937C820.595,133.347 833.756,143.857 837.569,148.906C846.363,160.553 848.327,163.627 850.016,168.394C851.011,171.202 852.732,175.324 853.84,177.553C856.658,183.217 858.355,199.851 857.508,213.5C856.608,228.014 855.466,233.7 852.592,237.969C851.285,239.911 849.692,243.155 849.054,245.178C846.106,254.512 830.096,273.175 819.643,279.461C808.416,286.212 798.229,290.755 791.81,291.873C784.748,293.102 763.293,294.095 758.5,293.414ZM955.179,292.904C948.216,292.197 944.414,291.228 940.154,289.078C937.016,287.494 932.569,285.692 930.27,285.073C927.972,284.454 924.833,282.898 923.295,281.614C921.758,280.331 919.136,278.583 917.47,277.729C915.803,276.875 911.078,272.488 906.97,267.981C902.861,263.473 898.263,258.468 896.75,256.858C895.237,255.248 894,253.393 894,252.735C894,252.078 892.446,249.022 890.547,245.945C888.219,242.174 886.443,237.369 885.098,231.204C884,226.174 882.536,221.032 881.845,219.779C881.035,218.311 880.614,213.587 880.662,206.5C880.726,196.978 881.231,193.754 884.42,182.5C886.447,175.35 888.981,168.281 890.052,166.79C891.124,165.3 892,163.64 892,163.101C892,162.562 893.717,160.138 895.816,157.713C897.914,155.288 900.177,151.998 900.844,150.402C901.51,148.806 903.341,146.6 904.912,145.5C906.483,144.4 910.858,140.862 914.634,137.637C918.41,134.413 923.077,131.038 925.005,130.137C926.932,129.237 930.097,127.511 932.037,126.303C933.977,125.095 937.8,123.621 940.532,123.028C943.264,122.436 947.672,121.035 950.327,119.915C954.176,118.291 957.415,117.868 966.327,117.828C976.033,117.784 979.365,118.258 991.708,121.436C1005.48,124.984 1011.97,127.872 1020.5,134.255C1025.88,138.279 1040.16,153.411 1042.03,157.067C1043.03,159.029 1044.54,161.207 1045.39,161.908C1046.23,162.609 1047.84,165.631 1048.96,168.623C1050.08,171.616 1051.65,175.062 1052.44,176.282C1054.83,179.94 1056.29,191.627 1056.29,207C1056.29,222.408 1054.94,231.609 1051.98,236.5C1050.98,238.15 1049.28,241.849 1048.19,244.721C1045.81,251.004 1041.21,257.178 1028.23,271.5C1023.18,277.071 1017.62,280.543 1002,287.896C991.849,292.673 972.873,294.703 955.179,292.904Z" fill-rule="evenodd" fill="#000000"/>
</g>
</svg>
