<?xml version='1.0' encoding='utf-8'?>
<!-- Generator: imaengine 6.0   -->
<svg xmlns:xlink="http://www.w3.org/1999/xlink" xmlns="http://www.w3.org/2000/svg" viewBox="0,0,1208,1208" style="enable-background:new 0 0 1208 1208;" version="1.1">
<defs/>
<g id="layer0">
<path d="M319,1207.08C318.175,1206.63 314.868,1205.07 311.651,1203.6C303.372,1199.81 297.536,1193.94 293.192,1185.02L289.533,1177.5L289.164,1149.24C288.799,1121.3 288.771,1120.98 286.647,1120.51C285.466,1120.25 274.6,1119.9 262.5,1119.73C244.168,1119.49 239.666,1119.13 235.5,1117.61C225.033,1113.77 216.175,1105.01 211.785,1094.15L209.5,1088.5L209.212,967.75L208.924,847L174.212,846.988C135.811,846.975 132.931,846.626 123.371,840.833C116.706,836.793 114.118,834.139 109.748,826.86C105.06,819.05 103.192,808.977 104.898,800.713C108.641,782.593 121.567,770.697 140.351,768.084C144.638,767.488 161.785,767 178.457,767L208.769,767L209.279,706.25C209.821,641.568 209.996,639.083 215.467,618.5C220.723,598.726 232.822,575.111 246.363,558.193C252.293,550.784 267.287,535.776 273.5,531.031C285.98,521.499 311.187,507 315.279,507C316.005,507 317.027,506.615 317.55,506.145C318.697,505.113 333.541,500.559 340.5,499.105C343.25,498.53 347.525,497.514 350,496.847C353.217,495.98 371.817,495.529 415.25,495.267C448.663,495.065 476,494.527 476,494.072C476,492.594 473.856,491.305 438,471.232C421.96,462.253 415.287,454.414 412.099,440.807C409.52,429.799 411.706,421.004 421,405C425.521,397.215 427.738,393.259 432.613,384.281C434.638,380.551 437.978,374.575 440.035,371C444.75,362.804 447.002,358.774 451.611,350.281C453.635,346.551 455.616,343.05 456.013,342.5C456.669,341.592 457.956,339.289 465.798,325C467.156,322.525 468.592,320.05 468.989,319.5C469.385,318.95 471.365,315.449 473.389,311.719C478.007,303.21 480.258,299.18 484.966,291C487.024,287.425 490.052,282.025 491.695,279C493.339,275.975 497.61,268.325 501.188,262C504.766,255.675 509.045,248.025 510.697,245C512.349,241.975 518.789,230.5 525.007,219.5C531.225,208.5 537.899,196.575 539.837,193C541.775,189.425 545.192,183.35 547.43,179.5C555.116,166.28 554.986,168.614 548.752,155.818C538.197,134.153 533.694,116.612 533.653,97C533.598,70.9414 542.631,49.1601 560.635,31.9314C577.72,15.5837 596.45,7.08186 627,1.80805C635.147,0.401594 674.964,0.366259 685,1.75658C702.686,4.20675 729.177,9.61714 740.5,13.0918C742.15,13.5981 747.325,15.1726 752,16.5906C759.446,18.8491 770.347,22.6014 776.5,25.0242C811.142,38.6639 833.454,49.2091 854.497,61.887C857.795,63.8742 861.249,65.95 862.173,66.5C883.578,79.2448 895.546,87.3446 915.481,102.58C937.11,119.111 938.115,119.997 959,140.977C986.362,168.463 1004.35,193.774 1017.28,223C1022.81,235.489 1028.02,259.462 1027.98,272.193C1027.95,283.555 1024.08,300.344 1018.94,311.508C1010.57,329.656 994.153,345.435 973.62,355.057C968.992,357.226 964.511,359 963.662,359C962.813,359 961.873,359.396 961.574,359.881C961.274,360.365 960.01,361.006 958.765,361.305C940.546,365.677 927.119,367.955 919.405,367.982C913.44,368.003 912.833,368.538 907.475,378.5C905.404,382.35 903.384,385.95 902.987,386.5C902.331,387.408 901.044,389.711 893.202,404C891.844,406.475 890.408,408.95 890.011,409.5C889.615,410.05 887.635,413.551 885.611,417.281C880.993,425.79 878.742,429.82 874.034,438C871.976,441.575 868.948,446.975 867.305,450C865.661,453.025 861.39,460.675 857.813,467C846.173,487.581 843.851,492.17 844.381,493.549C844.809,494.665 854.941,494.968 901.201,495.248C956.797,495.584 959.44,495.724 973,499.05C980.457,500.879 994.546,505.331 995.45,506.145C995.973,506.615 997.006,507 997.747,507C1000.27,507 1019.32,517.103 1028.93,523.535C1037.52,529.288 1043.73,534.326 1053.54,543.5C1066.72,555.826 1083.83,581.433 1090.96,599.5C1091.4,600.6 1092.3,602.85 1092.97,604.5C1097.2,614.904 1100.73,629.926 1102.52,645.116C1104.62,662.93 1104.67,1080.4 1102.57,1089.17C1100.21,1099.06 1095.29,1106.42 1087,1112.48C1078.48,1118.71 1075.07,1119.38 1048.5,1119.97L1024.5,1120.5L1023.96,1148.5C1023.65,1164.36 1022.95,1177.81 1022.34,1179.53C1018.51,1190.34 1010.12,1199.89 1000.95,1203.86C997.952,1205.16 994.719,1206.63 993.764,1207.11C991.515,1208.26 976.496,1208.27 974.236,1207.12C973.281,1206.63 970.25,1205.2 967.5,1203.93C957.528,1199.33 948.776,1188.75 945.908,1177.83C945.283,1175.45 944.485,1161.58 944.136,1147L943.5,1120.5L658,1120.23C500.975,1120.08 371.488,1120.2 370.25,1120.5L368,1121.04L368,1148.28C368,1172.91 367.81,1176.05 366.029,1180.92C362.166,1191.49 355.497,1199.08 346.074,1203.63C343.008,1205.11 339.719,1206.7 338.764,1207.16C336.568,1208.22 321.004,1208.15 319,1207.08ZM1023.5,844.5L1023.5,648.5L1021.13,640.5C1010.5,604.569 981.771,579.545 946.008,575.06C935.103,573.693 379.24,573.585 367.388,574.948C328.302,579.443 295.655,611.22 289.77,650.5C289.077,655.124 288.593,722.148 288.343,848C287.987,1026.87 288.069,1038.58 289.675,1039.75C291.039,1040.75 365.647,1040.95 657.443,1040.75L1023.5,1040.5L1023.5,844.5ZM751.167,493.75C752.019,493.062 754.076,490.025 755.738,487C757.4,483.975 760.238,478.8 762.044,475.5C766.755,466.889 768.851,463.173 770.396,460.686C771.144,459.484 773.096,456.025 774.734,453C776.372,449.975 783.917,436.475 791.5,423C799.083,409.525 806.638,396.025 808.29,393C809.941,389.975 812.976,384.575 815.034,381C819.742,372.82 821.993,368.79 826.611,360.281C828.635,356.551 830.616,353.05 831.013,352.5C831.41,351.95 833.218,348.8 835.031,345.5C839.473,337.413 843.253,330.639 849.68,319.25C851.155,316.637 852.87,313.527 853.492,312.337C855.97,307.596 863.193,299.205 867.229,296.377C875.576,290.53 878.644,289.885 902.5,288.965C936.124,287.668 945.784,284.453 948.387,273.695C950.201,266.199 941.555,245.349 929.646,228.5C922.343,218.168 903.868,196.714 897.764,191.478C895.855,189.84 890.514,185.073 885.896,180.885C878.38,174.068 873.127,169.88 854,155.456C848.653,151.424 828.014,138.074 825,136.697C824.175,136.32 820.575,134.162 817,131.9C799.002,120.514 747.411,97.4047 729.5,92.7068C726.2,91.8413 719.45,89.956 714.5,88.5173C709.55,87.0787 703.25,85.5191 700.5,85.0517C697.75,84.5842 689.875,83.2271 683,82.0359C672.376,80.195 667.724,79.9313 652,80.2786C631.456,80.7324 623.414,82.5019 616.807,88.022C613.613,90.6908 613.5,91.0367 613.506,98.1426C613.509,102.189 614.124,107.075 614.873,109C619.273,120.31 621.342,124.415 628.481,135.994C638.107,151.609 639.402,155.089 639.454,165.5C639.491,172.762 639.034,175.659 637.087,180.5C635.759,183.8 634.357,186.95 633.97,187.5C633.236,188.545 630.188,194.024 624.235,205C622.296,208.575 620.384,211.95 619.987,212.5C619.59,213.05 617.782,216.2 615.969,219.5C610.983,228.576 609.12,231.899 605.035,239C602.978,242.575 599.638,248.551 597.613,252.281C595.588,256.01 593.102,260.51 592.088,262.281C584.986,274.684 583,278.231 583,278.515C583,278.692 580.3,283.41 577,289C573.7,294.59 571,299.296 571,299.458C571,299.719 562.931,314.206 557.33,324C554.31,329.282 550.163,336.758 546.235,344C544.296,347.575 542.384,350.95 541.987,351.5C541.59,352.05 539.782,355.2 537.969,358.5C532.089,369.204 530.799,371.483 530.045,372.5C529.636,373.05 527.492,376.875 525.28,381C520.989,389 520.562,389.765 511.265,406.125C507.944,411.968 505.514,417.194 505.864,417.737C506.422,418.602 529.362,431.81 545,440.27C548.025,441.906 551.484,443.856 552.686,444.604C553.889,445.351 556.364,446.797 558.186,447.817C566.94,452.714 572.031,455.528 578,458.765C581.575,460.704 584.95,462.616 585.5,463.013C586.05,463.41 589.2,465.218 592.5,467.031C599.908,471.1 601.793,472.159 615.325,479.848C621.279,483.232 626.264,486 626.404,486C626.544,486 630.212,488.025 634.555,490.5L642.452,495L696.035,495C737.408,495 749.971,494.715 751.167,493.75Z" fill-rule="evenodd" fill="#000000"/>
</g>
</svg>
