<?xml version='1.0' encoding='utf-8'?>
<!-- Generator: imaengine 6.0   -->
<svg xmlns:xlink="http://www.w3.org/1999/xlink" xmlns="http://www.w3.org/2000/svg" viewBox="0,0,1208,1195" style="enable-background:new 0 0 1208 1195;" version="1.1">
<defs/>
<g id="layer0">
<path d="M220,1072.05C205.633,1066.9 196.509,1060.75 189.393,1051.43C187.527,1048.98 186,1046.6 186,1046.13C186,1045.66 185.13,1044.16 184.066,1042.81C183.003,1041.46 181.203,1036.71 180.066,1032.26C178.012,1024.21 178,1023.01 178,825.988L178,627.809L180.068,624.904C181.206,623.307 182.793,622 183.595,622C185.127,622 196.989,618.354 208,614.5C211.575,613.249 221.7,609.959 230.5,607.189C239.3,604.42 248.75,601.41 251.5,600.501C254.25,599.591 259.2,598.033 262.5,597.037C265.8,596.041 270.3,594.562 272.5,593.751C274.7,592.94 278.3,591.797 280.5,591.212C282.7,590.627 289.225,588.494 295,586.473C300.775,584.451 307.525,582.202 310,581.475C327.551,576.315 337.197,570.942 345.792,561.537C352.285,554.432 356.282,547.186 358.948,537.684C362.406,525.363 362.695,517.533 359.993,509.374C355.346,495.341 352.79,490.775 345.084,482.745C332.702,469.84 319.371,464.042 302.018,464.015C292.038,463.999 291.829,464.05 267,472.583C261.225,474.568 253.8,477.03 250.5,478.056C240.946,481.024 234.969,482.984 228,485.435C217.048,489.287 211.695,491.071 207,492.435C204.525,493.154 199.933,494.892 196.795,496.296C192.182,498.361 190.793,499.559 189.545,502.547C187.582,507.244 187.603,509.1 189.666,513.426C192.458,519.281 200.786,520.65 211,516.934C214.025,515.833 219.2,514.097 222.5,513.075C225.8,512.053 230.075,510.66 232,509.979C243.122,506.046 250.332,503.626 266.5,498.397C276.4,495.195 286.496,491.712 288.936,490.658C292.262,489.222 295.662,488.75 302.52,488.773C310.682,488.801 312.307,489.129 317.584,491.814C325.086,495.632 330.147,500.882 333.67,508.5C337.372,516.508 337.58,527.916 334.162,535.5C331.115,542.262 323.17,550.109 316.185,553.256C311.187,555.508 291.358,562.078 266.5,569.719C262.1,571.071 256.25,572.978 253.5,573.955C242.904,577.723 217,586 215.781,586.009C215.076,586.014 212.25,587.125 209.5,588.478C206.75,589.831 203.458,590.952 202.185,590.969C200.912,590.986 197.762,591.845 195.185,592.877C192.608,593.909 185.775,596.207 180,597.983C174.225,599.76 167.025,602.033 164,603.034C160.975,604.036 156.475,605.364 154,605.986C151.525,606.608 148.112,607.751 146.416,608.527C144.72,609.302 137.808,610.655 131.056,611.533C119.91,612.983 117.812,612.988 108.284,611.583C91.0382,609.04 79.4288,601.638 71.2963,588C68.5705,583.429 65,570.159 65,564.599C65,559.519 68.2122,543.196 70.9233,534.5C74.2484,523.834 81.1632,498.237 82.9441,490C83.5982,486.975 84.7708,482.925 85.5498,481C86.3288,479.075 87.6446,474.35 88.4737,470.5C89.3028,466.65 91.1608,459.45 92.6025,454.5C94.0442,449.55 95.9147,442.8 96.759,439.5C97.6034,436.2 99.0749,431.475 100.029,429C100.983,426.525 102.083,422.276 102.472,419.559C102.861,416.841 103.978,412.566 104.953,410.059C105.928,407.551 107.044,403.7 107.431,401.5C108.641,394.639 113.724,379.302 115.771,376.334C116.847,374.775 119.127,371.228 120.838,368.452C125.434,360.994 135.359,351.746 146.5,344.54C157.607,337.355 169.925,332.94 189,329.309C197.819,327.63 206.705,327.5 313,327.5C435.32,327.5 428.733,327.28 448,332C468.713,337.074 493.243,352.562 508.036,369.907C516.341,379.645 520.433,386.072 527.195,400C530.417,406.637 533.415,414.915 535.343,422.5L538.394,434.5L538.727,584.5C538.943,681.495 538.707,736.797 538.058,741C535.809,755.579 526.669,767.745 513,774.356C506.734,777.387 506.031,777.5 493.5,777.5C480.631,777.5 480.44,777.467 474.5,774.164C468.007,770.554 457.381,760.806 456.366,757.528C456.02,756.413 454.967,754.375 454.025,753C450.137,747.324 450,742.681 450,616.481L450,494.296L447.75,491.019C444.786,486.701 439.152,483.493 435.954,484.301C434.604,484.643 431.925,486.24 430,487.851L426.5,490.781L425.988,759.64L425.476,1028.5L422.703,1035.75C416.208,1052.74 403.596,1064.86 386.5,1070.56C379.225,1072.98 377.458,1073.18 367,1072.78C354.064,1072.29 349.038,1070.67 338.613,1063.62C332.922,1059.77 325,1052.35 325,1050.88C325,1050.48 323.857,1048.8 322.46,1047.14C321.063,1045.48 318.701,1040.83 317.21,1036.81L314.5,1029.5L314,873.663L313.5,717.826L310.736,715.449C306.914,712.161 301.211,710.574 297.848,711.861C296.39,712.419 293.915,714.556 292.348,716.61L289.5,720.344L289,875.922L288.5,1031.5L285.415,1038.74C283.718,1042.72 281.665,1046.77 280.852,1047.74C280.04,1048.71 278.621,1050.71 277.699,1052.2C274.872,1056.75 262.76,1065.76 254.928,1069.15C248.081,1072.11 246.523,1072.38 235,1072.65C228.125,1072.81 221.375,1072.54 220,1072.05ZM823,1072.12C809.766,1067.75 799.41,1058.98 793.835,1047.41L790.5,1040.5L790.23,945.841C789.987,860.395 790.115,851.027 791.552,849.591C792.955,848.188 798.015,848 834.449,848C868.293,848 875.961,848.249 876.897,849.376C877.74,850.392 877.969,875.878 877.77,946.626L877.5,1042.5L874.738,1047.42C868.653,1058.26 863.198,1063.74 853.5,1068.73C846.97,1072.09 845.795,1072.35 836,1072.64C830.225,1072.81 824.375,1072.58 823,1072.12ZM936,1072.12C931.106,1070.51 922.636,1065.76 919.592,1062.91C917.891,1061.31 916.187,1060.01 915.803,1060C914.632,1060 908.293,1049.83 905.827,1044L903.5,1038.5L903.5,944.8C903.5,869.285 903.752,850.848 904.799,849.8C905.813,848.785 915.13,848.437 947.299,848.212C988.408,847.925 988.504,847.929 990.25,850.073C991.888,852.084 992,857.966 992,941.669C992,1030.99 991.589,1043.41 988.517,1047C987.811,1047.83 986.305,1050.35 985.171,1052.6C982.505,1057.91 973.036,1066.08 965.459,1069.62C960.323,1072.01 958.05,1072.43 949,1072.66C943.225,1072.81 937.375,1072.57 936,1072.12ZM725.5,823.882C720,823.542 713.925,822.76 712,822.144C708.484,821.02 697.006,811.369 696.961,809.5C696.948,808.95 695.831,806.25 694.478,803.5C690.239,794.883 690.945,789.756 699.088,770C700.109,767.525 702.551,761.225 704.517,756C706.482,750.775 708.737,745.15 709.526,743.5C710.316,741.85 712.771,735.888 714.981,730.25C725.092,704.463 727.2,699.235 729.037,695.39C730.116,693.13 731,690.91 731,690.456C731,690.003 731.874,687.802 732.942,685.566C734.011,683.33 735.541,679.7 736.344,677.5C737.766,673.602 742.11,662.581 746.198,652.5C747.313,649.75 749.235,644.8 750.468,641.5C752.603,635.786 754.549,631.146 757.598,624.5C758.355,622.85 759.661,619.514 760.501,617.086C761.34,614.659 762.412,612.184 762.883,611.586C763.354,610.989 764.298,608.7 764.981,606.5C765.664,604.3 766.779,601.6 767.458,600.5C768.137,599.4 769.497,596.025 770.479,593C771.461,589.975 772.592,587.05 772.992,586.5C773.392,585.95 774.535,583.25 775.532,580.5C776.529,577.75 777.658,575.05 778.042,574.5C778.425,573.95 779.314,571.7 780.017,569.5C780.719,567.3 782.128,563.932 783.147,562.015C784.166,560.098 785,557.844 785,557.007C785,556.169 786.125,553.371 787.5,550.788C788.875,548.205 790,545.558 790,544.905C790,544.253 790.869,541.87 791.93,539.61C795.814,531.343 799,523.733 799,522.726C799,522.158 800.085,519.4 801.41,516.596C805.364,508.234 807.999,500.679 807.999,497.7C808.001,488.33 796.907,482.794 789.059,488.25C786.015,490.366 784.503,493.178 779.513,506C778.764,507.925 776.518,513.325 774.523,518C772.527,522.675 769.324,530.55 767.405,535.5C765.486,540.45 762.81,547.031 761.458,550.125C760.106,553.219 759,556.056 759,556.43C759,556.804 758.098,559.09 756.996,561.509C754.749,566.441 749.165,579.926 744.991,590.5C743.471,594.35 740.201,602.45 737.723,608.5C735.246,614.55 729.749,628.05 725.507,638.5C713.863,667.183 709.545,677.661 705.518,687C703.502,691.675 701.194,697.525 700.39,700C699.586,702.475 697.481,707.425 695.714,711C692.639,717.219 692.219,717.618 686,720.218C680.407,722.557 678.087,722.941 669.371,722.968C660.491,722.996 658.517,722.671 653.371,720.333C643.12,715.676 636.264,709.747 631.595,701.5C628.668,696.329 625,683.816 625,679C625,673.35 629.656,658.494 635.498,645.5C636.24,643.85 637.518,640.7 638.338,638.5C643.07,625.804 645.22,620.433 645.934,619.523C646.375,618.96 647.504,616.143 648.444,613.262C649.384,610.381 650.569,607.767 651.076,607.453C651.584,607.139 652,606.247 652,605.471C652,604.694 653.072,601.683 654.383,598.78C655.693,595.876 657.09,592.375 657.487,591C657.884,589.625 658.768,587.6 659.453,586.5C660.137,585.4 661.268,582.7 661.966,580.5C662.665,578.3 663.83,575.15 664.556,573.5C668.032,565.596 673.747,551.486 676.91,543C677.833,540.525 679.071,537.6 679.662,536.5C680.253,535.4 681.296,532.7 681.98,530.5C682.664,528.3 683.78,525.6 684.46,524.5C685.14,523.4 686.274,520.7 686.979,518.5C687.684,516.3 688.654,514.002 689.135,513.392C689.615,512.783 690.857,509.858 691.895,506.892C694.993,498.036 698.026,490.802 699.558,488.613C700.351,487.481 701,485.924 701,485.153C701,484.381 702.085,481.219 703.41,478.125C704.736,475.031 707.477,468.225 709.501,463C711.525,457.775 714.04,451.67 715.091,449.434C716.141,447.198 717,444.847 717,444.208C717,443.57 717.898,441.575 718.996,439.774C720.094,437.973 720.994,435.9 720.996,435.168C721,433.809 726.016,421.527 728.417,417C729.146,415.625 730.309,412.7 731.001,410.5C731.694,408.3 732.606,406.05 733.028,405.5C733.45,404.95 736.09,398.65 738.894,391.5C744.939,376.092 749.695,368.042 758.497,358.323C770.935,344.588 786.922,334.891 804.893,330.179L814.5,327.66L897.473,327.286C950.987,327.045 982.585,327.275 986.473,327.932C1000.6,330.32 1013.42,335.339 1022.81,342.157C1028.5,346.287 1037.19,354.732 1040.29,359.15C1041.19,360.443 1043.28,363.401 1044.93,365.725C1048.86,371.274 1052.02,378.083 1056.89,391.5C1059.09,397.55 1062.29,406.1 1064.01,410.5C1065.73,414.9 1068,420.975 1069.07,424C1070.13,427.025 1071.45,430.4 1072,431.5C1072.55,432.6 1073.64,435.525 1074.42,438C1075.19,440.475 1077.26,446.1 1079.01,450.5C1080.75,454.9 1082.88,460.75 1083.73,463.5C1084.59,466.25 1085.85,469.4 1086.53,470.5C1087.21,471.6 1088.07,473.85 1088.45,475.5C1088.83,477.15 1089.97,480.3 1090.99,482.5C1092,484.7 1093.51,488.525 1094.33,491C1097.36,500.09 1100.05,507.411 1104.47,518.593C1106.96,524.887 1109,530.504 1109,531.073C1109,531.643 1109.85,533.998 1110.88,536.305C1111.92,538.612 1113.77,545.192 1115.01,550.926L1117.25,561.352L1115.03,571.303C1112.39,583.128 1109.62,588.8 1103.26,595.38C1097.26,601.597 1092.06,604.86 1084.51,607.157C1073.13,610.617 1068.25,609.844 1034,599.176C1024.92,596.349 1015.25,593.341 1012.5,592.492C1009.75,591.643 1005.48,590.247 1003,589.391C1000.52,588.534 995.8,587.003 992.5,585.989C983.887,583.341 977.228,581.138 971.5,579.043C968.75,578.037 961.1,575.542 954.5,573.498C947.9,571.454 940.025,568.965 937,567.965C933.975,566.966 924.075,563.824 915,560.982C889.759,553.079 883.574,549.532 877.12,539.26L873.5,533.5L873.526,522L873.553,510.5L877.193,505C881.266,498.846 885.12,495.525 892.928,491.442C897.547,489.027 899.358,488.669 906.868,488.681C913.367,488.692 916.735,489.215 920.5,490.8C923.25,491.957 927.525,493.419 930,494.05C932.475,494.68 934.95,495.532 935.5,495.944C936.05,496.355 945.275,499.496 956,502.923C966.725,506.35 977.75,509.971 980.5,510.97C1005.34,519.994 1012.65,520.996 1017.89,516.099C1020.55,513.62 1021,512.487 1021,508.321C1021,505.509 1020.34,502.496 1019.43,501.204C1017.56,498.535 1010.22,494.657 1003.98,493.042C1001.52,492.404 997.25,491.037 994.5,490.005C989.224,488.025 983.387,486.067 973.5,482.964C961.573,479.22 957.422,477.809 953,475.995C950.525,474.979 941.975,471.982 934,469.333C919.573,464.542 919.434,464.518 906.5,464.582C895.352,464.638 892.543,464.993 886.787,467.073C871.149,472.726 857.827,486.153 851.144,502.998C848.846,508.791 848.561,510.918 848.532,522.5C848.498,536.368 848.255,535.375 855.136,549.5C862.921,565.479 877.666,575.747 902.5,582.481C905.25,583.227 909.75,584.611 912.5,585.558C931.43,592.074 938.664,594.494 948.5,597.6C966.034,603.138 968.686,603.98 973.5,605.537C976.25,606.426 985.7,609.415 994.5,612.179C1003.3,614.943 1012.75,618.016 1015.5,619.009C1018.25,620.001 1021.79,621.101 1023.36,621.454C1028.68,622.645 1032.88,627.004 1034.96,633.5C1038,642.989 1041,651.228 1049.69,674C1051.06,677.575 1053.01,682.975 1054.04,686C1055.06,689.025 1057.3,695.1 1059.01,699.5C1060.72,703.9 1062.72,709.3 1063.45,711.5C1064.18,713.7 1066.44,719.775 1068.47,725C1070.5,730.225 1072.97,737.041 1073.96,740.146C1074.95,743.252 1076.13,746.402 1076.6,747.146C1077.53,748.657 1081.26,758.845 1083.67,766.5C1084.54,769.25 1085.7,772.067 1086.25,772.76C1087.62,774.475 1090.93,788.676 1090.96,793C1091,798.262 1087.53,808.578 1084.52,812.153C1080.66,816.749 1075.15,820.464 1069.47,822.302C1065,823.751 1047.97,823.942 900,824.206C809.525,824.368 731,824.222 725.5,823.882ZM290.5,302.055C286.1,301.64 281.375,300.984 280,300.596C269.014,297.498 260.256,294.533 259,293.486C258.175,292.799 256.375,291.907 255,291.503C253.625,291.1 251.6,290.008 250.5,289.077C249.4,288.145 245.843,285.609 242.595,283.441C234.693,278.167 224.205,267.699 219.534,260.424C217.442,257.166 214.947,253.356 213.989,251.958C211.185,247.865 206.895,237.012 205.357,230.122C204.574,226.614 203.413,222.789 202.778,221.622C202.121,220.417 201.437,213.226 201.194,204.983C200.793,191.381 200.957,189.7 203.798,178.324C206.917,165.834 213.55,150.7 218.464,144.861C219.859,143.203 221,141.469 221,141.009C221,140.548 224.342,136.795 228.428,132.67C236.24,124.781 245.129,117.713 251,114.721C252.925,113.74 256.975,111.638 260,110.049C263.025,108.461 267.525,106.679 270,106.089C272.475,105.499 277.845,104.113 281.932,103.008C289.904,100.854 308.647,100.272 316.5,101.934C331.281,105.062 335.717,106.281 340.406,108.499C343.314,109.874 346.075,111 346.543,111C347.377,111 348.987,111.997 360,119.331C375.218,129.467 391.745,151.574 397.506,169.5C400.431,178.604 400.965,181.399 401.987,193C403.669,212.071 401.208,226.546 393.371,243.687C392.067,246.54 391,249.137 391,249.458C391,250.438 385.803,258.206 381.606,263.5C366.11,283.048 343.283,297.246 321.5,300.884C312.398,302.405 299.414,302.895 290.5,302.055ZM880.29,301.959C853.451,299.757 827.199,284.793 810.187,262C804.132,253.888 795,236.489 795,233.066C795,232.484 794.002,229.194 792.781,225.754C790.85,220.309 790.559,217.429 790.531,203.5C790.503,189.114 790.783,186.426 793.302,176.854C796.099,166.225 802.028,153.225 808.513,143.5C813.659,135.784 836.029,115 839.187,115C839.739,115 841.386,114.188 842.846,113.194C845.966,111.072 856.443,106.992 867,103.788C873.456,101.829 876.727,101.511 890.5,101.506C904.222,101.501 907.695,101.833 914.894,103.838C925.329,106.744 937.729,111.654 940.885,114.13C942.197,115.158 943.731,116 944.294,116C946.133,116 955.346,123.555 962.714,131.107C969.099,137.65 972.423,141.783 976.743,148.553C979.04,152.153 986,166.711 986,167.916C986,168.573 986.858,170.998 987.906,173.305C992.667,183.781 992.781,218.671 988.088,229C986.964,231.475 986.034,234.3 986.022,235.278C985.994,237.527 979.917,250.191 976.268,255.607C974.745,257.866 972.321,261.466 970.88,263.607C967.992,267.896 955.696,279.62 948.623,284.827C943.668,288.475 927.273,296.994 925.2,296.998C924.486,296.999 922.637,297.654 921.092,298.452C918.506,299.79 895.568,303.186 891.337,302.857C890.327,302.779 885.356,302.375 880.29,301.959Z" fill-rule="evenodd" fill="#000000"/>
</g>
</svg>
