<?xml version='1.0' encoding='utf-8'?>
<!-- Generator: imaengine 6.0   -->
<svg xmlns:xlink="http://www.w3.org/1999/xlink" xmlns="http://www.w3.org/2000/svg" viewBox="0,0,1208,1117" style="enable-background:new 0 0 1208 1117;" version="1.1">
<defs/>
<g id="layer0">
<path d="M212.44,994.971C201.645,991.892 191.299,985.98 188.218,981.13C187.299,979.684 184.38,975.487 181.733,971.804C173.223,959.968 173.764,970.119 173.349,814.5C173.149,739.15 172.759,676.507 172.484,675.292C172.208,674.078 169.958,671.691 167.483,669.988C165.008,668.286 161.931,665.904 160.644,664.696C159.358,663.488 155.733,660.475 152.59,658C149.446,655.525 146.035,651.895 145.01,649.933C143.985,647.971 142.405,645.751 141.5,645C139.498,643.338 136.536,637.58 135.584,633.5C135.199,631.85 133.673,627.575 132.192,624L129.5,617.5L129.5,486L129.5,354.5L131.836,348.5C133.121,345.2 134.748,340.438 135.452,337.917C138.968,325.321 153.856,307.365 167.5,299.264C176.564,293.882 193.788,288.908 203.367,288.907C210.868,288.905 226.492,293.093 235.5,297.518C238.25,298.869 242.975,301.134 246,302.55C249.025,303.967 255.1,307.128 259.5,309.575C263.9,312.022 269.975,315.207 273,316.653C276.025,318.099 279.214,319.897 280.086,320.647C280.958,321.398 284.477,323.371 287.905,325.032C291.334,326.693 294.988,328.843 296.026,329.809C297.063,330.776 299.619,332.175 301.706,332.919C303.793,333.663 306.838,335.223 308.473,336.386C311.525,338.556 318.795,342.502 329.677,347.893C333.074,349.576 336.164,351.456 336.544,352.071C336.924,352.686 340.054,354.454 343.5,356C346.946,357.546 350.076,359.314 350.456,359.929C350.836,360.544 353.926,362.417 357.323,364.091C360.721,365.765 365.525,368.217 368,369.54C377.392,374.559 383.605,375.079 431.969,374.897L476.5,374.729L484.5,377.49C495.935,381.437 502.851,386.177 507.352,393.154C512.817,401.623 513.491,404.24 513.496,417C513.5,429.455 512.855,431.95 507.419,440.5C503.569,446.555 502.139,447.851 494.766,451.97C483.434,458.3 482.657,458.376 427.5,458.536C400,458.616 375.682,459.002 373.461,459.393C371.239,459.784 367.639,459.657 365.461,459.109C358.11,457.261 346.718,453.055 345.101,451.592C344.218,450.793 340.572,448.72 336.998,446.987C333.424,445.253 327.039,441.959 322.808,439.667C318.578,437.375 312.503,434.109 309.308,432.409C306.114,430.708 301.906,428.233 299.957,426.909C293.469,422.498 286.372,419.69 283.521,420.405C277.695,421.868 278.047,404.828 278.011,686.64L277.978,945.45L275.452,956.016C274.062,961.827 272.155,967.75 271.213,969.178C265.228,978.248 260.673,984.094 258.267,985.794C249.778,991.791 232.161,998.175 224.803,997.92C223.536,997.877 217.973,996.549 212.44,994.971ZM692,995.955C687.875,994.898 683.465,994.026 682.2,994.016C679.658,993.998 675.95,992.263 670.388,988.489C668.371,987.12 665.97,986 665.053,986C664.135,986 660.511,983.3 657,980C653.489,976.7 650.247,974 649.795,974C649.344,974 647.411,971.555 645.499,968.566C643.587,965.578 641.525,962.825 640.917,962.449C640.309,962.073 638.506,959.005 636.911,955.633C635.316,952.26 633.12,947.921 632.033,945.992C630.945,944.062 629.03,936.862 627.777,929.992L625.5,917.5L625.5,660.5C625.5,460.855 625.775,402.049 626.734,397C627.413,393.425 628.409,386.226 628.949,381.002C629.734,373.396 630.625,370.109 633.417,364.502C635.334,360.651 637.844,355.475 638.994,353C642.35,345.775 647.25,337.592 650.733,333.395C657.052,325.782 660.524,321.823 662.329,320.173C663.336,319.253 665.811,316.872 667.829,314.882C669.848,312.892 673.382,310.311 675.682,309.146C677.982,307.982 680.175,306.525 680.556,305.91C680.936,305.295 682.879,304.043 684.873,303.129C686.868,302.214 690.525,300.264 693,298.796C697.065,296.385 707.973,293.13 724.5,289.397C733.847,287.286 757.543,287.595 770.081,289.992C789.095,293.627 796.444,295.661 802.081,298.846C805.15,300.581 808.397,302 809.296,302C810.195,302 812.409,303.297 814.215,304.883C816.022,306.469 819.266,308.503 821.423,309.404C823.581,310.306 826.956,312.721 828.923,314.771C830.891,316.822 834.975,320.787 838,323.583C844.483,329.575 847.681,333.533 855.303,345C858.41,349.675 861.88,354.717 863.014,356.204C864.148,357.691 865.925,361.377 866.963,364.394C868.001,367.411 869.745,371.144 870.839,372.689C871.933,374.235 873.762,379.676 874.903,384.779C876.045,389.882 877.676,395.407 878.529,397.056C881.63,403.052 882.092,421.308 881.794,526.086L881.5,629.672L878.796,633.586C877.309,635.739 875.411,639.139 874.578,641.142C873.355,644.084 871.578,645.6 865.343,649.021C857.683,653.226 857.561,653.255 849.525,652.753C842.376,652.307 840.763,651.823 835.768,648.628C828.101,643.724 824.29,639.455 822.262,633.5C820.71,628.943 820.537,619.642 820.305,528.422L820.051,428.344L817.432,423.657C815.991,421.079 813.984,418.527 812.972,417.985C809.798,416.286 801.506,416.784 799.698,418.781C796.212,422.633 795.923,432.313 796.225,535C796.489,624.678 796.696,636.005 798.146,640.194C800.069,645.749 803.748,651.799 810.22,660.044C812.816,663.351 815.554,668.182 816.306,670.779C817.437,674.689 817.623,698.798 817.388,811.079L817.104,946.658L814.54,958.079C813.032,964.794 811.148,970.53 809.966,972C808.861,973.375 806.341,976.648 804.367,979.274C802.393,981.9 799.815,984.552 798.639,985.167C797.462,985.782 794.246,987.767 791.492,989.579C784.108,994.436 772.298,997.411 763.51,996.628C753.791,995.763 740.807,992.324 739,990.137C738.175,989.139 736.055,987.332 734.289,986.121C730.35,983.42 725.85,977.3 722.434,970C721.019,966.975 718.975,962.616 717.892,960.314C713.28,950.506 713.156,946.761 712.656,802.5C712.397,727.7 711.934,664.99 711.627,663.143C710.655,657.305 706.081,654 698.973,654C695.782,654 694.208,654.638 692.032,656.814C689.428,659.419 689.164,660.411 688.502,670.126C688.109,675.899 688.018,739.77 688.3,812.062C688.837,949.596 689.018,955.121 693.243,963.452C694.345,965.625 696.099,969.881 697.141,972.909C698.182,975.936 700.874,981.236 703.121,984.686L707.208,990.959L705.303,994.229C702.981,998.218 701.555,998.403 692,995.955ZM898.5,996.59C897.95,996.385 894.8,995.429 891.5,994.467C878.22,990.593 873.112,985.948 866.8,972L862.5,962.5L862.214,878C862.056,831.525 862.185,792.458 862.499,791.185C862.865,789.705 864.59,788.181 867.285,786.957C871.169,785.194 874.171,785.042 905.5,785.026C937.776,785.008 939.667,785.109 942.786,787.011L946.072,789.014L945.786,877.757L945.5,966.5L942.752,972C936.145,985.223 929.894,991.056 918.5,994.626C913.769,996.108 900.659,997.396 898.5,996.59ZM999.346,994.995C995.582,993.767 990.544,990.942 986.376,987.723C979.97,982.776 979.273,981.83 974.788,971.98L970.015,961.5L970.258,875.013L970.5,788.527L973.5,787.015C977.437,785.03 992.426,784.592 1024.87,785.512C1047.81,786.164 1050.41,786.412 1052.12,788.116C1053.93,789.93 1054,792.965 1053.97,870.25C1053.95,951.726 1053.47,965.886 1050.57,972.051C1045.21,983.441 1036.69,991.437 1026.5,994.645C1018.38,997.203 1006.57,997.355 999.346,994.995ZM844.789,759.942C843.849,759.393 842.614,757.27 842.045,755.222C840.903,751.109 840.619,703.543 841.658,690.204C842.419,680.424 842.799,680.063 853.473,678.974C858.211,678.491 863.787,676.889 870.592,674.056C889.097,666.352 898.719,654.161 904.578,631C906.72,622.53 906.619,414.384 904.468,405C903.649,401.425 901.705,392.54 900.15,385.256C898.594,377.972 896.632,371.222 895.79,370.256C894.948,369.29 893.292,365.546 892.11,361.936C890.928,358.325 888.394,352.94 886.48,349.969C884.566,346.998 883,344.163 883,343.67C883,343.176 881.026,339.561 878.613,335.636C873.028,326.551 872.125,322.168 875.239,319.25C880.696,314.134 894.241,305.229 901,302.312C904.025,301.007 908.125,299.059 910.111,297.984C912.096,296.908 917.721,295.105 922.611,293.976C927.5,292.847 934.425,291.201 938,290.318C942.43,289.224 949.278,288.694 959.5,288.654C972.504,288.602 975.358,288.89 980.948,290.819C984.495,292.042 990.57,293.491 994.448,294.038C998.745,294.645 1004.23,296.36 1008.5,298.43C1012.35,300.298 1017.08,302.559 1019,303.455C1027.36,307.348 1048.73,324.307 1052.13,329.75C1053.25,331.538 1054.57,333 1055.06,333C1055.56,333 1057.15,335.363 1058.6,338.25C1060.04,341.137 1062.32,344.966 1063.67,346.757C1065.01,348.548 1066.93,352.373 1067.93,355.257C1068.93,358.141 1070.74,362.399 1071.96,364.72C1073.72,368.074 1074.35,371.604 1075.03,381.925C1076.33,401.454 1076.26,617.652 1074.95,627.984C1073.97,635.758 1073.59,636.733 1070.44,639.619C1068.55,641.352 1067,643.264 1067,643.868C1067,644.472 1064.64,646.198 1061.75,647.704C1049.26,654.218 1042.1,654.63 1031.34,649.455C1023.77,645.812 1021.62,643.574 1016.25,633.709L1014,629.576L1014,529.837C1014,461.593 1013.66,428.493 1012.91,425.013C1011.7,419.352 1009.48,417.276 1003.62,416.326C998.84,415.55 994.298,417.565 992.203,421.391C990.629,424.264 990.5,432.55 990.5,530.5L990.5,636.5L994.397,644.5C999.715,655.416 1005.86,662.192 1017.5,669.985C1027.38,676.599 1050.09,679.511 1058.57,675.25C1060.73,674.163 1064.81,672.519 1067.63,671.596C1070.46,670.673 1073.61,668.988 1074.63,667.852C1075.66,666.716 1078.15,664.943 1080.18,663.91C1082.2,662.878 1084.13,661.168 1084.47,660.109C1085.26,657.617 1087.64,656.737 1090.07,658.039C1091.51,658.807 1092,660.145 1092,663.285C1092,665.603 1092.64,670.425 1093.43,674C1096.2,686.575 1098.93,740.65 1097.08,746.257C1095.79,750.176 1090.06,755.411 1083.29,758.856L1079.08,761L962.79,760.97C887.343,760.95 845.899,760.589 844.789,759.942ZM184.097,262.434C174.558,260.995 164.474,257.182 156.614,252.042C154.477,250.644 150.796,248.294 148.435,246.821C140.364,241.784 133.329,234.948 128.81,227.75C127.17,225.137 125.485,223 125.066,223C124.647,223 123.46,221.129 122.429,218.842C121.398,216.555 119.271,212.914 117.704,210.75C115.907,208.269 114.311,204.172 113.385,199.658C112.577,195.721 110.987,189.152 109.852,185.06C107.175,175.405 106.941,158.419 109.404,152.554C110.316,150.383 112.144,144.345 113.467,139.136C114.79,133.926 116.81,128.396 117.955,126.847C119.101,125.297 120.439,122.975 120.929,121.687C123.081,116.026 138.037,98.0559 142.521,95.7436C144.182,94.8868 146.657,93.0795 148.021,91.7275C149.384,90.3755 152.515,88.2473 154.978,86.9982C157.44,85.7491 161.04,83.6904 162.978,82.4234C164.915,81.1563 169.535,79.4248 173.245,78.5754C176.954,77.7261 181.679,76.2791 183.745,75.36C186.462,74.1507 191.37,73.5656 201.5,73.2434C213.964,72.847 216.158,73.033 221.5,74.9393C224.8,76.117 230.65,77.7496 234.5,78.5673C238.788,79.4781 243.079,81.1818 245.576,82.9644C247.818,84.565 250.944,86.1988 252.522,86.595C255.235,87.2757 271.461,100.72 273.405,103.898C273.903,104.711 275.816,106.882 277.655,108.722C279.495,110.562 281,112.486 281,112.999C281,113.511 282.383,115.506 284.074,117.432C287.575,121.418 293.314,134.161 296.266,144.5C300.258,158.483 298.486,194.688 293.448,202.036C292.115,203.981 290.27,207.806 289.347,210.536C287.888,214.855 284.13,220.448 274,233.383C268.761,240.071 256.889,249.434 249,253.098C246.525,254.248 241.8,256.494 238.5,258.09C230.462,261.977 226.158,262.73 208.5,263.336C198.192,263.69 190.559,263.408 184.097,262.434ZM723.892,262.602C718.246,261.732 712.741,260.065 707.892,257.755C703.827,255.818 699.527,253.938 698.338,253.577C697.149,253.216 694.499,251.589 692.45,249.96C690.401,248.332 688.141,247 687.428,247C686.027,247 669.228,230.534 664.782,224.803C663.287,222.876 661.572,219.994 660.97,218.399C660.369,216.805 658.385,213.25 656.561,210.5C654.141,206.85 652.919,203.475 652.035,198C651.369,193.875 649.964,187.64 648.912,184.145C646.472,176.035 646.276,159.303 648.545,152.876C649.395,150.469 651.228,144 652.618,138.5C654.009,133 655.971,127.6 656.978,126.5C657.985,125.4 659.511,122.794 660.37,120.709C661.872,117.064 664.987,112.923 673.426,103.348C678.538,97.5494 692.1,87.2312 696.808,85.5592C698.839,84.838 702.156,83.2664 704.18,82.0667C706.204,80.8669 711.379,79.0402 715.68,78.0073C719.981,76.9745 725.173,75.4253 727.218,74.5647C729.9,73.4358 734.31,73 743.05,73C753.302,73 756.266,73.3775 762.332,75.4563C766.274,76.8073 771.75,78.4087 774.5,79.0149C777.25,79.6211 781.525,81.3925 784,82.9515C786.475,84.5104 789.502,86.0862 790.727,86.4532C791.953,86.8202 794.721,88.5559 796.88,90.3102C799.038,92.0646 803.437,95.5904 806.654,98.1453C815.144,104.887 826.196,119.369 828.975,127.394C829.948,130.202 831.694,134.099 832.855,136.053C835.885,141.154 837.392,153.133 837.314,171.5C837.248,186.968 835.624,198.339 833.034,201.459C832.53,202.067 830.559,206.258 828.655,210.773C826.751,215.288 823.975,220.449 822.488,222.241C805.633,242.547 799.581,247.756 785,254.513C781.975,255.914 777.925,257.898 776,258.921C774.075,259.943 770.092,261.285 767.148,261.901C758.549,263.703 733.661,264.106 723.892,262.602ZM943.599,262.905C935.368,262.227 932.501,261.51 926.599,258.654C922.695,256.764 918.342,254.956 916.927,254.635C915.512,254.313 912.673,252.91 910.619,251.516C908.564,250.122 905.166,248.105 903.066,247.034C899.452,245.19 877,221.287 877,219.283C877,218.783 875.254,215.477 873.121,211.937C870.812,208.107 868.77,203.07 868.077,199.5C867.437,196.2 865.93,190.8 864.729,187.5C861.821,179.511 861.522,158.061 864.219,151C865.165,148.525 867.015,142.449 868.331,137.499C869.646,132.548 871.797,126.862 873.111,124.863C874.425,122.864 876.282,119.939 877.238,118.364C879.836,114.081 885.478,106.927 889.202,103.192C895.14,97.2364 907.145,87.8372 910.723,86.3425C912.65,85.5374 915.863,83.8109 917.863,82.5061C919.863,81.2012 924.2,79.4398 927.5,78.5919C930.8,77.744 936.076,76.1389 939.225,75.0251C948.128,71.8758 966.758,72.1483 977.5,75.585C981.9,76.9927 987.598,78.3949 990.162,78.701C992.726,79.0072 996.551,80.3173 998.662,81.6123C1000.77,82.9073 1004.52,84.9435 1007,86.1372C1012,88.5467 1012.75,89.1857 1025.33,101.688C1034.55,110.853 1041.58,120.443 1045.11,128.658C1046.26,131.321 1048.03,135.301 1049.06,137.501C1051.68,143.087 1052.96,153.26 1052.98,168.678C1053.01,186.322 1051.56,196.211 1048.04,202.5C1046.5,205.25 1044.69,209.202 1044.03,211.282C1042.54,215.962 1033.37,228.388 1025.16,236.864C1021.77,240.364 1019,243.543 1019,243.929C1019,244.314 1017.38,245.401 1015.41,246.344C1013.43,247.287 1010.17,249.345 1008.16,250.918C1006.14,252.491 1002.02,254.565 999,255.526C995.975,256.487 991.778,258.139 989.673,259.197C985.439,261.324 967.575,264.028 959,263.841C955.975,263.774 949.045,263.353 943.599,262.905Z" fill-rule="evenodd" fill="#000000"/>
</g>
</svg>
