<?xml version='1.0' encoding='utf-8'?>
<!-- Generator: imaengine 6.0   -->
<svg xmlns:xlink="http://www.w3.org/1999/xlink" xmlns="http://www.w3.org/2000/svg" viewBox="0,0,1195,1208" style="enable-background:new 0 0 1195 1208;" version="1.1">
<defs/>
<g id="layer0">
<path d="M271.487,1027.26C263.507,1024.41 256.958,1020.13 250.438,1013.52C242.623,1005.59 239.367,999.697 236.402,988.122L234,978.744L234,844.306C234,761.296 233.637,709.189 233.05,708.093C232.527,707.117 229.516,704.784 226.359,702.909C219.39,698.771 207.526,687.796 204.837,683C203.757,681.075 201.714,677.475 200.296,675C198.878,672.525 196.443,666.225 194.883,661L192.048,651.5L191.996,523.235L191.945,394.971L194.532,385.475C198.932,369.326 203.98,360.196 214.344,349.646C221.59,342.269 228.881,336.78 233.156,335.483C234.445,335.092 236.904,333.923 238.62,332.885C240.336,331.847 244.161,330.503 247.12,329.898C250.079,329.293 254.3,328.413 256.5,327.943C263.222,326.505 269.08,326.891 279.002,329.427C293.694,333.182 300.992,336.65 339.619,358.236C352.754,365.576 364.625,372.122 366,372.784C367.375,373.446 370.75,375.322 373.5,376.954C376.25,378.585 379.625,380.48 381,381.165C384.251,382.783 424.041,404.814 426,406.079C426.825,406.612 429.975,408.275 433,409.774L438.5,412.5L491.5,413L544.5,413.5L550.5,416.954C558.968,421.828 566.066,429.284 570.086,437.528C573.27,444.057 573.484,445.135 573.46,454.5C573.437,463.732 573.18,465.035 570.116,471.468C565.534,481.086 556.662,489.722 547.658,493.326L540.979,496L479.074,496L417.169,496L410.835,492.541C407.351,490.638 400.9,487.214 396.5,484.931C392.1,482.649 387.825,480.234 387,479.564C386.175,478.894 382.125,476.655 378,474.589C373.875,472.523 369.161,470.082 367.523,469.166C346.119,457.186 341.621,455.232 340.263,457.324C339.844,457.971 339.275,577.525 339,723L338.5,987.5L336.043,993.5C330.162,1007.86 320.185,1019.03 308.038,1024.85C300.95,1028.24 299.973,1028.44 288.538,1028.74C278.908,1028.99 275.497,1028.69 271.487,1027.26ZM808.072,1027.91C787.572,1023.89 764.614,1005.14 755.528,985C754.66,983.075 753.487,980.68 752.922,979.678C752.356,978.677 750.68,973.952 749.197,969.178L746.5,960.5L746.216,698.5C746.017,514.424 746.253,434.715 747.01,430.5C753.049,396.886 764.195,375.537 786.5,354.862C799.985,342.362 818.837,332.906 837.5,329.281C850.207,326.813 880.714,326.821 894.5,329.295C917.859,333.487 938.961,344.281 956.356,360.936C962.983,367.281 976,383.148 976,384.881C976,385.348 976.845,386.805 977.878,388.118C979.756,390.505 984.717,399.964 988.044,407.5C993.787,420.508 997.509,433.911 999.005,446.962C1000.41,459.249 1000.33,657.382 998.909,663.987C996.836,673.655 990.145,682.37 982.27,685.66C980.414,686.436 975.393,687.341 971.113,687.671C960.374,688.499 954.638,686.512 947.418,679.463C937.723,669.998 938.568,680.304 938,564.5C937.515,465.635 937.44,462.401 935.551,459.279C931.886,453.22 924.712,452.404 919.235,457.424L915.5,460.847L915.5,565.674L915.5,670.5L918.787,677.943C921.998,685.212 926.181,691.157 932.747,697.783L936,701.067L936,841.85C936,938.987 935.663,984.472 934.912,988.566C932.286,1002.89 920.66,1017.51 906.179,1024.69L898.5,1028.5L885,1028.5C871.863,1028.5 871.317,1028.41 864.687,1025.27C856.286,1021.29 854.108,1019.61 848.653,1012.84C839.881,1001.96 835.824,991.943 832.925,974C831.182,963.217 831.064,954.254 831.033,830.2C830.997,684.887 831.38,693.799 825.033,690.517C820.465,688.155 816.466,688.612 812.766,691.918L809.5,694.836L809.5,836.168L809.5,977.5L812.335,988.5C813.895,994.55 815.736,1000.4 816.427,1001.5C817.118,1002.6 818.01,1004.82 818.408,1006.44C818.807,1008.06 820.003,1010.6 821.066,1012.09C822.13,1013.59 823.007,1015.19 823.015,1015.65C823.024,1016.12 824.56,1018.75 826.429,1021.5C828.892,1025.12 829.542,1026.84 828.792,1027.75C827.597,1029.19 815.09,1029.29 808.072,1027.91ZM259,304.341C240.267,301.444 231.753,298.98 221.558,293.506C199.37,281.592 183.73,263.251 175.551,239.554C164.366,207.148 171.855,171.863 195.732,144.472C199.116,140.589 210.539,131.424 216.5,127.809C234.116,117.123 263.554,111.147 279.5,115.019C281.7,115.553 286.467,116.628 290.093,117.409C301.269,119.813 318.193,128.807 328.5,137.819C330.933,139.946 341.694,151.902 343.571,154.564C352.614,167.383 359.086,186.693 360.642,205.5C361.694,218.216 356.754,239.6 349.365,254.313C344.143,264.71 329.448,280.981 319.031,287.9C312.904,291.97 301.044,298 299.167,298C298.521,298 296.314,298.9 294.261,300C292.209,301.1 289.173,302.008 287.515,302.017C285.857,302.027 280.45,302.7 275.5,303.514C266.636,304.97 263.941,305.105 259,304.341ZM858,304.334C834.607,302.026 818.259,295.635 802.389,282.595C790.104,272.501 778.711,257.228 774.432,245.114C773.535,242.576 772.177,238.925 771.415,237C767.943,228.239 766.747,206.921 768.917,192.5C771.111,177.919 778.767,161.277 788.937,148.984C803.215,131.725 820.437,121.291 842.535,116.513C879.404,108.542 914.243,121.45 938.313,152C942.511,157.328 944.153,160.078 948.167,168.5C949.215,170.7 950.459,173.204 950.929,174.065C951.4,174.925 953.03,180.1 954.55,185.565C956.95,194.189 957.313,197.281 957.296,209C957.28,220.579 956.887,223.923 954.537,232.5C946.949,260.193 928.755,282.853 905,294.198C892.703,300.071 889.961,300.933 877.236,302.924C869.94,304.066 863.415,304.928 862.736,304.84C862.056,304.752 859.925,304.524 858,304.334Z" fill-rule="evenodd" fill="#000000"/>
</g>
</svg>
