<?xml version="1.0" encoding="UTF-8"?>
<svg version="1.1" xmlns="http://www.w3.org/2000/svg" width="1354" height="780">
<path d="M0 0 C446.82 0 893.64 0 1354 0 C1354 257.4 1354 514.8 1354 780 C907.18 780 460.36 780 0 780 C0 522.6 0 265.2 0 0 Z " fill="none" transform="translate(0,0)"/>
<path d="M0 0 C1.54104401 -0.00856522 1.54104401 -0.00856522 3.11322021 -0.01730347 C4.78790123 -0.01898026 4.78790123 -0.01898026 6.49641418 -0.02069092 C8.27294876 -0.02813828 8.27294876 -0.02813828 10.08537292 -0.03573608 C13.32738628 -0.04782038 16.56936363 -0.05529677 19.81139541 -0.05974674 C21.84088334 -0.06268521 23.87036572 -0.06679151 25.89985085 -0.07125092 C32.2611673 -0.08491587 38.62247095 -0.09458679 44.98380107 -0.09845281 C52.3053279 -0.10292785 59.62666752 -0.12045407 66.94813746 -0.1494534 C72.62138754 -0.17113734 78.29458521 -0.18116069 83.96787626 -0.18249393 C87.34962098 -0.18353739 90.73118948 -0.18934626 94.11289024 -0.20731354 C97.89191604 -0.2244338 101.67048997 -0.22247871 105.44953918 -0.21600342 C106.55587204 -0.2252182 107.6622049 -0.23443298 108.80206299 -0.243927 C119.92742182 -0.18443483 131.26759454 2.69777157 139.98005676 9.96075439 C143.16015193 13.22403113 145.21609369 15.79790402 145.42146301 20.45294189 C144.63818455 25.0742848 144.63818455 25.0742848 141.79646301 27.14044189 C139.47312927 27.51898193 139.47312927 27.51898193 136.70515442 27.52520752 C135.14675339 27.54037415 135.14675339 27.54037415 133.55686951 27.55584717 C132.43195099 27.55282593 131.30703247 27.54980469 130.14802551 27.54669189 C128.98451569 27.55752808 127.82100586 27.56836426 126.62223816 27.57952881 C122.88859078 27.61386751 119.1552476 27.62938239 115.42146301 27.64044189 C110.53836209 27.65511352 105.65592988 27.68908656 100.77302551 27.73419189 C99.6683493 27.73117065 98.5636731 27.72814941 97.42552185 27.72503662 C89.55040354 27.79942175 82.3950484 29.09731743 74.79646301 31.14044189 C73.75691331 34.74204258 73.98379723 36.33254838 75.42146301 39.82794189 C77.18558516 44.40025848 78.69579917 48.99451081 80.04646301 53.70294189 C83.47162735 65.56367997 87.13740434 77.35014172 90.79646301 89.14044189 C91.08730774 90.07904053 91.37815247 91.01763916 91.67781067 91.98468018 C94.31061758 100.46540119 96.94913352 108.9122378 100.13240051 117.20684814 C100.79646301 119.14044189 100.79646301 119.14044189 100.79646301 121.14044189 C244.84146301 120.64544189 244.84146301 120.64544189 391.79646301 120.14044189 C391.1015107 113.88587108 390.32580921 108.87526407 388.35896301 103.07794189 C386.83611918 98.48229744 385.44738275 93.91159287 384.30793762 89.20513916 C383.38860465 85.49401794 382.3326068 81.82032227 381.29646301 78.14044189 C379.7063677 72.4931943 378.19505851 66.83842355 376.79646301 61.14044189 C375.50868958 61.15204346 374.22091614 61.16364502 372.89411926 61.17559814 C371.21573529 61.18497459 369.53734976 61.19407495 367.85896301 61.20294189 C366.58375793 61.21551025 366.58375793 61.21551025 365.28279114 61.22833252 C364.47390442 61.23155518 363.6650177 61.23477783 362.83161926 61.23809814 C362.08275452 61.24333496 361.33388977 61.24857178 360.56233215 61.25396729 C358.79646301 61.14044189 358.79646301 61.14044189 357.79646301 60.14044189 C357.69699848 58.37184997 357.66566084 56.59932739 357.66365051 54.82794189 C357.66236145 53.75286377 357.66107239 52.67778564 357.65974426 51.57012939 C357.66361145 50.43833252 357.66747864 49.30653564 357.67146301 48.14044189 C357.66759583 47.00864502 357.66372864 45.87684814 357.65974426 44.71075439 C357.66103333 43.63567627 357.66232239 42.56059814 357.66365051 41.45294189 C357.66534241 39.96214111 357.66534241 39.96214111 357.66706848 38.44122314 C357.79646301 36.14044189 357.79646301 36.14044189 358.79646301 35.14044189 C360.16526034 35.04074925 361.53914032 35.00969626 362.91156006 35.00672913 C363.79879761 35.00246414 364.68603516 34.99819916 365.60015869 34.99380493 C366.58138199 34.99425812 367.56260529 34.9947113 368.57356262 34.99517822 C370.11513535 34.9901403 370.11513535 34.9901403 371.68785095 34.98500061 C375.10818165 34.97545146 378.52846353 34.97354498 381.94880676 34.97247314 C384.3223879 34.96926136 386.69596884 34.96589735 389.06954956 34.96238708 C394.0590104 34.95638455 399.04845389 34.95454814 404.03791809 34.95513916 C410.41657783 34.9552404 416.7951253 34.94163258 423.17375851 34.92436695 C428.08356226 34.9132152 432.99333925 34.91122099 437.90315437 34.91174889 C440.25336148 34.91057185 442.60356934 34.90616563 444.95376396 34.89841652 C448.25419165 34.88856053 451.55438065 34.89151771 454.85481262 34.89752197 C455.81781784 34.89190247 456.78082306 34.88628296 457.77301025 34.88049316 C472.74951812 34.94932693 485.77688021 39.7578292 496.79646301 50.14044189 C503.65529636 57.69208669 508.69691205 66.42970997 511.79646301 76.14044189 C512.32046692 77.74339111 512.32046692 77.74339111 512.85505676 79.37872314 C516.51662526 94.0098039 513.16279534 109.64267693 505.60896301 122.48419189 C497.90491469 133.77460754 487.19584233 143.44406139 473.79646301 147.14044189 C468.25665648 147.93184283 465.34135012 146.04916964 460.79646301 143.14044189 C460.79646301 142.48044189 460.79646301 141.82044189 460.79646301 141.14044189 C460.13646301 141.14044189 459.47646301 141.14044189 458.79646301 141.14044189 C457.90252376 135.70432482 457.195194 131.22474042 459.79646301 126.14044189 C463.15628958 123.22780765 466.73990084 120.78092088 470.48396301 118.39044189 C471.4365802 117.77684814 472.38919739 117.16325439 473.37068176 116.53106689 C475.79646301 115.14044189 475.79646301 115.14044189 477.79646301 115.14044189 C478.06458801 114.54231689 478.33271301 113.94419189 478.60896301 113.32794189 C479.79646301 111.14044189 479.79646301 111.14044189 481.23396301 109.82794189 C485.90561242 104.78256054 486.29454025 98.72876262 486.23396301 92.20294189 C486.25394348 91.44303955 486.27392395 90.68313721 486.29450989 89.90020752 C486.28867297 83.06517409 484.26832323 77.74962768 479.54646301 72.76544189 C478.68021301 71.96106689 478.68021301 71.96106689 477.79646301 71.14044189 C477.79646301 70.48044189 477.79646301 69.82044189 477.79646301 69.14044189 C477.26021301 68.87231689 476.72396301 68.60419189 476.17146301 68.32794189 C474.46262162 67.4735212 472.77724455 66.57157578 471.10896301 65.64044189 C463.05203255 61.99202055 455.05441604 61.86414667 446.32380676 61.94512939 C445.16015091 61.94795929 443.99649506 61.95078918 442.7975769 61.95370483 C439.10959752 61.96482959 435.42186803 61.98992006 431.73396301 62.01544189 C429.22159675 62.02548164 426.70922665 62.03460575 424.19685364 62.04278564 C418.06330597 62.06474367 411.92990235 62.09814397 405.79646301 62.14044189 C406.42916702 66.29748975 407.30765983 70.28139901 408.43318176 74.33184814 C408.76003967 75.51303223 409.08689758 76.69421631 409.42366028 77.91119385 C409.94851013 79.78810913 409.94851013 79.78810913 410.48396301 81.70294189 C410.84862948 83.01433822 411.21312974 84.32578077 411.57746887 85.63726807 C415.97229043 101.43313257 420.51275254 117.18424429 425.1209259 132.91900635 C427.53036999 141.17136886 429.85140789 149.44686454 432.15583801 157.72906494 C435.27036586 168.89503484 438.52443759 180.01976387 441.79646301 191.14044189 C446.38130157 191.33147683 450.06843728 190.91071062 454.53938293 189.71636963 C479.32665935 183.39152538 508.36177813 185.39829724 532.79646301 192.14044189 C533.85752258 192.42008789 533.85752258 192.42008789 534.9400177 192.7053833 C541.08066566 194.34011085 546.89499241 196.44998473 552.64021301 199.15606689 C554.88887493 200.18262995 557.16615887 201.03255335 559.48396301 201.89044189 C578.99156477 209.6934826 596.12636351 223.36665212 610.79646301 238.14044189 C611.34705383 238.69377197 611.89764465 239.24710205 612.46492004 239.81719971 C619.87748382 247.35289577 626.06540469 255.23740945 631.79646301 264.14044189 C632.47322083 265.16653564 633.14997864 266.19262939 633.84724426 267.24981689 C656.43765981 302.51718408 664.34824214 344.90546835 657.79646301 386.14044189 C657.66368958 387.13559814 657.53091614 388.13075439 657.39411926 389.15606689 C654.71238021 407.85161918 647.94408087 424.7936891 638.85163879 441.222229 C638.11414921 442.56291749 637.38956477 443.9107497 636.67488098 445.26373291 C633.54125287 451.10913003 629.889943 456.39585315 625.92146301 461.70294189 C625.33493958 462.50151611 624.74841614 463.30009033 624.14411926 464.12286377 C618.64247756 471.54101142 612.93694412 478.40684187 605.86677551 484.37481689 C604.50001365 485.54043267 603.16014269 486.73842966 601.85115051 487.96856689 C572.10329727 515.7935551 531.18536461 530.77143738 490.813797 530.58648682 C487.99672592 530.57798043 485.18169503 530.60686606 482.36482239 530.63848877 C443.29994047 530.78854675 404.67376361 515.13735981 375.44099426 489.42559814 C372.82645313 487.07066179 372.82645313 487.07066179 369.79646301 485.14044189 C369.79646301 484.48044189 369.79646301 483.82044189 369.79646301 483.14044189 C368.86833801 482.76919189 368.86833801 482.76919189 367.92146301 482.39044189 C365.40936005 480.91273427 365.03538958 479.70089013 363.79646301 477.14044189 C362.80646301 476.81044189 361.81646301 476.48044189 360.79646301 476.14044189 C358.97520413 474.05143736 357.28162406 471.96802361 355.60896301 469.76544189 C354.87866882 468.81749756 354.87866882 468.81749756 354.13362122 467.85040283 C352.67870679 465.95387347 351.23567945 464.0489018 349.79646301 462.14044189 C349.04107239 461.14270752 348.28568176 460.14497314 347.50740051 459.11700439 C334.22975251 441.22550187 324.03710085 420.11465614 319.79646301 398.14044189 C319.46646301 397.48044189 319.13646301 396.82044189 318.79646301 396.14044189 C316.05259519 384.39725629 315.511965 372.7134515 315.54646301 360.70294189 C315.54741974 360.02229675 315.54837646 359.34165161 315.54936218 358.64038086 C315.5866245 347.23055755 315.74608729 336.01371955 318.73396301 324.95294189 C319.07298645 323.68063721 319.41200989 322.40833252 319.76130676 321.09747314 C319.93468567 320.45415039 320.10806458 319.81082764 320.28669739 319.14801025 C320.81979293 317.04856359 321.26107793 314.94137649 321.69880676 312.82012939 C324.87901732 298.32252073 330.92944202 284.65164965 338.79646301 272.14044189 C339.75493762 270.45302213 340.71328044 268.7655275 341.67146301 267.07794189 C348.3713792 256.04384811 356.93837138 246.46126965 365.79646301 237.14044189 C366.45388489 236.40696533 367.11130676 235.67348877 367.78865051 234.91778564 C380.20904175 221.57459425 396.92839395 210.07542452 413.79646301 203.14044189 C414.45646301 203.14044189 415.11646301 203.14044189 415.79646301 203.14044189 C415.09811835 196.33404042 413.13846609 189.9449495 411.23396301 183.39044189 C410.58324811 181.14668523 409.93594606 178.90193512 409.29255676 176.65606689 C409.00565979 175.66896729 408.71876282 174.68186768 408.423172 173.66485596 C407.79646301 171.14044189 407.79646301 171.14044189 407.79646301 168.14044189 C402.93626277 171.13514783 399.12554095 174.5718279 395.15583801 178.65606689 C394.54758179 179.27189636 393.93932556 179.88772583 393.31263733 180.5222168 C391.38563579 182.47349708 389.46529641 184.43113084 387.54646301 186.39044189 C385.00526938 188.98465596 382.45763991 191.572292 379.90583801 194.15606689 C379.32251709 194.7559845 378.73919617 195.3559021 378.13819885 195.97399902 C376.72850053 197.40090991 375.26694117 198.77625055 373.79646301 200.14044189 C373.13646301 200.14044189 372.47646301 200.14044189 371.79646301 200.14044189 C371.46646301 201.13044189 371.13646301 202.12044189 370.79646301 203.14044189 C370.13646301 203.14044189 369.47646301 203.14044189 368.79646301 203.14044189 C368.46646301 204.13044189 368.13646301 205.12044189 367.79646301 206.14044189 C367.13646301 206.14044189 366.47646301 206.14044189 365.79646301 206.14044189 C365.46646301 207.13044189 365.13646301 208.12044189 364.79646301 209.14044189 C364.13646301 209.14044189 363.47646301 209.14044189 362.79646301 209.14044189 C362.79646301 209.80044189 362.79646301 210.46044189 362.79646301 211.14044189 C361.15294844 212.50221111 359.48123645 213.83006255 357.79646301 215.14044189 C356.11138202 216.79158101 354.45006184 218.45821362 352.79646301 220.14044189 C351.51667072 221.43160974 350.23643896 222.72234207 348.95588684 224.01275635 C348.24197281 224.73312576 347.52805878 225.45349518 346.79251099 226.19569397 C343.58134718 229.43352953 340.36496342 232.66615785 337.14826965 235.89849854 C335.44825223 237.60864971 333.7500231 239.32058035 332.05354309 241.03424072 C329.60400581 243.50790206 327.14818501 245.9751672 324.69099426 248.44122314 C323.92954605 249.21299393 323.16809784 249.98476471 322.38357544 250.77992249 C321.67911789 251.4845311 320.97466034 252.18913971 320.24885559 252.9151001 C319.62884171 253.53955521 319.00882782 254.16401031 318.37002563 254.80738831 C316.79646301 256.14044189 316.79646301 256.14044189 314.79646301 256.14044189 C314.79646301 256.80044189 314.79646301 257.46044189 314.79646301 258.14044189 C313.34831238 259.56611633 313.34831238 259.56611633 311.33308411 261.23052979 C306.71338223 265.1613154 302.4645009 269.37931294 298.21052551 273.69903564 C296.60518541 275.31700184 294.99971293 276.9348367 293.39411926 278.55255127 C290.89043469 281.0812084 288.38839074 283.61145093 285.88874817 286.144104 C283.45864516 288.60422288 281.02251304 291.05823922 278.58552551 293.51153564 C277.45746994 294.65978065 277.45746994 294.65978065 276.30662537 295.83122253 C275.61185089 296.52937576 274.91707642 297.22752899 274.20124817 297.94683838 C273.5902829 298.56526108 272.97931763 299.18368378 272.34983826 299.82084656 C270.79646301 301.14044189 270.79646301 301.14044189 268.79646301 301.14044189 C268.46646301 302.13044189 268.13646301 303.12044189 267.79646301 304.14044189 C267.13646301 304.14044189 266.47646301 304.14044189 265.79646301 304.14044189 C265.79646301 304.80044189 265.79646301 305.46044189 265.79646301 306.14044189 C264.15294844 307.50221111 262.48123645 308.83006255 260.79646301 310.14044189 C259.12134975 311.79861894 257.45572085 313.46639919 255.79646301 315.14044189 C254.02087523 316.84025661 252.24208847 318.5367345 250.46052551 320.23028564 C248.95932273 321.67995404 247.46142242 323.13294368 245.96492004 324.58746338 C244.93126555 325.58563812 243.8914591 326.57747921 242.84577942 327.56304932 C241.32562537 328.9983277 239.82921873 330.45505168 238.33552551 331.91778564 C237.44043274 332.7762207 236.54533997 333.63465576 235.62312317 334.519104 C233.46345364 337.04559873 233.46345364 337.04559873 233.96784973 340.33087158 C234.67835186 342.73996366 235.43426865 345.09484032 236.29646301 347.45294189 C240.92564698 362.6631178 239.9553649 381.91714509 232.79646301 396.14044189 C232.16417786 397.45915283 232.16417786 397.45915283 231.51911926 398.80450439 C222.67124237 416.20614593 209.19550311 427.95895223 191.10896301 434.89044189 C180.66879273 438.25858812 169.68656469 438.56272126 158.79646301 439.14044189 C156.40257463 446.08536375 156.40257463 446.08536375 154.60896301 453.20294189 C154.34083801 454.50231689 154.07271301 455.80169189 153.79646301 457.14044189 C159.07646301 457.47044189 164.35646301 457.80044189 169.79646301 458.14044189 C169.99072174 460.93179042 170.17715818 463.72327877 170.35896301 466.51544189 C170.41503723 467.30950439 170.47111145 468.10356689 170.52888489 468.92169189 C170.90974426 474.91387939 170.90974426 474.91387939 169.79646301 477.14044189 C162.40918199 477.16570882 155.02191203 477.1832735 147.63459778 477.19537354 C145.11929406 477.20041553 142.6039933 477.20724892 140.08869934 477.21588135 C136.48216527 477.22795283 132.87566979 477.23367138 129.26911926 477.23809814 C127.57070641 477.24584007 127.57070641 477.24584007 125.83798218 477.2537384 C124.27647682 477.2538517 124.27647682 477.2538517 122.6834259 477.25396729 C121.7618721 477.2561879 120.8403183 477.25840851 119.89083862 477.26069641 C117.79646301 477.14044189 117.79646301 477.14044189 116.79646301 476.14044189 C116.69659326 473.29709142 116.6576842 470.48347026 116.67146301 467.64044189 C116.66759583 466.84251221 116.66372864 466.04458252 116.65974426 465.22247314 C116.66985534 459.26704957 116.66985534 459.26704957 117.79646301 458.14044189 C120.48882077 457.90365473 123.16144457 457.71846164 125.85896301 457.57794189 C126.61757629 457.5347583 127.37618958 457.49157471 128.15779114 457.44708252 C130.03711739 457.34070556 131.91676545 457.24004255 133.79646301 457.14044189 C133.98982239 456.56036377 134.18318176 455.98028564 134.38240051 455.38262939 C134.64279114 454.60145752 134.90318176 453.82028564 135.17146301 453.01544189 C135.44474426 452.19044189 135.71802551 451.36544189 135.99958801 450.51544189 C136.61734703 448.67427778 137.26365694 446.84268098 137.92146301 445.01544189 C138.91791009 441.7414015 139.38924642 438.53391348 139.79646301 435.14044189 C138.12583801 435.20231689 138.12583801 435.20231689 136.42146301 435.26544189 C133.25243201 435.26544189 130.39130536 434.93686532 127.29646301 434.26544189 C122.40953747 433.20660803 117.52346936 432.55860194 112.56013489 431.96563721 C106.29637039 431.21410244 100.04647142 430.37353318 93.79646301 429.51544189 C92.81000793 429.3801709 91.82355286 429.2448999 90.8072052 429.10552979 C88.47018851 428.78457233 86.13327081 428.4629162 83.79646301 428.14044189 C82.60660977 430.5114844 81.43507528 432.88836547 80.28083801 435.27716064 C76.878901 442.24193711 73.38039764 448.87123718 68.79646301 455.14044189 C68.36140442 455.73647217 67.92634583 456.33250244 67.47810364 456.94659424 C56.0713667 472.5159614 56.0713667 472.5159614 49.79646301 479.14044189 C49.28212708 479.70118408 48.76779114 480.26192627 48.23786926 480.83966064 C46.79646301 482.14044189 46.79646301 482.14044189 44.79646301 482.14044189 C44.46646301 483.13044189 44.13646301 484.12044189 43.79646301 485.14044189 C43.13646301 485.14044189 42.47646301 485.14044189 41.79646301 485.14044189 C41.46646301 486.13044189 41.13646301 487.12044189 40.79646301 488.14044189 C38.42536926 490.15606689 38.42536926 490.15606689 35.35896301 492.39044189 C34.81256165 492.78884277 34.26616028 493.18724365 33.70320129 493.59771729 C32.07142749 494.78387853 30.43401745 495.96227395 28.79646301 497.14044189 C28.00884583 497.73212158 27.22122864 498.32380127 26.40974426 498.93341064 C21.09393584 502.83909188 15.48449139 506.11510322 9.73396301 509.32794189 C8.99001282 509.74422852 8.24606262 510.16051514 7.47956848 510.5894165 C2.3652836 513.39985283 -2.84753514 515.83004641 -8.20353699 518.14044189 C-9.86256042 518.89647705 -9.86256042 518.89647705 -11.55509949 519.66778564 C-27.46330839 526.52084461 -45.31581027 530.22737504 -62.62541199 530.37872314 C-63.52487549 530.38679489 -64.42433899 530.39486664 -65.35105896 530.40318298 C-67.25385143 530.41696463 -69.15666801 530.42771304 -71.05949402 530.43560791 C-72.96744762 530.44703567 -74.87537164 530.4673381 -76.78312683 530.49713135 C-90.1379395 530.70503807 -102.26071495 529.43671539 -115.20353699 526.14044189 C-116.23333679 525.89640625 -117.2631366 525.65237061 -118.32414246 525.40093994 C-148.11062365 518.22785649 -173.01760267 501.78619565 -195.20353699 481.14044189 C-195.8699823 480.52813721 -196.53642761 479.91583252 -197.22306824 479.28497314 C-227.72276217 450.15186427 -245.02779526 406.90772524 -246.16471863 365.16363525 C-246.91517317 315.18964947 -229.18847837 271.59661024 -194.62541199 235.55450439 C-190.13418605 230.99051558 -185.27925976 227.04307466 -180.20353699 223.14044189 C-178.92349792 222.07889893 -178.92349792 222.07889893 -177.61759949 220.99591064 C-172.39103846 216.66188542 -167.22115564 213.24853761 -161.20353699 210.14044189 C-159.93015276 209.44480635 -158.65813928 208.74665865 -157.38713074 208.04669189 C-145.46827497 201.52809421 -133.46651807 196.21612217 -120.39103699 192.45294189 C-119.74143005 192.26248291 -119.09182312 192.07202393 -118.42253113 191.87579346 C-104.81293474 188.1627599 -91.10028389 186.63389523 -77.02629089 186.74932861 C-74.70326599 186.76544377 -72.3819796 186.74933843 -70.05900574 186.73028564 C-59.178437 186.71598792 -48.87066292 188.059343 -38.20353699 190.14044189 C-36.43490295 190.47507446 -36.43490295 190.47507446 -34.63053894 190.81646729 C-25.75365197 192.55719306 -17.53699999 195.93001043 -9.19474792 199.33428955 C-6.69069091 200.34807036 -4.16491605 201.30227932 -1.64103699 202.26544189 C2.33469215 203.85573355 6.0038601 205.81984656 9.69099426 207.99200439 C11.99680828 209.24972113 14.34353473 210.20721612 16.79646301 211.14044189 C24.70287432 201.01350656 32.22259907 190.66017661 39.60115051 180.14434814 C40.58261511 178.74699758 41.56439173 177.34986614 42.54646301 175.95294189 C43.04170471 175.24846924 43.53694641 174.54399658 44.04719543 173.81817627 C48.52880882 167.46904571 53.1434726 161.22225221 57.77131653 154.97930908 C61.97267202 149.29750955 66.04611012 143.54487912 70.02693176 137.70684814 C71.79646301 135.14044189 71.79646301 135.14044189 73.59724426 133.10528564 C75.02527912 131.19736537 75.02527912 131.19736537 74.61677551 128.85919189 C74.34607239 127.96200439 74.07536926 127.06481689 73.79646301 126.14044189 C73.48450989 124.99575439 73.17255676 123.85106689 72.85115051 122.67169189 C72.46134886 121.32694362 72.06788791 119.98325258 71.67146301 118.64044189 C71.45554504 117.9063208 71.23962708 117.17219971 71.01716614 116.41583252 C69.23695682 110.44689538 67.28867662 104.54151784 65.29646301 98.64044189 C62.98432411 91.79041415 60.79142914 84.92988296 58.79182434 77.98248291 C56.77356622 70.98833115 54.62997955 64.03381727 52.48396301 57.07794189 C52.12181702 55.90400879 51.75967102 54.73007568 51.3865509 53.52056885 C50.52402127 50.72693464 49.66071111 47.93354487 48.79646301 45.14044189 C44.65697984 45.59038572 40.98866837 46.35867394 37.03474426 47.67559814 C31.63315196 49.35089827 26.6132789 49.63994969 20.98396301 49.57794189 C20.02200012 49.57109375 19.06003723 49.56424561 18.06892395 49.55718994 C10.35128774 49.3837964 3.92435212 48.24566091 -3.20353699 45.14044189 C-4.12521667 44.74341064 -5.04689636 44.34637939 -5.99650574 43.93731689 C-15.11585847 39.68072093 -20.09570752 34.95977994 -24.28947449 25.75762939 C-26.21020995 20.25808768 -26.27578574 13.5889842 -23.89103699 8.20294189 C-20.46115982 3.05812614 -13.54197158 1.90379529 -7.85663891 0.60380936 C-5.18062933 0.13644105 -2.71456993 0.00907859 0 0 Z " fill="#9DC86B" transform="translate(471.2035369873047,60.85955810546875)"/>
<path d="M0 0 C1.5778125 0.44666016 1.5778125 0.44666016 3.1875 0.90234375 C9.70095385 2.87843066 15.19102899 5.65064476 20.984375 9.20703125 C24.00873474 11.00519332 27.07736554 12.54394004 30.25 14.0625 C35.19526187 16.48958247 40.02748725 19.12095814 44 23 C44 23.66 44 24.32 44 25 C44.52078125 25.2165625 45.0415625 25.433125 45.578125 25.65625 C48.97991484 27.54369469 51.79409409 29.98585585 54.75 32.5 C55.35199219 32.99886719 55.95398437 33.49773437 56.57421875 34.01171875 C58.09048277 35.29418243 59.55043376 36.64260271 61 38 C61 38.66 61 39.32 61 40 C61.66 40 62.32 40 63 40 C64.7265625 41.8984375 64.7265625 41.8984375 66.625 44.375 C67.57246094 45.59316406 67.57246094 45.59316406 68.5390625 46.8359375 C70 49 70 49 70 51 C70.66 51 71.32 51 72 51 C78.00014509 57.15301502 81.92111431 65.50214079 86 73 C86.55042969 74.00417969 87.10085938 75.00835937 87.66796875 76.04296875 C91.71500944 83.75211311 94.50139244 91.69212987 97 100 C97.44859375 101.44439453 97.44859375 101.44439453 97.90625 102.91796875 C106.86938856 134.69229496 103.44397339 174.08090686 87.30859375 203.03515625 C86.11578918 205.07297141 84.90772229 207.1019398 83.68359375 209.12109375 C82.13911385 211.76211855 80.83766901 214.40960657 79.5625 217.1875 C77.35512932 221.7104458 74.52414665 225.08136573 71.0859375 228.73046875 C69.00178265 230.99806045 67.16902365 233.35671872 65.3125 235.8125 C54.91248268 248.95582898 41.36984417 259.04189957 26.77001953 267.02246094 C25.1034973 267.94284094 23.45530431 268.8961882 21.80859375 269.8515625 C8.6881196 277.30675057 -5.11543449 281.65389416 -20 284 C-21.94519531 284.30744141 -21.94519531 284.30744141 -23.9296875 284.62109375 C-53.54749285 288.97175229 -85.00015303 284.25916981 -111 269.0625 C-112.20416252 268.36282574 -113.40858988 267.66360706 -114.61328125 266.96484375 C-115.73089844 266.31644531 -116.84851563 265.66804688 -118 265 C-120.40435774 263.6582675 -122.8147097 262.32885856 -125.23046875 261.0078125 C-126.86373014 260.07761065 -128.43609551 259.04260299 -130 258 C-130 257.34 -130 256.68 -130 256 C-130.55042969 255.75636719 -131.10085938 255.51273438 -131.66796875 255.26171875 C-143.26690947 248.98624496 -153.31043605 237.51430172 -161 227 C-161 226.34 -161 225.68 -161 225 C-161.66 225 -162.32 225 -163 225 C-164.2265625 223.3046875 -164.2265625 223.3046875 -165.625 220.875 C-166.15351562 219.95976562 -166.68203125 219.04453125 -167.2265625 218.1015625 C-167.81179688 217.07804688 -168.39703125 216.05453125 -169 215 C-169.97066406 213.37191406 -169.97066406 213.37191406 -170.9609375 211.7109375 C-190.10597103 179.43221736 -195.11196207 141.31785489 -186.42675781 104.77563477 C-182.89155797 90.95941059 -177.74728022 77.99800034 -170 66 C-169.38125 64.865625 -168.7625 63.73125 -168.125 62.5625 C-165.69449273 58.23929983 -162.66140578 54.32934915 -159.70703125 50.35546875 C-157.99813039 48.13188014 -157.99813039 48.13188014 -157 46 C-156.34 46 -155.68 46 -155 46 C-154.79117188 45.46761719 -154.58234375 44.93523437 -154.3671875 44.38671875 C-152.45309327 41.0452571 -149.84029031 38.50184053 -147.125 35.8125 C-146.26140869 34.95301758 -146.26140869 34.95301758 -145.38037109 34.07617188 C-139.97324932 28.79761517 -134.18168659 24.35007575 -128 20 C-127.36707031 19.52175781 -126.73414063 19.04351562 -126.08203125 18.55078125 C-121.13019286 14.82219985 -115.70885096 11.41808018 -110 9 C-107 10 -107 10 -106.14038086 11.63891602 C-105.80598999 12.68583618 -105.80598999 12.68583618 -105.46484375 13.75390625 C-105.08682617 14.9130957 -105.08682617 14.9130957 -104.70117188 16.09570312 C-104.44916016 16.90974609 -104.19714844 17.72378906 -103.9375 18.5625 C-103.68162109 19.34947266 -103.42574219 20.13644531 -103.16210938 20.94726562 C-101.80953432 25.16493539 -100.61749316 29.39071249 -99.57446289 33.69702148 C-96.95724587 44.18924764 -93.91695224 54.58739029 -91 65 C-90.72607422 65.98307129 -90.45214844 66.96614258 -90.16992188 67.97900391 C-84.25834116 89.04383361 -76.77505851 111.19154883 -63.54296875 128.88671875 C-59 135.10886076 -59 135.10886076 -59 138 C-58.34 138 -57.68 138 -57 138 C-53 142.47058824 -53 142.47058824 -53 145 C-52.34 145 -51.68 145 -51 145 C-49.87516462 146.39752274 -48.75081455 147.79543886 -47.62890625 149.1953125 C-44.55659514 152.59916798 -40.95863324 155.67967752 -37 158 C-33.14091001 156.71363667 -32.64272849 155.24557195 -30.5625 151.8125 C-28.62936532 148.64396503 -26.70687775 145.54601417 -24.5 142.5625 C-22.79782398 140.21436326 -22.79782398 140.21436326 -23.15234375 138.06640625 C-24.26319258 135.35839228 -25.78930464 134.19515996 -28.0625 132.375 C-29.40912172 131.29107602 -30.73088022 130.17371898 -32 129 C-32 128.34 -32 127.68 -32 127 C-32.66 127 -33.32 127 -34 127 C-35.20166016 125.67749023 -35.20166016 125.67749023 -36.5390625 123.80859375 C-37.03325684 123.11878418 -37.52745117 122.42897461 -38.03662109 121.71826172 C-38.82286865 120.58928467 -38.82286865 120.58928467 -39.625 119.4375 C-40.16334473 118.66680176 -40.70168945 117.89610352 -41.25634766 117.10205078 C-54.48093449 97.84796903 -62.21682645 76.21420694 -67.98242188 53.68945312 C-69.97060175 45.96448179 -72.21373272 38.32166846 -74.47070312 30.67163086 C-76.52543294 23.68702364 -78.45949361 16.68353352 -80.2734375 9.6328125 C-80.89556649 7.0478977 -80.89556649 7.0478977 -82 5 C-82.039992 3.00039988 -82.04346799 0.99952758 -82 -1 C-80.32394462 -1.47887297 -78.64741934 -1.95615352 -76.96875 -2.42578125 C-75.27570125 -2.91958713 -73.60366562 -3.48444254 -71.9375 -4.0625 C-49.63469897 -10.24690116 -21.66690757 -6.43830258 0 0 Z " fill="#FFFFFE" transform="translate(1003,280)"/>
<path d="M0 0 C1.0511499 0.00338379 2.1022998 0.00676758 3.18530273 0.01025391 C24.14720154 0.14908512 24.14720154 0.14908512 33.25 3.125 C34.74776886 3.4079119 36.24810714 3.67736823 37.75 3.9375 C48.34324952 6.04656325 58.00883624 9.73145443 67.5625 14.6875 C68.29799072 15.06334229 69.03348145 15.43918457 69.79125977 15.82641602 C76.06738818 19.20370816 76.06738818 19.20370816 77.25 23.125 C76.30640625 24.32382812 76.30640625 24.32382812 75.34375 25.546875 C71.2108675 30.83572896 67.16690745 36.12209422 63.5 41.75 C59.47586702 47.90360376 55.12771772 53.79127171 50.74853516 59.69580078 C46.58423137 65.31077961 42.46125925 70.95297446 38.375 76.625 C37.5696582 77.74189209 37.5696582 77.74189209 36.74804688 78.88134766 C34.81192347 81.56726792 32.87683968 84.25393403 30.94287109 86.94140625 C29.81774522 88.50380416 28.69022279 90.06447549 27.5625 91.625 C26.65951172 92.87796875 26.65951172 92.87796875 25.73828125 94.15625 C23.07920684 97.67376576 21.57122972 98.49693447 17.25 99.125 C15.3342314 99.27594652 13.41564839 99.3934677 11.49609375 99.484375 C9.8419043 99.58105469 9.8419043 99.58105469 8.15429688 99.6796875 C5.87119052 99.80831321 3.58726534 99.92325034 1.30273438 100.0234375 C-6.9293619 100.53883831 -13.32464814 102.62409453 -20.75 106.125 C-22.41211861 106.80292622 -24.07742336 107.47330253 -25.75 108.125 C-25.75 108.785 -25.75 109.445 -25.75 110.125 C-27.73260426 111.81232277 -29.7332342 113.47866057 -31.75 115.125 C-32.08 115.785 -32.41 116.445 -32.75 117.125 C-33.41 117.125 -34.07 117.125 -34.75 117.125 C-35.02714844 117.82753906 -35.30429687 118.53007812 -35.58984375 119.25390625 C-36.37134242 121.18791811 -37.17661929 123.11247082 -38.00390625 125.02734375 C-38.43574219 126.02894531 -38.86757813 127.03054688 -39.3125 128.0625 C-39.74691406 129.06152344 -40.18132812 130.06054688 -40.62890625 131.08984375 C-44.85709929 142.53690296 -43.29180223 155.29368175 -38.34375 166.234375 C-32.96474533 176.23120443 -25.36731545 183.88247023 -14.75 188.125 C-14.03199219 188.45628906 -13.31398438 188.78757812 -12.57421875 189.12890625 C-8.73464867 190.48311147 -4.89365458 191.03325636 -0.875 191.625 C-0.11703125 191.74230469 0.6409375 191.85960937 1.421875 191.98046875 C8.32857343 193.0334572 15.25542666 193.93809969 22.18164062 194.85192871 C41.06244964 197.34463231 59.93390797 199.85346418 78.74804688 202.8137207 C85.56762522 203.88243601 92.38440594 204.80585852 99.23828125 205.62890625 C104.24993431 206.23782274 109.25015267 206.92648873 114.25 207.625 C115.12309814 207.74367432 115.99619629 207.86234863 116.89575195 207.98461914 C122.12501057 208.72347606 127.1487045 209.75520769 132.25 211.125 C129.44198969 223.74165175 117.20404729 237.37507233 108.25 246.125 C107.30035814 247.11559631 106.35389073 248.1092429 105.41015625 249.10546875 C78.02459888 277.64666565 40.57046283 291.40645188 1.4375 292.4375 C-17.40464508 292.08572133 -37.85012036 288.79075361 -54.75 280.125 C-55.51957031 279.75761719 -56.28914063 279.39023437 -57.08203125 279.01171875 C-62.96683372 276.16662527 -68.57933668 272.9392179 -74.18359375 269.578125 C-76.74231605 268.02075666 -76.74231605 268.02075666 -79.75 267.125 C-79.75 266.465 -79.75 265.805 -79.75 265.125 C-80.53117187 264.7846875 -80.53117187 264.7846875 -81.328125 264.4375 C-84.62684535 262.64980639 -87.53457421 260.40609676 -90.5 258.125 C-91.10199219 257.67382812 -91.70398438 257.22265625 -92.32421875 256.7578125 C-93.83906356 255.59677498 -95.29969821 254.36572061 -96.75 253.125 C-96.75 252.465 -96.75 251.805 -96.75 251.125 C-97.34546631 250.86380371 -97.94093262 250.60260742 -98.55444336 250.33349609 C-100.88599375 249.05014522 -102.16177641 247.80531235 -103.87890625 245.7890625 C-104.43900391 245.13679687 -104.99910156 244.48453125 -105.57617188 243.8125 C-106.14916016 243.131875 -106.72214844 242.45125 -107.3125 241.75 C-107.88935547 241.07710937 -108.46621094 240.40421875 -109.06054688 239.7109375 C-116.75 230.6999982 -116.75 230.6999982 -116.75 228.125 C-117.41 228.125 -118.07 228.125 -118.75 228.125 C-121.43960494 223.13700538 -124.10442664 218.13648531 -126.75 213.125 C-127.07516602 212.51156738 -127.40033203 211.89813477 -127.73535156 211.26611328 C-139.50594707 188.9316868 -145.18119597 164.41983316 -143.75 139.125 C-143.71422852 138.43712402 -143.67845703 137.74924805 -143.64160156 137.04052734 C-141.92885274 107.467481 -130.80662742 76.40832814 -110.6328125 54.26953125 C-108.69387939 52.11347561 -108.69387939 52.11347561 -106.8671875 49.63671875 C-100.29327572 41.00064833 -92.32628718 34.68470074 -83.75 28.125 C-82.91984375 27.46757812 -82.0896875 26.81015625 -81.234375 26.1328125 C-57.76902525 8.49159632 -29.08701473 -0.13519087 0 0 Z " fill="#FFFFFE" transform="translate(394.75,273.875)"/>
<path d="M0 0 C91.08 0 182.16 0 276 0 C276 4 276 4 274.47119141 6.01464844 C273.4219751 7.05153809 273.4219751 7.05153809 272.3515625 8.109375 C271.59359375 8.86347656 270.835625 9.61757812 270.0546875 10.39453125 C269.25289062 11.17183594 268.45109375 11.94914063 267.625 12.75 C266.43390625 13.93916016 266.43390625 13.93916016 265.21875 15.15234375 C259.28051043 21 259.28051043 21 257 21 C256.67 21.99 256.34 22.98 256 24 C255.34 24 254.68 24 254 24 C254 24.66 254 25.32 254 26 C252.60568237 27.37184143 252.60568237 27.37184143 250.63232422 28.99438477 C245.43210065 33.41971696 240.67781129 38.23344272 235.8828125 43.08984375 C234.93533882 44.04427892 233.98748626 44.99833811 233.03927612 45.95204163 C229.0485082 49.96705165 225.06373221 53.98797236 221.08300781 58.01293945 C218.63357292 60.48907912 216.17934973 62.96038722 213.7220726 65.42874336 C212.33676614 66.82328047 210.95705712 68.22337073 209.5774231 69.6235199 C208.74250336 70.46181839 207.90758362 71.30011688 207.04736328 72.16381836 C205.944384 73.27798378 205.944384 73.27798378 204.81912231 74.41465759 C203 76 203 76 201 76 C200.67 76.99 200.34 77.98 200 79 C199.34 79 198.68 79 198 79 C197.67 79.99 197.34 80.98 197 82 C196.34 82 195.68 82 195 82 C195 82.66 195 83.32 195 84 C194.29875 84.556875 193.5975 85.11375 192.875 85.6875 C190.57787259 87.53518944 189.01886721 89.0747198 187.1875 91.3125 C185.06388454 93.87282671 182.86454632 96.06600303 180.32421875 98.2109375 C175.88276164 102.04842546 171.75003585 106.13999168 167.625 110.3125 C166.85623535 111.08505127 166.0874707 111.85760254 165.29541016 112.65356445 C162.86114235 115.09994182 160.43015894 117.5495414 158 120 C154.79463822 123.23213688 151.58585927 126.46082535 148.375 129.6875 C147.293396 130.78155151 147.293396 130.78155151 146.18994141 131.89770508 C142.20607497 135.90052469 138.11502225 139.69004575 133.8374939 143.3762207 C131.19752433 145.70914161 128.79506272 148.19954671 126.36328125 150.75 C125.36467344 151.78066653 124.36530334 152.81059494 123.36523438 153.83984375 C121.82404784 155.43076194 120.28816674 157.02567253 118.7644043 158.63330078 C117.26930705 160.20686278 115.7559835 161.76077167 114.23828125 163.3125 C113.35180908 164.23675781 112.46533691 165.16101563 111.55200195 166.11328125 C109 168 109 168 106.29711914 167.87231445 C103.82947874 166.93524578 102.16299101 165.85763786 100.125 164.1875 C97.52185645 162.12276754 94.99847439 160.36790327 92.0625 158.8125 C89 157 89 157 88 154 C88.51318359 151.47216797 88.51318359 151.47216797 89.3984375 148.4921875 C89.87023437 146.88923828 89.87023437 146.88923828 90.3515625 145.25390625 C90.85816406 143.58134766 90.85816406 143.58134766 91.375 141.875 C91.705 140.75222656 92.035 139.62945312 92.375 138.47265625 C94.85094395 130.14905605 94.85094395 130.14905605 96 129 C97.41327947 128.84379445 98.8335459 128.74943827 100.25390625 128.68359375 C101.53491211 128.62075195 101.53491211 128.62075195 102.84179688 128.55664062 C103.73962891 128.51732422 104.63746094 128.47800781 105.5625 128.4375 C106.91504883 128.37272461 106.91504883 128.37272461 108.29492188 128.30664062 C110.52978485 128.20021858 112.76476308 128.09820012 115 128 C117.68741925 122.6251615 116 116.00925213 116 110 C98.84 110.33 81.68 110.66 64 111 C63.67 116.61 63.34 122.22 63 128 C67.62 128.33 72.24 128.66 77 129 C78.11414246 132.34242737 77.91364716 132.99697423 76.8203125 136.1953125 C76.55089844 136.99324219 76.28148437 137.79117188 76.00390625 138.61328125 C75.71386719 139.44214844 75.42382812 140.27101563 75.125 141.125 C74.70154297 142.37990234 74.70154297 142.37990234 74.26953125 143.66015625 C72.1541718 149.8458282 72.1541718 149.8458282 71 151 C67.23669354 151.28055826 63.46001791 151.23183014 59.6875 151.25 C58.62853516 151.270625 57.56957031 151.29125 56.47851562 151.3125 C55.45822266 151.31765625 54.43792969 151.3228125 53.38671875 151.328125 C52.45045654 151.3374707 51.51419434 151.34681641 50.54956055 151.35644531 C47.49371629 150.92921821 46.19230736 150.14975599 44 148 C43.05859375 146.13745117 43.05859375 146.13745117 42.4375 144.04296875 C42.20039307 143.26775879 41.96328613 142.49254883 41.71899414 141.69384766 C41.48172607 140.86675293 41.24445801 140.0396582 41 139.1875 C40.7414624 138.32946777 40.4829248 137.47143555 40.21655273 136.58740234 C38.445227 130.6719366 36.79016637 124.72337533 35.125 118.77734375 C33.71460334 114.04174108 32.1436305 109.36836801 30.5625 104.6875 C28.22311603 97.75615156 26.00484589 90.81431936 23.97802734 83.78564453 C21.13730574 73.95552158 18.07398117 64.19276394 15.05273438 54.41699219 C14.01322011 51.04291016 12.98184136 47.66645085 11.953125 44.2890625 C11.28149855 42.08846579 10.60962614 39.88794414 9.9375 37.6875 C9.61168945 36.61878662 9.28587891 35.55007324 8.95019531 34.44897461 C7.34346383 29.21830424 5.68462812 24.01489089 3.90625 18.83984375 C3.40943726 17.39121948 3.40943726 17.39121948 2.90258789 15.91333008 C2.27625233 14.10372259 1.64055484 12.29731818 0.99389648 10.49487305 C0.57732788 9.29471558 0.57732788 9.29471558 0.15234375 8.0703125 C-0.09523682 7.37695801 -0.34281738 6.68360352 -0.59790039 5.96923828 C-1 4 -1 4 0 0 Z " fill="#FFFFFE" transform="translate(581,208)"/>
<path d="M0 0 C1.5778125 0.03673828 1.5778125 0.03673828 3.1875 0.07421875 C5.97834103 0.23120356 8.7246641 0.48726532 11.5 0.8125 C14.66484005 1.17419601 17.46718297 1.22588696 20.625 0.8125 C36.89070747 -1.30030542 36.89070747 -1.30030542 42.125 1.875 C45.01850913 4.86409051 44.72609476 8.39213007 44.8125 12.375 C44.65096154 18.74230769 44.65096154 18.74230769 42.3125 22.25 C39.9296875 22.76171875 39.9296875 22.76171875 37.1875 22.9375 C35.82238281 23.03611328 35.82238281 23.03611328 34.4296875 23.13671875 C33.73101562 23.17410156 33.03234375 23.21148438 32.3125 23.25 C33.26879038 32.4857518 34.67572944 41.46118757 36.77368164 50.50830078 C38.77441717 59.14049897 40.5854602 67.85623462 41.76953125 76.640625 C41.94871094 77.50171875 42.12789062 78.3628125 42.3125 79.25 C43.3025 79.745 43.3025 79.745 44.3125 80.25 C44.27125 78.97125 44.23 77.6925 44.1875 76.375 C44.1875 72.12073099 44.80317602 68.29055911 45.72412109 64.1496582 C46.34143311 61.10741139 46.80007237 58.07476018 47.2265625 55 C47.39945801 53.76741455 47.57235352 52.5348291 47.75048828 51.26489258 C47.84170959 50.61154938 47.93293091 49.95820618 48.0269165 49.2850647 C48.82828197 43.5745436 49.65934095 37.86822286 50.48974609 32.16186523 C50.70618756 30.6701873 50.92134212 29.1783221 51.13525391 27.6862793 C51.8264594 22.86829382 52.54896393 18.05709584 53.3125 13.25 C53.46460937 12.29174316 53.61671875 11.33348633 53.7734375 10.34619141 C54.63636136 5.71649133 55.55986078 3.1344505 59.3125 0.25 C62.36523438 -0.26757812 62.36523438 -0.26757812 65.90625 -0.28125 C67.82244141 -0.28898438 67.82244141 -0.28898438 69.77734375 -0.296875 C70.43976074 -0.28849609 71.10217773 -0.28011719 71.78466797 -0.27148438 C73.80688448 -0.2500595 75.82554961 -0.27129739 77.84765625 -0.296875 C79.12511719 -0.29171875 80.40257813 -0.2865625 81.71875 -0.28125 C82.88728516 -0.27673828 84.05582031 -0.27222656 85.25976562 -0.26757812 C88.95014707 0.35811035 90.09735284 1.27746797 92.3125 4.25 C93.08789062 6.28637695 93.08789062 6.28637695 93.46875 8.42578125 C93.61570312 9.2142041 93.76265625 10.00262695 93.9140625 10.81494141 C94.11128906 12.02029541 94.11128906 12.02029541 94.3125 13.25 C94.50972656 14.37994385 94.50972656 14.37994385 94.7109375 15.53271484 C95.10025347 17.83136743 95.46063678 20.13283174 95.8125 22.4375 C95.94213135 23.2728125 96.0717627 24.108125 96.20532227 24.96875 C97.08208692 30.65162531 97.91470192 36.33986591 98.70703125 42.03515625 C99.21755449 45.65159501 99.77041323 49.26104629 100.32421875 52.87109375 C100.50670166 54.07121094 100.68918457 55.27132812 100.87719727 56.5078125 C101.24468169 58.92120042 101.61612767 61.33398915 101.99194336 63.74609375 C102.83379031 69.30475379 103.55809105 74.62596489 103.3125 80.25 C103.9725 80.25 104.6325 80.25 105.3125 80.25 C107.06781524 71.84105965 108.46783135 63.3911714 109.8125 54.90820312 C110.68333236 49.55054311 111.8119352 44.47097338 113.3125 39.25 C113.78801664 36.44775214 114.12225896 33.63674962 114.4375 30.8125 C114.56705078 29.71518555 114.56705078 29.71518555 114.69921875 28.59570312 C114.90878393 26.81439906 115.11137868 25.03227719 115.3125 23.25 C114.61382812 23.21261719 113.91515625 23.17523437 113.1953125 23.13671875 C112.28523438 23.07097656 111.37515625 23.00523437 110.4375 22.9375 C109.08011719 22.85048828 109.08011719 22.85048828 107.6953125 22.76171875 C105.3125 22.25 105.3125 22.25 103.3125 19.25 C101.97997654 8.61786543 101.97997654 8.61786543 104.3984375 4.3203125 C105.75 3 105.75 3 108.3125 1.25 C108.6425 0.92 108.9725 0.59 109.3125 0.25 C115.78024735 -0.05584619 122.25729373 0.04007273 128.6875 0.8125 C132.30572506 1.23540942 135.48408594 1.07269563 139.10546875 0.51953125 C141.90917236 0.17713205 144.67622295 0.06550887 147.5 0 C148.48355469 -0.02578125 149.46710938 -0.0515625 150.48046875 -0.078125 C153.79605349 0.30602551 155.64568951 1.27370294 158.3125 3.25 C159.125 5.4375 159.125 5.4375 159.3125 7.25 C161.26249129 7.05528889 161.26249129 7.05528889 163.3125 6.25 C164.40416275 4.31669397 164.40416275 4.31669397 165.3125 2.25 C169.1766657 -0.32611047 172.33859334 -0.00834465 176.8125 0.0625 C177.66851807 0.06822021 178.52453613 0.07394043 179.40649414 0.07983398 C184.15544995 0.13257594 188.87149994 0.32739106 193.60791016 0.66308594 C203.73976179 1.36979818 213.79687557 1.13494761 223.9375 0.8125 C225.50919134 0.7640102 227.08088731 0.71567003 228.65258789 0.66748047 C230.9837614 0.59567084 233.31493437 0.52384474 235.64610291 0.45187378 C242.65949581 0.23658796 249.67126714 0.03434497 256.6875 -0.0625 C257.68990723 -0.09206787 258.69231445 -0.12163574 259.72509766 -0.15209961 C260.6485498 -0.15991455 261.57200195 -0.16772949 262.5234375 -0.17578125 C263.31024902 -0.19036377 264.09706055 -0.20494629 264.90771484 -0.2199707 C268.55405353 0.49263863 270.5514788 1.76811447 273.3125 4.25 C273.95937943 7.19510702 274.19862722 9.35307196 274.1875 12.3046875 C274.20594971 13.08385529 274.22439941 13.86302307 274.2434082 14.665802 C274.27683606 16.31132114 274.29613249 17.95718006 274.30224609 19.60302734 C274.31244128 22.11055831 274.36519319 24.61432419 274.42578125 27.12109375 C274.45302619 28.72391771 274.47784511 30.32678511 274.5 31.9296875 C274.51337402 32.67362762 274.52674805 33.41756775 274.54052734 34.18405151 C274.54695046 39.82363047 274.08817541 44.37285742 270.125 48.5625 C265.5298333 51.31960002 261.86327733 51.48655925 256.625 50.6875 C252.38212093 48.84625059 251.41767085 47.35576517 249.3125 43.25 C248.84992605 39.93791357 248.93188474 36.71071291 249.0625 33.375 C249.08054687 32.49585938 249.09859375 31.61671875 249.1171875 30.7109375 C249.16401621 28.5568168 249.23575006 26.40326226 249.3125 24.25 C243.65111925 21.83052478 238.35116459 21.98641603 232.3125 22.0625 C230.85457031 22.0634668 230.85457031 22.0634668 229.3671875 22.06445312 C222.25173666 21.98710982 222.25173666 21.98710982 215.3125 23.25 C212.73848283 26.37876225 213.04468398 29.89743044 213.0625 33.8125 C213.05734375 34.94816406 213.0521875 36.08382812 213.046875 37.25390625 C213.08749273 40.43146426 213.08749273 40.43146426 215.3125 43.25 C218.26996492 43.83345476 218.26996492 43.83345476 221.3125 43.25 C224.04495364 40.3861784 224.78782634 37.92188418 225.375 34.0625 C225.78515625 31.39453125 225.78515625 31.39453125 226.3125 29.25 C228.74729005 28.03260498 230.53329524 27.97872147 233.25 27.875 C234.56291016 27.80152344 234.56291016 27.80152344 235.90234375 27.7265625 C238.3125 28.25 238.3125 28.25 239.94702148 30.44384766 C241.43903763 33.51004355 241.65122521 35.2924404 241.5703125 38.671875 C241.55613281 39.69796875 241.54195312 40.7240625 241.52734375 41.78125 C241.49769531 42.8434375 241.46804688 43.905625 241.4375 45 C241.28686034 52.19525927 241.36096868 59.11351512 242.3125 66.25 C242.73957895 70.97587364 242.67333688 74.35575209 240.875 78.8125 C238.04679958 81.50273943 237.46411912 81.64716608 233.75 81.75 C230.29349281 81.61010763 229.32347281 81.2573152 226.3125 79.25 C225.6171875 76.75390625 225.6171875 76.75390625 225.1875 73.8125 C224.73035954 70.80098695 224.2779166 68.14624981 223.3125 65.25 C220.3425 65.25 217.3725 65.25 214.3125 65.25 C213.30061566 69.29753738 213.09284171 72.99094173 213.0625 77.125 C213.0315625 78.16720703 213.0315625 78.16720703 213 79.23046875 C212.96404981 84.00285607 213.87880844 87.16395996 216.3125 91.25 C220.49994075 91.30840224 224.68727565 91.34373166 228.875 91.375 C230.64713867 91.40013672 230.64713867 91.40013672 232.45507812 91.42578125 C238.44968116 91.45936446 243.68855802 91.4285715 249.3125 89.25 C250.87056603 87.69193397 250.45777989 86.15212263 250.48828125 83.98828125 C250.51212891 83.11623047 250.53597656 82.24417969 250.56054688 81.34570312 C250.60305808 79.50999186 250.63455389 77.67398792 250.65429688 75.83789062 C250.83271486 70.18245541 251.45560176 66.6868304 255.3125 62.25 C259.43098084 59.66585516 262.29347278 58.95324914 267 59.8125 C270.72189194 60.83966609 272.98728151 62.05282457 275.3125 65.25 C276.21333062 67.95249185 276.45634855 69.61417173 276.50537109 72.3984375 C276.52946548 73.64488037 276.52946548 73.64488037 276.55404663 74.91650391 C276.59855115 78.69627949 276.6395186 82.47588341 276.66259766 86.25585938 C276.6792002 88.25207136 276.70654633 90.24822288 276.74462891 92.24414062 C276.7992305 95.12140742 276.82124051 97.99728589 276.8359375 100.875 C276.85860687 101.76880371 276.88127625 102.66260742 276.90463257 103.58349609 C276.89664348 105.91280969 276.85181279 107.98380871 276.3125 110.25 C273.90478516 112.2734375 273.90478516 112.2734375 271.3125 113.25 C270.6525 113.58 269.9925 113.91 269.3125 114.25 C267.89187944 114.34607361 266.46683274 114.380747 265.04296875 114.3828125 C264.16608398 114.38474609 263.28919922 114.38667969 262.38574219 114.38867188 C261.43344727 114.38416016 260.48115234 114.37964844 259.5 114.375 C258.50516602 114.37306641 257.51033203 114.37113281 256.48535156 114.36914062 C250.16262203 114.33309085 243.8737685 114.11417286 237.5625 113.75 C227.89560163 113.2058148 218.24172994 113.13634668 208.5625 113.125 C207.82294067 113.12250244 207.08338135 113.12000488 206.32141113 113.11743164 C195.75286939 113.08753824 195.75286939 113.08753824 185.23144531 114.00537109 C182.01147196 114.41585625 178.80516718 114.53754217 175.5625 114.625 C174.30953125 114.67398438 173.0565625 114.72296875 171.765625 114.7734375 C167.41538137 114.11401143 166.05783749 112.59477815 163.3125 109.25 C160.83298485 105.70783549 160.87358797 102.49281627 161.3125 98.25 C162.75 94.875 162.75 94.875 165.3125 92.25 C168.31622607 91.38365017 171.19862163 91.26613408 174.3125 91.25 C175.488125 91.229375 176.66375 91.20875 177.875 91.1875 C178.679375 91.208125 179.48375 91.22875 180.3125 91.25 C182.37875586 84.45341552 182.58935712 78.19705953 182.54296875 71.12109375 C182.54251053 69.97262466 182.54205231 68.82415558 182.5415802 67.6408844 C182.53857067 65.2229 182.53072354 62.80491731 182.51831055 60.38696289 C182.50004235 56.69605606 182.49780122 53.0054005 182.49804688 49.31445312 C182.49313126 46.95833118 182.48730275 44.60221092 182.48046875 42.24609375 C182.47879951 40.59896645 182.47879951 40.59896645 182.47709656 38.91856384 C182.44425095 33.59132763 182.2466006 28.49820115 181.3125 23.25 C179.97445312 23.28480469 179.97445312 23.28480469 178.609375 23.3203125 C177.43890625 23.33835937 176.2684375 23.35640625 175.0625 23.375 C173.90234375 23.39820313 172.7421875 23.42140625 171.546875 23.4453125 C165.69909971 23.09218597 163.26160628 20.41850108 159.3125 16.25 C159.1578125 17.425625 159.1578125 17.425625 159 18.625 C158.3125 21.25 158.3125 21.25 155.3125 23.25 C152.61328125 23.4453125 152.61328125 23.4453125 149.625 23.375 C148.13419922 23.34792969 148.13419922 23.34792969 146.61328125 23.3203125 C145.85402344 23.29710937 145.09476563 23.27390625 144.3125 23.25 C144.14234375 23.930625 143.9721875 24.61125 143.796875 25.3125 C143.43335938 26.7665625 143.43335938 26.7665625 143.0625 28.25 C142.78664062 29.35730469 142.51078125 30.46460938 142.2265625 31.60546875 C141.62455845 34.00576695 141.01536015 36.40427405 140.3984375 38.80078125 C138.09175093 47.83061527 136.0558266 56.90070778 134.10473633 66.01391602 C132.83061336 71.94381205 131.44686882 77.82731086 129.92578125 83.69921875 C129.27839506 86.3918505 128.78196502 89.08349602 128.3125 91.8125 C127.63669487 95.60909632 126.89876699 99.37427964 126 103.125 C125.79761719 103.98867188 125.59523437 104.85234375 125.38671875 105.7421875 C123.93269481 109.13667248 122.14655053 110.88602618 119.3125 113.25 C116.14624023 113.84936523 116.14624023 113.84936523 112.62109375 113.80859375 C111.34685547 113.80150391 110.07261719 113.79441406 108.75976562 113.78710938 C108.10145752 113.77059326 107.44314941 113.75407715 106.76489258 113.73706055 C104.75213634 113.68755255 102.74182659 113.67557103 100.72851562 113.66992188 C89.7768059 113.53129264 89.7768059 113.53129264 86.3125 111.25 C83.24599471 104.99906335 82.53369371 97.4275424 81.55859375 90.59765625 C81.41220963 89.61687607 81.2658255 88.63609589 81.11500549 87.62559509 C80.6530779 84.52220759 80.20110102 81.41747788 79.75 78.3125 C79.29336727 75.21141444 78.8346178 72.11065466 78.37428284 69.01011658 C78.09007601 67.09152122 77.80826892 65.17256811 77.52940369 63.25318909 C76.91519941 52.51759211 76.91519941 52.51759211 73.3125 43.25 C71.21259397 55.54193214 71.21259397 55.54193214 69.375 67.875 C64.16723483 105.0237249 64.16723483 105.0237249 61.3125 111.25 C56.46365362 114.50727878 50.44466505 113.58407774 44.84033203 113.56567383 C42.81878939 113.56250984 40.79870609 113.58600578 38.77734375 113.61132812 C37.49988281 113.61197266 36.22242188 113.61261719 34.90625 113.61328125 C33.73771484 113.61626221 32.56917969 113.61924316 31.36523438 113.62231445 C28.04078299 113.21686113 26.69008683 112.55593449 24.3125 110.25 C21.7126519 104.84859144 20.86329477 98.41722295 19.5 92.59765625 C19.24083801 91.49356667 19.24083801 91.49356667 18.97644043 90.36717224 C17.09636552 82.34647063 15.23761055 74.32084363 13.38525391 66.29370117 C12.81362205 63.81736078 12.24081587 61.34129388 11.66796875 58.86523438 C11.38590576 57.64312759 11.38590576 57.64312759 11.09814453 56.39633179 C10.72268921 54.77042994 10.34607696 53.14479478 9.96826172 51.5194397 C9.01480996 47.39631349 8.10025635 43.26942842 7.24609375 39.12451172 C7.07307739 38.29990952 6.90006104 37.47530731 6.72180176 36.62571716 C6.39479841 35.05855503 6.07682112 33.48947283 5.76940918 31.91835022 C4.7688868 26.83743806 4.7688868 26.83743806 1.3125 23.25 C-0.81020157 23.07465737 -0.81020157 23.07465737 -3.0625 23.375 C-6.94561388 23.52678295 -7.43938115 23.44642742 -10.6875 20.875 C-13.86318626 16.70691179 -14.23339046 13.41114617 -13.6875 8.25 C-11.05154009 2.00693705 -6.60329643 -0.176323 0 0 Z " fill="#9DC86B" transform="translate(38.6875,632.75)"/>
<path d="M0 0 C4.029719 0.37197406 7.58936569 0.33589693 11.609375 -0.2890625 C14.57611811 -0.6572753 17.51178123 -0.78789945 20.5 -0.875 C21.57636719 -0.91238281 22.65273438 -0.94976563 23.76171875 -0.98828125 C27.5179162 -0.46404883 29.10438221 0.8454444 31.8125 3.4375 C34.34185839 6.93042349 34.16932643 10.22694808 33.8125 14.4375 C32.98334971 16.900987 31.96045551 19.0937575 30.8125 21.4375 C27.8425 21.7675 24.8725 22.0975 21.8125 22.4375 C21.46264418 30.65092806 22.45871051 38.10749591 24.1875 46.125 C24.40921875 47.20072266 24.6309375 48.27644531 24.859375 49.38476562 C25.79592499 53.88296014 26.76989887 58.35667249 27.9375 62.80078125 C28.76186289 66.22703952 29.19817841 69.42744996 29.4375 72.9375 C29.51226563 73.9790625 29.58703125 75.020625 29.6640625 76.09375 C29.71304688 76.8671875 29.76203125 77.640625 29.8125 78.4375 C30.4725 78.4375 31.1325 78.4375 31.8125 78.4375 C31.89290527 77.85371582 31.97331055 77.26993164 32.05615234 76.66845703 C32.43017005 73.96603241 32.80881465 71.26427435 33.1875 68.5625 C33.37699219 67.18578125 33.37699219 67.18578125 33.5703125 65.78125 C34.32272753 60.43910327 35.24422516 55.17231328 36.33496094 49.88964844 C37.13479154 45.7825428 37.6857089 41.64486665 38.25 37.5 C38.50974904 35.66396793 38.77018137 33.8280324 39.03125 31.9921875 C39.41958528 29.24596498 39.80411515 26.49950729 40.17578125 23.75097656 C40.52117462 21.20702155 40.884028 18.66606478 41.25 16.125 C41.39683228 14.98913452 41.39683228 14.98913452 41.54663086 13.83032227 C42.35241451 8.38264271 44.15645074 4.26420143 46.8125 -0.5625 C51.01165307 -0.66157258 55.21018252 -0.73406173 59.41015625 -0.78222656 C60.83801121 -0.80230982 62.26578425 -0.82958252 63.69335938 -0.86425781 C65.74890368 -0.91292669 67.80335855 -0.93549967 69.859375 -0.953125 C71.09526367 -0.97407227 72.33115234 -0.99501953 73.60449219 -1.01660156 C76.8125 -0.5625 76.8125 -0.5625 79.17236328 1.18334961 C80.89149124 3.54606298 81.50714516 5.04024543 82.0078125 7.89453125 C82.16507813 8.75143555 82.32234375 9.60833984 82.484375 10.49121094 C82.63390625 11.40161133 82.7834375 12.31201172 82.9375 13.25 C83.10507812 14.1977832 83.27265625 15.14556641 83.4453125 16.12207031 C84.54573252 22.46453023 85.45986046 28.82190658 86.24609375 35.2109375 C87.11641163 42.00657026 88.28914305 48.76168801 89.40429688 55.52050781 C90.16847064 60.19849043 90.8877988 64.85418285 91.37109375 69.5703125 C91.56464886 73.22754436 91.56464886 73.22754436 92.8125 75.4375 C93.4725 75.4375 94.1325 75.4375 94.8125 75.4375 C94.95498169 74.53547852 94.95498169 74.53547852 95.1003418 73.61523438 C97.15296843 60.72205914 99.40810665 47.92484116 102.32495117 35.1953125 C102.63783081 33.77798828 102.63783081 33.77798828 102.95703125 32.33203125 C103.14628174 31.50550049 103.33553223 30.67896973 103.53051758 29.82739258 C103.84773263 27.13889206 103.47132487 25.04925965 102.8125 22.4375 C99.8425 22.1075 96.8725 21.7775 93.8125 21.4375 C91.4193973 16.55158198 90.10504161 12.99610161 90.8125 7.4375 C92.83916238 3.73359979 94.29294516 1.78386989 97.8125 -0.5625 C105.30541284 -1.14418665 112.8679947 -0.62578895 120.3125 0.31640625 C123.27952139 0.46012135 125.89138947 -0.03810342 128.8125 -0.5625 C141.22518696 -1.76569297 141.22518696 -1.76569297 146.0625 2 C149.12314139 5.22772355 149.89271148 7.945657 149.8125 12.4375 C148.86057483 16.85097125 147.65521964 19.93973224 143.8125 22.4375 C140.45249861 22.7650473 137.17667702 22.66862667 133.8125 22.4375 C130.95080141 27.4822658 129.80648572 32.26036918 128.6875 37.875 C126.35828391 49.05710436 123.82877421 60.18572386 121.25 71.3125 C120.68367991 73.76185095 120.11748367 76.21123024 119.55163574 78.66069031 C119.18329244 80.24799214 118.81230841 81.83468365 118.43859863 83.42073059 C117.51388304 87.35120612 116.62934732 91.28311553 115.82080078 95.23925781 C115.65685318 96.00996613 115.49290558 96.78067444 115.32398987 97.57473755 C115.0169222 99.02234369 114.7239342 100.47304335 114.448349 101.92697144 C113.39546574 106.78109803 111.8101944 109.47676336 107.8125 112.4375 C104.66210938 113.08447266 104.66210938 113.08447266 101.15625 113.1015625 C99.25166016 113.11123047 99.25166016 113.11123047 97.30859375 113.12109375 C95.98988281 113.10175781 94.67117188 113.08242188 93.3125 113.0625 C91.33443359 113.09150391 91.33443359 113.09150391 89.31640625 113.12109375 C88.04667969 113.11464844 86.77695312 113.10820313 85.46875 113.1015625 C84.31181641 113.09592285 83.15488281 113.0902832 81.96289062 113.08447266 C77.82885753 112.23549655 76.3882394 110.73185002 73.8125 107.4375 C72.73828125 104.79882812 72.73828125 104.79882812 72.125 101.96875 C71.89554688 100.91429687 71.66609375 99.85984375 71.4296875 98.7734375 C70.39490127 93.18035244 69.5636269 87.57507882 68.8125 81.9375 C68.47022127 79.48044518 68.12777207 77.02341409 67.78515625 74.56640625 C67.3133665 71.1282903 66.84592428 67.68978571 66.39013672 64.24951172 C66.01985571 61.45657431 65.63587526 58.66581673 65.25 55.875 C65.14751953 55.05515625 65.04503906 54.2353125 64.93945312 53.390625 C64.37113071 49.33914867 63.89269401 47.13584749 60.8125 44.4375 C60.71453125 45.4584375 60.6165625 46.479375 60.515625 47.53125 C59.29424971 59.61777633 57.39479701 71.5451831 55.31494141 83.51098633 C54.78463319 86.59981265 54.27872062 89.69214601 53.7734375 92.78515625 C53.11661646 96.72608251 52.43055555 100.62708335 51.4375 104.5 C51.22351563 105.37785156 51.00953125 106.25570312 50.7890625 107.16015625 C49.55620727 110.03517466 48.50616424 110.85346879 45.8125 112.4375 C42.75976562 112.82568359 42.75976562 112.82568359 39.21875 112.8359375 C37.94128906 112.83980469 36.66382813 112.84367188 35.34765625 112.84765625 C34.68523926 112.84137207 34.02282227 112.83508789 33.34033203 112.82861328 C31.31864911 112.81254886 29.29896487 112.82847765 27.27734375 112.84765625 C25.36115234 112.84185547 25.36115234 112.84185547 23.40625 112.8359375 C22.23771484 112.83255371 21.06917969 112.82916992 19.86523438 112.82568359 C16.50675197 112.39862129 15.16345504 111.83612103 12.8125 109.4375 C11.86889648 107.60864258 11.86889648 107.60864258 11.24609375 105.51953125 C11.00745605 104.72111816 10.76881836 103.92270508 10.52294922 103.10009766 C9.19730287 98.1318849 8.0078918 93.14044515 6.875 88.125 C6.61412598 86.98506592 6.35325195 85.84513184 6.08447266 84.6706543 C4.32404885 76.90621876 2.72354475 69.12049583 1.21557617 61.30371094 C-0.01272025 55.04049414 -1.60039272 48.93135387 -3.3125 42.78515625 C-4.34896106 38.81976727 -5.07717112 34.85414427 -5.6953125 30.8046875 C-6.24782339 28.14737321 -6.9794766 25.87050151 -8.1875 23.4375 C-10.94456416 22.57367572 -10.94456416 22.57367572 -14.1875 22.4375 C-20.75409251 21.76971093 -20.75409251 21.76971093 -22.84375 20.16796875 C-25.29579602 17.01024669 -25.1741989 13.32142011 -25.1875 9.4375 C-24.50551295 5.42135407 -23.66742769 3.90512185 -20.75 1.0625 C-14.09255834 -1.97422777 -7.12142949 -0.66622728 0 0 Z " fill="#9DC86B" transform="translate(688.1875,633.5625)"/>
<path d="M0 0 C5.16296988 0.41075561 9.93797009 0.27031953 15.07421875 -0.28515625 C29.09700819 -1.67374488 29.09700819 -1.67374488 33.875 1.3125 C41.4150105 13.09376641 46.39456267 26.76039644 51.3125 39.8125 C53.87679733 46.61270145 56.76673461 53.266575 59.66577148 59.92919922 C65.875 74.24780703 65.875 74.24780703 65.875 79.4375 C66.535 79.1075 67.195 78.7775 67.875 78.4375 C67.95118093 71.426666 68.00365495 64.41593911 68.03979492 57.40478516 C68.054864 55.02062999 68.07532291 52.63650247 68.10131836 50.25244141 C68.13778337 46.82187063 68.15474552 43.391667 68.16796875 39.9609375 C68.18345261 38.89821625 68.19893646 37.835495 68.21488953 36.74057007 C68.21616319 31.11635295 67.97109935 27.20127916 64.875 22.4375 C64.21113281 22.49550781 63.54726562 22.55351563 62.86328125 22.61328125 C58.40456664 22.84109878 55.69151932 22.93740979 51.8125 20.5625 C49.14528046 16.26053299 48.59349961 12.46310988 48.875 7.4375 C50.53100407 3.11348937 52.82136009 1.50508932 56.875 -0.5625 C59.4609375 -0.890625 59.4609375 -0.890625 62.25 -0.8125 C63.29800781 -0.78800781 64.34601563 -0.76351562 65.42578125 -0.73828125 C69.1022584 -0.55091831 72.7670191 -0.28061781 76.4375 0 C81.82043782 0.39467569 86.82379057 0.30703021 92.17578125 -0.29296875 C95.20624806 -0.59557687 98.20519085 -0.74203548 101.25 -0.8125 C102.20648437 -0.83828125 103.16296875 -0.8640625 104.1484375 -0.890625 C108.15113294 -0.40892526 110.75998558 1.36230753 113.625 4.125 C115.42707204 7.45883328 116.12763656 10.68404251 115.875 14.4375 C113.90690926 18.23310358 112.4316917 20.0663722 108.875 22.4375 C106.05212324 22.57354225 103.29132214 22.43390095 100.46875 22.3125 C97.63487727 22.2263561 97.63487727 22.2263561 94.875 24.4375 C94.57981711 27.03770665 94.4789863 29.4025319 94.50610352 32.00488281 C94.50233704 32.78557632 94.49857056 33.56626984 94.49468994 34.37062073 C94.48824495 36.06921436 94.48859921 37.76784403 94.49487495 39.46643829 C94.50396117 42.15688741 94.49378869 44.84663591 94.47825623 47.53704834 C94.43809553 55.18728487 94.4369503 62.8374686 94.43920898 70.48779297 C94.43926014 75.1651451 94.42005829 79.84212181 94.38987541 84.51937103 C94.37905693 87.16625794 94.39117929 89.81242576 94.40370178 92.45928955 C94.39479415 94.0903799 94.38471864 95.72146442 94.37329102 97.35253906 C94.38790627 98.45158318 94.38790627 98.45158318 94.40281677 99.5728302 C94.33215148 104.64107736 93.11187476 107.56178194 89.875 111.4375 C83.76506587 114.26912743 77.35295252 113.56614136 70.75 113.25 C69.67878906 113.21841797 68.60757812 113.18683594 67.50390625 113.15429688 C66.46878906 113.10982422 65.43367188 113.06535156 64.3671875 113.01953125 C63.43245605 112.98061768 62.49772461 112.9417041 61.53466797 112.90161133 C58.37527002 112.35029726 56.4545071 111.32746054 53.875 109.4375 C52.42341491 106.96508475 51.25495024 104.67384757 50.125 102.0625 C49.79137451 101.32370605 49.45774902 100.58491211 49.11401367 99.82373047 C48.01431884 97.36995847 46.94152379 94.90586154 45.875 92.4375 C45.49230957 91.55449219 45.10961914 90.67148437 44.71533203 89.76171875 C42.75914587 85.23586313 40.82091479 80.70267558 38.89453125 76.1640625 C37.43491565 72.73226395 35.93894163 69.32335301 34.375 65.9375 C31.90071255 60.55483959 29.53942352 55.12446245 27.1875 49.6875 C26.79433594 48.78708984 26.40117188 47.88667969 25.99609375 46.95898438 C23.93329809 42.16831928 22.16643744 37.49275245 20.875 32.4375 C20.215 32.4375 19.555 32.4375 18.875 32.4375 C18.84954576 39.12694482 18.83208942 45.81637703 18.82006836 52.50585938 C18.81505436 54.77930162 18.80824152 57.05274067 18.79956055 59.32617188 C18.78736617 62.60287264 18.78174222 65.8795306 18.77734375 69.15625 C18.77218246 70.16490112 18.76702118 71.17355225 18.76170349 72.21276855 C18.76127117 77.709801 18.89455082 83.01969643 19.875 88.4375 C21.66372525 90.69343975 21.66372525 90.69343975 24.08203125 90.45703125 C24.94183594 90.38871094 25.80164062 90.32039062 26.6875 90.25 C30.81993095 90.14250902 31.53951058 90.1704778 34.9375 92.875 C35.576875 93.720625 36.21625 94.56625 36.875 95.4375 C37.205 95.7675 37.535 96.0975 37.875 96.4375 C38.51690456 101.9028588 38.90704304 106.07954863 35.5 110.5625 C28.73143306 115.39719067 19.95005357 113.66562049 12.0234375 112.6640625 C6.32927114 112.06358677 0.90866819 112.42733985 -4.75 113.203125 C-7.94024803 113.51795211 -11.10747415 113.62072863 -14.3125 113.6875 C-15.48167969 113.71328125 -16.65085937 113.7390625 -17.85546875 113.765625 C-21.47691444 113.40218242 -23.2783318 112.67525521 -26.125 110.4375 C-28.37958385 106.93617608 -29.14345603 103.37875733 -29.0625 99.25 C-27.96498877 95.95746631 -26.49691592 93.9531684 -24.125 91.4375 C-20.66245647 89.70622823 -16.67943395 90.53984284 -12.875 90.6953125 C-11.9675 90.61023438 -11.06 90.52515625 -10.125 90.4375 C-7.79946451 86.94919676 -7.87224934 85.57330188 -7.86621094 81.453125 C-7.85990662 80.22174805 -7.85360229 78.99037109 -7.84710693 77.72167969 C-7.85068674 76.37695167 -7.8547887 75.03222496 -7.859375 73.6875 C-7.85802769 72.30891857 -7.8560866 70.93033761 -7.85357666 69.55175781 C-7.85062849 66.66336541 -7.85491307 63.77509676 -7.86425781 60.88671875 C-7.87565229 57.1843277 -7.86909116 53.48222661 -7.85711288 49.77984619 C-7.84988593 46.93340876 -7.85218603 44.08704008 -7.85736847 41.24060059 C-7.85870266 39.87544724 -7.85706531 38.51028766 -7.85240936 37.1451416 C-7.84733073 35.23738728 -7.85644384 33.32961108 -7.86621094 31.421875 C-7.86780212 30.33616211 -7.86939331 29.25044922 -7.87103271 28.13183594 C-7.93119749 25.21452007 -7.93119749 25.21452007 -10.125 22.4375 C-12.85864344 22.26323997 -12.85864344 22.26323997 -15.9375 22.5625 C-21.73690031 22.70140779 -21.73690031 22.70140779 -25.25 20.3125 C-27.96077666 16.15597578 -29.48097407 13.37558103 -28.5625 8.375 C-22.68906649 -3.62723368 -11.42851378 -0.97129753 0 0 Z " fill="#9DC86B" transform="translate(1210.125,633.5625)"/>
<path d="M0 0 C5.44944269 0.43450706 10.5507697 0.24545691 15.98046875 -0.28515625 C29.45747684 -1.54918211 29.45747684 -1.54918211 33.9375 1.4375 C38.0199148 7.56112221 40.50346288 13.86416499 42.94140625 20.7890625 C43.79914752 23.06964518 44.74402583 25.15956121 45.875 27.3125 C49.29982842 33.88121388 51.6350709 40.95646223 54.2265625 47.8828125 C56.23615206 53.19651251 58.30540065 58.30290164 60.96484375 63.3203125 C62.69024958 67.07601515 63.81140211 71.04596192 65.0078125 74.99609375 C65.68068741 77.59106174 65.68068741 77.59106174 67.9375 78.4375 C67.84531242 70.94418823 67.73801749 63.451203 67.62011719 55.95825195 C67.58178722 53.40817194 67.54694152 50.85803711 67.515625 48.30786133 C67.47006201 44.64644757 67.41205262 40.9854125 67.3515625 37.32421875 C67.34001129 36.1803923 67.32846008 35.03656586 67.31655884 33.858078 C67.29668915 32.79720474 67.27681946 31.73633148 67.25634766 30.64331055 C67.24302399 29.70843307 67.22970032 28.7735556 67.2159729 27.81034851 C67.08833272 25.17198393 67.08833272 25.17198393 64.9375 22.4375 C62.60056872 22.110705 62.60056872 22.110705 60 22.3125 C56.82957012 22.4525779 54.99043273 22.45514424 51.9375 21.4375 C49.07932438 16.25044054 48.27174861 12.33415515 48.9375 6.4375 C51.00521104 3.15768249 52.70869011 1.59003993 55.9375 -0.5625 C58.546875 -0.79296875 58.546875 -0.79296875 61.6875 -0.75 C62.84507812 -0.73453125 64.00265625 -0.7190625 65.1953125 -0.703125 C68.99568912 -0.56031335 72.77108162 -0.29462965 76.5625 0 C81.92560883 0.39604496 86.90907611 0.29996771 92.2421875 -0.2890625 C105.96437008 -1.68116798 105.96437008 -1.68116798 110.5625 1.25 C113.09565021 3.58316467 114.76647243 5.26417133 115.2734375 8.7421875 C115.37941794 15.71570069 115.37941794 15.71570069 113.0625 19.5 C109.55012209 22.70246221 107.65055092 22.45857016 103 22.25 C101.93910156 22.19457031 100.87820313 22.13914062 99.78515625 22.08203125 C96.91504554 22.15905166 96.91504554 22.15905166 95.28158569 23.97157288 C93.43126647 27.36626147 93.53687189 30.48099504 93.58447266 34.24780273 C93.58231247 35.03039459 93.58015228 35.81298645 93.57792664 36.61929321 C93.57484272 38.31568385 93.57843652 40.01209685 93.58794022 41.70846367 C93.60168275 44.39459806 93.59523907 47.07999401 93.58309937 49.76612854 C93.55214057 57.40183361 93.55702051 65.03736685 93.57714844 72.6730957 C93.58806675 77.34631635 93.57487477 82.01898179 93.54725266 86.69212532 C93.54181276 88.4714937 93.54587436 90.25091764 93.55965042 92.03024101 C93.57870364 94.52004388 93.56729846 97.00803104 93.54931641 99.49780273 C93.56932457 100.59752663 93.56932457 100.59752663 93.58973694 101.71946716 C93.52686726 105.63814175 93.05395843 107.29334607 90.55892944 110.38172913 C84.69484795 114.98044452 76.89349206 113.4345284 69.8125 113.125 C68.18634766 113.07182617 68.18634766 113.07182617 66.52734375 113.01757812 C65.48449219 112.97439453 64.44164062 112.93121094 63.3671875 112.88671875 C62.42085449 112.84893311 61.47452148 112.81114746 60.49951172 112.7722168 C57.82633618 112.42297688 56.17886041 111.92312794 53.9375 110.4375 C52.49855278 107.91860064 51.28905597 105.51635413 50.125 102.875 C49.78243164 102.12355713 49.43986328 101.37211426 49.08691406 100.59790039 C46.36657379 94.56990215 43.81566019 88.46903584 41.37182617 82.32397461 C40.02685059 78.96174252 38.59933873 75.69939346 36.953125 72.47265625 C34.52017623 67.70046798 32.56519099 62.76445139 30.58203125 57.79296875 C28.84775769 53.50044551 26.95137186 49.35171513 24.84765625 45.22753906 C23.73167324 43.03269265 22.69487144 40.80909821 21.6875 38.5625 C21.35234375 37.82257812 21.0171875 37.08265625 20.671875 36.3203125 C19.9375 34.4375 19.9375 34.4375 19.9375 32.4375 C19.2775 32.4375 18.6175 32.4375 17.9375 32.4375 C18.02995893 39.73346524 18.13728953 47.02910391 18.25488281 54.32470703 C18.29312791 56.80577654 18.32798853 59.28690065 18.359375 61.76806641 C18.40512202 65.33776339 18.46310169 68.90708594 18.5234375 72.4765625 C18.53498871 73.58303131 18.54653992 74.68950012 18.55844116 75.82949829 C18.65840685 81.06495395 18.82341028 85.54913113 20.9375 90.4375 C21.67355469 90.37949219 22.40960938 90.32148437 23.16796875 90.26171875 C31.06507267 89.89659505 31.06507267 89.89659505 35.0625 92.375 C38.00896543 97.18756021 38.53330806 101.75636372 37.3125 107.25 C35.53056172 110.08490181 33.72240098 111.57057055 30.9375 113.4375 C27.88671875 113.86328125 27.88671875 113.86328125 24.625 113.75 C23.47773438 113.71519531 22.33046875 113.68039062 21.1484375 113.64453125 C18.65804821 113.4839587 16.22030657 113.27527661 13.75 112.9375 C7.11379034 112.06717742 0.82855901 112.29567016 -5.79296875 113.19921875 C-19.90578328 114.68094282 -19.90578328 114.68094282 -24.75 111.8125 C-27.4866594 109.00187684 -28.38113377 107.29857531 -29.0625 103.4375 C-28.78581138 99.42551496 -28.41360919 95.7785499 -26.0625 92.4375 C-21.97360896 89.80099786 -18.30456273 90.44007376 -13.62109375 90.7578125 C-10.98050176 90.69450299 -10.98050176 90.69450299 -9.42486572 88.78613281 C-7.71462374 85.83778321 -7.69419511 83.93836988 -7.70605469 80.5390625 C-7.70305359 79.35103027 -7.70005249 78.16299805 -7.69696045 76.93896484 C-7.70930725 75.65973145 -7.72165405 74.38049805 -7.734375 73.0625 C-7.73624817 71.74588379 -7.73812134 70.42926758 -7.74005127 69.07275391 C-7.74464829 66.28861173 -7.75904975 63.50475977 -7.78125 60.72070312 C-7.80953181 57.15638069 -7.82046244 53.59228654 -7.8249321 50.02786255 C-7.83009468 46.62270665 -7.84463306 43.21762878 -7.859375 39.8125 C-7.86362488 38.5332666 -7.86787476 37.2540332 -7.87225342 35.93603516 C-7.88186096 34.74800293 -7.89146851 33.5599707 -7.90136719 32.3359375 C-7.90819519 31.29099121 -7.91502319 30.24604492 -7.92205811 29.16943359 C-8.04572026 26.76390641 -8.3724323 24.73526125 -9.0625 22.4375 C-10.01511719 22.50710938 -10.96773438 22.57671875 -11.94921875 22.6484375 C-21.88385435 23.07727069 -21.88385435 23.07727069 -25.0703125 21.34765625 C-28.16788793 17.85129117 -29.0625 13.9910025 -29.0625 9.4375 C-27.66816933 5.81224025 -26.13480872 2.8697444 -23.0625 0.4375 C-15.89956898 -1.95014367 -7.41924155 -0.63475733 0 0 Z " fill="#9DC86B" transform="translate(353.0625,633.5625)"/>
<path d="M0 0 C11.52325662 8.33951149 17.46717584 20.12773849 19.8125 33.9375 C22.73796448 53.13130502 21.32893564 73.62273164 10 90 C3.61096277 98.38315627 -3.70384097 104.18197543 -14 107 C-15.25296875 107.34933594 -16.5059375 107.69867187 -17.796875 108.05859375 C-32.06822517 111.52287928 -48.55221122 110.21003054 -61.421875 102.80078125 C-74.00220016 94.01361474 -79.33987961 85.26713782 -84 71 C-84.33 70.01 -84.66 69.02 -85 68 C-87.33949129 45.38749974 -86.75742973 23.97132068 -71.96875 5.45703125 C-54.09420326 -13.87467963 -21.09671955 -14.21645345 0 0 Z " fill="#9DC86B" transform="translate(928,640)"/>
<path d="M0 0 C3.06218272 0.19281178 6.1247905 0.37826503 9.1875 0.5625 C9.97036377 0.61156494 10.75322754 0.66062988 11.55981445 0.71118164 C16.11871444 0.97399964 20.39244282 0.92822672 24.921875 0.27734375 C35.76865876 -1.17025333 35.76865876 -1.17025333 39.99609375 1.046875 C42.14246205 2.79691151 43.7572306 4.51446119 45 7 C45.14754174 8.78752492 45.2211522 10.5816284 45.25 12.375 C45.27578125 13.33148437 45.3015625 14.28796875 45.328125 15.2734375 C44.94537027 18.45394705 44.28915767 19.7777166 42 22 C40.02734375 22.5390625 40.02734375 22.5390625 37.9375 22.625 C33.99685749 22.57855488 33.99685749 22.57855488 32 25 C31.82820948 27.89132177 31.7677053 30.67442065 31.8125 33.5625 C31.81314453 34.35591797 31.81378906 35.14933594 31.81445312 35.96679688 C31.47900542 39.79239799 31.47900542 39.79239799 33 43 C35.44830426 43.08843793 37.86820599 43.11528752 40.31640625 43.09765625 C41.04746078 43.0962413 41.77851532 43.09482635 42.53172302 43.09336853 C44.87535632 43.08775408 47.21889539 43.07519922 49.5625 43.0625 C51.14778508 43.05748686 52.73307166 43.05292363 54.31835938 43.04882812 C58.2122761 43.03777997 62.10612205 43.02050572 66 43 C66.05379226 40.04142591 66.09357093 37.08382279 66.125 34.125 C66.15013672 32.86236328 66.15013672 32.86236328 66.17578125 31.57421875 C66.18222656 30.76855469 66.18867187 29.96289062 66.1953125 29.1328125 C66.20578613 28.38918457 66.21625977 27.64555664 66.22705078 26.87939453 C66.1665597 24.75509765 66.1665597 24.75509765 64 23 C62.700625 22.896875 61.40125 22.79375 60.0625 22.6875 C57.02852552 22.34610904 56.26739481 22.25903872 54 20.0625 C52.55923772 15.65016551 52.30495725 11.59332603 53 7 C55.05107588 3.60511578 56.70484621 2.19676919 60 0 C62.64453125 -0.23046875 62.64453125 -0.23046875 65.8125 -0.1875 C66.97136719 -0.17203125 68.13023438 -0.1565625 69.32421875 -0.140625 C72.93816833 -0.0023655 76.52137239 0.26054223 80.125 0.5625 C85.28930773 0.97336205 90.06550877 0.8321455 95.203125 0.27734375 C110.32384297 -1.22205705 110.32384297 -1.22205705 114.75 2.3125 C117.94090025 6.12385308 118.2859534 9.08090707 118.22265625 14 C117.89788564 16.91723773 116.80700436 18.72451303 115 21 C111.2632157 23.49118953 109.25548181 23.2065226 104.8125 23.125 C103.54019531 23.10695313 102.26789063 23.08890625 100.95703125 23.0703125 C99.98121094 23.04710937 99.00539063 23.02390625 98 23 C97.17557666 29.98782855 96.84031316 36.87269459 96.83203125 43.90625 C96.82870285 44.9115979 96.82537445 45.9169458 96.82194519 46.95275879 C96.81691627 49.0637161 96.81453561 51.17468124 96.81469727 53.28564453 C96.81250592 56.49134508 96.79429354 59.69670363 96.77539062 62.90234375 C96.7724567 64.96614467 96.7704719 67.02994721 96.76953125 69.09375 C96.75875298 70.51137634 96.75875298 70.51137634 96.74775696 71.9576416 C96.41028696 82.1153988 96.41028696 82.1153988 100 91 C101.75048611 90.99412589 103.50091024 90.94515066 105.25 90.875 C109.68268551 90.84050439 112.57490563 90.90636638 116 94 C118.35942213 97.03354274 118.35917394 100.2634612 118.25390625 104.0390625 C117.76994194 107.77675608 115.96948747 110.05109127 113.34375 112.62109375 C110.06214088 114.55177378 107.5317413 114.32655347 103.75 114.25 C103.07759277 114.23904297 102.40518555 114.22808594 101.71240234 114.21679688 C97.06855708 114.11337548 92.59301555 113.63351939 88 113 C82.95430603 112.76656932 78.18139373 113.09655603 73.171875 113.7578125 C61.93184031 115.01119766 61.93184031 115.01119766 58 112.953125 C55.85701776 111.20164913 54.2420181 109.4840362 53 107 C52.87851695 105.37834248 52.82456348 103.75115673 52.8125 102.125 C52.79832031 101.26132812 52.78414062 100.39765625 52.76953125 99.5078125 C53.02062789 96.77554064 53.38742598 95.22287126 55 93 C57.09375 92.2421875 57.09375 92.2421875 59.5 91.875 C63.17211988 91.35240636 63.17211988 91.35240636 66 89 C66.27787668 86.57402049 66.27787668 86.57402049 66.1953125 83.7734375 C66.18886719 82.7421875 66.18242188 81.7109375 66.17578125 80.6484375 C66.15902344 79.56820312 66.14226562 78.48796875 66.125 77.375 C66.11597656 76.28703125 66.10695313 75.1990625 66.09765625 74.078125 C66.07403409 71.38519848 66.04109556 68.69270745 66 66 C61.31860746 65.97534712 56.63725241 65.95716261 51.95581055 65.94506836 C50.36205386 65.94002843 48.76830181 65.9331965 47.17456055 65.92456055 C44.88849747 65.91248001 42.60249533 65.90676845 40.31640625 65.90234375 C39.59973282 65.89718246 38.88305939 65.89202118 38.14466858 65.88670349 C36.42936328 65.88650737 34.71418734 65.93807993 33 66 C30.58183834 68.41816166 31.81452981 74.68777819 31.8125 77.9375 C31.79413086 79.47954102 31.79413086 79.47954102 31.77539062 81.05273438 C31.77345703 82.03435547 31.77152344 83.01597656 31.76953125 84.02734375 C31.76542236 84.93218506 31.76131348 85.83702637 31.75708008 86.76928711 C31.78658703 89.20418778 31.78658703 89.20418778 34 91 C36.29089796 91.53853198 38.58034054 91.88725976 40.90625 92.2421875 C43 93 43 93 44.2578125 94.76171875 C45.60138265 98.81364346 45.56598221 102.79263828 45 107 C42.94892412 110.39488422 41.29515379 111.80323081 38 114 C31.59729431 114.55228017 25.33243223 113.95583883 19 113 C14.35037279 112.77190508 9.81057197 112.98138616 5.1875 113.5 C1.35155385 113.90756928 -2.45531878 114.15546124 -6.3125 114.25 C-7.27800781 114.27578125 -8.24351562 114.3015625 -9.23828125 114.328125 C-12.52410049 113.93773063 -14.34062913 112.9382634 -17 111 C-20.14028356 106.60360302 -20.34227348 103.20724948 -19.4921875 98.0546875 C-18.80402171 95.18186841 -18.40807421 93.80605566 -16 92 C-10.7707803 90.78682103 -5.34020052 90.88637871 0 91 C0.89334818 84.13000169 1.14656606 77.42358551 1.1328125 70.5 C1.13376923 69.42427734 1.13472595 68.34855469 1.13571167 67.24023438 C1.13638871 64.97786398 1.13456784 62.7154916 1.13037109 60.453125 C1.12501613 57.01037185 1.13033237 53.56774914 1.13671875 50.125 C1.13605788 47.91666638 1.13477655 45.70833284 1.1328125 43.5 C1.13483673 42.48099609 1.13686096 41.46199219 1.13894653 40.41210938 C1.11985022 34.52775942 0.75893925 28.83637098 0 23 C-0.95261719 23.04640625 -1.90523437 23.0928125 -2.88671875 23.140625 C-4.14097656 23.17671875 -5.39523437 23.2128125 -6.6875 23.25 C-7.92886719 23.29640625 -9.17023437 23.3428125 -10.44921875 23.390625 C-14.60996381 22.93289727 -16.17170803 22.04383095 -19 19 C-20.37177722 15.14661574 -20.25034461 11.22390698 -19.4375 7.25 C-14.21468635 -0.92483875 -9.05224531 -0.61520114 0 0 Z " fill="#9DC86B" transform="translate(977,633)"/>
<path d="M0 0 C11.67641464 10.94903143 17.16168515 23.81723168 17.984375 39.69140625 C18.05577704 54.81078905 12.26549668 68.35715329 1.859375 79.30078125 C-3.28275862 84 -3.28275862 84 -6 84 C-6 84.66 -6 85.32 -6 86 C-8.03976214 86.96238036 -10.08190046 87.91972527 -12.125 88.875 C-13.26195312 89.40867187 -14.39890625 89.94234375 -15.5703125 90.4921875 C-21.01484931 92.88579936 -25.74128714 94.2662236 -31.6875 94.6875 C-32.80511719 94.77386719 -33.92273438 94.86023438 -35.07421875 94.94921875 C-38 95 -38 95 -41 94 C-40.88437394 92.60335892 -40.757008 91.20768801 -40.625 89.8125 C-40.55539062 89.03519531 -40.48578125 88.25789063 -40.4140625 87.45703125 C-39.95712782 84.74559809 -39.02842186 82.54869765 -38 80 C-37.34368031 77.48226942 -36.71983817 74.96934425 -36.125 72.4375 C-34.66298195 66.38432955 -32.9214298 60.51618002 -30.87890625 54.62890625 C-29.70715346 51.12406346 -28.84976574 47.59516273 -28 44 C-27.67 43.01 -27.34 42.02 -27 41 C-26.5621915 36.3585083 -26.5621915 36.3585083 -28.125 32.125 C-30.81664929 30.51001042 -32.86418639 30.12543254 -36 30 C-39.74086485 31.39194971 -40.77565222 32.53154324 -42.5078125 36.1484375 C-44.02982185 39.89299485 -45.15088208 43.72222286 -46.1875 47.625 C-46.39109131 48.36556641 -46.59468262 49.10613281 -46.80444336 49.86914062 C-48.0545851 54.42832083 -49.26160102 58.99762241 -50.44602966 63.5743103 C-51.134901 66.22376519 -51.8367814 68.86969249 -52.54019165 71.51531982 C-52.88768292 72.83572576 -53.22916587 74.1577279 -53.56454468 75.48126221 C-54.04001753 77.35588951 -54.53718854 79.22497229 -55.03515625 81.09375 C-55.3175415 82.18365234 -55.59992676 83.27355469 -55.89086914 84.39648438 C-57 87 -57 87 -59.12280273 88.36914062 C-59.74227783 88.57732422 -60.36175293 88.78550781 -61 89 C-75.66391925 79.47396524 -86.07606459 68.8242915 -90 51 C-91.60242412 33.83644359 -89.94782906 20.39369175 -79.1640625 6.5 C-70.34387878 -3.68938192 -60.20271226 -10.22372873 -47 -13 C-45.3603125 -13.37125 -45.3603125 -13.37125 -43.6875 -13.75 C-26.8744542 -14.88986751 -12.92375333 -10.62695897 0 0 Z " fill="#FFFFFE" transform="translate(676,388)"/>
<path d="M0 0 C0.99 0 1.98 0 3 0 C8.77005731 18.04104585 8.77005731 18.04104585 11.125 26.5 C12.24885947 30.50981961 13.47096257 34.41536668 14.9375 38.3125 C16.83087522 43.37124769 18.36661533 48.50605917 19.86523438 53.69116211 C24.01913746 68.02677763 28.48926267 82.27310953 33 96.5 C33.71927089 98.778533 34.43805802 101.05721814 35.15673828 103.3359375 C35.78513683 105.32119662 36.41685393 107.3054059 37.05029297 109.2890625 C38.18774684 112.8567765 39.31333251 116.42807998 40.4375 120 C40.80423828 121.14146484 41.17097656 122.28292969 41.54882812 123.45898438 C41.88205078 124.52439453 42.21527344 125.58980469 42.55859375 126.6875 C42.86079834 127.64011719 43.16300293 128.59273437 43.47436523 129.57421875 C44 132 44 132 43 135 C34.12185069 136.75062099 25.34298372 137.29167281 16.3125 137.4375 C15.24902344 137.47166016 14.18554688 137.50582031 13.08984375 137.54101562 C10.30409866 137.55712855 7.73727871 137.51842176 5 137 C2.90625 134.7265625 2.90625 134.7265625 2 132 C1.68417969 131.32839844 1.36835937 130.65679687 1.04296875 129.96484375 C0.76066406 129.29582031 0.47835937 128.62679687 0.1875 127.9375 C-9.62406963 105.54794073 -22.38800862 86.47778138 -40.41455078 69.87109375 C-41.0279834 69.28972656 -41.64141602 68.70835937 -42.2734375 68.109375 C-42.82435059 67.60374023 -43.37526367 67.09810547 -43.94287109 66.57714844 C-45 65 -45 65 -44.75024414 62.93603516 C-43.8205091 60.53681652 -42.57444287 58.7097024 -41.0625 56.625 C-40.42570313 55.73941406 -39.78890625 54.85382813 -39.1328125 53.94140625 C-38.07707031 52.48541016 -38.07707031 52.48541016 -37 51 C-35.88101508 49.42107643 -34.76205775 47.84213315 -33.64379883 46.26269531 C-29.13420303 39.90672989 -24.51696939 33.63473774 -19.875 27.375 C-15.26461161 21.15739957 -10.85679107 14.87330028 -6.609375 8.40234375 C-4.57372106 5.36368557 -2.55140223 2.62429943 0 0 Z " fill="#FFFFFE" transform="translate(555,225)"/>
<path d="M0 0 C1.70736328 0.03673828 1.70736328 0.03673828 3.44921875 0.07421875 C8.31084969 0.29906294 13.16278557 0.63331068 18.01831055 0.96166992 C23.13979918 1.27351295 28.02814875 1.04314681 33.13671875 0.52734375 C36.9683478 0.18600666 40.78015973 -0.02011279 44.625 -0.125 C45.93210937 -0.17398438 47.23921875 -0.22296875 48.5859375 -0.2734375 C53.37689938 0.41098563 54.87856593 1.85819472 58.25 5.25 C60.09862688 8.94725375 59.72587094 13.21461442 59.25 17.25 C57.45353146 20.18423195 56.3058929 21.72205355 53.25 23.25 C51.20944995 23.32065617 49.16665743 23.33421976 47.125 23.3125 C46.02929688 23.30347656 44.93359375 23.29445313 43.8046875 23.28515625 C42.96164062 23.27355469 42.11859375 23.26195312 41.25 23.25 C38.39514795 30.18535908 37.81957832 36.33359683 37.88671875 43.78515625 C37.88622025 44.86325058 37.88572174 45.94134491 37.88520813 47.05210876 C37.88753658 49.31869359 37.8971919 51.5852816 37.91381836 53.85180664 C37.93745373 57.30573825 37.93436392 60.75889836 37.92773438 64.21289062 C37.93331084 66.42448373 37.94042052 68.63607361 37.94921875 70.84765625 C37.94830734 71.87182144 37.94739594 72.89598663 37.94645691 73.95118713 C37.7062454 83.19103863 37.7062454 83.19103863 41.25 91.25 C43.00048611 91.24412589 44.75091024 91.19515066 46.5 91.125 C50.9467961 91.08462701 53.76955249 91.2186425 57.25 94.25 C60.07605874 98.4890881 59.91012246 102.27124503 59.25 107.25 C57.19892412 110.64488422 55.54515379 112.05323081 52.25 114.25 C49.5078125 114.48046875 49.5078125 114.48046875 46.375 114.4375 C45.34632812 114.43105469 44.31765625 114.42460938 43.2578125 114.41796875 C40.25 114.25 40.25 114.25 37.87890625 113.74609375 C34.27540149 113.06608616 30.7147647 113.10242779 27.0625 113.125 C26.30219482 113.12693359 25.54188965 113.12886719 24.75854492 113.13085938 C20.82871072 113.16102763 16.97006164 113.29411781 13.0625 113.75 C-4.26947417 115.74183923 -4.26947417 115.74183923 -9.5 112.5625 C-12.93880738 109.02817019 -13.62716852 106.62571257 -14.0625 101.75 C-13.72497424 97.96971144 -13.10467951 96.19334939 -10.75 93.25 C-6.75 91.25 -6.75 91.25 6.25 91.25 C6.25 68.81 6.25 46.37 6.25 23.25 C1.63 23.25 -2.99 23.25 -7.75 23.25 C-12.75 19.25 -12.75 19.25 -13.75 16.25 C-14.09231315 10.94414624 -14.28140599 7.51204172 -10.75 3.25 C-7.02953888 0.57410509 -4.55709437 -0.11805944 0 0 Z " fill="#9DC86B" transform="translate(1115.75,632.75)"/>
<path d="M0 0 C22.67210742 -0.11629474 45.33171472 -0.02243559 68 0.4375 C69.5463916 0.4669722 69.5463916 0.4669722 71.12402344 0.49703979 C74.08280365 0.5545145 77.04139098 0.61794564 80 0.68359375 C81.29768311 0.70867004 81.29768311 0.70867004 82.62158203 0.73425293 C88.45212937 0.8749844 94.20521995 1.34466778 100 2 C101.24954713 6.41166638 100.70144178 10.15573052 99.8125 14.5625 C99.67593994 15.26270264 99.53937988 15.96290527 99.39868164 16.68432617 C97.89471213 24.04983442 96.20544504 31.69183244 92 38 C79.5293509 37.59445044 67.42606326 35.55034164 55.13623047 33.50976562 C44.58467185 31.79470612 33.98715082 30.34577796 23.375 29.0625 C15.80439966 28.1210782 8.24328174 27.11634576 0.6875 26.0625 C-1.11291748 25.82575562 -1.11291748 25.82575562 -2.94970703 25.58422852 C-4.07618652 25.42365967 -5.20266602 25.26309082 -6.36328125 25.09765625 C-7.88369019 24.88894897 -7.88369019 24.88894897 -9.43481445 24.67602539 C-12.18754349 23.95057505 -13.24320287 23.1910448 -15 21 C-14.01 20.67 -13.02 20.34 -12 20 C-10.94462905 18.13982332 -10.94462905 18.13982332 -10 16 C-8.59342763 14.08706158 -7.11880372 12.24227898 -5.6328125 10.390625 C-4.16907854 8.2475504 -3.04234912 6.17236048 -1.89794922 3.85058594 C-1.5414328 3.12965759 -1.18491638 2.40872925 -0.81759644 1.66595459 C-0.54778961 1.11618958 -0.27798279 0.56642456 0 0 Z " fill="#FFFFFE" transform="translate(441,434)"/>
<path d="M0 0 C2.00575716 3.75969814 2.82510857 7.45764327 3.5625 11.625 C3.69035889 12.33414551 3.81821777 13.04329102 3.94995117 13.77392578 C6.16441249 26.35160859 6.16441249 26.35160859 6 30 C4 32 4 32 0.66726685 32.21838379 C-0.78945846 32.21204218 -2.24615879 32.19359972 -3.70263672 32.16601562 C-4.49952345 32.15807228 -5.29641018 32.15012894 -6.11744499 32.14194489 C-16.33388452 32.01569206 -26.54652267 31.67792979 -36.7578125 31.34375 C-38.88442207 31.27624127 -41.01103968 31.20898522 -43.13766479 31.14196777 C-48.67116384 30.96692238 -54.20454872 30.78849939 -59.73791504 30.60931396 C-65.40984576 30.42625944 -71.08188027 30.24648065 -76.75390625 30.06640625 C-87.83604005 29.71409955 -98.91805574 29.35821589 -110 29 C-110 23.74690737 -108.03290191 21.77955613 -104.96875 17.67578125 C-102.98591004 15.07322878 -102.98591004 15.07322878 -101.46875 12.41796875 C-99.16997649 8.78801772 -97.41736765 6.39689716 -93.16821289 5.20703125 C-83.61908916 4.07245409 -74.10307854 3.44392698 -64.5 3 C-61.22638573 2.83939824 -57.95302356 2.67397845 -54.6796875 2.5078125 C-53.86422455 2.46689484 -53.0487616 2.42597717 -52.20858765 2.38381958 C-46.95028054 2.11523691 -41.6975954 1.79735821 -36.4453125 1.4296875 C-35.77574524 1.38297913 -35.10617798 1.33627075 -34.4163208 1.28814697 C-31.31273077 1.06967302 -28.20986047 0.84365132 -25.10742188 0.609375 C-16.71774659 0.00838151 -8.40679837 -0.09228582 0 0 Z " fill="#FFFFFE" transform="translate(537,378)"/>
<path d="M0 0 C0 0.66 0 1.32 0 2 C0.99 2.33 1.98 2.66 3 3 C4.1328125 4.9609375 4.1328125 4.9609375 5.125 7.375 C5.45757813 8.16648437 5.79015625 8.95796875 6.1328125 9.7734375 C9.57557521 18.61296338 9.29669294 28.61371438 9 38 C8.95746094 39.37671875 8.95746094 39.37671875 8.9140625 40.78125 C8.40708595 49.37570962 6.65914061 56.90565019 0.25 63 C-5.12708256 67.21420149 -9.9420126 68.31506115 -16.6875 67.8125 C-20.34716948 67.28064492 -23.06905325 66.36366673 -26 64 C-26 63.34 -26 62.68 -26 62 C-26.66 62 -27.32 62 -28 62 C-28.63309191 60.81679424 -29.25596718 59.62812152 -29.875 58.4375 C-30.22304688 57.77621094 -30.57109375 57.11492188 -30.9296875 56.43359375 C-36.85864475 42.9527895 -36.43033578 23.0356522 -31.6875 9.25 C-30.38671875 6.140625 -30.38671875 6.140625 -29 4 C-28.01 3.67 -27.02 3.34 -26 3 C-26 2.34 -26 1.68 -26 1 C-17.80913503 -3.97876106 -8.30487201 -6.69747743 0 0 Z " fill="#FFFFFE" transform="translate(908,658)"/>
<path d="M0 0 C4.9245953 0.39468523 7.41771383 2.83270872 10.6875 6.25 C11.46480469 7.04603638 11.46480469 7.04603638 12.2578125 7.8581543 C19.54061015 15.46703075 25.97467532 23.72257148 31 33 C31.35594238 33.65637451 31.71188477 34.31274902 32.07861328 34.98901367 C33.17697231 37.04519847 34.24746124 39.11388705 35.3125 41.1875 C35.68439453 41.88552734 36.05628906 42.58355469 36.43945312 43.30273438 C39.09204878 48.49431358 39.09204878 48.49431358 38.59448242 51.2277832 C38.39830322 51.81261475 38.20212402 52.39744629 38 53 C-2.16703336 56.15227438 -2.16703336 56.15227438 -20.421875 56.81640625 C-26.29599436 57.03247423 -32.14562038 57.47186978 -38 58 C-38.33 57.34 -38.66 56.68 -39 56 C-36.23062114 50.50958556 -32.69469018 45.63383297 -29.0625 40.6875 C-27.90487553 39.09770896 -26.74732566 37.50786359 -25.58984375 35.91796875 C-24.99800293 35.10763184 -24.40616211 34.29729492 -23.79638672 33.46240234 C-20.89381222 29.48368987 -18.00878134 25.49234528 -15.125 21.5 C-14.58198242 20.7486377 -14.03896484 19.99727539 -13.47949219 19.22314453 C-8.8983026 12.87637634 -4.34227919 6.51341878 0 0 Z " fill="#FFFFFE" transform="translate(492,312)"/>
<path d="M0 0 C-0.55480541 3.89733675 -1.61097785 6.27890404 -3.9375 9.4375 C-4.57042969 10.30890625 -5.20335937 11.1803125 -5.85546875 12.078125 C-6.56316406 13.04234375 -7.27085937 14.0065625 -8 15 C-9.17110401 16.64630581 -10.34211293 18.29268144 -11.51049805 19.94091797 C-14.66536763 24.38644426 -17.85052173 28.8079998 -21.0859375 33.1953125 C-21.59286133 33.88278564 -22.09978516 34.57025879 -22.62207031 35.27856445 C-23.61132206 36.61733253 -24.6028021 37.95445739 -25.59667969 39.28979492 C-27.93939936 41.89762938 -27.93939936 41.89762938 -29 45 C-4.745 45.99 -4.745 45.99 20 47 C20.495 48.98 20.495 48.98 21 51 C16.71752455 57.61739296 10.52247557 63.42430436 3 66 C-7.12822904 68.08399774 -16.75613646 67.20245313 -25.75 62 C-33.159589 56.93307076 -38.78329596 49.3876962 -40.484375 40.45703125 C-41.51228692 30.22326111 -40.18227817 21.4475404 -34 13 C-28.26802409 6.65525161 -20.46948965 1.41769166 -11.875 0.1875 C-7.89973715 -0.00485143 -3.97866502 -0.07104759 0 0 Z " fill="#FFFFFE" transform="translate(405,386)"/>
<path d="M0 0 C5.27845087 5.13954427 8.12705066 10.29613574 8.50390625 17.73046875 C8.14473926 24.92469245 5.86852426 30.50412739 1.0703125 35.83984375 C-4.94672981 41.06662935 -10.8989848 41.28377875 -18.625 41.3125 C-25.89861765 40.35858293 -30.77514987 35.77444265 -35.31640625 30.2578125 C-38.95723738 24.84547248 -38.0261568 17.070453 -37.125 10.875 C-34.57623461 4.8216822 -30.07494295 -0.0542047 -24.625 -3.6875 C-15.66843058 -6.40161195 -7.70585461 -4.95376368 0 0 Z " fill="#9DC86B" transform="translate(580.625,670.6875)"/>
<path d="M0 0 C0.66 0 1.32 0 2 0 C2.22042969 0.98226563 2.22042969 0.98226563 2.4453125 1.984375 C5.26646245 13.46353686 10.52734858 23.81326101 18 33 C18.66 33.33 19.32 33.66 20 34 C19.67 35.32 19.34 36.64 19 38 C-5.72047244 36.27952756 -5.72047244 36.27952756 -8 34 C-8.28617712 29.67001574 -7.67403179 26.52522131 -6.125 22.5 C-4.04419363 16.65322718 -3.15804635 10.99173458 -2.4921875 4.8359375 C-2 2 -2 2 0 0 Z " fill="#FFFFFE" transform="translate(569,442)"/>
<path d="M0 0 C-0.50189629 4.4852002 -2.04477292 6.5256103 -5.0625 9.8125 C-10.79887608 16.5385384 -14.29416053 24.02844603 -18 32 C-18.66074926 33.33627566 -19.32383645 34.67145754 -20 36 C-20.66 35.67 -21.32 35.34 -22 35 C-22.57836914 32.48730469 -22.57836914 32.48730469 -23.03515625 29.171875 C-23.28942383 27.38330078 -23.28942383 27.38330078 -23.54882812 25.55859375 C-23.8030957 23.67333984 -23.8030957 23.67333984 -24.0625 21.75 C-24.40659589 19.28632459 -24.75161314 16.82277766 -25.09765625 14.359375 C-25.24726807 13.26077148 -25.39687988 12.16216797 -25.55102539 11.03027344 C-25.84227825 9.06451464 -26.19505196 7.1065312 -26.61889648 5.16503906 C-26.74466064 4.45057617 -26.8704248 3.73611328 -27 3 C-25.3787176 1.3787176 -23.46977178 1.66226851 -21.23046875 1.46484375 C-20.25916016 1.37783203 -19.28785156 1.29082031 -18.28710938 1.20117188 C-17.26423828 1.11416016 -16.24136719 1.02714844 -15.1875 0.9375 C-13.6705957 0.80118164 -13.6705957 0.80118164 -12.12304688 0.66210938 C-8.05683888 0.30467007 -4.0855826 0 0 0 Z " fill="#FFFFFE" transform="translate(591,374)"/>
</svg>
