<?xml version="1.0" encoding="UTF-8"?>
<svg version="1.1" xmlns="http://www.w3.org/2000/svg" width="1396" height="896">
<path d="M0 0 C460.68 0 921.36 0 1396 0 C1396 295.68 1396 591.36 1396 896 C935.32 896 474.64 896 0 896 C0 600.32 0 304.64 0 0 Z " fill="#7C7AC1" transform="translate(0,0)"/>
<path d="M0 0 C460.68 0 921.36 0 1396 0 C1396 295.68 1396 591.36 1396 896 C935.32 896 474.64 896 0 896 C0 600.32 0 304.64 0 0 Z M28 38 C28 313.22 28 588.44 28 872 C469.21 872 910.42 872 1365 872 C1365 596.78 1365 321.56 1365 38 C1362.03 38 1359.06 38 1356 38 C1356 39.32 1356 40.64 1356 42 C1354.68 42 1353.36 42 1352 42 C1352 43.65 1352 45.3 1352 47 C1350.68 47 1349.36 47 1348 47 C1348 48.32 1348 49.64 1348 51 C1346.68 51 1345.36 51 1344 51 C1344 52.32 1344 53.64 1344 55 C1341.03 55 1338.06 55 1335 55 C1335 56.32 1335 57.64 1335 59 C1333.68 59 1332.36 59 1331 59 C1331 60.65 1331 62.3 1331 64 C1329.35 64 1327.7 64 1326 64 C1326 65.32 1326 66.64 1326 68 C1323.36 68 1320.72 68 1318 68 C1318 69.32 1318 70.64 1318 72 C1316.35 72 1314.7 72 1313 72 C1313 73.65 1313 75.3 1313 77 C1311.68 77 1310.36 77 1309 77 C1309 78.32 1309 79.64 1309 81 C1306.36 81 1303.72 81 1301 81 C1301 82.32 1301 83.64 1301 85 C1299.35 85 1297.7 85 1296 85 C1296 86.65 1296 88.3 1296 90 C1294.68 90 1293.36 90 1292 90 C1292 91.32 1292 92.64 1292 94 C1290.68 94 1289.36 94 1288 94 C1288 95.32 1288 96.64 1288 98 C1285.03 98 1282.06 98 1279 98 C1279 99.32 1279 100.64 1279 102 C1277.68 102 1276.36 102 1275 102 C1275 103.65 1275 105.3 1275 107 C1273.35 107 1271.7 107 1270 107 C1270 108.32 1270 109.64 1270 111 C1267.36 111 1264.72 111 1262 111 C1262 112.32 1262 113.64 1262 115 C1260.68 115 1259.36 115 1258 115 C1258 116.65 1258 118.3 1258 120 C1256.35 120 1254.7 120 1253 120 C1253 121.32 1253 122.64 1253 124 C1251.68 124 1250.36 124 1249 124 C1249 125.32 1249 126.64 1249 128 C1246.03 128 1243.06 128 1240 128 C1240 129.32 1240 130.64 1240 132 C1238.68 132 1237.36 132 1236 132 C1236 133.65 1236 135.3 1236 137 C1234.68 137 1233.36 137 1232 137 C1232 138.32 1232 139.64 1232 141 C1229.03 141 1226.06 141 1223 141 C1223 142.32 1223 143.64 1223 145 C1221.68 145 1220.36 145 1219 145 C1219 146.65 1219 148.3 1219 150 C1217.68 150 1216.36 150 1215 150 C1215 151.32 1215 152.64 1215 154 C1213.35 154 1211.7 154 1210 154 C1210 155.32 1210 156.64 1210 158 C1207.36 158 1204.72 158 1202 158 C1202 159.65 1202 161.3 1202 163 C1200.35 163 1198.7 163 1197 163 C1197 164.32 1197 165.64 1197 167 C1195.68 167 1194.36 167 1193 167 C1193 168.32 1193 169.64 1193 171 C1190.36 171 1187.72 171 1185 171 C1185 172.32 1185 173.64 1185 175 C1183.35 175 1181.7 175 1180 175 C1180 176.65 1180 178.3 1180 180 C1178.68 180 1177.36 180 1176 180 C1176 181.32 1176 182.64 1176 184 C1174.68 184 1173.36 184 1172 184 C1172 185.32 1172 186.64 1172 188 C1169.03 188 1166.06 188 1163 188 C1163 189.65 1163 191.3 1163 193 C1161.68 193 1160.36 193 1159 193 C1159 194.32 1159 195.64 1159 197 C1157.35 197 1155.7 197 1154 197 C1154 198.32 1154 199.64 1154 201 C1151.36 201 1148.72 201 1146 201 C1146 202.65 1146 204.3 1146 206 C1144.68 206 1143.36 206 1142 206 C1142 207.32 1142 208.64 1142 210 C1140.35 210 1138.7 210 1137 210 C1137 211.32 1137 212.64 1137 214 C1134.36 214 1131.72 214 1129 214 C1129 215.32 1129 216.64 1129 218 C1127.35 218 1125.7 218 1124 218 C1124 219.65 1124 221.3 1124 223 C1122.68 223 1121.36 223 1120 223 C1120 224.32 1120 225.64 1120 227 C1118.68 227 1117.36 227 1116 227 C1116 228.32 1116 229.64 1116 231 C1113.03 231 1110.06 231 1107 231 C1107 232.65 1107 234.3 1107 236 C1105.68 236 1104.36 236 1103 236 C1103 237.32 1103 238.64 1103 240 C1101.68 240 1100.36 240 1099 240 C1099 241.32 1099 242.64 1099 244 C1096.03 244 1093.06 244 1090 244 C1090 245.65 1090 247.3 1090 249 C1088.68 249 1087.36 249 1086 249 C1086 250.32 1086 251.64 1086 253 C1084.35 253 1082.7 253 1081 253 C1081 254.32 1081 255.64 1081 257 C1079.68 257 1078.36 257 1077 257 C1077 258.32 1077 259.64 1077 261 C1074.03 261 1071.06 261 1068 261 C1068 262.65 1068 264.3 1068 266 C1066.68 266 1065.36 266 1064 266 C1064 267.32 1064 268.64 1064 270 C1062.68 270 1061.36 270 1060 270 C1060 271.32 1060 272.64 1060 274 C1057.03 274 1054.06 274 1051 274 C1051 275.65 1051 277.3 1051 279 C1049.68 279 1048.36 279 1047 279 C1047 280.32 1047 281.64 1047 283 C1045.68 283 1044.36 283 1043 283 C1043 284.32 1043 285.64 1043 287 C1041.35 287 1039.7 287 1038 287 C1038 288.65 1038 290.3 1038 292 C1035.36 292 1032.72 292 1030 292 C1030 293.32 1030 294.64 1030 296 C1028.35 296 1026.7 296 1025 296 C1025 297.32 1025 298.64 1025 300 C1023.68 300 1022.36 300 1021 300 C1021 301.32 1021 302.64 1021 304 C1018.36 304 1015.72 304 1013 304 C1013 305.65 1013 307.3 1013 309 C1011.35 309 1009.7 309 1008 309 C1008 310.32 1008 311.64 1008 313 C1006.68 313 1005.36 313 1004 313 C1004 314.32 1004 315.64 1004 317 C1002.68 317 1001.36 317 1000 317 C1000 318.65 1000 320.3 1000 322 C997.03 322 994.06 322 991 322 C991 323.32 991 324.64 991 326 C989.68 326 988.36 326 987 326 C987 327.32 987 328.64 987 330 C985.35 330 983.7 330 982 330 C982 331.65 982 333.3 982 335 C979.36 335 976.72 335 974 335 C974 336.32 974 337.64 974 339 C972.68 339 971.36 339 970 339 C970 340.32 970 341.64 970 343 C968.35 343 966.7 343 965 343 C965 344.32 965 345.64 965 347 C962.36 347 959.72 347 957 347 C957 348.65 957 350.3 957 352 C955.35 352 953.7 352 952 352 C952 353.32 952 354.64 952 356 C950.68 356 949.36 356 948 356 C948 357.32 948 358.64 948 360 C946.68 360 945.36 360 944 360 C944 361.65 944 363.3 944 365 C941.03 365 938.06 365 935 365 C935 366.32 935 367.64 935 369 C933.68 369 932.36 369 931 369 C931 370.32 931 371.64 931 373 C929.68 373 928.36 373 927 373 C927 374.32 927 375.64 927 377 C924.03 377 921.06 377 918 377 C918 378.65 918 380.3 918 382 C916.68 382 915.36 382 914 382 C914 383.32 914 384.64 914 386 C912.35 386 910.7 386 909 386 C909 387.32 909 388.64 909 390 C907.68 390 906.36 390 905 390 C905 391.65 905 393.3 905 395 C902.36 395 899.72 395 897 395 C897 396.32 897 397.64 897 399 C895.35 399 893.7 399 892 399 C892 400.32 892 401.64 892 403 C890.68 403 889.36 403 888 403 C888 404.65 888 406.3 888 408 C885.03 408 882.06 408 879 408 C879 409.32 879 410.64 879 412 C877.68 412 876.36 412 875 412 C875 413.32 875 414.64 875 416 C873.68 416 872.36 416 871 416 C871 417.32 871 418.64 871 420 C869.35 420 867.7 420 866 420 C866 421.65 866 423.3 866 425 C863.36 425 860.72 425 858 425 C858 426.32 858 427.64 858 429 C856.68 429 855.36 429 854 429 C854 430.32 854 431.64 854 433 C852.35 433 850.7 433 849 433 C849 434.65 849 436.3 849 438 C846.36 438 843.72 438 841 438 C841 439.32 841 440.64 841 442 C839.35 442 837.7 442 836 442 C836 443.32 836 444.64 836 446 C834.68 446 833.36 446 832 446 C832 447.65 832 449.3 832 451 C830.68 451 829.36 451 828 451 C828 452.32 828 453.64 828 455 C825.03 455 822.06 455 819 455 C819 456.32 819 457.64 819 459 C817.68 459 816.36 459 815 459 C815 460.32 815 461.64 815 463 C813.68 463 812.36 463 811 463 C811 464.65 811 466.3 811 468 C808.03 468 805.06 468 802 468 C802 469.32 802 470.64 802 472 C800.68 472 799.36 472 798 472 C798 473.32 798 474.64 798 476 C796.35 476 794.7 476 793 476 C793 477.65 793 479.3 793 481 C790.36 481 787.72 481 785 481 C785 482.32 785 483.64 785 485 C783.35 485 781.7 485 780 485 C780 486.32 780 487.64 780 489 C778.68 489 777.36 489 776 489 C776 490.65 776 492.3 776 494 C774.68 494 773.36 494 772 494 C772 495.32 772 496.64 772 498 C769.03 498 766.06 498 763 498 C763 499.32 763 500.64 763 502 C761.68 502 760.36 502 759 502 C759 503.32 759 504.64 759 506 C757.68 506 756.36 506 755 506 C755 507.65 755 509.3 755 511 C752.03 511 749.06 511 746 511 C746 512.32 746 513.64 746 515 C744.68 515 743.36 515 742 515 C742 516.32 742 517.64 742 519 C740.35 519 738.7 519 737 519 C737 520.65 737 522.3 737 524 C735.68 524 734.36 524 733 524 C733 525.32 733 526.64 733 528 C730.36 528 727.72 528 725 528 C725 529.32 725 530.64 725 532 C723.35 532 721.7 532 720 532 C720 533.65 720 535.3 720 537 C718.68 537 717.36 537 716 537 C716 538.32 716 539.64 716 541 C713.03 541 710.06 541 707 541 C707 542.32 707 543.64 707 545 C704.36 545 701.72 545 699 545 C699 546.32 699 547.64 699 549 C697.68 549 696.36 549 695 549 C695 547.68 695 546.36 695 545 C692.03 545 689.06 545 686 545 C686 543.68 686 542.36 686 541 C683.03 541 680.06 541 677 541 C677 539.68 677 538.36 677 537 C675.68 537 674.36 537 673 537 C673 535.35 673 533.7 673 532 C671.68 532 670.36 532 669 532 C669 530.68 669 529.36 669 528 C666.03 528 663.06 528 660 528 C660 526.68 660 525.36 660 524 C658.68 524 657.36 524 656 524 C656 522.35 656 520.7 656 519 C654.68 519 653.36 519 652 519 C652 517.68 652 516.36 652 515 C650.35 515 648.7 515 647 515 C647 513.68 647 512.36 647 511 C644.36 511 641.72 511 639 511 C639 509.35 639 507.7 639 506 C637.35 506 635.7 506 634 506 C634 504.68 634 503.36 634 502 C632.68 502 631.36 502 630 502 C630 500.68 630 499.36 630 498 C627.03 498 624.06 498 621 498 C621 496.68 621 495.36 621 494 C619.68 494 618.36 494 617 494 C617 492.35 617 490.7 617 489 C615.68 489 614.36 489 613 489 C613 487.68 613 486.36 613 485 C610.03 485 607.06 485 604 485 C604 483.68 604 482.36 604 481 C602.68 481 601.36 481 600 481 C600 479.35 600 477.7 600 476 C598.68 476 597.36 476 596 476 C596 474.68 596 473.36 596 472 C594.35 472 592.7 472 591 472 C591 470.68 591 469.36 591 468 C588.36 468 585.72 468 583 468 C583 466.35 583 464.7 583 463 C581.35 463 579.7 463 578 463 C578 461.68 578 460.36 578 459 C576.68 459 575.36 459 574 459 C574 457.68 574 456.36 574 455 C571.36 455 568.72 455 566 455 C566 453.68 566 452.36 566 451 C564.35 451 562.7 451 561 451 C561 449.35 561 447.7 561 446 C559.68 446 558.36 446 557 446 C557 444.68 557 443.36 557 442 C555.68 442 554.36 442 553 442 C553 440.68 553 439.36 553 438 C550.03 438 547.06 438 544 438 C544 436.35 544 434.7 544 433 C542.68 433 541.36 433 540 433 C540 431.68 540 430.36 540 429 C538.35 429 536.7 429 535 429 C535 427.68 535 426.36 535 425 C532.36 425 529.72 425 527 425 C527 423.35 527 421.7 527 420 C525.68 420 524.36 420 523 420 C523 418.68 523 417.36 523 416 C521.35 416 519.7 416 518 416 C518 414.68 518 413.36 518 412 C516.68 412 515.36 412 514 412 C514 410.68 514 409.36 514 408 C511.03 408 508.06 408 505 408 C505 406.35 505 404.7 505 403 C503.68 403 502.36 403 501 403 C501 401.68 501 400.36 501 399 C499.68 399 498.36 399 497 399 C497 397.68 497 396.36 497 395 C494.03 395 491.06 395 488 395 C488 393.35 488 391.7 488 390 C486.68 390 485.36 390 484 390 C484 388.68 484 387.36 484 386 C482.68 386 481.36 386 480 386 C480 384.68 480 383.36 480 382 C478.35 382 476.7 382 475 382 C475 380.35 475 378.7 475 377 C472.36 377 469.72 377 467 377 C467 375.68 467 374.36 467 373 C465.35 373 463.7 373 462 373 C462 371.68 462 370.36 462 369 C460.68 369 459.36 369 458 369 C458 367.68 458 366.36 458 365 C455.36 365 452.72 365 450 365 C450 363.35 450 361.7 450 360 C448.35 360 446.7 360 445 360 C445 358.68 445 357.36 445 356 C443.68 356 442.36 356 441 356 C441 354.68 441 353.36 441 352 C438.03 352 435.06 352 432 352 C432 350.35 432 348.7 432 347 C430.68 347 429.36 347 428 347 C428 345.68 428 344.36 428 343 C426.68 343 425.36 343 424 343 C424 341.68 424 340.36 424 339 C422.35 339 420.7 339 419 339 C419 337.68 419 336.36 419 335 C416.36 335 413.72 335 411 335 C411 333.35 411 331.7 411 330 C409.68 330 408.36 330 407 330 C407 328.68 407 327.36 407 326 C405.35 326 403.7 326 402 326 C402 324.68 402 323.36 402 322 C399.36 322 396.72 322 394 322 C394 320.35 394 318.7 394 317 C392.35 317 390.7 317 389 317 C389 315.68 389 314.36 389 313 C387.68 313 386.36 313 385 313 C385 311.68 385 310.36 385 309 C383.68 309 382.36 309 381 309 C381 307.35 381 305.7 381 304 C378.03 304 375.06 304 372 304 C372 302.68 372 301.36 372 300 C370.68 300 369.36 300 368 300 C368 298.68 368 297.36 368 296 C366.68 296 365.36 296 364 296 C364 294.68 364 293.36 364 292 C361.03 292 358.06 292 355 292 C355 290.35 355 288.7 355 287 C353.68 287 352.36 287 351 287 C351 285.68 351 284.36 351 283 C349.35 283 347.7 283 346 283 C346 281.68 346 280.36 346 279 C344.68 279 343.36 279 342 279 C342 277.35 342 275.7 342 274 C339.03 274 336.06 274 333 274 C333 272.68 333 271.36 333 270 C331.68 270 330.36 270 329 270 C329 268.68 329 267.36 329 266 C327.68 266 326.36 266 325 266 C325 264.35 325 262.7 325 261 C322.03 261 319.06 261 316 261 C316 259.68 316 258.36 316 257 C314.68 257 313.36 257 312 257 C312 255.68 312 254.36 312 253 C310.68 253 309.36 253 308 253 C308 251.68 308 250.36 308 249 C306.35 249 304.7 249 303 249 C303 247.35 303 245.7 303 244 C300.36 244 297.72 244 295 244 C295 242.68 295 241.36 295 240 C293.35 240 291.7 240 290 240 C290 238.68 290 237.36 290 236 C288.68 236 287.36 236 286 236 C286 234.35 286 232.7 286 231 C283.36 231 280.72 231 278 231 C278 229.68 278 228.36 278 227 C276.35 227 274.7 227 273 227 C273 225.68 273 224.36 273 223 C271.68 223 270.36 223 269 223 C269 221.35 269 219.7 269 218 C267.68 218 266.36 218 265 218 C265 216.68 265 215.36 265 214 C262.03 214 259.06 214 256 214 C256 212.68 256 211.36 256 210 C254.68 210 253.36 210 252 210 C252 208.68 252 207.36 252 206 C250.35 206 248.7 206 247 206 C247 204.35 247 202.7 247 201 C244.36 201 241.72 201 239 201 C239 199.68 239 198.36 239 197 C237.68 197 236.36 197 235 197 C235 195.68 235 194.36 235 193 C233.35 193 231.7 193 230 193 C230 191.35 230 189.7 230 188 C227.36 188 224.72 188 222 188 C222 186.68 222 185.36 222 184 C220.35 184 218.7 184 217 184 C217 182.68 217 181.36 217 180 C215.68 180 214.36 180 213 180 C213 178.35 213 176.7 213 175 C211.68 175 210.36 175 209 175 C209 173.68 209 172.36 209 171 C206.03 171 203.06 171 200 171 C200 169.68 200 168.36 200 167 C198.68 167 197.36 167 196 167 C196 165.68 196 164.36 196 163 C194.68 163 193.36 163 192 163 C192 161.35 192 159.7 192 158 C189.03 158 186.06 158 183 158 C183 156.68 183 155.36 183 154 C181.68 154 180.36 154 179 154 C179 152.68 179 151.36 179 150 C177.35 150 175.7 150 174 150 C174 148.35 174 146.7 174 145 C172.68 145 171.36 145 170 145 C170 143.68 170 142.36 170 141 C167.36 141 164.72 141 162 141 C162 139.68 162 138.36 162 137 C160.35 137 158.7 137 157 137 C157 135.35 157 133.7 157 132 C155.68 132 154.36 132 153 132 C153 130.68 153 129.36 153 128 C150.03 128 147.06 128 144 128 C144 126.68 144 125.36 144 124 C142.68 124 141.36 124 140 124 C140 122.68 140 121.36 140 120 C138.68 120 137.36 120 136 120 C136 118.35 136 116.7 136 115 C134.35 115 132.7 115 131 115 C131 113.68 131 112.36 131 111 C128.36 111 125.72 111 123 111 C123 109.68 123 108.36 123 107 C121.68 107 120.36 107 119 107 C119 105.35 119 103.7 119 102 C117.35 102 115.7 102 114 102 C114 100.68 114 99.36 114 98 C111.36 98 108.72 98 106 98 C106 96.68 106 95.36 106 94 C104.35 94 102.7 94 101 94 C101 92.68 101 91.36 101 90 C99.68 90 98.36 90 97 90 C97 88.35 97 86.7 97 85 C95.68 85 94.36 85 93 85 C93 83.68 93 82.36 93 81 C90.03 81 87.06 81 84 81 C84 79.68 84 78.36 84 77 C82.68 77 81.36 77 80 77 C80 75.35 80 73.7 80 72 C78.68 72 77.36 72 76 72 C76 70.68 76 69.36 76 68 C73.03 68 70.06 68 67 68 C67 66.68 67 65.36 67 64 C65.68 64 64.36 64 63 64 C63 62.35 63 60.7 63 59 C61.35 59 59.7 59 58 59 C58 57.68 58 56.36 58 55 C55.36 55 52.72 55 50 55 C50 53.68 50 52.36 50 51 C48.35 51 46.7 51 45 51 C45 49.68 45 48.36 45 47 C43.68 47 42.36 47 41 47 C41 45.35 41 43.7 41 42 C39.68 42 38.36 42 37 42 C37 40.68 37 39.36 37 38 C34.03 38 31.06 38 28 38 Z " fill="#7C7AC1" transform="translate(0,0)"/>
<path d="M0 0 C460.68 0 921.36 0 1396 0 C1396 295.68 1396 591.36 1396 896 C935.32 896 474.64 896 0 896 C0 600.32 0 304.64 0 0 Z M80 29 C80 30.65 80 32.3 80 34 C81.32 34 82.64 34 84 34 C84 35.32 84 36.64 84 38 C85.32 38 86.64 38 88 38 C88 39.32 88 40.64 88 42 C90.97 42 93.94 42 97 42 C97 43.65 97 45.3 97 47 C98.32 47 99.64 47 101 47 C101 48.32 101 49.64 101 51 C102.65 51 104.3 51 106 51 C106 52.32 106 53.64 106 55 C108.64 55 111.28 55 114 55 C114 56.32 114 57.64 114 59 C115.65 59 117.3 59 119 59 C119 60.65 119 62.3 119 64 C120.32 64 121.64 64 123 64 C123 65.32 123 66.64 123 68 C124.32 68 125.64 68 127 68 C127 69.32 127 70.64 127 72 C129.97 72 132.94 72 136 72 C136 73.65 136 75.3 136 77 C137.32 77 138.64 77 140 77 C140 78.32 140 79.64 140 81 C141.32 81 142.64 81 144 81 C144 82.32 144 83.64 144 85 C146.97 85 149.94 85 153 85 C153 86.65 153 88.3 153 90 C154.32 90 155.64 90 157 90 C157 91.32 157 92.64 157 94 C158.65 94 160.3 94 162 94 C162 95.32 162 96.64 162 98 C164.64 98 167.28 98 170 98 C170 99.32 170 100.64 170 102 C171.32 102 172.64 102 174 102 C174 103.65 174 105.3 174 107 C175.65 107 177.3 107 179 107 C179 108.32 179 109.64 179 111 C180.32 111 181.64 111 183 111 C183 112.32 183 113.64 183 115 C185.97 115 188.94 115 192 115 C192 116.65 192 118.3 192 120 C193.32 120 194.64 120 196 120 C196 121.32 196 122.64 196 124 C197.32 124 198.64 124 200 124 C200 125.32 200 126.64 200 128 C202.97 128 205.94 128 209 128 C209 129.32 209 130.64 209 132 C210.32 132 211.64 132 213 132 C213 133.65 213 135.3 213 137 C214.32 137 215.64 137 217 137 C217 138.32 217 139.64 217 141 C219.97 141 222.94 141 226 141 C226 142.32 226 143.64 226 145 C227.32 145 228.64 145 230 145 C230 146.65 230 148.3 230 150 C231.65 150 233.3 150 235 150 C235 151.32 235 152.64 235 154 C236.32 154 237.64 154 239 154 C239 155.32 239 156.64 239 158 C241.64 158 244.28 158 247 158 C247 159.65 247 161.3 247 163 C248.65 163 250.3 163 252 163 C252 164.32 252 165.64 252 167 C253.32 167 254.64 167 256 167 C256 168.32 256 169.64 256 171 C258.97 171 261.94 171 265 171 C265 172.32 265 173.64 265 175 C266.32 175 267.64 175 269 175 C269 176.65 269 178.3 269 180 C270.32 180 271.64 180 273 180 C273 181.32 273 182.64 273 184 C275.97 184 278.94 184 282 184 C282 185.32 282 186.64 282 188 C283.32 188 284.64 188 286 188 C286 189.65 286 191.3 286 193 C287.32 193 288.64 193 290 193 C290 194.32 290 195.64 290 197 C292.97 197 295.94 197 299 197 C299 198.32 299 199.64 299 201 C300.32 201 301.64 201 303 201 C303 202.65 303 204.3 303 206 C304.65 206 306.3 206 308 206 C308 207.32 308 208.64 308 210 C309.32 210 310.64 210 312 210 C312 211.32 312 212.64 312 214 C314.97 214 317.94 214 321 214 C321 215.32 321 216.64 321 218 C322.32 218 323.64 218 325 218 C325 219.65 325 221.3 325 223 C326.32 223 327.64 223 329 223 C329 224.32 329 225.64 329 227 C331.97 227 334.94 227 338 227 C338 228.32 338 229.64 338 231 C339.32 231 340.64 231 342 231 C342 232.65 342 234.3 342 236 C343.32 236 344.64 236 346 236 C346 237.32 346 238.64 346 240 C348.97 240 351.94 240 355 240 C355 241.32 355 242.64 355 244 C356.32 244 357.64 244 359 244 C359 245.65 359 247.3 359 249 C360.65 249 362.3 249 364 249 C364 250.32 364 251.64 364 253 C365.32 253 366.64 253 368 253 C368 254.32 368 255.64 368 257 C370.64 257 373.28 257 376 257 C376 258.32 376 259.64 376 261 C377.65 261 379.3 261 381 261 C381 262.65 381 264.3 381 266 C382.32 266 383.64 266 385 266 C385 267.32 385 268.64 385 270 C387.97 270 390.94 270 394 270 C394 271.32 394 272.64 394 274 C395.32 274 396.64 274 398 274 C398 275.65 398 277.3 398 279 C399.32 279 400.64 279 402 279 C402 280.32 402 281.64 402 283 C404.97 283 407.94 283 411 283 C411 284.32 411 285.64 411 287 C412.32 287 413.64 287 415 287 C415 288.65 415 290.3 415 292 C416.32 292 417.64 292 419 292 C419 293.32 419 294.64 419 296 C420.65 296 422.3 296 424 296 C424 297.32 424 298.64 424 300 C426.64 300 429.28 300 432 300 C432 301.32 432 302.64 432 304 C433.65 304 435.3 304 437 304 C437 305.65 437 307.3 437 309 C438.32 309 439.64 309 441 309 C441 310.32 441 311.64 441 313 C443.97 313 446.94 313 450 313 C450 314.32 450 315.64 450 317 C451.32 317 452.64 317 454 317 C454 318.65 454 320.3 454 322 C455.32 322 456.64 322 458 322 C458 323.32 458 324.64 458 326 C460.97 326 463.94 326 467 326 C467 327.32 467 328.64 467 330 C468.32 330 469.64 330 471 330 C471 331.65 471 333.3 471 335 C472.32 335 473.64 335 475 335 C475 336.32 475 337.64 475 339 C477.97 339 480.94 339 484 339 C484 340.32 484 341.64 484 343 C485.32 343 486.64 343 488 343 C488 344.32 488 345.64 488 347 C489.32 347 490.64 347 492 347 C492 348.65 492 350.3 492 352 C493.65 352 495.3 352 497 352 C497 353.32 497 354.64 497 356 C499.64 356 502.28 356 505 356 C505 357.32 505 358.64 505 360 C506.65 360 508.3 360 510 360 C510 361.65 510 363.3 510 365 C511.32 365 512.64 365 514 365 C514 366.32 514 367.64 514 369 C516.97 369 519.94 369 523 369 C523 370.32 523 371.64 523 373 C524.32 373 525.64 373 527 373 C527 374.32 527 375.64 527 377 C528.32 377 529.64 377 531 377 C531 378.65 531 380.3 531 382 C533.97 382 536.94 382 540 382 C540 383.32 540 384.64 540 386 C541.32 386 542.64 386 544 386 C544 387.32 544 388.64 544 390 C545.32 390 546.64 390 548 390 C548 391.65 548 393.3 548 395 C549.65 395 551.3 395 553 395 C553 396.32 553 397.64 553 399 C555.64 399 558.28 399 561 399 C561 400.32 561 401.64 561 403 C562.65 403 564.3 403 566 403 C566 404.65 566 406.3 566 408 C567.32 408 568.64 408 570 408 C570 409.32 570 410.64 570 412 C572.64 412 575.28 412 578 412 C578 413.32 578 414.64 578 416 C579.65 416 581.3 416 583 416 C583 417.32 583 418.64 583 420 C584.32 420 585.64 420 587 420 C587 421.65 587 423.3 587 425 C589.97 425 592.94 425 596 425 C596 426.32 596 427.64 596 429 C597.32 429 598.64 429 600 429 C600 430.32 600 431.64 600 433 C601.32 433 602.64 433 604 433 C604 434.65 604 436.3 604 438 C605.65 438 607.3 438 609 438 C609 439.32 609 440.64 609 442 C611.64 442 614.28 442 617 442 C617 443.32 617 444.64 617 446 C618.32 446 619.64 446 621 446 C621 447.65 621 449.3 621 451 C622.65 451 624.3 451 626 451 C626 452.32 626 453.64 626 455 C628.64 455 631.28 455 634 455 C634 456.32 634 457.64 634 459 C635.65 459 637.3 459 639 459 C639 460.32 639 461.64 639 463 C640.32 463 641.64 463 643 463 C643 464.65 643 466.3 643 468 C645.97 468 648.94 468 652 468 C652 469.32 652 470.64 652 472 C653.32 472 654.64 472 656 472 C656 473.32 656 474.64 656 476 C657.32 476 658.64 476 660 476 C660 477.65 660 479.3 660 481 C662.97 481 665.94 481 669 481 C669 482.32 669 483.64 669 485 C670.32 485 671.64 485 673 485 C673 486.32 673 487.64 673 489 C674.32 489 675.64 489 677 489 C677 490.65 677 492.3 677 494 C678.65 494 680.3 494 682 494 C682 495.32 682 496.64 682 498 C684.64 498 687.28 498 690 498 C690 499.32 690 500.64 690 502 C691.65 502 693.3 502 695 502 C695 503.32 695 504.64 695 506 C696.32 506 697.64 506 699 506 C699 504.68 699 503.36 699 502 C700.32 502 701.64 502 703 502 C703 500.68 703 499.36 703 498 C705.97 498 708.94 498 712 498 C712 496.68 712 495.36 712 494 C713.32 494 714.64 494 716 494 C716 492.35 716 490.7 716 489 C717.32 489 718.64 489 720 489 C720 487.68 720 486.36 720 485 C722.97 485 725.94 485 729 485 C729 483.68 729 482.36 729 481 C730.32 481 731.64 481 733 481 C733 479.35 733 477.7 733 476 C734.32 476 735.64 476 737 476 C737 474.68 737 473.36 737 472 C738.65 472 740.3 472 742 472 C742 470.68 742 469.36 742 468 C744.64 468 747.28 468 750 468 C750 466.35 750 464.7 750 463 C751.65 463 753.3 463 755 463 C755 461.68 755 460.36 755 459 C756.32 459 757.64 459 759 459 C759 457.68 759 456.36 759 455 C761.97 455 764.94 455 768 455 C768 453.68 768 452.36 768 451 C769.32 451 770.64 451 772 451 C772 449.35 772 447.7 772 446 C773.32 446 774.64 446 776 446 C776 444.68 776 443.36 776 442 C778.97 442 781.94 442 785 442 C785 440.68 785 439.36 785 438 C786.32 438 787.64 438 789 438 C789 436.35 789 434.7 789 433 C790.32 433 791.64 433 793 433 C793 431.68 793 430.36 793 429 C794.65 429 796.3 429 798 429 C798 427.68 798 426.36 798 425 C800.64 425 803.28 425 806 425 C806 423.35 806 421.7 806 420 C807.65 420 809.3 420 811 420 C811 418.68 811 417.36 811 416 C812.32 416 813.64 416 815 416 C815 414.68 815 413.36 815 412 C817.64 412 820.28 412 823 412 C823 410.68 823 409.36 823 408 C824.65 408 826.3 408 828 408 C828 406.35 828 404.7 828 403 C829.32 403 830.64 403 832 403 C832 401.68 832 400.36 832 399 C834.97 399 837.94 399 841 399 C841 397.68 841 396.36 841 395 C842.32 395 843.64 395 845 395 C845 393.35 845 391.7 845 390 C846.32 390 847.64 390 849 390 C849 388.68 849 387.36 849 386 C851.97 386 854.94 386 858 386 C858 384.68 858 383.36 858 382 C859.32 382 860.64 382 862 382 C862 380.35 862 378.7 862 377 C863.32 377 864.64 377 866 377 C866 375.68 866 374.36 866 373 C867.65 373 869.3 373 871 373 C871 371.68 871 370.36 871 369 C873.64 369 876.28 369 879 369 C879 367.68 879 366.36 879 365 C880.65 365 882.3 365 884 365 C884 363.35 884 361.7 884 360 C885.32 360 886.64 360 888 360 C888 358.68 888 357.36 888 356 C890.97 356 893.94 356 897 356 C897 354.68 897 353.36 897 352 C898.32 352 899.64 352 901 352 C901 350.35 901 348.7 901 347 C902.32 347 903.64 347 905 347 C905 345.68 905 344.36 905 343 C907.97 343 910.94 343 914 343 C914 341.68 914 340.36 914 339 C915.32 339 916.64 339 918 339 C918 337.68 918 336.36 918 335 C919.32 335 920.64 335 922 335 C922 333.35 922 331.7 922 330 C923.65 330 925.3 330 927 330 C927 328.68 927 327.36 927 326 C929.64 326 932.28 326 935 326 C935 324.68 935 323.36 935 322 C936.65 322 938.3 322 940 322 C940 320.35 940 318.7 940 317 C941.32 317 942.64 317 944 317 C944 315.68 944 314.36 944 313 C946.64 313 949.28 313 952 313 C952 311.68 952 310.36 952 309 C953.65 309 955.3 309 957 309 C957 307.35 957 305.7 957 304 C958.32 304 959.64 304 961 304 C961 302.68 961 301.36 961 300 C963.97 300 966.94 300 970 300 C970 298.68 970 297.36 970 296 C971.32 296 972.64 296 974 296 C974 294.68 974 293.36 974 292 C975.32 292 976.64 292 978 292 C978 290.35 978 288.7 978 287 C979.65 287 981.3 287 983 287 C983 285.68 983 284.36 983 283 C983.99 283.33 984.98 283.66 986 284 C988.63804589 283.60602665 988.63804589 283.60602665 991 283 C991 281.68 991 280.36 991 279 C992.32 279 993.64 279 995 279 C995 277.35 995 275.7 995 274 C996.65 274 998.3 274 1000 274 C1000 272.68 1000 271.36 1000 270 C1002.64 270 1005.28 270 1008 270 C1008 268.68 1008 267.36 1008 266 C1009.65 266 1011.3 266 1013 266 C1013 264.35 1013 262.7 1013 261 C1014.32 261 1015.64 261 1017 261 C1017 259.68 1017 258.36 1017 257 C1019.64 257 1022.28 257 1025 257 C1025 255.68 1025 254.36 1025 253 C1026.65 253 1028.3 253 1030 253 C1030 251.68 1030 250.36 1030 249 C1031.32 249 1032.64 249 1034 249 C1034 247.35 1034 245.7 1034 244 C1035.32 244 1036.64 244 1038 244 C1038 242.68 1038 241.36 1038 240 C1040.97 240 1043.94 240 1047 240 C1047 238.68 1047 237.36 1047 236 C1048.32 236 1049.64 236 1051 236 C1051 234.35 1051 232.7 1051 231 C1052.65 231 1054.3 231 1056 231 C1056 229.68 1056 228.36 1056 227 C1058.64 227 1061.28 227 1064 227 C1064 225.68 1064 224.36 1064 223 C1065.32 223 1066.64 223 1068 223 C1068 221.35 1068 219.7 1068 218 C1069.65 218 1071.3 218 1073 218 C1073 216.68 1073 215.36 1073 214 C1075.64 214 1078.28 214 1081 214 C1081 212.68 1081 211.36 1081 210 C1082.65 210 1084.3 210 1086 210 C1086 208.68 1086 207.36 1086 206 C1087.32 206 1088.64 206 1090 206 C1090 204.35 1090 202.7 1090 201 C1092.97 201 1095.94 201 1099 201 C1099 199.68 1099 198.36 1099 197 C1100.32 197 1101.64 197 1103 197 C1103 195.68 1103 194.36 1103 193 C1104.32 193 1105.64 193 1107 193 C1107 191.35 1107 189.7 1107 188 C1108.32 188 1109.64 188 1111 188 C1111 186.68 1111 185.36 1111 184 C1113.97 184 1116.94 184 1120 184 C1120 182.68 1120 181.36 1120 180 C1121.32 180 1122.64 180 1124 180 C1124 178.35 1124 176.7 1124 175 C1125.65 175 1127.3 175 1129 175 C1129 173.68 1129 172.36 1129 171 C1131.64 171 1134.28 171 1137 171 C1137 169.68 1137 168.36 1137 167 C1138.65 167 1140.3 167 1142 167 C1142 165.68 1142 164.36 1142 163 C1143.32 163 1144.64 163 1146 163 C1146 161.35 1146 159.7 1146 158 C1148.64 158 1151.28 158 1154 158 C1154 156.68 1154 155.36 1154 154 C1155.65 154 1157.3 154 1159 154 C1159 152.68 1159 151.36 1159 150 C1160.32 150 1161.64 150 1163 150 C1163 148.35 1163 146.7 1163 145 C1164.32 145 1165.64 145 1167 145 C1167 143.68 1167 142.36 1167 141 C1169.97 141 1172.94 141 1176 141 C1176 139.68 1176 138.36 1176 137 C1177.32 137 1178.64 137 1180 137 C1180 135.35 1180 133.7 1180 132 C1181.65 132 1183.3 132 1185 132 C1185 130.68 1185 129.36 1185 128 C1187.64 128 1190.28 128 1193 128 C1193 126.68 1193 125.36 1193 124 C1194.32 124 1195.64 124 1197 124 C1197 122.68 1197 121.36 1197 120 C1198.65 120 1200.3 120 1202 120 C1202 118.35 1202 116.7 1202 115 C1204.64 115 1207.28 115 1210 115 C1210 113.68 1210 112.36 1210 111 C1211.65 111 1213.3 111 1215 111 C1215 109.68 1215 108.36 1215 107 C1216.32 107 1217.64 107 1219 107 C1219 105.35 1219 103.7 1219 102 C1220.32 102 1221.64 102 1223 102 C1223 100.68 1223 99.36 1223 98 C1225.97 98 1228.94 98 1232 98 C1232 96.68 1232 95.36 1232 94 C1233.32 94 1234.64 94 1236 94 C1236 92.68 1236 91.36 1236 90 C1237.32 90 1238.64 90 1240 90 C1240 88.35 1240 86.7 1240 85 C1242.97 85 1245.94 85 1249 85 C1249 83.68 1249 82.36 1249 81 C1250.32 81 1251.64 81 1253 81 C1253 79.68 1253 78.36 1253 77 C1254.65 77 1256.3 77 1258 77 C1258 75.35 1258 73.7 1258 72 C1260.64 72 1263.28 72 1266 72 C1266 70.68 1266 69.36 1266 68 C1267.32 68 1268.64 68 1270 68 C1270 66.68 1270 65.36 1270 64 C1271.65 64 1273.3 64 1275 64 C1275 62.35 1275 60.7 1275 59 C1276.32 59 1277.64 59 1279 59 C1279 57.68 1279 56.36 1279 55 C1281.97 55 1284.94 55 1288 55 C1288 53.68 1288 52.36 1288 51 C1289.32 51 1290.64 51 1292 51 C1292 49.68 1292 48.36 1292 47 C1293.32 47 1294.64 47 1296 47 C1296 45.35 1296 43.7 1296 42 C1298.97 42 1301.94 42 1305 42 C1305 40.68 1305 39.36 1305 38 C1306.32 38 1307.64 38 1309 38 C1309 36.68 1309 35.36 1309 34 C1310.32 34 1311.64 34 1313 34 C1313 32.35 1313 30.7 1313 29 C906.11 29 499.22 29 80 29 Z M28 38 C28 313.22 28 588.44 28 872 C469.21 872 910.42 872 1365 872 C1365 596.78 1365 321.56 1365 38 C1362.03 38 1359.06 38 1356 38 C1356 39.32 1356 40.64 1356 42 C1354.68 42 1353.36 42 1352 42 C1352 43.65 1352 45.3 1352 47 C1350.68 47 1349.36 47 1348 47 C1348 48.32 1348 49.64 1348 51 C1346.68 51 1345.36 51 1344 51 C1344 52.32 1344 53.64 1344 55 C1341.03 55 1338.06 55 1335 55 C1335 56.32 1335 57.64 1335 59 C1333.68 59 1332.36 59 1331 59 C1331 60.65 1331 62.3 1331 64 C1329.35 64 1327.7 64 1326 64 C1326 65.32 1326 66.64 1326 68 C1323.36 68 1320.72 68 1318 68 C1318 69.32 1318 70.64 1318 72 C1316.35 72 1314.7 72 1313 72 C1313 73.65 1313 75.3 1313 77 C1311.68 77 1310.36 77 1309 77 C1309 78.32 1309 79.64 1309 81 C1306.36 81 1303.72 81 1301 81 C1301 82.32 1301 83.64 1301 85 C1299.35 85 1297.7 85 1296 85 C1296 86.65 1296 88.3 1296 90 C1294.68 90 1293.36 90 1292 90 C1292 91.32 1292 92.64 1292 94 C1290.68 94 1289.36 94 1288 94 C1288 95.32 1288 96.64 1288 98 C1285.03 98 1282.06 98 1279 98 C1279 99.32 1279 100.64 1279 102 C1277.68 102 1276.36 102 1275 102 C1275 103.65 1275 105.3 1275 107 C1273.35 107 1271.7 107 1270 107 C1270 108.32 1270 109.64 1270 111 C1267.36 111 1264.72 111 1262 111 C1262 112.32 1262 113.64 1262 115 C1260.68 115 1259.36 115 1258 115 C1258 116.65 1258 118.3 1258 120 C1256.35 120 1254.7 120 1253 120 C1253 121.32 1253 122.64 1253 124 C1251.68 124 1250.36 124 1249 124 C1249 125.32 1249 126.64 1249 128 C1246.03 128 1243.06 128 1240 128 C1240 129.32 1240 130.64 1240 132 C1238.68 132 1237.36 132 1236 132 C1236 133.65 1236 135.3 1236 137 C1234.68 137 1233.36 137 1232 137 C1232 138.32 1232 139.64 1232 141 C1229.03 141 1226.06 141 1223 141 C1223 142.32 1223 143.64 1223 145 C1221.68 145 1220.36 145 1219 145 C1219 146.65 1219 148.3 1219 150 C1217.68 150 1216.36 150 1215 150 C1215 151.32 1215 152.64 1215 154 C1213.35 154 1211.7 154 1210 154 C1210 155.32 1210 156.64 1210 158 C1207.36 158 1204.72 158 1202 158 C1202 159.65 1202 161.3 1202 163 C1200.35 163 1198.7 163 1197 163 C1197 164.32 1197 165.64 1197 167 C1195.68 167 1194.36 167 1193 167 C1193 168.32 1193 169.64 1193 171 C1190.36 171 1187.72 171 1185 171 C1185 172.32 1185 173.64 1185 175 C1183.35 175 1181.7 175 1180 175 C1180 176.65 1180 178.3 1180 180 C1178.68 180 1177.36 180 1176 180 C1176 181.32 1176 182.64 1176 184 C1174.68 184 1173.36 184 1172 184 C1172 185.32 1172 186.64 1172 188 C1169.03 188 1166.06 188 1163 188 C1163 189.65 1163 191.3 1163 193 C1161.68 193 1160.36 193 1159 193 C1159 194.32 1159 195.64 1159 197 C1157.35 197 1155.7 197 1154 197 C1154 198.32 1154 199.64 1154 201 C1151.36 201 1148.72 201 1146 201 C1146 202.65 1146 204.3 1146 206 C1144.68 206 1143.36 206 1142 206 C1142 207.32 1142 208.64 1142 210 C1140.35 210 1138.7 210 1137 210 C1137 211.32 1137 212.64 1137 214 C1134.36 214 1131.72 214 1129 214 C1129 215.32 1129 216.64 1129 218 C1127.35 218 1125.7 218 1124 218 C1124 219.65 1124 221.3 1124 223 C1122.68 223 1121.36 223 1120 223 C1120 224.32 1120 225.64 1120 227 C1118.68 227 1117.36 227 1116 227 C1116 228.32 1116 229.64 1116 231 C1113.03 231 1110.06 231 1107 231 C1107 232.65 1107 234.3 1107 236 C1105.68 236 1104.36 236 1103 236 C1103 237.32 1103 238.64 1103 240 C1101.68 240 1100.36 240 1099 240 C1099 241.32 1099 242.64 1099 244 C1096.03 244 1093.06 244 1090 244 C1090 245.65 1090 247.3 1090 249 C1088.68 249 1087.36 249 1086 249 C1086 250.32 1086 251.64 1086 253 C1084.35 253 1082.7 253 1081 253 C1081 254.32 1081 255.64 1081 257 C1079.68 257 1078.36 257 1077 257 C1077 258.32 1077 259.64 1077 261 C1074.03 261 1071.06 261 1068 261 C1068 262.65 1068 264.3 1068 266 C1066.68 266 1065.36 266 1064 266 C1064 267.32 1064 268.64 1064 270 C1062.68 270 1061.36 270 1060 270 C1060 271.32 1060 272.64 1060 274 C1057.03 274 1054.06 274 1051 274 C1051 275.65 1051 277.3 1051 279 C1049.68 279 1048.36 279 1047 279 C1047 280.32 1047 281.64 1047 283 C1045.68 283 1044.36 283 1043 283 C1043 284.32 1043 285.64 1043 287 C1041.35 287 1039.7 287 1038 287 C1038 288.65 1038 290.3 1038 292 C1035.36 292 1032.72 292 1030 292 C1030 293.32 1030 294.64 1030 296 C1028.35 296 1026.7 296 1025 296 C1025 297.32 1025 298.64 1025 300 C1023.68 300 1022.36 300 1021 300 C1021 301.32 1021 302.64 1021 304 C1018.36 304 1015.72 304 1013 304 C1013 305.65 1013 307.3 1013 309 C1011.35 309 1009.7 309 1008 309 C1008 310.32 1008 311.64 1008 313 C1006.68 313 1005.36 313 1004 313 C1004 314.32 1004 315.64 1004 317 C1002.68 317 1001.36 317 1000 317 C1000 318.65 1000 320.3 1000 322 C997.03 322 994.06 322 991 322 C991 323.32 991 324.64 991 326 C989.68 326 988.36 326 987 326 C987 327.32 987 328.64 987 330 C985.35 330 983.7 330 982 330 C982 331.65 982 333.3 982 335 C979.36 335 976.72 335 974 335 C974 336.32 974 337.64 974 339 C972.68 339 971.36 339 970 339 C970 340.32 970 341.64 970 343 C968.35 343 966.7 343 965 343 C965 344.32 965 345.64 965 347 C962.36 347 959.72 347 957 347 C957 348.65 957 350.3 957 352 C955.35 352 953.7 352 952 352 C952 353.32 952 354.64 952 356 C950.68 356 949.36 356 948 356 C948 357.32 948 358.64 948 360 C946.68 360 945.36 360 944 360 C944 361.65 944 363.3 944 365 C941.03 365 938.06 365 935 365 C935 366.32 935 367.64 935 369 C933.68 369 932.36 369 931 369 C931 370.32 931 371.64 931 373 C929.68 373 928.36 373 927 373 C927 374.32 927 375.64 927 377 C924.03 377 921.06 377 918 377 C918 378.65 918 380.3 918 382 C916.68 382 915.36 382 914 382 C914 383.32 914 384.64 914 386 C912.35 386 910.7 386 909 386 C909 387.32 909 388.64 909 390 C907.68 390 906.36 390 905 390 C905 391.65 905 393.3 905 395 C902.36 395 899.72 395 897 395 C897 396.32 897 397.64 897 399 C895.35 399 893.7 399 892 399 C892 400.32 892 401.64 892 403 C890.68 403 889.36 403 888 403 C888 404.65 888 406.3 888 408 C885.03 408 882.06 408 879 408 C879 409.32 879 410.64 879 412 C877.68 412 876.36 412 875 412 C875 413.32 875 414.64 875 416 C873.68 416 872.36 416 871 416 C871 417.32 871 418.64 871 420 C869.35 420 867.7 420 866 420 C866 421.65 866 423.3 866 425 C863.36 425 860.72 425 858 425 C858 426.32 858 427.64 858 429 C856.68 429 855.36 429 854 429 C854 430.32 854 431.64 854 433 C852.35 433 850.7 433 849 433 C849 434.65 849 436.3 849 438 C846.36 438 843.72 438 841 438 C841 439.32 841 440.64 841 442 C839.35 442 837.7 442 836 442 C836 443.32 836 444.64 836 446 C834.68 446 833.36 446 832 446 C832 447.65 832 449.3 832 451 C830.68 451 829.36 451 828 451 C828 452.32 828 453.64 828 455 C825.03 455 822.06 455 819 455 C819 456.32 819 457.64 819 459 C817.68 459 816.36 459 815 459 C815 460.32 815 461.64 815 463 C813.68 463 812.36 463 811 463 C811 464.65 811 466.3 811 468 C808.03 468 805.06 468 802 468 C802 469.32 802 470.64 802 472 C800.68 472 799.36 472 798 472 C798 473.32 798 474.64 798 476 C796.35 476 794.7 476 793 476 C793 477.65 793 479.3 793 481 C790.36 481 787.72 481 785 481 C785 482.32 785 483.64 785 485 C783.35 485 781.7 485 780 485 C780 486.32 780 487.64 780 489 C778.68 489 777.36 489 776 489 C776 490.65 776 492.3 776 494 C774.68 494 773.36 494 772 494 C772 495.32 772 496.64 772 498 C769.03 498 766.06 498 763 498 C763 499.32 763 500.64 763 502 C761.68 502 760.36 502 759 502 C759 503.32 759 504.64 759 506 C757.68 506 756.36 506 755 506 C755 507.65 755 509.3 755 511 C752.03 511 749.06 511 746 511 C746 512.32 746 513.64 746 515 C744.68 515 743.36 515 742 515 C742 516.32 742 517.64 742 519 C740.35 519 738.7 519 737 519 C737 520.65 737 522.3 737 524 C735.68 524 734.36 524 733 524 C733 525.32 733 526.64 733 528 C730.36 528 727.72 528 725 528 C725 529.32 725 530.64 725 532 C723.35 532 721.7 532 720 532 C720 533.65 720 535.3 720 537 C718.68 537 717.36 537 716 537 C716 538.32 716 539.64 716 541 C713.03 541 710.06 541 707 541 C707 542.32 707 543.64 707 545 C704.36 545 701.72 545 699 545 C699 546.32 699 547.64 699 549 C697.68 549 696.36 549 695 549 C695 547.68 695 546.36 695 545 C692.03 545 689.06 545 686 545 C686 543.68 686 542.36 686 541 C683.03 541 680.06 541 677 541 C677 539.68 677 538.36 677 537 C675.68 537 674.36 537 673 537 C673 535.35 673 533.7 673 532 C671.68 532 670.36 532 669 532 C669 530.68 669 529.36 669 528 C666.03 528 663.06 528 660 528 C660 526.68 660 525.36 660 524 C658.68 524 657.36 524 656 524 C656 522.35 656 520.7 656 519 C654.68 519 653.36 519 652 519 C652 517.68 652 516.36 652 515 C650.35 515 648.7 515 647 515 C647 513.68 647 512.36 647 511 C644.36 511 641.72 511 639 511 C639 509.35 639 507.7 639 506 C637.35 506 635.7 506 634 506 C634 504.68 634 503.36 634 502 C632.68 502 631.36 502 630 502 C630 500.68 630 499.36 630 498 C627.03 498 624.06 498 621 498 C621 496.68 621 495.36 621 494 C619.68 494 618.36 494 617 494 C617 492.35 617 490.7 617 489 C615.68 489 614.36 489 613 489 C613 487.68 613 486.36 613 485 C610.03 485 607.06 485 604 485 C604 483.68 604 482.36 604 481 C602.68 481 601.36 481 600 481 C600 479.35 600 477.7 600 476 C598.68 476 597.36 476 596 476 C596 474.68 596 473.36 596 472 C594.35 472 592.7 472 591 472 C591 470.68 591 469.36 591 468 C588.36 468 585.72 468 583 468 C583 466.35 583 464.7 583 463 C581.35 463 579.7 463 578 463 C578 461.68 578 460.36 578 459 C576.68 459 575.36 459 574 459 C574 457.68 574 456.36 574 455 C571.36 455 568.72 455 566 455 C566 453.68 566 452.36 566 451 C564.35 451 562.7 451 561 451 C561 449.35 561 447.7 561 446 C559.68 446 558.36 446 557 446 C557 444.68 557 443.36 557 442 C555.68 442 554.36 442 553 442 C553 440.68 553 439.36 553 438 C550.03 438 547.06 438 544 438 C544 436.35 544 434.7 544 433 C542.68 433 541.36 433 540 433 C540 431.68 540 430.36 540 429 C538.35 429 536.7 429 535 429 C535 427.68 535 426.36 535 425 C532.36 425 529.72 425 527 425 C527 423.35 527 421.7 527 420 C525.68 420 524.36 420 523 420 C523 418.68 523 417.36 523 416 C521.35 416 519.7 416 518 416 C518 414.68 518 413.36 518 412 C516.68 412 515.36 412 514 412 C514 410.68 514 409.36 514 408 C511.03 408 508.06 408 505 408 C505 406.35 505 404.7 505 403 C503.68 403 502.36 403 501 403 C501 401.68 501 400.36 501 399 C499.68 399 498.36 399 497 399 C497 397.68 497 396.36 497 395 C494.03 395 491.06 395 488 395 C488 393.35 488 391.7 488 390 C486.68 390 485.36 390 484 390 C484 388.68 484 387.36 484 386 C482.68 386 481.36 386 480 386 C480 384.68 480 383.36 480 382 C478.35 382 476.7 382 475 382 C475 380.35 475 378.7 475 377 C472.36 377 469.72 377 467 377 C467 375.68 467 374.36 467 373 C465.35 373 463.7 373 462 373 C462 371.68 462 370.36 462 369 C460.68 369 459.36 369 458 369 C458 367.68 458 366.36 458 365 C455.36 365 452.72 365 450 365 C450 363.35 450 361.7 450 360 C448.35 360 446.7 360 445 360 C445 358.68 445 357.36 445 356 C443.68 356 442.36 356 441 356 C441 354.68 441 353.36 441 352 C438.03 352 435.06 352 432 352 C432 350.35 432 348.7 432 347 C430.68 347 429.36 347 428 347 C428 345.68 428 344.36 428 343 C426.68 343 425.36 343 424 343 C424 341.68 424 340.36 424 339 C422.35 339 420.7 339 419 339 C419 337.68 419 336.36 419 335 C416.36 335 413.72 335 411 335 C411 333.35 411 331.7 411 330 C409.68 330 408.36 330 407 330 C407 328.68 407 327.36 407 326 C405.35 326 403.7 326 402 326 C402 324.68 402 323.36 402 322 C399.36 322 396.72 322 394 322 C394 320.35 394 318.7 394 317 C392.35 317 390.7 317 389 317 C389 315.68 389 314.36 389 313 C387.68 313 386.36 313 385 313 C385 311.68 385 310.36 385 309 C383.68 309 382.36 309 381 309 C381 307.35 381 305.7 381 304 C378.03 304 375.06 304 372 304 C372 302.68 372 301.36 372 300 C370.68 300 369.36 300 368 300 C368 298.68 368 297.36 368 296 C366.68 296 365.36 296 364 296 C364 294.68 364 293.36 364 292 C361.03 292 358.06 292 355 292 C355 290.35 355 288.7 355 287 C353.68 287 352.36 287 351 287 C351 285.68 351 284.36 351 283 C349.35 283 347.7 283 346 283 C346 281.68 346 280.36 346 279 C344.68 279 343.36 279 342 279 C342 277.35 342 275.7 342 274 C339.03 274 336.06 274 333 274 C333 272.68 333 271.36 333 270 C331.68 270 330.36 270 329 270 C329 268.68 329 267.36 329 266 C327.68 266 326.36 266 325 266 C325 264.35 325 262.7 325 261 C322.03 261 319.06 261 316 261 C316 259.68 316 258.36 316 257 C314.68 257 313.36 257 312 257 C312 255.68 312 254.36 312 253 C310.68 253 309.36 253 308 253 C308 251.68 308 250.36 308 249 C306.35 249 304.7 249 303 249 C303 247.35 303 245.7 303 244 C300.36 244 297.72 244 295 244 C295 242.68 295 241.36 295 240 C293.35 240 291.7 240 290 240 C290 238.68 290 237.36 290 236 C288.68 236 287.36 236 286 236 C286 234.35 286 232.7 286 231 C283.36 231 280.72 231 278 231 C278 229.68 278 228.36 278 227 C276.35 227 274.7 227 273 227 C273 225.68 273 224.36 273 223 C271.68 223 270.36 223 269 223 C269 221.35 269 219.7 269 218 C267.68 218 266.36 218 265 218 C265 216.68 265 215.36 265 214 C262.03 214 259.06 214 256 214 C256 212.68 256 211.36 256 210 C254.68 210 253.36 210 252 210 C252 208.68 252 207.36 252 206 C250.35 206 248.7 206 247 206 C247 204.35 247 202.7 247 201 C244.36 201 241.72 201 239 201 C239 199.68 239 198.36 239 197 C237.68 197 236.36 197 235 197 C235 195.68 235 194.36 235 193 C233.35 193 231.7 193 230 193 C230 191.35 230 189.7 230 188 C227.36 188 224.72 188 222 188 C222 186.68 222 185.36 222 184 C220.35 184 218.7 184 217 184 C217 182.68 217 181.36 217 180 C215.68 180 214.36 180 213 180 C213 178.35 213 176.7 213 175 C211.68 175 210.36 175 209 175 C209 173.68 209 172.36 209 171 C206.03 171 203.06 171 200 171 C200 169.68 200 168.36 200 167 C198.68 167 197.36 167 196 167 C196 165.68 196 164.36 196 163 C194.68 163 193.36 163 192 163 C192 161.35 192 159.7 192 158 C189.03 158 186.06 158 183 158 C183 156.68 183 155.36 183 154 C181.68 154 180.36 154 179 154 C179 152.68 179 151.36 179 150 C177.35 150 175.7 150 174 150 C174 148.35 174 146.7 174 145 C172.68 145 171.36 145 170 145 C170 143.68 170 142.36 170 141 C167.36 141 164.72 141 162 141 C162 139.68 162 138.36 162 137 C160.35 137 158.7 137 157 137 C157 135.35 157 133.7 157 132 C155.68 132 154.36 132 153 132 C153 130.68 153 129.36 153 128 C150.03 128 147.06 128 144 128 C144 126.68 144 125.36 144 124 C142.68 124 141.36 124 140 124 C140 122.68 140 121.36 140 120 C138.68 120 137.36 120 136 120 C136 118.35 136 116.7 136 115 C134.35 115 132.7 115 131 115 C131 113.68 131 112.36 131 111 C128.36 111 125.72 111 123 111 C123 109.68 123 108.36 123 107 C121.68 107 120.36 107 119 107 C119 105.35 119 103.7 119 102 C117.35 102 115.7 102 114 102 C114 100.68 114 99.36 114 98 C111.36 98 108.72 98 106 98 C106 96.68 106 95.36 106 94 C104.35 94 102.7 94 101 94 C101 92.68 101 91.36 101 90 C99.68 90 98.36 90 97 90 C97 88.35 97 86.7 97 85 C95.68 85 94.36 85 93 85 C93 83.68 93 82.36 93 81 C90.03 81 87.06 81 84 81 C84 79.68 84 78.36 84 77 C82.68 77 81.36 77 80 77 C80 75.35 80 73.7 80 72 C78.68 72 77.36 72 76 72 C76 70.68 76 69.36 76 68 C73.03 68 70.06 68 67 68 C67 66.68 67 65.36 67 64 C65.68 64 64.36 64 63 64 C63 62.35 63 60.7 63 59 C61.35 59 59.7 59 58 59 C58 57.68 58 56.36 58 55 C55.36 55 52.72 55 50 55 C50 53.68 50 52.36 50 51 C48.35 51 46.7 51 45 51 C45 49.68 45 48.36 45 47 C43.68 47 42.36 47 41 47 C41 45.35 41 43.7 41 42 C39.68 42 38.36 42 37 42 C37 40.68 37 39.36 37 38 C34.03 38 31.06 38 28 38 Z " fill="none" transform="translate(0,0)"/>
<path d="M0 0 C8.58 0 17.16 0 26 0 C26 1.32 26 2.64 26 4 C27.32 4 28.64 4 30 4 C30 2.68 30 1.36 30 0 C38.58 0 47.16 0 56 0 C56 1.32 56 2.64 56 4 C57.32 4 58.64 4 60 4 C60 5.32 60 6.64 60 8 C61.32 8 62.64 8 64 8 C64 12.29 64 16.58 64 21 C62.68 21 61.36 21 60 21 C60 22.65 60 24.3 60 26 C57.36 26 54.72 26 52 26 C52 27.32 52 28.64 52 30 C50.35 30 48.7 30 47 30 C47 32.97 47 35.94 47 39 C48.65 39 50.3 39 52 39 C52 47.25 52 55.5 52 64 C53.32 64 54.64 64 56 64 C56 71.26 56 78.52 56 86 C57.32 86 58.64 86 60 86 C60 87.32 60 88.64 60 90 C61.32 90 62.64 90 64 90 C64 81.42 64 72.84 64 64 C65.65 64 67.3 64 69 64 C69 54.1 69 44.2 69 34 C70.32 34 71.64 34 73 34 C73 25.42 73 16.84 73 8 C74.32 8 75.64 8 77 8 C77 5.36 77 2.72 77 0 C89.87 0 102.74 0 116 0 C116 1.32 116 2.64 116 4 C117.32 4 118.64 4 120 4 C120 9.61 120 15.22 120 21 C121.65 21 123.3 21 125 21 C125 30.9 125 40.8 125 51 C126.32 51 127.64 51 129 51 C129 59.58 129 68.16 129 77 C130.32 77 131.64 77 133 77 C133 82.61 133 88.22 133 94 C134.32 94 135.64 94 137 94 C137 87.07 137 80.14 137 73 C138.65 73 140.3 73 142 73 C142 65.74 142 58.48 142 51 C143.32 51 144.64 51 146 51 C146 42.75 146 34.5 146 26 C141.71 26 137.42 26 133 26 C133 18.74 133 11.48 133 4 C134.32 4 135.64 4 137 4 C137 2.68 137 1.36 137 0 C145.58 0 154.16 0 163 0 C163 1.32 163 2.64 163 4 C165.97 4 168.94 4 172 4 C172 2.68 172 1.36 172 0 C178.93 0 185.86 0 193 0 C193 1.32 193 2.64 193 4 C194.65 4 196.3 4 198 4 C198 5.32 198 6.64 198 8 C199.32 8 200.64 8 202 8 C202 12.29 202 16.58 202 21 C200.68 21 199.36 21 198 21 C198 22.65 198 24.3 198 26 C196.35 26 194.7 26 193 26 C193 27.32 193 28.64 193 30 C191.68 30 190.36 30 189 30 C189 28.68 189 27.36 189 26 C187.68 26 186.36 26 185 26 C185 27.32 185 28.64 185 30 C183.35 30 181.7 30 180 30 C180 32.97 180 35.94 180 39 C178.68 39 177.36 39 176 39 C176 44.61 176 50.22 176 56 C174.68 56 173.36 56 172 56 C172 62.93 172 69.86 172 77 C170.68 77 169.36 77 168 77 C168 82.61 168 88.22 168 94 C166.35 94 164.7 94 163 94 C163 101.26 163 108.52 163 116 C161.68 116 160.36 116 159 116 C159 120.29 159 124.58 159 129 C157.68 129 156.36 129 155 129 C155 130.32 155 131.64 155 133 C153.35 133 151.7 133 150 133 C150 134.32 150 135.64 150 137 C147.36 137 144.72 137 142 137 C142 135.68 142 134.36 142 133 C137.71 133 133.42 133 129 133 C129 134.32 129 135.64 129 137 C124.71 137 120.42 137 116 137 C116 135.68 116 134.36 116 133 C114.68 133 113.36 133 112 133 C112 128.71 112 124.42 112 120 C110.35 120 108.7 120 107 120 C107 111.42 107 102.84 107 94 C105.68 94 104.36 94 103 94 C103 85.75 103 77.5 103 69 C101.68 69 100.36 69 99 69 C99 63.06 99 57.12 99 51 C97.35 51 95.7 51 94 51 C94 61.23 94 71.46 94 82 C92.68 82 91.36 82 90 82 C90 90.25 90 98.5 90 107 C88.68 107 87.36 107 86 107 C86 114.26 86 121.52 86 129 C84.68 129 83.36 129 82 129 C82 130.32 82 131.64 82 133 C80.35 133 78.7 133 77 133 C77 134.32 77 135.64 77 137 C74.36 137 71.72 137 69 137 C69 135.68 69 134.36 69 133 C64.71 133 60.42 133 56 133 C56 134.32 56 135.64 56 137 C53.03 137 50.06 137 47 137 C47 135.68 47 134.36 47 133 C44.36 133 41.72 133 39 133 C39 130.36 39 127.72 39 125 C37.35 125 35.7 125 34 125 C34 119.06 34 113.12 34 107 C32.68 107 31.36 107 30 107 C30 100.07 30 93.14 30 86 C28.68 86 27.36 86 26 86 C26 80.39 26 74.78 26 69 C24.35 69 22.7 69 21 69 C21 61.74 21 54.48 21 47 C19.68 47 18.36 47 17 47 C17 41.39 17 35.78 17 30 C15.68 30 14.36 30 13 30 C13 28.68 13 27.36 13 26 C11.68 26 10.36 26 9 26 C9 27.32 9 28.64 9 30 C6.03 30 3.06 30 0 30 C0 28.68 0 27.36 0 26 C-1.32 26 -2.64 26 -4 26 C-4 23.03 -4 20.06 -4 17 C-5.65 17 -7.3 17 -9 17 C-9 15.68 -9 14.36 -9 13 C-7.35 13 -5.7 13 -4 13 C-4 10.03 -4 7.06 -4 4 C-2.68 4 -1.36 4 0 4 C0 2.68 0 1.36 0 0 Z " fill="none" transform="translate(643,657)"/>
<path d="M0 0 C8.58 0 17.16 0 26 0 C26 1.32 26 2.64 26 4 C27.32 4 28.64 4 30 4 C30 2.68 30 1.36 30 0 C38.58 0 47.16 0 56 0 C56 1.32 56 2.64 56 4 C57.32 4 58.64 4 60 4 C60 6.97 60 9.94 60 13 C61.32 13 62.64 13 64 13 C64 15.64 64 18.28 64 21 C62.68 21 61.36 21 60 21 C60 22.65 60 24.3 60 26 C57.36 26 54.72 26 52 26 C52 27.32 52 28.64 52 30 C50.35 30 48.7 30 47 30 C47 34.29 47 38.58 47 43 C48.65 43 50.3 43 52 43 C52 49.93 52 56.86 52 64 C53.32 64 54.64 64 56 64 C56 71.26 56 78.52 56 86 C57.32 86 58.64 86 60 86 C60 87.32 60 88.64 60 90 C61.32 90 62.64 90 64 90 C64 80.1 64 70.2 64 60 C65.65 60 67.3 60 69 60 C69 51.42 69 42.84 69 34 C70.32 34 71.64 34 73 34 C73 25.42 73 16.84 73 8 C74.32 8 75.64 8 77 8 C77 5.36 77 2.72 77 0 C89.87 0 102.74 0 116 0 C116 1.32 116 2.64 116 4 C117.32 4 118.64 4 120 4 C120 11.26 120 18.52 120 26 C121.65 26 123.3 26 125 26 C125 34.25 125 42.5 125 51 C126.32 51 127.64 51 129 51 C129 61.23 129 71.46 129 82 C130.32 82 131.64 82 133 82 C133 85.96 133 89.92 133 94 C134.65 94 136.3 94 138 94 C138 85.75 138 77.5 138 69 C139.32 69 140.64 69 142 69 C142 61.74 142 54.48 142 47 C143.32 47 144.64 47 146 47 C146 40.07 146 33.14 146 26 C141.71 26 137.42 26 133 26 C133 18.74 133 11.48 133 4 C134.65 4 136.3 4 138 4 C138 2.68 138 1.36 138 0 C146.25 0 154.5 0 163 0 C163 1.32 163 2.64 163 4 C165.97 4 168.94 4 172 4 C172 2.68 172 1.36 172 0 C178.93 0 185.86 0 193 0 C193 1.32 193 2.64 193 4 C194.65 4 196.3 4 198 4 C198 5.32 198 6.64 198 8 C199.32 8 200.64 8 202 8 C202 12.29 202 16.58 202 21 C200.68 21 199.36 21 198 21 C198 22.65 198 24.3 198 26 C196.35 26 194.7 26 193 26 C193 27.32 193 28.64 193 30 C188.71 30 184.42 30 180 30 C180 32.97 180 35.94 180 39 C178.68 39 177.36 39 176 39 C176 44.61 176 50.22 176 56 C174.68 56 173.36 56 172 56 C172 61.61 172 67.22 172 73 C170.68 73 169.36 73 168 73 C168 79.93 168 86.86 168 94 C166.35 94 164.7 94 163 94 C163 99.94 163 105.88 163 112 C161.68 112 160.36 112 159 112 C159 117.61 159 123.22 159 129 C157.68 129 156.36 129 155 129 C155 130.32 155 131.64 155 133 C153.35 133 151.7 133 150 133 C150 134.32 150 135.64 150 137 C147.36 137 144.72 137 142 137 C142 135.68 142 134.36 142 133 C136.39 133 130.78 133 125 133 C125 134.32 125 135.64 125 137 C122.03 137 119.06 137 116 137 C116 135.68 116 134.36 116 133 C114.68 133 113.36 133 112 133 C112 128.71 112 124.42 112 120 C110.35 120 108.7 120 107 120 C107 113.07 107 106.14 107 99 C105.68 99 104.36 99 103 99 C103 89.1 103 79.2 103 69 C101.68 69 100.36 69 99 69 C99 63.06 99 57.12 99 51 C97.68 51 96.36 51 95 51 C95 59.58 95 68.16 95 77 C93.35 77 91.7 77 90 77 C90 86.9 90 96.8 90 107 C88.68 107 87.36 107 86 107 C86 112.94 86 118.88 86 125 C84.68 125 83.36 125 82 125 C82 127.64 82 130.28 82 133 C80.35 133 78.7 133 77 133 C77 134.32 77 135.64 77 137 C74.36 137 71.72 137 69 137 C69 135.68 69 134.36 69 133 C64.71 133 60.42 133 56 133 C56 134.32 56 135.64 56 137 C53.03 137 50.06 137 47 137 C47 135.68 47 134.36 47 133 C44.36 133 41.72 133 39 133 C39 130.36 39 127.72 39 125 C37.35 125 35.7 125 34 125 C34 119.06 34 113.12 34 107 C32.68 107 31.36 107 30 107 C30 101.39 30 95.78 30 90 C28.68 90 27.36 90 26 90 C26 83.07 26 76.14 26 69 C24.35 69 22.7 69 21 69 C21 63.06 21 57.12 21 51 C19.68 51 18.36 51 17 51 C17 44.07 17 37.14 17 30 C15.68 30 14.36 30 13 30 C13 28.68 13 27.36 13 26 C11.68 26 10.36 26 9 26 C9 27.32 9 28.64 9 30 C6.03 30 3.06 30 0 30 C0 28.68 0 27.36 0 26 C-1.32 26 -2.64 26 -4 26 C-4 23.03 -4 20.06 -4 17 C-5.65 17 -7.3 17 -9 17 C-9 15.68 -9 14.36 -9 13 C-7.35 13 -5.7 13 -4 13 C-4 10.03 -4 7.06 -4 4 C-2.68 4 -1.36 4 0 4 C0 2.68 0 1.36 0 0 Z " fill="none" transform="translate(67,657)"/>
<path d="M0 0 C8.58 0 17.16 0 26 0 C26 1.32 26 2.64 26 4 C28.64 4 31.28 4 34 4 C34 2.68 34 1.36 34 0 C43.9 0 53.8 0 64 0 C64 1.32 64 2.64 64 4 C65.65 4 67.3 4 69 4 C69 6.97 69 9.94 69 13 C70.32 13 71.64 13 73 13 C73 17.29 73 21.58 73 26 C74.32 26 75.64 26 77 26 C77 28.64 77 31.28 77 34 C78.65 34 80.3 34 82 34 C82 38.29 82 42.58 82 47 C83.32 47 84.64 47 86 47 C86 49.97 86 52.94 86 56 C87.32 56 88.64 56 90 56 C90 58.64 90 61.28 90 64 C91.65 64 93.3 64 95 64 C95 68.29 95 72.58 95 77 C96.32 77 97.64 77 99 77 C99 79.97 99 82.94 99 86 C100.32 86 101.64 86 103 86 C103 88.64 103 91.28 103 94 C104.32 94 105.64 94 107 94 C107 74.2 107 54.4 107 34 C105.68 34 104.36 34 103 34 C103 32.68 103 31.36 103 30 C98.71 30 94.42 30 90 30 C90 28.68 90 27.36 90 26 C88.68 26 87.36 26 86 26 C86 24.35 86 22.7 86 21 C84.68 21 83.36 21 82 21 C82 16.71 82 12.42 82 8 C83.32 8 84.64 8 86 8 C86 6.68 86 5.36 86 4 C87.32 4 88.64 4 90 4 C90 2.68 90 1.36 90 0 C98.58 0 107.16 0 116 0 C116 1.32 116 2.64 116 4 C118.97 4 121.94 4 125 4 C125 2.68 125 1.36 125 0 C134.9 0 144.8 0 155 0 C155 1.32 155 2.64 155 4 C156.32 4 157.64 4 159 4 C159 5.32 159 6.64 159 8 C160.32 8 161.64 8 163 8 C163 10.97 163 13.94 163 17 C161.68 17 160.36 17 159 17 C159 19.97 159 22.94 159 26 C157.68 26 156.36 26 155 26 C155 27.32 155 28.64 155 30 C152.03 30 149.06 30 146 30 C146 28.68 146 27.36 146 26 C144.68 26 143.36 26 142 26 C142 27.32 142 28.64 142 30 C140.68 30 139.36 30 138 30 C138 61.35 138 92.7 138 125 C136.35 125 134.7 125 133 125 C133 127.64 133 130.28 133 133 C130.36 133 127.72 133 125 133 C125 134.32 125 135.64 125 137 C116.42 137 107.84 137 99 137 C99 135.68 99 134.36 99 133 C96.03 133 93.06 133 90 133 C90 131.68 90 130.36 90 129 C88.68 129 87.36 129 86 129 C86 126.03 86 123.06 86 120 C84.68 120 83.36 120 82 120 C82 117.36 82 114.72 82 112 C80.35 112 78.7 112 77 112 C77 109.03 77 106.06 77 103 C75.68 103 74.36 103 73 103 C73 98.71 73 94.42 73 90 C71.68 90 70.36 90 69 90 C69 87.36 69 84.72 69 82 C67.35 82 65.7 82 64 82 C64 79.03 64 76.06 64 73 C62.68 73 61.36 73 60 73 C60 70.03 60 67.06 60 64 C58.68 64 57.36 64 56 64 C56 59.71 56 55.42 56 51 C54.68 51 53.36 51 52 51 C52 48.36 52 45.72 52 43 C50.35 43 48.7 43 47 43 C47 64.12 47 85.24 47 107 C52.61 107 58.22 107 64 107 C64 108.65 64 110.3 64 112 C65.65 112 67.3 112 69 112 C69 118.93 69 125.86 69 133 C67.35 133 65.7 133 64 133 C64 134.32 64 135.64 64 137 C55.75 137 47.5 137 39 137 C39 135.68 39 134.36 39 133 C33.06 133 27.12 133 21 133 C21 134.32 21 135.64 21 137 C14.07 137 7.14 137 0 137 C0 135.68 0 134.36 0 133 C-2.97 133 -5.94 133 -9 133 C-9 126.07 -9 119.14 -9 112 C-6.03 112 -3.06 112 0 112 C0 110.35 0 108.7 0 107 C4.29 107 8.58 107 13 107 C13 105.68 13 104.36 13 103 C14.32 103 15.64 103 17 103 C17 78.91 17 54.82 17 30 C15.68 30 14.36 30 13 30 C13 28.68 13 27.36 13 26 C11.68 26 10.36 26 9 26 C9 27.32 9 28.64 9 30 C6.03 30 3.06 30 0 30 C0 28.68 0 27.36 0 26 C-2.97 26 -5.94 26 -9 26 C-9 18.74 -9 11.48 -9 4 C-6.03 4 -3.06 4 0 4 C0 2.68 0 1.36 0 0 Z " fill="none" transform="translate(1004,657)"/>
<path d="M0 0 C9.9 0 19.8 0 30 0 C30 1.32 30 2.64 30 4 C32.97 4 35.94 4 39 4 C39 2.68 39 1.36 39 0 C48.9 0 58.8 0 69 0 C69 1.32 69 2.64 69 4 C70.32 4 71.64 4 73 4 C73 8.29 73 12.58 73 17 C74.32 17 75.64 17 77 17 C77 19.97 77 22.94 77 26 C78.65 26 80.3 26 82 26 C82 28.64 82 31.28 82 34 C83.32 34 84.64 34 86 34 C86 38.29 86 42.58 86 47 C87.32 47 88.64 47 90 47 C90 49.97 90 52.94 90 56 C91.32 56 92.64 56 94 56 C94 60.29 94 64.58 94 69 C95.65 69 97.3 69 99 69 C99 71.64 99 74.28 99 77 C100.32 77 101.64 77 103 77 C103 81.29 103 85.58 103 90 C105.97 90 108.94 90 112 90 C112 84.39 112 78.78 112 73 C110.35 73 108.7 73 107 73 C107 71.68 107 70.36 107 69 C108.65 69 110.3 69 112 69 C112 60.42 112 51.84 112 43 C110.35 43 108.7 43 107 43 C107 38.71 107 34.42 107 30 C102.71 30 98.42 30 94 30 C94 28.68 94 27.36 94 26 C92.68 26 91.36 26 90 26 C90 24.35 90 22.7 90 21 C88.68 21 87.36 21 86 21 C86 16.71 86 12.42 86 8 C87.32 8 88.64 8 90 8 C90 6.68 90 5.36 90 4 C91.32 4 92.64 4 94 4 C94 2.68 94 1.36 94 0 C102.58 0 111.16 0 120 0 C120 1.32 120 2.64 120 4 C122.97 4 125.94 4 129 4 C129 2.68 129 1.36 129 0 C138.9 0 148.8 0 159 0 C159 1.32 159 2.64 159 4 C160.32 4 161.64 4 163 4 C163 6.97 163 9.94 163 13 C164.65 13 166.3 13 168 13 C168 14.32 168 15.64 168 17 C166.35 17 164.7 17 163 17 C163 19.97 163 22.94 163 26 C160.36 26 157.72 26 155 26 C155 27.32 155 28.64 155 30 C153.35 30 151.7 30 150 30 C150 28.68 150 27.36 150 26 C148.68 26 147.36 26 146 26 C146 27.32 146 28.64 146 30 C144.68 30 143.36 30 142 30 C142 59.7 142 89.4 142 120 C140.35 120 138.7 120 137 120 C137 124.29 137 128.58 137 133 C134.36 133 131.72 133 129 133 C129 134.32 129 135.64 129 137 C120.42 137 111.84 137 103 137 C103 135.68 103 134.36 103 133 C100.03 133 97.06 133 94 133 C94 131.68 94 130.36 94 129 C92.68 129 91.36 129 90 129 C90 127.68 90 126.36 90 125 C88.68 125 87.36 125 86 125 C86 120.71 86 116.42 86 112 C84.68 112 83.36 112 82 112 C82 109.03 82 106.06 82 103 C80.35 103 78.7 103 77 103 C77 100.03 77 97.06 77 94 C75.68 94 74.36 94 73 94 C73 90.04 73 86.08 73 82 C71.68 82 70.36 82 69 82 C69 79.03 69 76.06 69 73 C67.35 73 65.7 73 64 73 C64 70.03 64 67.06 64 64 C62.68 64 61.36 64 60 64 C60 61.36 60 58.72 60 56 C58.68 56 57.36 56 56 56 C56 51.71 56 47.42 56 43 C54.35 43 52.7 43 51 43 C51 64.12 51 85.24 51 107 C55.29 107 59.58 107 64 107 C64 108.65 64 110.3 64 112 C66.97 112 69.94 112 73 112 C73 118.93 73 125.86 73 133 C70.03 133 67.06 133 64 133 C64 134.32 64 135.64 64 137 C57.07 137 50.14 137 43 137 C43 135.68 43 134.36 43 133 C37.39 133 31.78 133 26 133 C26 134.32 26 135.64 26 137 C17.42 137 8.84 137 0 137 C0 135.68 0 134.36 0 133 C-1.32 133 -2.64 133 -4 133 C-4 126.07 -4 119.14 -4 112 C-1.36 112 1.28 112 4 112 C4 110.35 4 108.7 4 107 C8.29 107 12.58 107 17 107 C17 104.36 17 101.72 17 99 C18.32 99 19.64 99 21 99 C21 77.55 21 56.1 21 34 C19.68 34 18.36 34 17 34 C17 32.68 17 31.36 17 30 C12.71 30 8.42 30 4 30 C4 28.68 4 27.36 4 26 C1.36 26 -1.28 26 -4 26 C-4 18.74 -4 11.48 -4 4 C-2.68 4 -1.36 4 0 4 C0 2.68 0 1.36 0 0 Z " fill="none" transform="translate(1176,657)"/>
<path d="M0 0 C21.12 0 42.24 0 64 0 C64 1.32 64 2.64 64 4 C65.32 4 66.64 4 68 4 C68 6.97 68 9.94 68 13 C69.65 13 71.3 13 73 13 C73 18.61 73 24.22 73 30 C74.32 30 75.64 30 77 30 C77 37.26 77 44.52 77 52 C78.32 52 79.64 52 81 52 C81 57.61 81 63.22 81 69 C82.65 69 84.3 69 86 69 C86 66.03 86 63.06 86 60 C87.32 60 88.64 60 90 60 C90 54.39 90 48.78 90 43 C91.32 43 92.64 43 94 43 C94 37.39 94 31.78 94 26 C95.65 26 97.3 26 99 26 C99 21.71 99 17.42 99 13 C100.32 13 101.64 13 103 13 C103 10.03 103 7.06 103 4 C104.32 4 105.64 4 107 4 C107 2.68 107 1.36 107 0 C128.45 0 149.9 0 172 0 C172 1.32 172 2.64 172 4 C173.32 4 174.64 4 176 4 C176 9.61 176 15.22 176 21 C173.03 21 170.06 21 167 21 C167 22.65 167 24.3 167 26 C162.71 26 158.42 26 154 26 C154 48.77 154 71.54 154 95 C159.94 95 165.88 95 172 95 C172 96.32 172 97.64 172 99 C173.32 99 174.64 99 176 99 C176.02684679 101.64590014 176.04676357 104.29153096 176.0625 106.9375 C176.07087891 107.69224609 176.07925781 108.44699219 176.08789062 109.22460938 C176.09652441 111.14994313 176.05224333 113.07535581 176 115 C175 116 175 116 173.15234375 116.09765625 C171.1015625 116.06510417 169.05078125 116.03255208 167 116 C167 117.32 167 118.64 167 120 C150.17 120 133.34 120 116 120 C116 118.68 116 117.36 116 116 C114.35 116 112.7 116 111 116 C111 110.39 111 104.78 111 99 C112.65 99 114.3 99 116 99 C116 97.68 116 96.36 116 95 C118.64 95 121.28 95 124 95 C124 73.55 124 52.1 124 30 C122.68 30 121.36 30 120 30 C120 34.29 120 38.58 120 43 C118.68 43 117.36 43 116 43 C116 47.29 116 51.58 116 56 C114.35 56 112.7 56 111 56 C111 61.61 111 67.22 111 73 C109.68 73 108.36 73 107 73 C107 78.61 107 84.22 107 90 C105.68 90 104.36 90 103 90 C103 94.29 103 98.58 103 103 C101.68 103 100.36 103 99 103 C99 105.97 99 108.94 99 112 C97.35 112 95.7 112 94 112 C94 113.32 94 114.64 94 116 C92.68 116 91.36 116 90 116 C90 117.32 90 118.64 90 120 C85.71 120 81.42 120 77 120 C77 118.68 77 117.36 77 116 C75.68 116 74.36 116 73 116 C73 114.68 73 113.36 73 112 C71.35 112 69.7 112 68 112 C68 109.03 68 106.06 68 103 C66.68 103 65.36 103 64 103 C64 97.39 64 91.78 64 86 C62.68 86 61.36 86 60 86 C60 80.39 60 74.78 60 69 C58.68 69 57.36 69 56 69 C56 64.71 56 60.42 56 56 C54.35 56 52.7 56 51 56 C51 50.39 51 44.78 51 39 C49.68 39 48.36 39 47 39 C47 36.03 47 33.06 47 30 C45.68 30 44.36 30 43 30 C43 48.48 43 66.96 43 86 C44.32 86 45.64 86 47 86 C47 88.97 47 91.94 47 95 C48.32 95 49.64 95 51 95 C51 96.32 51 97.64 51 99 C52.65 99 54.3 99 56 99 C56 100.32 56 101.64 56 103 C57.32 103 58.64 103 60 103 C60 105.97 60 108.94 60 112 C58.68 112 57.36 112 56 112 C56 113.32 56 114.64 56 116 C54.35 116 52.7 116 51 116 C51 117.32 51 118.64 51 120 C34.17 120 17.34 120 0 120 C0 118.68 0 117.36 0 116 C-1.65 116 -3.3 116 -5 116 C-5 114.68 -5 113.36 -5 112 C-6.32 112 -7.64 112 -9 112 C-9 109.03 -9 106.06 -9 103 C-7.68 103 -6.36 103 -5 103 C-5 101.68 -5 100.36 -5 99 C-3.35 99 -1.7 99 0 99 C0 97.68 0 96.36 0 95 C4.29 95 8.58 95 13 95 C13 92.03 13 89.06 13 86 C14.32 86 15.64 86 17 86 C17 67.52 17 49.04 17 30 C15.68 30 14.36 30 13 30 C13 28.68 13 27.36 13 26 C8.71 26 4.42 26 0 26 C0 24.35 0 22.7 0 21 C-1.65 21 -3.3 21 -5 21 C-5 19.68 -5 18.36 -5 17 C-6.32 17 -7.64 17 -9 17 C-9 14.36 -9 11.72 -9 9 C-7.68 9 -6.36 9 -5 9 C-5 7.35 -5 5.7 -5 4 C-3.35 4 -1.7 4 0 4 C0 2.68 0 1.36 0 0 Z " fill="none" transform="translate(773,152)"/>
<path d="M0 0 C1.32 0 2.64 0 4 0 C4 1.32 4 2.64 4 4 C12.58 4 21.16 4 30 4 C30 5.32 30 6.64 30 8 C32.97 8 35.94 8 39 8 C39 9.32 39 10.64 39 12 C41.64 12 44.28 12 47 12 C47 13.65 47 15.3 47 17 C48.65 17 50.3 17 52 17 C52 18.32 52 19.64 52 21 C53.32 21 54.64 21 56 21 C56 23.97 56 26.94 56 30 C57.32 30 58.64 30 60 30 C60 32.64 60 35.28 60 38 C61.65 38 63.3 38 65 38 C65 42.29 65 46.58 65 51 C66.32 51 67.64 51 69 51 C69 63.87 69 76.74 69 90 C67.68 90 66.36 90 65 90 C65 95.61 65 101.22 65 107 C63.35 107 61.7 107 60 107 C60 109.97 60 112.94 60 116 C58.68 116 57.36 116 56 116 C56 117.32 56 118.64 56 120 C54.68 120 53.36 120 52 120 C52 122.97 52 125.94 52 129 C49.03 129 46.06 129 43 129 C43 130.32 43 131.64 43 133 C41.68 133 40.36 133 39 133 C39 134.32 39 135.64 39 137 C36.03 137 33.06 137 30 137 C30 138.32 30 139.64 30 141 C14.49 141 -1.02 141 -17 141 C-17 139.68 -17 138.36 -17 137 C-21.29 137 -25.58 137 -30 137 C-30 135.68 -30 134.36 -30 133 C-31.32 133 -32.64 133 -34 133 C-34 131.68 -34 130.36 -34 129 C-35.65 129 -37.3 129 -39 129 C-39 127.35 -39 125.7 -39 124 C-40.32 124 -41.64 124 -43 124 C-43 122.68 -43 121.36 -43 120 C-44.32 120 -45.64 120 -47 120 C-47 118.68 -47 117.36 -47 116 C-48.32 116 -49.64 116 -51 116 C-51 111.71 -51 107.42 -51 103 C-52.65 103 -54.3 103 -56 103 C-56 95.74 -56 88.48 -56 81 C-57.32 81 -58.64 81 -60 81 C-60 74.07 -60 67.14 -60 60 C-58.68 60 -57.36 60 -56 60 C-56 54.39 -56 48.78 -56 43 C-54.35 43 -52.7 43 -51 43 C-51 38.71 -51 34.42 -51 30 C-49.68 30 -48.36 30 -47 30 C-47 28.35 -47 26.7 -47 25 C-45.68 25 -44.36 25 -43 25 C-43 23.68 -43 22.36 -43 21 C-41.68 21 -40.36 21 -39 21 C-39 19.68 -39 18.36 -39 17 C-37.35 17 -35.7 17 -34 17 C-34 15.35 -34 13.7 -34 12 C-32.68 12 -31.36 12 -30 12 C-30 10.68 -30 9.36 -30 8 C-27.03 8 -24.06 8 -21 8 C-21 6.68 -21 5.36 -21 4 C-14.07 4 -7.14 4 0 4 C0 2.68 0 1.36 0 0 Z " fill="none" transform="translate(329,653)"/>
<path d="M0 0 C15.51 0 31.02 0 47 0 C47 1.32 47 2.64 47 4 C48.32 4 49.64 4 51 4 C51 5.65 51 7.3 51 9 C52.32 9 53.64 9 55 9 C55 11.64 55 14.28 55 17 C53.68 17 52.36 17 51 17 C51 18.32 51 19.64 51 21 C49.68 21 48.36 21 47 21 C47 22.65 47 24.3 47 26 C45.68 26 44.36 26 43 26 C43 34.58 43 43.16 43 52 C44.32 52 45.64 52 47 52 C47 58.93 47 65.86 47 73 C48.32 73 49.64 73 51 73 C51 74.32 51 75.64 51 77 C52.32 77 53.64 77 55 77 C55 68.75 55 60.5 55 52 C56.65 52 58.3 52 60 52 C60 41.77 60 31.54 60 21 C61.32 21 62.64 21 64 21 C64 15.39 64 9.78 64 4 C65.32 4 66.64 4 68 4 C68 2.68 68 1.36 68 0 C79.55 0 91.1 0 103 0 C103 4.29 103 8.58 103 13 C104.32 13 105.64 13 107 13 C107 21.58 107 30.16 107 39 C108.32 39 109.64 39 111 39 C111 47.25 111 55.5 111 64 C112.65 64 114.3 64 116 64 C116 69.94 116 75.88 116 82 C117.32 82 118.64 82 120 82 C120 74.74 120 67.48 120 60 C121.32 60 122.64 60 124 60 C124 53.07 124 46.14 124 39 C125.65 39 127.3 39 129 39 C129 34.71 129 30.42 129 26 C126.03 26 123.06 26 120 26 C120 24.35 120 22.7 120 21 C118.68 21 117.36 21 116 21 C116 15.39 116 9.78 116 4 C117.32 4 118.64 4 120 4 C120 2.68 120 1.36 120 0 C137.16 0 154.32 0 172 0 C172 1.32 172 2.64 172 4 C173.32 4 174.64 4 176 4 C176 9.61 176 15.22 176 21 C174.68 21 173.36 21 172 21 C172 22.65 172 24.3 172 26 C167.71 26 163.42 26 159 26 C159 27.32 159 28.64 159 30 C157.35 30 155.7 30 154 30 C154 35.61 154 41.22 154 47 C152.68 47 151.36 47 150 47 C150 54.26 150 61.52 150 69 C148.68 69 147.36 69 146 69 C146 74.61 146 80.22 146 86 C144.35 86 142.7 86 141 86 C141 91.61 141 97.22 141 103 C139.68 103 138.36 103 137 103 C137 107.29 137 111.58 137 116 C135.68 116 134.36 116 133 116 C133 117.32 133 118.64 133 120 C123.1 120 113.2 120 103 120 C103 118.68 103 117.36 103 116 C101.35 116 99.7 116 98 116 C98 114.68 98 113.36 98 112 C96.68 112 95.36 112 94 112 C94 104.74 94 97.48 94 90 C92.68 90 91.36 90 90 90 C90 81.42 90 72.84 90 64 C88.68 64 87.36 64 86 64 C86 58.39 86 52.78 86 47 C84.35 47 82.7 47 81 47 C81 55.58 81 64.16 81 73 C79.68 73 78.36 73 77 73 C77 81.58 77 90.16 77 99 C75.68 99 74.36 99 73 99 C73 104.61 73 110.22 73 116 C71.35 116 69.7 116 68 116 C68 117.32 68 118.64 68 120 C56.78 120 45.56 120 34 120 C34 117.36 34 114.72 34 112 C32.68 112 31.36 112 30 112 C30 107.71 30 103.42 30 99 C28.35 99 26.7 99 25 99 C25 91.74 25 84.48 25 77 C23.68 77 22.36 77 21 77 C21 71.39 21 65.78 21 60 C19.68 60 18.36 60 17 60 C17 53.07 17 46.14 17 39 C15.35 39 13.7 39 12 39 C12 34.71 12 30.42 12 26 C8.04 26 4.08 26 0 26 C0 24.35 0 22.7 0 21 C-1.65 21 -3.3 21 -5 21 C-5 19.68 -5 18.36 -5 17 C-6.32 17 -7.64 17 -9 17 C-9 14.36 -9 11.72 -9 9 C-7.68 9 -6.36 9 -5 9 C-5 7.35 -5 5.7 -5 4 C-3.35 4 -1.7 4 0 4 C0 2.68 0 1.36 0 0 Z " fill="none" transform="translate(455,152)"/>
<path d="M0 0 C14.19 0 28.38 0 43 0 C43 1.32 43 2.64 43 4 C44.65 4 46.3 4 48 4 C48 6.97 48 9.94 48 13 C49.32 13 50.64 13 52 13 C52 17.29 52 21.58 52 26 C53.32 26 54.64 26 56 26 C56 30.29 56 34.58 56 39 C57.32 39 58.64 39 60 39 C60 44.61 60 50.22 60 56 C61.65 56 63.3 56 65 56 C65 60.29 65 64.58 65 69 C66.32 69 67.64 69 69 69 C69 73.29 69 77.58 69 82 C70.32 82 71.64 82 73 82 C73 87.61 73 93.22 73 99 C74.65 99 76.3 99 78 99 C78 101.64 78 104.28 78 107 C81.96 107 85.92 107 90 107 C90 108.65 90 110.3 90 112 C92.97 112 95.94 112 99 112 C99 118.93 99 125.86 99 133 C96.03 133 93.06 133 90 133 C90 134.32 90 135.64 90 137 C84.39 137 78.78 137 73 137 C73 135.68 73 134.36 73 133 C64.75 133 56.5 133 48 133 C48 134.32 48 135.64 48 137 C42.06 137 36.12 137 30 137 C30 135.68 30 134.36 30 133 C28.68 133 27.36 133 26 133 C26 126.07 26 119.14 26 112 C30.29 112 34.58 112 39 112 C39 106.06 39 100.12 39 94 C26.13 94 13.26 94 0 94 C0 95.65 0 97.3 0 99 C-1.32 99 -2.64 99 -4 99 C-4 103.29 -4 107.58 -4 112 C0.29 112 4.58 112 9 112 C9 113.32 9 114.64 9 116 C10.32 116 11.64 116 13 116 C13 120.29 13 124.58 13 129 C11.68 129 10.36 129 9 129 C9 130.32 9 131.64 9 133 C7.68 133 6.36 133 5 133 C5 134.32 5 135.64 5 137 C-0.94 137 -6.88 137 -13 137 C-13 135.68 -13 134.36 -13 133 C-21.25 133 -29.5 133 -38 133 C-38 134.32 -38 135.64 -38 137 C-43.94 137 -49.88 137 -56 137 C-56 135.68 -56 134.36 -56 133 C-57.32 133 -58.64 133 -60 133 C-60 131.68 -60 130.36 -60 129 C-61.32 129 -62.64 129 -64 129 C-64 124.71 -64 120.42 -64 116 C-62.68 116 -61.36 116 -60 116 C-60 114.68 -60 113.36 -60 112 C-58.68 112 -57.36 112 -56 112 C-56 110.35 -56 108.7 -56 107 C-50.06 107 -44.12 107 -38 107 C-38 102.71 -38 98.42 -38 94 C-36.68 94 -35.36 94 -34 94 C-34 91.36 -34 88.72 -34 86 C-32.68 86 -31.36 86 -30 86 C-30 81.71 -30 77.42 -30 73 C-28.68 73 -27.36 73 -26 73 C-26 68.71 -26 64.42 -26 60 C-24.35 60 -22.7 60 -21 60 C-21 55.71 -21 51.42 -21 47 C-19.68 47 -18.36 47 -17 47 C-17 42.71 -17 38.42 -17 34 C-15.68 34 -14.36 34 -13 34 C-13 29.71 -13 25.42 -13 21 C-11.35 21 -9.7 21 -8 21 C-8 18.36 -8 15.72 -8 13 C-6.68 13 -5.36 13 -4 13 C-4 10.03 -4 7.06 -4 4 C-2.68 4 -1.36 4 0 4 C0 2.68 0 1.36 0 0 Z " fill="none" transform="translate(892,657)"/>
<path d="M0 0 C35.64 0 71.28 0 108 0 C108 1.32 108 2.64 108 4 C109.32 4 110.64 4 112 4 C112 18.19 112 32.38 112 47 C110.68 47 109.36 47 108 47 C108 48.65 108 50.3 108 52 C102.39 52 96.78 52 91 52 C91 50.35 91 48.7 91 47 C89.35 47 87.7 47 86 47 C86 38.42 86 29.84 86 21 C74.78 21 63.56 21 52 21 C52 22.65 52 24.3 52 26 C50.68 26 49.36 26 48 26 C48 31.61 48 37.22 48 43 C49.32 43 50.64 43 52 43 C52 44.32 52 45.64 52 47 C53.32 47 54.64 47 56 47 C56 45.68 56 44.36 56 43 C57.65 43 59.3 43 61 43 C61 38.71 61 34.42 61 30 C66.61 30 72.22 30 78 30 C78 47.16 78 64.32 78 82 C76.35 82 74.7 82 73 82 C73 83.32 73 84.64 73 86 C70.36 86 67.72 86 65 86 C65 84.68 65 83.36 65 82 C63.68 82 62.36 82 61 82 C61 77.71 61 73.42 61 69 C56.71 69 52.42 69 48 69 C48 77.58 48 86.16 48 95 C50.64 95 53.28 95 56 95 C56 96.32 56 97.64 56 99 C60.29 99 64.58 99 69 99 C69 97.68 69 96.36 69 95 C74.61 95 80.22 95 86 95 C86 93.35 86 91.7 86 90 C87.65 90 89.3 90 91 90 C91 88.68 91 87.36 91 86 C89.35 86 87.7 86 86 86 C86 81.71 86 77.42 86 73 C87.65 73 89.3 73 91 73 C91 70.03 91 67.06 91 64 C97.93 64 104.86 64 112 64 C112 66.97 112 69.94 112 73 C113.32 73 114.64 73 116 73 C116 78.61 116 84.22 116 90 C114.68 90 113.36 90 112 90 C112 94.29 112 98.58 112 103 C113.32 103 114.64 103 116 103 C116 105.97 116 108.94 116 112 C114.68 112 113.36 112 112 112 C112 114.64 112 117.28 112 120 C75.04 120 38.08 120 0 120 C0 118.68 0 117.36 0 116 C-1.32 116 -2.64 116 -4 116 C-4 110.39 -4 104.78 -4 99 C-2.68 99 -1.36 99 0 99 C0 97.68 0 96.36 0 95 C4.29 95 8.58 95 13 95 C13 93.35 13 91.7 13 90 C14.65 90 16.3 90 18 90 C18 68.88 18 47.76 18 26 C12.06 26 6.12 26 0 26 C0 24.35 0 22.7 0 21 C-1.32 21 -2.64 21 -4 21 C-4 15.39 -4 9.78 -4 4 C-2.68 4 -1.36 4 0 4 C0 2.68 0 1.36 0 0 Z " fill="none" transform="translate(639,152)"/>
<path d="M0 0 C5.61 0 11.22 0 17 0 C17 1.32 17 2.64 17 4 C19.97 4 22.94 4 26 4 C26 5.32 26 6.64 26 8 C27.32 8 28.64 8 30 8 C30 12.29 30 16.58 30 21 C31.32 21 32.64 21 34 21 C34 35.19 34 49.38 34 64 C32.68 64 31.36 64 30 64 C30 66.97 30 69.94 30 73 C28.68 73 27.36 73 26 73 C26 75.64 26 78.28 26 81 C21.71 81 17.42 81 13 81 C13 82.65 13 84.3 13 86 C10.03 86 7.06 86 4 86 C4 84.35 4 82.7 4 81 C1.36 81 -1.28 81 -4 81 C-4 79.68 -4 78.36 -4 77 C-5.65 77 -7.3 77 -9 77 C-9 75.68 -9 74.36 -9 73 C-10.32 73 -11.64 73 -13 73 C-13 68.71 -13 64.42 -13 60 C-14.32 60 -15.64 60 -17 60 C-17 48.45 -17 36.9 -17 25 C-15.68 25 -14.36 25 -13 25 C-13 21.04 -13 17.08 -13 13 C-11.68 13 -10.36 13 -9 13 C-9 11.35 -9 9.7 -9 8 C-7.35 8 -5.7 8 -4 8 C-4 6.68 -4 5.36 -4 4 C-2.68 4 -1.36 4 0 4 C0 2.68 0 1.36 0 0 Z " fill="#7C7AC1" transform="translate(325,683)"/>
<path d="M0 0 C6.93 0 13.86 0 21 0 C21 1.32 21 2.64 21 4 C22.32 4 23.64 4 25 4 C25 5.32 25 6.64 25 8 C27.97 8 30.94 8 34 8 C34 10.97 34 13.94 34 17 C35.32 17 36.64 17 38 17 C38 23.93 38 30.86 38 38 C36.68 38 35.36 38 34 38 C34 40.97 34 43.94 34 47 C32.68 47 31.36 47 30 47 C30 48.32 30 49.64 30 51 C27.03 51 24.06 51 21 51 C21 52.32 21 53.64 21 55 C14.07 55 7.14 55 0 55 C0 53.68 0 52.36 0 51 C-2.97 51 -5.94 51 -9 51 C-9 48.36 -9 45.72 -9 43 C-10.32 43 -11.64 43 -13 43 C-13 41.35 -13 39.7 -13 38 C-14.65 38 -16.3 38 -18 38 C-18 32.39 -18 26.78 -18 21 C-16.35 21 -14.7 21 -13 21 C-13 18.03 -13 15.06 -13 12 C-11.68 12 -10.36 12 -9 12 C-9 10.68 -9 9.36 -9 8 C-7.68 8 -6.36 8 -5 8 C-5 6.68 -5 5.36 -5 4 C-3.35 4 -1.7 4 0 4 C0 2.68 0 1.36 0 0 Z " fill="none" transform="translate(510,696)"/>
<path d="M0 0 C1.65 0 3.3 0 5 0 C5 1.32 5 2.64 5 4 C6.32 4 7.64 4 9 4 C9 9.61 9 15.22 9 21 C10.32 21 11.64 21 13 21 C13 26.94 13 32.88 13 39 C6.07 39 -0.86 39 -8 39 C-8 34.71 -8 30.42 -8 26 C-6.68 26 -5.36 26 -4 26 C-4 21.71 -4 17.42 -4 13 C-2.68 13 -1.36 13 0 13 C0 8.71 0 4.42 0 0 Z " fill="#7C7AC1" transform="translate(909,687)"/>
</svg>
