<?xml version="1.0" encoding="UTF-8"?>
<svg version="1.1" xmlns="http://www.w3.org/2000/svg" width="1220" height="812">
<path d="M0 0 C402.6 0 805.2 0 1220 0 C1220 267.96 1220 535.92 1220 812 C817.4 812 414.8 812 0 812 C0 544.04 0 276.08 0 0 Z " fill="none" transform="translate(0,0)"/>
<path d="M0 0 C7.59 0 15.18 0 23 0 C23 1.98 23 3.96 23 6 C21.35 6 19.7 6 18 6 C18 7.98 18 9.96 18 12 C21.63 12 25.26 12 29 12 C29 13.98 29 15.96 29 18 C27.02 18 25.04 18 23 18 C23 19.65 23 21.3 23 23 C21.35 23 19.7 23 18 23 C18 26.96 18 30.92 18 35 C21.63 35 25.26 35 29 35 C29 33.02 29 31.04 29 29 C32.96 29 36.92 29 41 29 C41 27.02 41 25.04 41 23 C59.81 23 78.62 23 98 23 C98 21.35 98 19.7 98 18 C99.98 18 101.96 18 104 18 C104 19.65 104 21.3 104 23 C105.98 23 107.96 23 110 23 C110 24.98 110 26.96 110 29 C106.04 29 102.08 29 98 29 C98 30.98 98 32.96 98 35 C96.02 35 94.04 35 92 35 C92 33.02 92 31.04 92 29 C84.41 29 76.82 29 69 29 C69 30.98 69 32.96 69 35 C70.98 35 72.96 35 75 35 C75 36.98 75 38.96 75 41 C71.37 41 67.74 41 64 41 C64 39.02 64 37.04 64 35 C60.04 35 56.08 35 52 35 C52 36.98 52 38.96 52 41 C48.37 41 44.74 41 41 41 C41 42.65 41 44.3 41 46 C39.02 46 37.04 46 35 46 C35 47.98 35 49.96 35 52 C31.04 52 27.08 52 23 52 C23 53.98 23 55.96 23 58 C19.37 58 15.74 58 12 58 C12 59.98 12 61.96 12 64 C8.04 64 4.08 64 0 64 C0 65.65 0 67.3 0 69 C-3.63 69 -7.26 69 -11 69 C-11 70.98 -11 72.96 -11 75 C-14.96 75 -18.92 75 -23 75 C-23 76.98 -23 78.96 -23 81 C-24.65 81 -26.3 81 -28 81 C-28 82.98 -28 84.96 -28 87 C-31.96 87 -35.92 87 -40 87 C-40 90.63 -40 94.26 -40 98 C-43.63 98 -47.26 98 -51 98 C-51 99.98 -51 101.96 -51 104 C-52.98 104 -54.96 104 -57 104 C-57 105.98 -57 107.96 -57 110 C-58.98 110 -60.96 110 -63 110 C-63 113.63 -63 117.26 -63 121 C-64.98 121 -66.96 121 -69 121 C-69 122.98 -69 124.96 -69 127 C-70.65 127 -72.3 127 -74 127 C-74 128.98 -74 130.96 -74 133 C-75.98 133 -77.96 133 -80 133 C-80 134.65 -80 136.3 -80 138 C-81.98 138 -83.96 138 -86 138 C-86 139.98 -86 141.96 -86 144 C-87.65 144 -89.3 144 -91 144 C-91 145.98 -91 147.96 -91 150 C-92.98 150 -94.96 150 -97 150 C-97 153.63 -97 157.26 -97 161 C-98.98 161 -100.96 161 -103 161 C-103 162.98 -103 164.96 -103 167 C-104.98 167 -106.96 167 -109 167 C-109 172.61 -109 178.22 -109 184 C-110.65 184 -112.3 184 -114 184 C-114 187.96 -114 191.92 -114 196 C-115.98 196 -117.96 196 -120 196 C-120 199.63 -120 203.26 -120 207 C-121.98 207 -123.96 207 -126 207 C-126 212.61 -126 218.22 -126 224 C-127.98 224 -129.96 224 -132 224 C-132 229.94 -132 235.88 -132 242 C-133.65 242 -135.3 242 -137 242 C-137 245.63 -137 249.26 -137 253 C-138.98 253 -140.96 253 -143 253 C-143 251.02 -143 249.04 -143 247 C-152.57 247 -162.14 247 -172 247 C-172 245.35 -172 243.7 -172 242 C-173.98 242 -175.96 242 -178 242 C-178 243.65 -178 245.3 -178 247 C-179.65 247 -181.3 247 -183 247 C-183 245.35 -183 243.7 -183 242 C-188.94 242 -194.88 242 -201 242 C-201 238.04 -201 234.08 -201 230 C-204.63 230 -208.26 230 -212 230 C-212 228.02 -212 226.04 -212 224 C-217.61 224 -223.22 224 -229 224 C-229 225.98 -229 227.96 -229 230 C-232.96 230 -236.92 230 -241 230 C-241 231.98 -241 233.96 -241 236 C-242.98 236 -244.96 236 -247 236 C-247 237.98 -247 239.96 -247 242 C-256.24 242 -265.48 242 -275 242 C-275 243.65 -275 245.3 -275 247 C-278.96 247 -282.92 247 -287 247 C-287 248.98 -287 250.96 -287 253 C-288.65 253 -290.3 253 -292 253 C-292 254.98 -292 256.96 -292 259 C-293.98 259 -295.96 259 -298 259 C-298 260.98 -298 262.96 -298 265 C-299.98 265 -301.96 265 -304 265 C-304 266.65 -304 268.3 -304 270 C-305.98 270 -307.96 270 -310 270 C-310 271.98 -310 273.96 -310 276 C-313.63 276 -317.26 276 -321 276 C-321 277.98 -321 279.96 -321 282 C-322.98 282 -324.96 282 -327 282 C-327 283.98 -327 285.96 -327 288 C-328.98 288 -330.96 288 -333 288 C-333 289.65 -333 291.3 -333 293 C-334.65 293 -336.3 293 -338 293 C-338 296.96 -338 300.92 -338 305 C-341.96 305 -345.92 305 -350 305 C-350 310.61 -350 316.22 -350 322 C-351.98 322 -353.96 322 -356 322 C-356 325.96 -356 329.92 -356 334 C-357.65 334 -359.3 334 -361 334 C-361 337.63 -361 341.26 -361 345 C-362.98 345 -364.96 345 -367 345 C-367 348.96 -367 352.92 -367 357 C-368.98 357 -370.96 357 -373 357 C-373 366.24 -373 375.48 -373 385 C-374.98 385 -376.96 385 -379 385 C-379 394.57 -379 404.14 -379 414 C-380.65 414 -382.3 414 -384 414 C-384 421.59 -384 429.18 -384 437 C-382.35 437.33 -380.7 437.66 -379 438 C-379 445.26 -379 452.52 -379 460 C-377.02 460 -375.04 460 -373 460 C-373 461.98 -373 463.96 -373 466 C-374.98 466 -376.96 466 -379 466 C-379 469.63 -379 473.26 -379 477 C-377.02 477 -375.04 477 -373 477 C-373 484.59 -373 492.18 -373 500 C-371.02 500 -369.04 500 -367 500 C-367 505.61 -367 511.22 -367 517 C-365.02 517 -363.04 517 -361 517 C-361 518.98 -361 520.96 -361 523 C-359.35 523 -357.7 523 -356 523 C-356 526.96 -356 530.92 -356 535 C-354.02 535 -352.04 535 -350 535 C-350 531.04 -350 527.08 -350 523 C-348.02 523 -346.04 523 -344 523 C-344 526.96 -344 530.92 -344 535 C-342.02 535 -340.04 535 -338 535 C-338 533.02 -338 531.04 -338 529 C-336.35 529 -334.7 529 -333 529 C-333 530.98 -333 532.96 -333 535 C-331.02 535 -329.04 535 -327 535 C-327 536.65 -327 538.3 -327 540 C-325.02 540 -323.04 540 -321 540 C-321 543.96 -321 547.92 -321 552 C-319.02 552 -317.04 552 -315 552 C-315 555.63 -315 559.26 -315 563 C-309.39 563 -303.78 563 -298 563 C-298 564.98 -298 566.96 -298 569 C-296.02 569 -294.04 569 -292 569 C-292 572.63 -292 576.26 -292 580 C-288.37 580 -284.74 580 -281 580 C-281 581.98 -281 583.96 -281 586 C-277.37 586 -273.74 586 -270 586 C-270 584.02 -270 582.04 -270 580 C-271.65 580 -273.3 580 -275 580 C-275 578.35 -275 576.7 -275 575 C-276.98 575 -278.96 575 -281 575 C-281 561.8 -281 548.6 -281 535 C-279.02 535 -277.04 535 -275 535 C-275 533.02 -275 531.04 -275 529 C-271.37 529 -267.74 529 -264 529 C-264 525.04 -264 521.08 -264 517 C-265.98 517 -267.96 517 -270 517 C-270 515.35 -270 513.7 -270 512 C-271.65 512 -273.3 512 -275 512 C-275.89648376 500.2077906 -275.96991135 488.78815329 -275 477 C-273.35 477 -271.7 477 -270 477 C-270 475.02 -270 473.04 -270 471 C-266.04 471 -262.08 471 -258 471 C-258 467.37 -258 463.74 -258 460 C-259.98 460 -261.96 460 -264 460 C-264 446.8 -264 433.6 -264 420 C-262.02 420 -260.04 420 -258 420 C-258 418.02 -258 416.04 -258 414 C-256.02 414 -254.04 414 -252 414 C-252 412.02 -252 410.04 -252 408 C-248.37 408 -244.74 408 -241 408 C-241 406.02 -241 404.04 -241 402 C-239.02 402 -237.04 402 -235 402 C-235 400.35 -235 398.7 -235 397 C-221.8 397 -208.6 397 -195 397 C-195 391.06 -195 385.12 -195 379 C-193.02 379 -191.04 379 -189 379 C-189 377.35 -189 375.7 -189 374 C-187.02 374 -185.04 374 -183 374 C-183 372.02 -183 370.04 -183 368 C-177.39 368 -171.78 368 -166 368 C-166 366.02 -166 364.04 -166 362 C-162.37 362 -158.74 362 -155 362 C-155 363.98 -155 365.96 -155 368 C-149.06 368 -143.12 368 -137 368 C-137 369.98 -137 371.96 -137 374 C-135.35 374 -133.7 374 -132 374 C-132 383.24 -132 392.48 -132 402 C-139.59 402 -147.18 402 -155 402 C-155 400.35 -155 398.7 -155 397 C-156.65 397 -158.3 397 -160 397 C-160 395.02 -160 393.04 -160 391 C-161.98 391 -163.96 391 -166 391 C-166 392.98 -166 394.96 -166 397 C-167.98 397 -169.96 397 -172 397 C-172 398.65 -172 400.3 -172 402 C-170.02 402 -168.04 402 -166 402 C-166 403.98 -166 405.96 -166 408 C-162.37 408 -158.74 408 -155 408 C-155 409.98 -155 411.96 -155 414 C-153.02 414 -151.04 414 -149 414 C-149 417.63 -149 421.26 -149 425 C-147.02 425 -145.04 425 -143 425 C-143 436.55 -143 448.1 -143 460 C-144.98 460 -146.96 460 -149 460 C-149 463.63 -149 467.26 -149 471 C-150.98 471 -152.96 471 -155 471 C-155 472.98 -155 474.96 -155 477 C-156.65 477 -158.3 477 -160 477 C-160 478.98 -160 480.96 -160 483 C-163.96 483 -167.92 483 -172 483 C-172 484.98 -172 486.96 -172 489 C-190.81 489 -209.62 489 -229 489 C-229 487.02 -229 485.04 -229 483 C-230.98 483 -232.96 483 -235 483 C-235 484.98 -235 486.96 -235 489 C-236.98 489 -238.96 489 -241 489 C-241 490.65 -241 492.3 -241 494 C-239.02 494 -237.04 494 -235 494 C-235 495.98 -235 497.96 -235 500 C-233.02 500 -231.04 500 -229 500 C-229 501.98 -229 503.96 -229 506 C-204.58 506 -180.16 506 -155 506 C-155 507.98 -155 509.96 -155 512 C-151.04 512 -147.08 512 -143 512 C-143 513.65 -143 515.3 -143 517 C-141.02 517 -139.04 517 -137 517 C-137 518.98 -137 520.96 -137 523 C-135.35 523 -133.7 523 -132 523 C-132 526.96 -132 530.92 -132 535 C-130.02 535 -128.04 535 -126 535 C-126 542.59 -126 550.18 -126 558 C-127.98 558 -129.96 558 -132 558 C-132 561.63 -132 565.26 -132 569 C-133.65 569 -135.3 569 -137 569 C-137 572.63 -137 576.26 -137 580 C-140.96 580 -144.92 580 -149 580 C-149 581.98 -149 583.96 -149 586 C-152.63 586 -156.26 586 -160 586 C-160 587.98 -160 589.96 -160 592 C-163.96 592 -167.92 592 -172 592 C-172 593.98 -172 595.96 -172 598 C-181.57 598 -191.14 598 -201 598 C-201 599.65 -201 601.3 -201 603 C-189.45 603 -177.9 603 -166 603 C-166 604.98 -166 606.96 -166 609 C-164.02 609 -162.04 609 -160 609 C-160 607.02 -160 605.04 -160 603 C-139.94653196 602.1017187 -120.00412797 601.9975134 -99.9375 602.5 C-84.35283876 602.8850976 -68.83294006 603.04256569 -53.25 602.5625 C-16.1822707 601.43589544 20.94239366 601.54630569 58 603 C58 601.35 58 599.7 58 598 C103.54 598 149.08 598 196 598 C196 599.65 196 601.3 196 603 C197.65 603 199.3 603 201 603 C201 601.35 201 599.7 201 598 C202.98 598 204.96 598 207 598 C207 599.65 207 601.3 207 603 C210.96 603 214.92 603 219 603 C219 601.35 219 599.7 219 598 C222.63 598 226.26 598 230 598 C230 599.65 230 601.3 230 603 C231.98 603 233.96 603 236 603 C236 601.35 236 599.7 236 598 C239.63 598 243.26 598 247 598 C247 599.65 247 601.3 247 603 C248.98 603 250.96 603 253 603 C253 601.35 253 599.7 253 598 C268.18 598 283.36 598 299 598 C299 599.65 299 601.3 299 603 C300.98 603 302.96 603 305 603 C305 601.35 305 599.7 305 598 C308.63 598 312.26 598 316 598 C316 601.63 316 605.26 316 609 C317.98 609 319.96 609 322 609 C322 605.37 322 601.74 322 598 C352.36 598 382.72 598 414 598 C414 599.65 414 601.3 414 603 C415.98 603 417.96 603 420 603 C420 601.35 420 599.7 420 598 C425.61 598 431.22 598 437 598 C437 601.63 437 605.26 437 609 C438.98 609 440.96 609 443 609 C443 605.37 443 601.74 443 598 C467.42 598 491.84 598 517 598 C517 596.02 517 594.04 517 592 C522.94 592 528.88 592 535 592 C535 590.02 535 588.04 535 586 C538.63 586 542.26 586 546 586 C546 584.02 546 582.04 546 580 C549.63 580 553.26 580 557 580 C557 578.35 557 576.7 557 575 C558.98 575 560.96 575 563 575 C563 573.02 563 571.04 563 569 C564.98 569 566.96 569 569 569 C569 567.02 569 565.04 569 563 C570.98 563 572.96 563 575 563 C575 561.35 575 559.7 575 558 C576.65 558 578.3 558 580 558 C580 556.02 580 554.04 580 552 C581.98 552 583.96 552 586 552 C586 548.04 586 544.08 586 540 C587.98 540 589.96 540 592 540 C592 538.35 592 536.7 592 535 C595.63 535 599.26 535 603 535 C603 531.04 603 527.08 603 523 C604.98 523 606.96 523 609 523 C609 519.37 609 515.74 609 512 C607.02 512 605.04 512 603 512 C603 508.04 603 504.08 603 500 C604.98 500 606.96 500 609 500 C609 498.02 609 496.04 609 494 C610.98 494 612.96 494 615 494 C615 492.35 615 490.7 615 489 C613.02 489 611.04 489 609 489 C609 487.02 609 485.04 609 483 C610.98 483 612.96 483 615 483 C615 477.39 615 471.78 615 466 C616.98 466 618.96 466 621 466 C621 456.43 621 446.86 621 437 C619.02 437 617.04 437 615 437 C615 433.04 615 429.08 615 425 C613.02 425 611.04 425 609 425 C609 423.35 609 421.7 609 420 C610.98 420 612.96 420 615 420 C615 418.02 615 416.04 615 414 C611.04 414 607.08 414 603 414 C603 406.41 603 398.82 603 391 C601.35 391 599.7 391 598 391 C598 387.04 598 383.08 598 379 C596.02 379 594.04 379 592 379 C592 375.37 592 371.74 592 368 C590.02 368 588.04 368 586 368 C586 366.02 586 364.04 586 362 C584.02 362 582.04 362 580 362 C580 360.35 580 358.7 580 357 C578.35 357 576.7 357 575 357 C575 355.02 575 353.04 575 351 C573.02 351 571.04 351 569 351 C569 349.02 569 347.04 569 345 C567.02 345 565.04 345 563 345 C563 343.02 563 341.04 563 339 C559.37 339 555.74 339 552 339 C552 337.35 552 335.7 552 334 C548.04 334 544.08 334 540 334 C540 332.02 540 330.04 540 328 C536.37 328 532.74 328 529 328 C529 326.02 529 324.04 529 322 C523.39 322 517.78 322 512 322 C512 320.02 512 318.04 512 316 C492.86 316 473.72 316 454 316 C454 317.98 454 319.96 454 322 C450.37 322 446.74 322 443 322 C443 323.98 443 325.96 443 328 C439.04 328 435.08 328 431 328 C431 329.98 431 331.96 431 334 C425.39 334 419.78 334 414 334 C414 335.65 414 337.3 414 339 C408.39 339 402.78 339 397 339 C397 340.98 397 342.96 397 345 C395.02 345 393.04 345 391 345 C391 346.98 391 348.96 391 351 C389.02 351 387.04 351 385 351 C385 349.02 385 347.04 385 345 C383.02 345 381.04 345 379 345 C379 326.19 379 307.38 379 288 C377.35 288 375.7 288 374 288 C374 274.47 374 260.94 374 247 C372.02 247 370.04 247 368 247 C368 243.37 368 239.74 368 236 C366.02 236 364.04 236 362 236 C362 228.41 362 220.82 362 213 C360.02 213 358.04 213 356 213 C356 209.04 356 205.08 356 201 C354.35 201 352.7 201 351 201 C351 197.37 351 193.74 351 190 C349.02 190 347.04 190 345 190 C345 186.04 345 182.08 345 178 C343.02 178 341.04 178 339 178 C339 174.37 339 170.74 339 167 C337.35 167 335.7 167 334 167 C334 165.02 334 163.04 334 161 C332.02 161 330.04 161 328 161 C328 157.37 328 153.74 328 150 C326.02 150 324.04 150 322 150 C322 148.02 322 146.04 322 144 C320.02 144 318.04 144 316 144 C316 142.02 316 140.04 316 138 C314.35 138 312.7 138 311 138 C311 134.37 311 130.74 311 127 C309.02 127 307.04 127 305 127 C305 125.02 305 123.04 305 121 C303.02 121 301.04 121 299 121 C299 119.02 299 117.04 299 115 C297.02 115 295.04 115 293 115 C293 113.35 293 111.7 293 110 C291.35 110 289.7 110 288 110 C288 108.02 288 106.04 288 104 C284.04 104 280.08 104 276 104 C276 100.04 276 96.08 276 92 C272.37 92 268.74 92 265 92 C265 90.35 265 88.7 265 87 C261.04 87 257.08 87 253 87 C253 85.02 253 83.04 253 81 C249.37 81 245.74 81 242 81 C242 77.04 242 73.08 242 69 C247.61 69 253.22 69 259 69 C259 72.96 259 76.92 259 81 C264.61 81 270.22 81 276 81 C276 82.98 276 84.96 276 87 C277.98 87 279.96 87 282 87 C282 88.65 282 90.3 282 92 C283.98 92 285.96 92 288 92 C288 93.98 288 95.96 288 98 C289.65 98 291.3 98 293 98 C293 99.98 293 101.96 293 104 C294.98 104 296.96 104 299 104 C299 100.04 299 96.08 299 92 C297.02 92 295.04 92 293 92 C293 88.37 293 84.74 293 81 C289.37 81 285.74 81 282 81 C282 79.02 282 77.04 282 75 C278.04 75 274.08 75 270 75 C270 73.02 270 71.04 270 69 C273.96 69 277.92 69 282 69 C282 67.35 282 65.7 282 64 C280.02 64 278.04 64 276 64 C276 62.02 276 60.04 276 58 C281.61 58 287.22 58 293 58 C293 61.63 293 65.26 293 69 C296.96 69 300.92 69 305 69 C305 70.98 305 72.96 305 75 C306.98 75 308.96 75 311 75 C311 76.98 311 78.96 311 81 C314.63 81 318.26 81 322 81 C322 82.98 322 84.96 322 87 C325.96 87 329.92 87 334 87 C334 90.63 334 94.26 334 98 C335.65 98 337.3 98 339 98 C339 101.96 339 105.92 339 110 C340.98 110 342.96 110 345 110 C345 111.65 345 113.3 345 115 C346.98 115 348.96 115 351 115 C351 116.98 351 118.96 351 121 C352.65 121 354.3 121 356 121 C356 122.98 356 124.96 356 127 C357.98 127 359.96 127 362 127 C362 128.98 362 130.96 362 133 C363.98 133 365.96 133 368 133 C368 138.61 368 144.22 368 150 C371.63 150 375.26 150 379 150 C379 155.61 379 161.22 379 167 C380.98 167 382.96 167 385 167 C385 172.61 385 178.22 385 184 C386.98 184 388.96 184 391 184 C391 185.98 391 187.96 391 190 C392.98 190 394.96 190 397 190 C397 193.63 397 197.26 397 201 C398.65 201 400.3 201 402 201 C402 204.96 402 208.92 402 213 C403.98 213 405.96 213 408 213 C408 214.98 408 216.96 408 219 C406.02 219 404.04 219 402 219 C402 220.65 402 222.3 402 224 C403.98 224 405.96 224 408 224 C408 227.96 408 231.92 408 236 C409.98 236 411.96 236 414 236 C414 241.61 414 247.22 414 253 C415.98 253 417.96 253 420 253 C420 262.57 420 272.14 420 282 C423.63 282 427.26 282 431 282 C431 280.02 431 278.04 431 276 C442.55 276 454.1 276 466 276 C466 274.02 466 272.04 466 270 C475.24 270 484.48 270 494 270 C494 271.98 494 273.96 494 276 C505.55 276 517.1 276 529 276 C529 277.98 529 279.96 529 282 C519.43 282 509.86 282 500 282 C500 283.98 500 285.96 500 288 C509.57 288 519.14 288 529 288 C529 289.65 529 291.3 529 293 C540.22 293 551.44 293 563 293 C563 294.98 563 296.96 563 299 C566.96 299 570.92 299 575 299 C575 300.98 575 302.96 575 305 C576.65 305 578.3 305 580 305 C580 306.98 580 308.96 580 311 C583.96 311 587.92 311 592 311 C592 316.61 592 322.22 592 328 C597.61 328 603.22 328 609 328 C609 331.63 609 335.26 609 339 C610.98 339 612.96 339 615 339 C615 340.98 615 342.96 615 345 C616.98 345 618.96 345 621 345 C621 346.98 621 348.96 621 351 C622.65 351 624.3 351 626 351 C626 354.63 626 358.26 626 362 C627.98 362 629.96 362 632 362 C632 363.98 632 365.96 632 368 C633.98 368 635.96 368 638 368 C638 373.61 638 379.22 638 385 C639.98 385 641.96 385 644 385 C644 386.98 644 388.96 644 391 C645.65 391 647.3 391 649 391 C649 400.57 649 410.14 649 420 C650.98 420 652.96 420 655 420 C655 427.59 655 435.18 655 443 C656.98 443 658.96 443 661 443 C661 444.65 661 446.3 661 448 C659.02 448 657.04 448 655 448 C655 457.57 655 467.14 655 477 C656.98 477 658.96 477 661 477 C661 490.2 661 503.4 661 517 C659.02 517 657.04 517 655 517 C655 524.59 655 532.18 655 540 C653.02 540 651.04 540 649 540 C649 543.96 649 547.92 649 552 C647.35 552 645.7 552 644 552 C644 555.63 644 559.26 644 563 C642.02 563 640.04 563 638 563 C638 564.98 638 566.96 638 569 C636.02 569 634.04 569 632 569 C632 572.63 632 576.26 632 580 C630.02 580 628.04 580 626 580 C626 581.98 626 583.96 626 586 C624.35 586 622.7 586 621 586 C621 589.96 621 593.92 621 598 C619.02 598 617.04 598 615 598 C615 599.65 615 601.3 615 603 C613.02 603 611.04 603 609 603 C609 604.98 609 606.96 609 609 C607.02 609 605.04 609 603 609 C603 610.98 603 612.96 603 615 C599.37 615 595.74 615 592 615 C592 616.98 592 618.96 592 621 C588.04 621 584.08 621 580 621 C580 622.65 580 624.3 580 626 C578.35 626 576.7 626 575 626 C575 627.98 575 629.96 575 632 C573.02 632 571.04 632 569 632 C569 633.98 569 635.96 569 638 C567.02 638 565.04 638 563 638 C563 639.98 563 641.96 563 644 C557.39 644 551.78 644 546 644 C546 645.65 546 647.3 546 649 C540.39 649 534.78 649 529 649 C529 650.98 529 652.96 529 655 C515.8 655 502.6 655 489 655 C489 656.98 489 658.96 489 661 C460.29 661 431.58 661 402 661 C402 659.02 402 657.04 402 655 C400.35 655 398.7 655 397 655 C397 656.98 397 658.96 397 661 C385.45 661 373.9 661 362 661 C362 659.02 362 657.04 362 655 C360.02 655 358.04 655 356 655 C356 656.98 356 658.96 356 661 C341.15 661 326.3 661 311 661 C311 662.98 311 664.96 311 667 C309.02 667 307.04 667 305 667 C305 665.02 305 663.04 305 661 C293.45 661 281.9 661 270 661 C270 662.98 270 664.96 270 667 C268.35 667 266.7 667 265 667 C265 665.02 265 663.04 265 661 C240.25 661 215.5 661 190 661 C190 662.98 190 664.96 190 667 C188.02 667 186.04 667 184 667 C184 665.02 184 663.04 184 661 C182.02 661 180.04 661 178 661 C178 662.98 178 664.96 178 667 C172.39 667 166.78 667 161 667 C161 665.02 161 663.04 161 661 C151.43 661 141.86 661 132 661 C132 662.98 132 664.96 132 667 C130.35 667 128.7 667 127 667 C127 665.02 127 663.04 127 661 C119.41 661 111.82 661 104 661 C104 662.98 104 664.96 104 667 C100.04 667 96.08 667 92 667 C92 665.02 92 663.04 92 661 C86.39 661 80.78 661 75 661 C75 662.98 75 664.96 75 667 C69.39 667 63.78 667 58 667 C58 665.02 58 663.04 58 661 C56.02 661 54.04 661 52 661 C52 662.98 52 664.96 52 667 C50.02 667 48.04 667 46 667 C46 665.02 46 663.04 46 661 C40.39 661 34.78 661 29 661 C29 662.98 29 664.96 29 667 C8.21 667 -12.58 667 -34 667 C-34 668.65 -34 670.3 -34 672 C-35.98 672 -37.96 672 -40 672 C-40 670.35 -40 668.7 -40 667 C-47.59 667 -55.18 667 -63 667 C-63 668.65 -63 670.3 -63 672 C-64.98 672 -66.96 672 -69 672 C-69 670.35 -69 668.7 -69 667 C-70.65 667 -72.3 667 -74 667 C-74 668.65 -74 670.3 -74 672 C-93.14 672 -112.28 672 -132 672 C-132 673.98 -132 675.96 -132 678 C-135.63 678 -139.26 678 -143 678 C-143 676.02 -143 674.04 -143 672 C-150.59 672 -158.18 672 -166 672 C-166 673.98 -166 675.96 -166 678 C-173.59 678 -181.18 678 -189 678 C-189 676.02 -189 674.04 -189 672 C-190.98 672 -192.96 672 -195 672 C-195 673.98 -195 675.96 -195 678 C-206.22 678 -217.44 678 -229 678 C-229 676.02 -229 674.04 -229 672 C-236.59 672 -244.18 672 -252 672 C-252 670.35 -252 668.7 -252 667 C-257.94 667 -263.88 667 -270 667 C-270 665.02 -270 663.04 -270 661 C-271.65 661 -273.3 661 -275 661 C-275 659.02 -275 657.04 -275 655 C-273.35 655 -271.7 655 -270 655 C-270 653.02 -270 651.04 -270 649 C-273.63 649 -277.26 649 -281 649 C-281 647.35 -281 645.7 -281 644 C-282.98 644 -284.96 644 -287 644 C-287 642.02 -287 640.04 -287 638 C-288.65 638 -290.3 638 -292 638 C-292 636.02 -292 634.04 -292 632 C-290.35 632 -288.7 632 -287 632 C-287 630.02 -287 628.04 -287 626 C-290.63 626 -294.26 626 -298 626 C-298 627.98 -298 629.96 -298 632 C-301.96 632 -305.92 632 -310 632 C-310 626.39 -310 620.78 -310 615 C-311.65 615 -313.3 615 -315 615 C-315 618.63 -315 622.26 -315 626 C-316.98 626 -318.96 626 -321 626 C-321 624.35 -321 622.7 -321 621 C-324.96 621 -328.92 621 -333 621 C-333 619.02 -333 617.04 -333 615 C-336.63 615 -340.26 615 -344 615 C-344 613.02 -344 611.04 -344 609 C-342.02 609 -340.04 609 -338 609 C-338 607.02 -338 605.04 -338 603 C-339.98 603 -341.96 603 -344 603 C-344 601.35 -344 599.7 -344 598 C-347.96 598 -351.92 598 -356 598 C-356 596.02 -356 594.04 -356 592 C-359.63 592 -363.26 592 -367 592 C-367 590.02 -367 588.04 -367 586 C-370.96 586 -374.92 586 -379 586 C-379 584.02 -379 582.04 -379 580 C-380.65 580 -382.3 580 -384 580 C-384 576.37 -384 572.74 -384 569 C-385.98 569 -387.96 569 -390 569 C-390 567.02 -390 565.04 -390 563 C-388.02 563 -386.04 563 -384 563 C-384 561.35 -384 559.7 -384 558 C-387.96 558 -391.92 558 -396 558 C-396 556.02 -396 554.04 -396 552 C-397.98 552 -399.96 552 -402 552 C-402 548.04 -402 544.08 -402 540 C-400.02 540 -398.04 540 -396 540 C-396 536.37 -396 532.74 -396 529 C-399.63 529 -403.26 529 -407 529 C-407 523.39 -407 517.78 -407 512 C-408.98 512 -410.96 512 -413 512 C-413 510.02 -413 508.04 -413 506 C-409.37 506 -405.74 506 -402 506 C-402 504.02 -402 502.04 -402 500 C-403.65 500 -405.3 500 -407 500 C-407 498.02 -407 496.04 -407 494 C-410.96 494 -414.92 494 -419 494 C-419 486.41 -419 478.82 -419 471 C-420.98 471 -422.96 471 -425 471 C-425 452.19 -425 433.38 -425 414 C-421.04 414 -417.08 414 -413 414 C-413 412.02 -413 410.04 -413 408 C-411.02 408 -409.04 408 -407 408 C-407 406.02 -407 404.04 -407 402 C-408.98 402 -410.96 402 -413 402 C-413 400.35 -413 398.7 -413 397 C-414.98 397 -416.96 397 -419 397 C-419 389.41 -419 381.82 -419 374 C-415.04 374 -411.08 374 -407 374 C-407 372.02 -407 370.04 -407 368 C-408.98 368 -410.96 368 -413 368 C-413 362.39 -413 356.78 -413 351 C-411.02 351 -409.04 351 -407 351 C-407 347.04 -407 343.08 -407 339 C-405.35 339 -403.7 339 -402 339 C-402 335.37 -402 331.74 -402 328 C-400.02 328 -398.04 328 -396 328 C-396 324.04 -396 320.08 -396 316 C-394.02 316 -392.04 316 -390 316 C-390 310.39 -390 304.78 -390 299 C-388.02 299 -386.04 299 -384 299 C-384 297.02 -384 295.04 -384 293 C-382.35 293 -380.7 293 -379 293 C-379 289.37 -379 285.74 -379 282 C-377.02 282 -375.04 282 -373 282 C-373 278.04 -373 274.08 -373 270 C-371.02 270 -369.04 270 -367 270 C-367 268.35 -367 266.7 -367 265 C-363.37 265 -359.74 265 -356 265 C-356 261.04 -356 257.08 -356 253 C-354.02 253 -352.04 253 -350 253 C-350 251.02 -350 249.04 -350 247 C-348.02 247 -346.04 247 -344 247 C-344 245.35 -344 243.7 -344 242 C-342.02 242 -340.04 242 -338 242 C-338 240.02 -338 238.04 -338 236 C-334.37 236 -330.74 236 -327 236 C-327 232.04 -327 228.08 -327 224 C-323.04 224 -319.08 224 -315 224 C-315 222.35 -315 220.7 -315 219 C-311.37 219 -307.74 219 -304 219 C-304 217.02 -304 215.04 -304 213 C-302.02 213 -300.04 213 -298 213 C-298 211.02 -298 209.04 -298 207 C-294.37 207 -290.74 207 -287 207 C-287 205.02 -287 203.04 -287 201 C-283.04 201 -279.08 201 -275 201 C-275 199.35 -275 197.7 -275 196 C-273.35 196 -271.7 196 -270 196 C-270 194.02 -270 192.04 -270 190 C-268.02 190 -266.04 190 -264 190 C-264 191.98 -264 193.96 -264 196 C-262.02 196 -260.04 196 -258 196 C-258 194.02 -258 192.04 -258 190 C-250.41 190 -242.82 190 -235 190 C-235 188.02 -235 186.04 -235 184 C-229.39 184 -223.78 184 -218 184 C-218 182.02 -218 180.04 -218 178 C-202.82 178 -187.64 178 -172 178 C-172 170.41 -172 162.82 -172 155 C-170.02 155 -168.04 155 -166 155 C-166 153.35 -166 151.7 -166 150 C-164.02 150 -162.04 150 -160 150 C-160 144.39 -160 138.78 -160 133 C-156.37 133 -152.74 133 -149 133 C-149 131.02 -149 129.04 -149 127 C-147.02 127 -145.04 127 -143 127 C-143 123.04 -143 119.08 -143 115 C-144.98 115 -146.96 115 -149 115 C-149 113.35 -149 111.7 -149 110 C-145.04 110 -141.08 110 -137 110 C-137 106.04 -137 102.08 -137 98 C-135.35 98 -133.7 98 -132 98 C-132 99.98 -132 101.96 -132 104 C-130.02 104 -128.04 104 -126 104 C-126 102.02 -126 100.04 -126 98 C-124.02 98 -122.04 98 -120 98 C-120 96.02 -120 94.04 -120 92 C-118.02 92 -116.04 92 -114 92 C-114 88.37 -114 84.74 -114 81 C-112.35 81 -110.7 81 -109 81 C-109 75.39 -109 69.78 -109 64 C-107.02 64 -105.04 64 -103 64 C-103 67.63 -103 71.26 -103 75 C-101.02 75 -99.04 75 -97 75 C-97 71.37 -97 67.74 -97 64 C-95.02 64 -93.04 64 -91 64 C-91 62.02 -91 60.04 -91 58 C-89.35 58 -87.7 58 -86 58 C-86 56.02 -86 54.04 -86 52 C-82.04 52 -78.08 52 -74 52 C-74 50.02 -74 48.04 -74 46 C-72.35 46 -70.7 46 -69 46 C-69 44.35 -69 42.7 -69 41 C-65.04 41 -61.08 41 -57 41 C-57 44.63 -57 48.26 -57 52 C-55.02 52 -53.04 52 -51 52 C-51 50.02 -51 48.04 -51 46 C-49.35 46 -47.7 46 -46 46 C-46 44.35 -46 42.7 -46 41 C-44.02 41 -42.04 41 -40 41 C-40 39.02 -40 37.04 -40 35 C-41.98 35 -43.96 35 -46 35 C-46 33.02 -46 31.04 -46 29 C-44.02 29 -42.04 29 -40 29 C-40 27.02 -40 25.04 -40 23 C-36.04 23 -32.08 23 -28 23 C-28 21.35 -28 19.7 -28 18 C-26.35 18 -24.7 18 -23 18 C-23 19.65 -23 21.3 -23 23 C-21.02 23 -19.04 23 -17 23 C-17 19.37 -17 15.74 -17 12 C-15.02 12 -13.04 12 -11 12 C-11 10.02 -11 8.04 -11 6 C-7.37 6 -3.74 6 0 6 C0 4.02 0 2.04 0 0 Z " fill="#9D9BC4" transform="translate(484,77)"/>
<path d="M0 0 C20.79 0 41.58 0 63 0 C63 20.79 63 41.58 63 63 C64.98 63 66.96 63 69 63 C69 61.02 69 59.04 69 57 C70.98 57 72.96 57 75 57 C75 55.02 75 53.04 75 51 C78.63 51 82.26 51 86 51 C86 49.35 86 47.7 86 46 C99.2 46 112.4 46 126 46 C126 47.65 126 49.3 126 51 C127.98 51 129.96 51 132 51 C132 52.98 132 54.96 132 57 C135.96 57 139.92 57 144 57 C144 60.96 144 64.92 144 69 C145.65 69 147.3 69 149 69 C149 72.63 149 76.26 149 80 C150.98 80 152.96 80 155 80 C155 83.96 155 87.92 155 92 C156.98 92 158.96 92 161 92 C161 107.18 161 122.36 161 138 C159.02 138 157.04 138 155 138 C155 145.59 155 153.18 155 161 C153.02 161 151.04 161 149 161 C149 162.65 149 164.3 149 166 C147.35 166 145.7 166 144 166 C144 169.96 144 173.92 144 178 C142.02 178 140.04 178 138 178 C138 179.98 138 181.96 138 184 C136.02 184 134.04 184 132 184 C132 185.65 132 187.3 132 189 C126.39 189 120.78 189 115 189 C115 190.98 115 192.96 115 195 C103.78 195 92.56 195 81 195 C81 193.02 81 191.04 81 189 C77.04 189 73.08 189 69 189 C69 187.35 69 185.7 69 184 C65.37 184 61.74 184 58 184 C58 182.02 58 180.04 58 178 C56.02 178 54.04 178 52 178 C52 181.63 52 185.26 52 189 C42.43 189 32.86 189 23 189 C23 141.81 23 94.62 23 46 C21.02 46 19.04 46 17 46 C17 42.04 17 38.08 17 34 C11.39 34 5.78 34 0 34 C0 32.02 0 30.04 0 28 C-1.98 28 -3.96 28 -6 28 C-6 20.74 -6 13.48 -6 6 C-4.02 6 -2.04 6 0 6 C0 4.02 0 2.04 0 0 Z " fill="#9D9BC4" transform="translate(513,428)"/>
<path d="M0 0 C3.63 0 7.26 0 11 0 C11 1.65 11 3.3 11 5 C24.53 5 38.06 5 52 5 C52 10.94 52 16.88 52 23 C53.65 23 55.3 23 57 23 C57 21.02 57 19.04 57 17 C58.98 17 60.96 17 63 17 C63 15.02 63 13.04 63 11 C64.98 11 66.96 11 69 11 C69 9.02 69 7.04 69 5 C72.63 5 76.26 5 80 5 C80 3.35 80 1.7 80 0 C95.18 0 110.36 0 126 0 C126 1.65 126 3.3 126 5 C127.98 5 129.96 5 132 5 C132 6.98 132 8.96 132 11 C133.98 11 135.96 11 138 11 C138 12.98 138 14.96 138 17 C139.98 17 141.96 17 144 17 C144 20.63 144 24.26 144 28 C145.65 28 147.3 28 149 28 C149 54.73 149 81.46 149 109 C150.98 109 152.96 109 155 109 C155 110.98 155 112.96 155 115 C160.61 115 166.22 115 172 115 C172 116.65 172 118.3 172 120 C173.98 120 175.96 120 178 120 C178 123.96 178 127.92 178 132 C176.02 132 174.04 132 172 132 C172 135.63 172 139.26 172 143 C145.6 143 119.2 143 92 143 C92 139.37 92 135.74 92 132 C90.02 132 88.04 132 86 132 C86 128.04 86 124.08 86 120 C87.98 120 89.96 120 92 120 C92 118.35 92 116.7 92 115 C95.63 115 99.26 115 103 115 C103 111.04 103 107.08 103 103 C104.98 103 106.96 103 109 103 C109 89.8 109 76.6 109 63 C107.02 63 105.04 63 103 63 C103 55.41 103 47.82 103 40 C99.37 40 95.74 40 92 40 C92 38.02 92 36.04 92 34 C88.04 34 84.08 34 80 34 C80 35.98 80 37.96 80 40 C76.37 40 72.74 40 69 40 C69 41.98 69 43.96 69 46 C67.02 46 65.04 46 63 46 C63 66.79 63 87.58 63 109 C64.98 109 66.96 109 69 109 C69 110.98 69 112.96 69 115 C70.98 115 72.96 115 75 115 C75 116.65 75 118.3 75 120 C76.65 120 78.3 120 80 120 C80 123.96 80 127.92 80 132 C78.35 132 76.7 132 75 132 C75 135.63 75 139.26 75 143 C48.27 143 21.54 143 -6 143 C-6 139.37 -6 135.74 -6 132 C-7.98 132 -9.96 132 -12 132 C-12 128.04 -12 124.08 -12 120 C-10.02 120 -8.04 120 -6 120 C-6 118.35 -6 116.7 -6 115 C-4.02 115 -2.04 115 0 115 C0 113.02 0 111.04 0 109 C1.98 109 3.96 109 6 109 C6 110.98 6 112.96 6 115 C7.65 115 9.3 115 11 115 C11 113.02 11 111.04 11 109 C12.98 109 14.96 109 17 109 C17 86.23 17 63.46 17 40 C15.02 40 13.04 40 11 40 C11 38.02 11 36.04 11 34 C5.39 34 -0.22 34 -6 34 C-6 32.02 -6 30.04 -6 28 C-7.98 28 -9.96 28 -12 28 C-12 24.37 -12 20.74 -12 17 C-10.02 17 -8.04 17 -6 17 C-6 13.04 -6 9.08 -6 5 C-4.02 5 -2.04 5 0 5 C0 3.35 0 1.7 0 0 Z " fill="#9D9BC4" transform="translate(852,474)"/>
<path d="M0 0 C17.16 0 34.32 0 52 0 C52 1.65 52 3.3 52 5 C55.63 5 59.26 5 63 5 C63 6.98 63 8.96 63 11 C64.98 11 66.96 11 69 11 C69 12.98 69 14.96 69 17 C70.98 17 72.96 17 75 17 C75 18.98 75 20.96 75 23 C76.98 23 78.96 23 81 23 C81 24.65 81 26.3 81 28 C82.65 28 84.3 28 86 28 C86 33.94 86 39.88 86 46 C87.98 46 89.96 46 92 46 C92 55.24 92 64.48 92 74 C90.02 74 88.04 74 86 74 C86 75.98 86 77.96 86 80 C57.62 80 29.24 80 0 80 C0 87.59 0 95.18 0 103 C1.98 103 3.96 103 6 103 C6 104.98 6 106.96 6 109 C7.98 109 9.96 109 12 109 C12 110.98 12 112.96 12 115 C21.24 115 30.48 115 40 115 C40 113.02 40 111.04 40 109 C41.98 109 43.96 109 46 109 C46 107.02 46 105.04 46 103 C47.98 103 49.96 103 52 103 C52 101.02 52 99.04 52 97 C55.63 97 59.26 97 63 97 C63 95.35 63 93.7 63 92 C66.96 92 70.92 92 75 92 C75 93.65 75 95.3 75 97 C78.63 97 82.26 97 86 97 C86 106.57 86 116.14 86 126 C84.35 126 82.7 126 81 126 C81 127.98 81 129.96 81 132 C79.02 132 77.04 132 75 132 C75 133.98 75 135.96 75 138 C71.04 138 67.08 138 63 138 C63 139.65 63 141.3 63 143 C59.37 143 55.74 143 52 143 C52 144.98 52 146.96 52 149 C36.82 149 21.64 149 6 149 C6 147.02 6 145.04 6 143 C0.39 143 -5.22 143 -11 143 C-11 141.35 -11 139.7 -11 138 C-14.96 138 -18.92 138 -23 138 C-23 136.02 -23 134.04 -23 132 C-24.98 132 -26.96 132 -29 132 C-29 130.02 -29 128.04 -29 126 C-30.65 126 -32.3 126 -34 126 C-34 122.37 -34 118.74 -34 115 C-35.98 115 -37.96 115 -40 115 C-40 111.04 -40 107.08 -40 103 C-41.98 103 -43.96 103 -46 103 C-46 84.19 -46 65.38 -46 46 C-44.02 46 -42.04 46 -40 46 C-40 42.04 -40 38.08 -40 34 C-38.02 34 -36.04 34 -34 34 C-34 30.37 -34 26.74 -34 23 C-32.35 23 -30.7 23 -29 23 C-29 21.02 -29 19.04 -29 17 C-27.02 17 -25.04 17 -23 17 C-23 15.02 -23 13.04 -23 11 C-19.04 11 -15.08 11 -11 11 C-11 9.02 -11 7.04 -11 5 C-7.37 5 -3.74 5 0 5 C0 3.35 0 1.7 0 0 Z " fill="#9D9BC4" transform="translate(737,474)"/>
<path d="M0 0 C16.83 0 33.66 0 51 0 C51 1.65 51 3.3 51 5 C54.96 5 58.92 5 63 5 C63 6.98 63 8.96 63 11 C66.63 11 70.26 11 74 11 C74 14.96 74 18.92 74 23 C75.98 23 77.96 23 80 23 C80 24.65 80 26.3 80 28 C81.98 28 83.96 28 86 28 C86 31.96 86 35.92 86 40 C87.98 40 89.96 40 92 40 C92 51.22 92 62.44 92 74 C90.02 74 88.04 74 86 74 C86 75.98 86 77.96 86 80 C57.62 80 29.24 80 0 80 C0 85.61 0 91.22 0 97 C1.65 97 3.3 97 5 97 C5 100.96 5 104.92 5 109 C8.96 109 12.92 109 17 109 C17 110.98 17 112.96 17 115 C24.59 115 32.18 115 40 115 C40 113.02 40 111.04 40 109 C41.98 109 43.96 109 46 109 C46 107.02 46 105.04 46 103 C47.65 103 49.3 103 51 103 C51 101.02 51 99.04 51 97 C54.96 97 58.92 97 63 97 C63 95.35 63 93.7 63 92 C66.63 92 70.26 92 74 92 C74 93.65 74 95.3 74 97 C77.96 97 81.92 97 86 97 C86 100.96 86 104.92 86 109 C87.98 109 89.96 109 92 109 C92 110.98 92 112.96 92 115 C90.02 115 88.04 115 86 115 C86 118.63 86 122.26 86 126 C84.02 126 82.04 126 80 126 C80 127.98 80 129.96 80 132 C78.02 132 76.04 132 74 132 C74 133.98 74 135.96 74 138 C72.35 138 70.7 138 69 138 C69 139.65 69 141.3 69 143 C63.06 143 57.12 143 51 143 C51 144.98 51 146.96 51 149 C35.82 149 20.64 149 5 149 C5 147.02 5 145.04 5 143 C-0.61 143 -6.22 143 -12 143 C-12 141.35 -12 139.7 -12 138 C-13.65 138 -15.3 138 -17 138 C-17 136.02 -17 134.04 -17 132 C-20.96 132 -24.92 132 -29 132 C-29 128.04 -29 124.08 -29 120 C-30.98 120 -32.96 120 -35 120 C-35 118.35 -35 116.7 -35 115 C-36.65 115 -38.3 115 -40 115 C-40 107.41 -40 99.82 -40 92 C-41.98 92 -43.96 92 -46 92 C-46 78.47 -46 64.94 -46 51 C-44.02 51 -42.04 51 -40 51 C-40 45.39 -40 39.78 -40 34 C-38.35 34 -36.7 34 -35 34 C-35 32.02 -35 30.04 -35 28 C-33.02 28 -31.04 28 -29 28 C-29 24.37 -29 20.74 -29 17 C-27.02 17 -25.04 17 -23 17 C-23 15.02 -23 13.04 -23 11 C-19.37 11 -15.74 11 -12 11 C-12 9.02 -12 7.04 -12 5 C-8.04 5 -4.08 5 0 5 C0 3.35 0 1.7 0 0 Z " fill="#9D9BC4" transform="translate(410,474)"/>
<path d="M0 0 C7.26 0 14.52 0 22 0 C22 1.98 22 3.96 22 6 C23.98 6 25.96 6 28 6 C28 9.63 28 13.26 28 17 C29.98 17 31.96 17 34 17 C34 32.18 34 47.36 34 63 C32.02 63 30.04 63 28 63 C28 66.96 28 70.92 28 75 C24.37 75 20.74 75 17 75 C17 76.98 17 78.96 17 81 C11.39 81 5.78 81 0 81 C0 79.02 0 77.04 0 75 C-1.98 75 -3.96 75 -6 75 C-6 73.02 -6 71.04 -6 69 C-7.98 69 -9.96 69 -12 69 C-12 65.37 -12 61.74 -12 58 C-13.98 58 -15.96 58 -18 58 C-18 46.45 -18 34.9 -18 23 C-16.02 23 -14.04 23 -12 23 C-12 19.37 -12 15.74 -12 12 C-10.02 12 -8.04 12 -6 12 C-6 10.02 -6 8.04 -6 6 C-4.02 6 -2.04 6 0 6 C0 4.02 0 2.04 0 0 Z " fill="#FCFCFD" transform="translate(594,508)"/>
<path d="M0 0 C5.61 0 11.22 0 17 0 C17 1.65 17 3.3 17 5 C28.22 5 39.44 5 51 5 C51 6.98 51 8.96 51 11 C52.98 11 54.96 11 57 11 C57 14.96 57 18.92 57 23 C55.02 23 53.04 23 51 23 C51 24.65 51 26.3 51 28 C34.17 28 17.34 28 0 28 C0 26.35 0 24.7 0 23 C-3.96 23 -7.92 23 -12 23 C-12 19.04 -12 15.08 -12 11 C-10.02 11 -8.04 11 -6 11 C-6 9.02 -6 7.04 -6 5 C-4.02 5 -2.04 5 0 5 C0 3.35 0 1.7 0 0 Z " fill="#FCFCFD" transform="translate(255,612)"/>
<path d="M0 0 C7.59 0 15.18 0 23 0 C23 1.98 23 3.96 23 6 C24.98 6 26.96 6 29 6 C29 13.59 29 21.18 29 29 C27.02 29 25.04 29 23 29 C23 30.98 23 32.96 23 35 C15.41 35 7.82 35 0 35 C0 31.04 0 27.08 0 23 C-1.98 23 -3.96 23 -6 23 C-6 19.37 -6 15.74 -6 12 C-4.02 12 -2.04 12 0 12 C0 8.04 0 4.08 0 0 Z " fill="#FCFCFD" transform="translate(266,502)"/>
<path d="M0 0 C3.63 0 7.26 0 11 0 C11 1.98 11 3.96 11 6 C12.98 6 14.96 6 17 6 C17 4.02 17 2.04 17 0 C20.63 0 24.26 0 28 0 C28 1.98 28 3.96 28 6 C29.98 6 31.96 6 34 6 C34 4.02 34 2.04 34 0 C41.59 0 49.18 0 57 0 C57 1.98 57 3.96 57 6 C58.98 6 60.96 6 63 6 C63 7.98 63 9.96 63 12 C59.04 12 55.08 12 51 12 C51 10.02 51 8.04 51 6 C47.37 6 43.74 6 40 6 C40 7.98 40 9.96 40 12 C34.39 12 28.78 12 23 12 C23 13.65 23 15.3 23 17 C17.06 17 11.12 17 5 17 C5 15.35 5 13.7 5 12 C-8.2 12 -21.4 12 -35 12 C-35 10.02 -35 8.04 -35 6 C-23.45 6 -11.9 6 0 6 C0 4.02 0 2.04 0 0 Z " fill="#FCFCFD" transform="translate(456,686)"/>
<path d="M0 0 C7.59 0 15.18 0 23 0 C23 1.98 23 3.96 23 6 C24.65 6 26.3 6 28 6 C28 7.98 28 9.96 28 12 C29.98 12 31.96 12 34 12 C34 15.63 34 19.26 34 23 C18.82 23 3.64 23 -12 23 C-12 19.37 -12 15.74 -12 12 C-10.02 12 -8.04 12 -6 12 C-6 10.02 -6 8.04 -6 6 C-4.02 6 -2.04 6 0 6 C0 4.02 0 2.04 0 0 Z " fill="#FCFCFD" transform="translate(749,502)"/>
<path d="M0 0 C7.59 0 15.18 0 23 0 C23 1.98 23 3.96 23 6 C24.98 6 26.96 6 29 6 C29 7.98 29 9.96 29 12 C30.98 12 32.96 12 35 12 C35 15.63 35 19.26 35 23 C21.47 23 7.94 23 -6 23 C-6 17.39 -6 11.78 -6 6 C-4.02 6 -2.04 6 0 6 C0 4.02 0 2.04 0 0 Z " fill="#FCFCFD" transform="translate(421,502)"/>
<path d="M0 0 C1.98 0 3.96 0 6 0 C6 1.98 6 3.96 6 6 C11.61 6 17.22 6 23 6 C23 7.98 23 9.96 23 12 C24.98 12 26.96 12 29 12 C29 13.65 29 15.3 29 17 C30.65 17 32.3 17 34 17 C34 18.98 34 20.96 34 23 C30.37 23 26.74 23 23 23 C23 24.98 23 26.96 23 29 C19.04 29 15.08 29 11 29 C11 27.02 11 25.04 11 23 C9.35 23 7.7 23 6 23 C6 21.02 6 19.04 6 17 C4.02 17 2.04 17 0 17 C0 11.39 0 5.78 0 0 Z " fill="#9D9BC4" transform="translate(720,106)"/>
<path d="M0 0 C1.98 0 3.96 0 6 0 C6 1.98 6 3.96 6 6 C7.65 6 9.3 6 11 6 C11 4.02 11 2.04 11 0 C14.96 0 18.92 0 23 0 C23 3.63 23 7.26 23 11 C9.8 11 -3.4 11 -17 11 C-17 9.35 -17 7.7 -17 6 C-11.39 6 -5.78 6 0 6 C0 4.02 0 2.04 0 0 Z " fill="#FCFCFD" transform="translate(519,715)"/>
<path d="M0 0 C9.24 0 18.48 0 28 0 C28 1.98 28 3.96 28 6 C22.39 6 16.78 6 11 6 C11 7.98 11 9.96 11 12 C3.41 12 -4.18 12 -12 12 C-12 10.02 -12 8.04 -12 6 C-8.04 6 -4.08 6 0 6 C0 4.02 0 2.04 0 0 Z " fill="#FCFCFD" transform="translate(927,376)"/>
<path d="M0 0 C1.98 0 3.96 0 6 0 C6 7.59 6 15.18 6 23 C7.98 23 9.96 23 12 23 C12 26.63 12 30.26 12 34 C10.02 34 8.04 34 6 34 C6 35.98 6 37.96 6 40 C4.02 40 2.04 40 0 40 C0 26.8 0 13.6 0 0 Z " fill="#FCFCFD" transform="translate(869,313)"/>
<path d="M0 0 C1.98 0 3.96 0 6 0 C6 3.63 6 7.26 6 11 C-3.57 11 -13.14 11 -23 11 C-23 12.98 -23 14.96 -23 17 C-26.96 17 -30.92 17 -35 17 C-35 15.02 -35 13.04 -35 11 C-33.02 11 -31.04 11 -29 11 C-29 9.35 -29 7.7 -29 6 C-19.43 6 -9.86 6 0 6 C0 4.02 0 2.04 0 0 Z " fill="#FCFCFD" transform="translate(588,715)"/>
<path d="M0 0 C1.98 0 3.96 0 6 0 C6 1.98 6 3.96 6 6 C7.65 6 9.3 6 11 6 C11 4.02 11 2.04 11 0 C16.94 0 22.88 0 29 0 C29 1.98 29 3.96 29 6 C25.04 6 21.08 6 17 6 C17 7.98 17 9.96 17 12 C15.02 12 13.04 12 11 12 C11 13.98 11 15.96 11 18 C9.35 18 7.7 18 6 18 C6 16.02 6 14.04 6 12 C4.02 12 2.04 12 0 12 C0 8.04 0 4.08 0 0 Z " fill="#FCFCFD" transform="translate(875,393)"/>
<path d="M0 0 C3.96 0 7.92 0 12 0 C12 1.98 12 3.96 12 6 C13.65 6 15.3 6 17 6 C17 4.02 17 2.04 17 0 C18.98 0 20.96 0 23 0 C23 5.61 23 11.22 23 17 C21.02 17 19.04 17 17 17 C17 15.02 17 13.04 17 11 C13.37 11 9.74 11 6 11 C6 9.35 6 7.7 6 6 C4.02 6 2.04 6 0 6 C0 4.02 0 2.04 0 0 Z " fill="#FCFCFD" transform="translate(1047,405)"/>
<path d="M0 0 C1.98 0 3.96 0 6 0 C6 1.98 6 3.96 6 6 C7.98 6 9.96 6 12 6 C12 9.63 12 13.26 12 17 C13.65 17 15.3 17 17 17 C17 20.96 17 24.92 17 29 C15.35 29 13.7 29 12 29 C12 27.02 12 25.04 12 23 C10.02 23 8.04 23 6 23 C6 19.04 6 15.08 6 11 C4.02 11 2.04 11 0 11 C0 7.37 0 3.74 0 0 Z " fill="#FCFCFD" transform="translate(823,221)"/>
<path d="M0 0 C3.96 0 7.92 0 12 0 C12 1.98 12 3.96 12 6 C15.63 6 19.26 6 23 6 C23 9.63 23 13.26 23 17 C19.37 17 15.74 17 12 17 C12 15.02 12 13.04 12 11 C10.02 11 8.04 11 6 11 C6 9.35 6 7.7 6 6 C4.02 6 2.04 6 0 6 C0 4.02 0 2.04 0 0 Z " fill="#FCFCFD" transform="translate(783,181)"/>
<path d="M0 0 C9.57 0 19.14 0 29 0 C29 1.98 29 3.96 29 6 C19.43 6 9.86 6 0 6 C0 4.02 0 2.04 0 0 Z " fill="#FCFCFD" transform="translate(553,692)"/>
<path d="M0 0 C5.94 0 11.88 0 18 0 C18 1.65 18 3.3 18 5 C16.02 5 14.04 5 12 5 C12 6.98 12 8.96 12 11 C8.04 11 4.08 11 0 11 C0 7.37 0 3.74 0 0 Z " fill="#FCFCFD" transform="translate(461,721)"/>
<path d="M0 0 C1.65 0 3.3 0 5 0 C5 1.98 5 3.96 5 6 C6.98 6 8.96 6 11 6 C11 11.61 11 17.22 11 23 C9.02 23 7.04 23 5 23 C5 19.04 5 15.08 5 11 C3.35 11 1.7 11 0 11 C0 7.37 0 3.74 0 0 Z " fill="#FCFCFD" transform="translate(858,290)"/>
<path d="M0 0 C3.96 0 7.92 0 12 0 C12 1.98 12 3.96 12 6 C10.02 6 8.04 6 6 6 C6 9.63 6 13.26 6 17 C4.02 17 2.04 17 0 17 C0 11.39 0 5.78 0 0 Z " fill="#FCFCFD" transform="translate(1087,629)"/>
<path d="M0 0 C1.98 0 3.96 0 6 0 C6 7.59 6 15.18 6 23 C4.02 23 2.04 23 0 23 C0 15.41 0 7.82 0 0 Z " fill="#FCFCFD" transform="translate(1133,554)"/>
<path d="M0 0 C7.59 0 15.18 0 23 0 C23 1.98 23 3.96 23 6 C15.41 6 7.82 6 0 6 C0 4.02 0 2.04 0 0 Z " fill="#FCFCFD" transform="translate(1013,382)"/>
<path d="M0 0 C7.59 0 15.18 0 23 0 C23 1.98 23 3.96 23 6 C15.41 6 7.82 6 0 6 C0 4.02 0 2.04 0 0 Z " fill="#9D9BC4" transform="translate(674,106)"/>
<path d="M0 0 C7.59 0 15.18 0 23 0 C23 1.98 23 3.96 23 6 C15.41 6 7.82 6 0 6 C0 4.02 0 2.04 0 0 Z " fill="#FCFCFD" transform="translate(473,89)"/>
<path d="M0 0 C3.63 0 7.26 0 11 0 C11 3.63 11 7.26 11 11 C7.37 11 3.74 11 0 11 C0 7.37 0 3.74 0 0 Z " fill="#9D9BC4" transform="translate(703,135)"/>
<path d="M0 0 C5.61 0 11.22 0 17 0 C17 1.98 17 3.96 17 6 C11.39 6 5.78 6 0 6 C0 4.02 0 2.04 0 0 Z " fill="#FCFCFD" transform="translate(1070,422)"/>
<path d="M0 0 C5.61 0 11.22 0 17 0 C17 1.98 17 3.96 17 6 C11.39 6 5.78 6 0 6 C0 4.02 0 2.04 0 0 Z " fill="#FCFCFD" transform="translate(990,376)"/>
<path d="M0 0 C5.61 0 11.22 0 17 0 C17 1.98 17 3.96 17 6 C11.39 6 5.78 6 0 6 C0 4.02 0 2.04 0 0 Z " fill="#9D9BC4" transform="translate(697,100)"/>
<path d="M0 0 C3.96 0 7.92 0 12 0 C12 3.63 12 7.26 12 11 C10.02 11 8.04 11 6 11 C6 9.35 6 7.7 6 6 C4.02 6 2.04 6 0 6 C0 4.02 0 2.04 0 0 Z " fill="#9D9BC4" transform="translate(668,89)"/>
<path d="M0 0 C3.63 0 7.26 0 11 0 C11 3.63 11 7.26 11 11 C9.02 11 7.04 11 5 11 C5 9.02 5 7.04 5 5 C3.35 5 1.7 5 0 5 C0 3.35 0 1.7 0 0 Z " fill="#FCFCFD" transform="translate(904,388)"/>
<path d="M0 0 C3.63 0 7.26 0 11 0 C11 3.63 11 7.26 11 11 C9.35 11 7.7 11 6 11 C6 9.35 6 7.7 6 6 C4.02 6 2.04 6 0 6 C0 4.02 0 2.04 0 0 Z " fill="#9D9BC4" transform="translate(697,112)"/>
<path d="M0 0 C5.61 0 11.22 0 17 0 C17 1.65 17 3.3 17 5 C11.39 5 5.78 5 0 5 C0 3.35 0 1.7 0 0 Z " fill="#9D9BC4" transform="translate(622,95)"/>
<path d="M0 0 C3.96 0 7.92 0 12 0 C12 1.98 12 3.96 12 6 C8.04 6 4.08 6 0 6 C0 4.02 0 2.04 0 0 Z " fill="#FCFCFD" transform="translate(421,726)"/>
<path d="M0 0 C3.96 0 7.92 0 12 0 C12 1.98 12 3.96 12 6 C8.04 6 4.08 6 0 6 C0 4.02 0 2.04 0 0 Z " fill="#FCFCFD" transform="translate(955,715)"/>
<path d="M0 0 C1.98 0 3.96 0 6 0 C6 3.96 6 7.92 6 12 C4.02 12 2.04 12 0 12 C0 8.04 0 4.08 0 0 Z " fill="#FCFCFD" transform="translate(1013,703)"/>
<path d="M0 0 C3.96 0 7.92 0 12 0 C12 1.98 12 3.96 12 6 C8.04 6 4.08 6 0 6 C0 4.02 0 2.04 0 0 Z " fill="#FCFCFD" transform="translate(157,686)"/>
<path d="M0 0 C3.96 0 7.92 0 12 0 C12 1.98 12 3.96 12 6 C8.04 6 4.08 6 0 6 C0 4.02 0 2.04 0 0 Z " fill="#FCFCFD" transform="translate(961,370)"/>
<path d="M0 0 C1.98 0 3.96 0 6 0 C6 3.96 6 7.92 6 12 C4.02 12 2.04 12 0 12 C0 8.04 0 4.08 0 0 Z " fill="#FCFCFD" transform="translate(875,370)"/>
<path d="M0 0 C1.98 0 3.96 0 6 0 C6 3.96 6 7.92 6 12 C4.02 12 2.04 12 0 12 C0 8.04 0 4.08 0 0 Z " fill="#FCFCFD" transform="translate(886,330)"/>
<path d="M0 0 C1.98 0 3.96 0 6 0 C6 3.96 6 7.92 6 12 C4.02 12 2.04 12 0 12 C0 8.04 0 4.08 0 0 Z " fill="#FCFCFD" transform="translate(806,198)"/>
<path d="M0 0 C3.96 0 7.92 0 12 0 C12 1.98 12 3.96 12 6 C8.04 6 4.08 6 0 6 C0 4.02 0 2.04 0 0 Z " fill="#9D9BC4" transform="translate(582,54)"/>
<path d="M0 0 C1.98 0 3.96 0 6 0 C6 3.63 6 7.26 6 11 C4.02 11 2.04 11 0 11 C0 7.37 0 3.74 0 0 Z " fill="#FCFCFD" transform="translate(1122,560)"/>
<path d="M0 0 C1.98 0 3.96 0 6 0 C6 3.63 6 7.26 6 11 C4.02 11 2.04 11 0 11 C0 7.37 0 3.74 0 0 Z " fill="#9D9BC4" transform="translate(59,474)"/>
<path d="M0 0 C1.65 0 3.3 0 5 0 C5 3.96 5 7.92 5 12 C3.35 12 1.7 12 0 12 C0 8.04 0 4.08 0 0 Z " fill="#FCFCFD" transform="translate(772,680)"/>
<path d="M0 0 C1.65 0 3.3 0 5 0 C5 3.63 5 7.26 5 11 C3.35 11 1.7 11 0 11 C0 7.37 0 3.74 0 0 Z " fill="#FCFCFD" transform="translate(100,606)"/>
<path d="M0 0 C1.65 0 3.3 0 5 0 C5 3.63 5 7.26 5 11 C3.35 11 1.7 11 0 11 C0 7.37 0 3.74 0 0 Z " fill="#FCFCFD" transform="translate(881,313)"/>
<path d="M0 0 C1.98 0 3.96 0 6 0 C6 1.98 6 3.96 6 6 C4.02 6 2.04 6 0 6 C0 4.02 0 2.04 0 0 Z " fill="#FCFCFD" transform="translate(364,726)"/>
<path d="M0 0 C1.98 0 3.96 0 6 0 C6 1.98 6 3.96 6 6 C4.02 6 2.04 6 0 6 C0 4.02 0 2.04 0 0 Z " fill="#FCFCFD" transform="translate(295,726)"/>
<path d="M0 0 C1.98 0 3.96 0 6 0 C6 1.98 6 3.96 6 6 C4.02 6 2.04 6 0 6 C0 4.02 0 2.04 0 0 Z " fill="#FCFCFD" transform="translate(863,715)"/>
<path d="M0 0 C1.98 0 3.96 0 6 0 C6 1.98 6 3.96 6 6 C4.02 6 2.04 6 0 6 C0 4.02 0 2.04 0 0 Z " fill="#9D9BC4" transform="translate(157,703)"/>
<path d="M0 0 C1.98 0 3.96 0 6 0 C6 1.98 6 3.96 6 6 C4.02 6 2.04 6 0 6 C0 4.02 0 2.04 0 0 Z " fill="#FCFCFD" transform="translate(1041,692)"/>
<path d="M0 0 C1.98 0 3.96 0 6 0 C6 1.98 6 3.96 6 6 C4.02 6 2.04 6 0 6 C0 4.02 0 2.04 0 0 Z " fill="#FCFCFD" transform="translate(1053,686)"/>
<path d="M0 0 C1.98 0 3.96 0 6 0 C6 1.98 6 3.96 6 6 C4.02 6 2.04 6 0 6 C0 4.02 0 2.04 0 0 Z " fill="#FCFCFD" transform="translate(898,686)"/>
<path d="M0 0 C1.98 0 3.96 0 6 0 C6 1.98 6 3.96 6 6 C4.02 6 2.04 6 0 6 C0 4.02 0 2.04 0 0 Z " fill="#FCFCFD" transform="translate(140,669)"/>
<path d="M0 0 C1.98 0 3.96 0 6 0 C6 1.98 6 3.96 6 6 C4.02 6 2.04 6 0 6 C0 4.02 0 2.04 0 0 Z " fill="#FCFCFD" transform="translate(111,629)"/>
<path d="M0 0 C1.98 0 3.96 0 6 0 C6 1.98 6 3.96 6 6 C4.02 6 2.04 6 0 6 C0 4.02 0 2.04 0 0 Z " fill="#FCFCFD" transform="translate(105,617)"/>
<path d="M0 0 C1.98 0 3.96 0 6 0 C6 1.98 6 3.96 6 6 C4.02 6 2.04 6 0 6 C0 4.02 0 2.04 0 0 Z " fill="#FCFCFD" transform="translate(65,514)"/>
<path d="M0 0 C1.98 0 3.96 0 6 0 C6 1.98 6 3.96 6 6 C4.02 6 2.04 6 0 6 C0 4.02 0 2.04 0 0 Z " fill="#9D9BC4" transform="translate(1087,502)"/>
<path d="M0 0 C1.98 0 3.96 0 6 0 C6 1.98 6 3.96 6 6 C4.02 6 2.04 6 0 6 C0 4.02 0 2.04 0 0 Z " fill="#FCFCFD" transform="translate(71,502)"/>
<path d="M0 0 C1.98 0 3.96 0 6 0 C6 1.98 6 3.96 6 6 C4.02 6 2.04 6 0 6 C0 4.02 0 2.04 0 0 Z " fill="#FCFCFD" transform="translate(1041,399)"/>
<path d="M0 0 C1.98 0 3.96 0 6 0 C6 1.98 6 3.96 6 6 C4.02 6 2.04 6 0 6 C0 4.02 0 2.04 0 0 Z " fill="#FCFCFD" transform="translate(892,370)"/>
<path d="M0 0 C1.98 0 3.96 0 6 0 C6 1.98 6 3.96 6 6 C4.02 6 2.04 6 0 6 C0 4.02 0 2.04 0 0 Z " fill="#FCFCFD" transform="translate(875,353)"/>
<path d="M0 0 C1.98 0 3.96 0 6 0 C6 1.98 6 3.96 6 6 C4.02 6 2.04 6 0 6 C0 4.02 0 2.04 0 0 Z " fill="#FCFCFD" transform="translate(266,261)"/>
<path d="M0 0 C1.98 0 3.96 0 6 0 C6 1.98 6 3.96 6 6 C4.02 6 2.04 6 0 6 C0 4.02 0 2.04 0 0 Z " fill="#FCFCFD" transform="translate(846,255)"/>
<path d="M0 0 C1.98 0 3.96 0 6 0 C6 1.98 6 3.96 6 6 C4.02 6 2.04 6 0 6 C0 4.02 0 2.04 0 0 Z " fill="#9D9BC4" transform="translate(352,169)"/>
<path d="M0 0 C1.98 0 3.96 0 6 0 C6 1.98 6 3.96 6 6 C4.02 6 2.04 6 0 6 C0 4.02 0 2.04 0 0 Z " fill="#FCFCFD" transform="translate(398,146)"/>
<path d="M0 0 C1.98 0 3.96 0 6 0 C6 1.98 6 3.96 6 6 C4.02 6 2.04 6 0 6 C0 4.02 0 2.04 0 0 Z " fill="#FCFCFD" transform="translate(404,135)"/>
<path d="M0 0 C1.98 0 3.96 0 6 0 C6 1.98 6 3.96 6 6 C4.02 6 2.04 6 0 6 C0 4.02 0 2.04 0 0 Z " fill="#9D9BC4" transform="translate(754,129)"/>
<path d="M0 0 C1.98 0 3.96 0 6 0 C6 1.98 6 3.96 6 6 C4.02 6 2.04 6 0 6 C0 4.02 0 2.04 0 0 Z " fill="#FCFCFD" transform="translate(737,123)"/>
<path d="M0 0 C1.98 0 3.96 0 6 0 C6 1.98 6 3.96 6 6 C4.02 6 2.04 6 0 6 C0 4.02 0 2.04 0 0 Z " fill="#FCFCFD" transform="translate(490,112)"/>
<path d="M0 0 C1.98 0 3.96 0 6 0 C6 1.98 6 3.96 6 6 C4.02 6 2.04 6 0 6 C0 4.02 0 2.04 0 0 Z " fill="#9D9BC4" transform="translate(427,112)"/>
<path d="M0 0 C1.98 0 3.96 0 6 0 C6 1.98 6 3.96 6 6 C4.02 6 2.04 6 0 6 C0 4.02 0 2.04 0 0 Z " fill="#9D9BC4" transform="translate(668,100)"/>
<path d="M0 0 C1.98 0 3.96 0 6 0 C6 1.98 6 3.96 6 6 C4.02 6 2.04 6 0 6 C0 4.02 0 2.04 0 0 Z " fill="#9D9BC4" transform="translate(651,100)"/>
<path d="M0 0 C1.98 0 3.96 0 6 0 C6 1.98 6 3.96 6 6 C4.02 6 2.04 6 0 6 C0 4.02 0 2.04 0 0 Z " fill="#9D9BC4" transform="translate(507,100)"/>
<path d="M0 0 C1.98 0 3.96 0 6 0 C6 1.98 6 3.96 6 6 C4.02 6 2.04 6 0 6 C0 4.02 0 2.04 0 0 Z " fill="#9D9BC4" transform="translate(645,83)"/>
<path d="M0 0 C1.98 0 3.96 0 6 0 C6 1.98 6 3.96 6 6 C4.02 6 2.04 6 0 6 C0 4.02 0 2.04 0 0 Z " fill="#9D9BC4" transform="translate(513,83)"/>
<path d="M0 0 C1.98 0 3.96 0 6 0 C6 1.98 6 3.96 6 6 C4.02 6 2.04 6 0 6 C0 4.02 0 2.04 0 0 Z " fill="#9D9BC4" transform="translate(565,54)"/>
<path d="M0 0 C1.65 0 3.3 0 5 0 C5 1.98 5 3.96 5 6 C3.35 6 1.7 6 0 6 C0 4.02 0 2.04 0 0 Z " fill="#FCFCFD" transform="translate(393,726)"/>
<path d="M0 0 C1.98 0 3.96 0 6 0 C6 1.65 6 3.3 6 5 C4.02 5 2.04 5 0 5 C0 3.35 0 1.7 0 0 Z " fill="#FCFCFD" transform="translate(444,721)"/>
<path d="M0 0 C1.65 0 3.3 0 5 0 C5 1.98 5 3.96 5 6 C3.35 6 1.7 6 0 6 C0 4.02 0 2.04 0 0 Z " fill="#FCFCFD" transform="translate(996,709)"/>
<path d="M0 0 C1.65 0 3.3 0 5 0 C5 1.98 5 3.96 5 6 C3.35 6 1.7 6 0 6 C0 4.02 0 2.04 0 0 Z " fill="#FCFCFD" transform="translate(209,709)"/>
<path d="M0 0 C1.65 0 3.3 0 5 0 C5 1.98 5 3.96 5 6 C3.35 6 1.7 6 0 6 C0 4.02 0 2.04 0 0 Z " fill="#9D9BC4" transform="translate(169,709)"/>
<path d="M0 0 C1.98 0 3.96 0 6 0 C6 1.65 6 3.3 6 5 C4.02 5 2.04 5 0 5 C0 3.35 0 1.7 0 0 Z " fill="#FCFCFD" transform="translate(180,698)"/>
<path d="M0 0 C1.65 0 3.3 0 5 0 C5 1.98 5 3.96 5 6 C3.35 6 1.7 6 0 6 C0 4.02 0 2.04 0 0 Z " fill="#FCFCFD" transform="translate(726,686)"/>
<path d="M0 0 C1.65 0 3.3 0 5 0 C5 1.98 5 3.96 5 6 C3.35 6 1.7 6 0 6 C0 4.02 0 2.04 0 0 Z " fill="#FCFCFD" transform="translate(548,686)"/>
<path d="M0 0 C1.65 0 3.3 0 5 0 C5 1.98 5 3.96 5 6 C3.35 6 1.7 6 0 6 C0 4.02 0 2.04 0 0 Z " fill="#FCFCFD" transform="translate(1059,680)"/>
<path d="M0 0 C1.98 0 3.96 0 6 0 C6 1.65 6 3.3 6 5 C4.02 5 2.04 5 0 5 C0 3.35 0 1.7 0 0 Z " fill="#FCFCFD" transform="translate(1070,675)"/>
<path d="M0 0 C1.98 0 3.96 0 6 0 C6 1.65 6 3.3 6 5 C4.02 5 2.04 5 0 5 C0 3.35 0 1.7 0 0 Z " fill="#FCFCFD" transform="translate(1013,675)"/>
<path d="M0 0 C1.98 0 3.96 0 6 0 C6 1.65 6 3.3 6 5 C4.02 5 2.04 5 0 5 C0 3.35 0 1.7 0 0 Z " fill="#FCFCFD" transform="translate(266,675)"/>
<path d="M0 0 C1.98 0 3.96 0 6 0 C6 1.65 6 3.3 6 5 C4.02 5 2.04 5 0 5 C0 3.35 0 1.7 0 0 Z " fill="#FCFCFD" transform="translate(249,675)"/>
<path d="M0 0 C1.65 0 3.3 0 5 0 C5 1.98 5 3.96 5 6 C3.35 6 1.7 6 0 6 C0 4.02 0 2.04 0 0 Z " fill="#FCFCFD" transform="translate(1082,646)"/>
<path d="M0 0 C1.65 0 3.3 0 5 0 C5 1.98 5 3.96 5 6 C3.35 6 1.7 6 0 6 C0 4.02 0 2.04 0 0 Z " fill="#FCFCFD" transform="translate(77,508)"/>
<path d="M0 0 C1.98 0 3.96 0 6 0 C6 1.65 6 3.3 6 5 C4.02 5 2.04 5 0 5 C0 3.35 0 1.7 0 0 Z " fill="#FCFCFD" transform="translate(840,250)"/>
<path d="M0 0 C1.65 0 3.3 0 5 0 C5 1.98 5 3.96 5 6 C3.35 6 1.7 6 0 6 C0 4.02 0 2.04 0 0 Z " fill="#FCFCFD" transform="translate(410,129)"/>
<path d="M0 0 C1.98 0 3.96 0 6 0 C6 1.65 6 3.3 6 5 C4.02 5 2.04 5 0 5 C0 3.35 0 1.7 0 0 Z " fill="#9D9BC4" transform="translate(691,95)"/>
<path d="M0 0 C1.65 0 3.3 0 5 0 C5 1.65 5 3.3 5 5 C3.35 5 1.7 5 0 5 C0 3.35 0 1.7 0 0 Z " fill="#FCFCFD" transform="translate(1036,698)"/>
<path d="M0 0 C1.65 0 3.3 0 5 0 C5 1.65 5 3.3 5 5 C3.35 5 1.7 5 0 5 C0 3.35 0 1.7 0 0 Z " fill="#FCFCFD" transform="translate(1105,612)"/>
<path d="M0 0 C1.65 0 3.3 0 5 0 C5 1.65 5 3.3 5 5 C3.35 5 1.7 5 0 5 C0 3.35 0 1.7 0 0 Z " fill="#FCFCFD" transform="translate(146,612)"/>
<path d="M0 0 C1.65 0 3.3 0 5 0 C5 1.65 5 3.3 5 5 C3.35 5 1.7 5 0 5 C0 3.35 0 1.7 0 0 Z " fill="#FCFCFD" transform="translate(77,543)"/>
<path d="M0 0 C1.65 0 3.3 0 5 0 C5 1.65 5 3.3 5 5 C3.35 5 1.7 5 0 5 C0 3.35 0 1.7 0 0 Z " fill="#FCFCFD" transform="translate(818,210)"/>
<path d="M0 0 C1.65 0 3.3 0 5 0 C5 1.65 5 3.3 5 5 C3.35 5 1.7 5 0 5 C0 3.35 0 1.7 0 0 Z " fill="#9D9BC4" transform="translate(749,141)"/>
<path d="M0 0 C1.65 0 3.3 0 5 0 C5 1.65 5 3.3 5 5 C3.35 5 1.7 5 0 5 C0 3.35 0 1.7 0 0 Z " fill="#FCFCFD" transform="translate(726,118)"/>
</svg>
